<svg xmlns="http://www.w3.org/2000/svg" width="56" height="56" viewBox="0 0 56 56">
  <g id="Group_21490" data-name="Group 21490" transform="translate(-464 -3606)">
    <circle id="Ellipse_2251" data-name="Ellipse 2251" cx="28" cy="28" r="28" transform="translate(464 3606)" fill="rgba(2,200,115,0.17)"/>
    <g id="Group_12377" data-name="Group 12377" transform="translate(478 3623)">
      <path id="Path_42245" data-name="Path 42245" d="M30.643,7.659a.4.4,0,0,0,.164-.76L15.609.16a1.835,1.835,0,0,0-2.427.931L7.86,13.023a1.835,1.835,0,0,0,.931,2.427l3.065,1.326a.584.584,0,0,0,.821-.529V11.181a3.517,3.517,0,0,1,3.515-3.515h14.45Z" transform="translate(-7.7 0)" fill="#02c873"/>
      <path id="Path_42246" data-name="Path 42246" d="M136.931,153.136H118.5A1.861,1.861,0,0,0,116.636,155v13.021a1.861,1.861,0,0,0,1.861,1.861h2.475a6.759,6.759,0,0,1-.091-1.113,7.042,7.042,0,0,1,.116-1.247H119v-6.234h17.43v6.228h-2a7.043,7.043,0,0,1,.116,1.247,6.758,6.758,0,0,1-.091,1.113h2.475a1.861,1.861,0,0,0,1.861-1.861V155A1.861,1.861,0,0,0,136.931,153.136Zm-.5,4.312H119V155.5h17.43Z" transform="translate(-110.011 -143.823)" fill="#02c873"/>
      <path id="Path_42247" data-name="Path 42247" d="M225.016,331.436a4.78,4.78,0,1,0,4.78,4.78A4.781,4.781,0,0,0,225.016,331.436Zm1.374,6.666a1.513,1.513,0,0,1-.8.511.223.223,0,0,0-.195.255c.006.14,0,.28,0,.426a.172.172,0,0,1-.189.195q-.228.009-.456,0c-.134,0-.195-.079-.195-.207v-.31c0-.225-.012-.237-.231-.274a2.868,2.868,0,0,1-.809-.231c-.2-.1-.225-.146-.164-.359.043-.158.085-.316.134-.468.055-.182.1-.2.274-.116a2.608,2.608,0,0,0,.9.268,1.093,1.093,0,0,0,.59-.079.456.456,0,0,0,.109-.8,1.233,1.233,0,0,0-.334-.195,6.933,6.933,0,0,1-.918-.414,1.292,1.292,0,0,1-.736-1.247,1.369,1.369,0,0,1,1-1.271c.243-.091.249-.085.249-.341v-.262c.006-.195.036-.225.231-.231h.176c.414,0,.414,0,.414.414,0,.292,0,.292.292.335a2.651,2.651,0,0,1,.639.189.184.184,0,0,1,.122.249c-.049.176-.1.359-.158.529s-.109.189-.268.116a2.008,2.008,0,0,0-1.01-.2.808.808,0,0,0-.268.055.384.384,0,0,0-.1.681,1.943,1.943,0,0,0,.438.249,6.787,6.787,0,0,1,.8.365A1.431,1.431,0,0,1,226.391,338.1Z" transform="translate(-207.31 -311.279)" fill="#02c873"/>
    </g>
  </g>
</svg>
