<svg xmlns="http://www.w3.org/2000/svg" width="65.729" height="58.016" viewBox="0 0 65.729 58.016">
  <g id="Group_21488" data-name="Group 21488" transform="translate(-770.914 -456.244)">
    <g id="Group_20874" data-name="Group 20874" transform="translate(770.914 462.754)">
      <path id="Path_39203" data-name="Path 39203" d="M436.8,159.677c-2.36-3.029-6-5.331-9.829-5.1-6.883.418-11.139,8.273-17.844,9.886-3.4.818-6.958-.1-10.3-1.132a49.117,49.117,0,0,0-6.458-1.734h0a15.34,15.34,0,0,0-3.783-.19c-.134.011-.263.027-.39.046a12.535,12.535,0,0,0-7.4,3.05,11.463,11.463,0,0,0-2.013,2.2h0a17.246,17.246,0,0,0-1.817,3.325,26.005,26.005,0,0,0,21.948,35.952c7.783.615,15.456-2.3,22.2-6.246,7.027-4.11,13.549-9.606,17.1-16.932S441.8,166.1,436.8,159.677Z" transform="translate(-375 -154.563)" fill="rgba(88,216,196,0.18)"/>
    </g>
    <g id="money_7_" data-name="money (7)" transform="translate(776.692 456.244)">
      <path id="Path_50460" data-name="Path 50460" d="M48.711,148.344a1.651,1.651,0,0,0-1.651-1.651h-.866a13.981,13.981,0,0,0-11.488-12.987l-.293,1.625a12.384,12.384,0,0,1,2.43,23.663.826.826,0,0,0-.515.768V163.2H31.373v-2.477a.826.826,0,0,0-.826-.826H18.989a.826.826,0,0,0-.826.826V163.2H13.21v-3.443a.826.826,0,0,0-.515-.766,12.377,12.377,0,0,1-7.114-7.608.825.825,0,0,0-.784-.568H1.651v-6.6H4.789a.826.826,0,0,0,.784-.566,12.4,12.4,0,0,1,7.122-7.607.826.826,0,0,0,.515-.768l-.017-5.03a4.978,4.978,0,0,1,4.088,4.181.825.825,0,0,0,.817.709h3.369v-1.651H18.775a6.553,6.553,0,0,0-5.317-4.871,1.612,1.612,0,0,0-1.311.365,1.669,1.669,0,0,0-.588,1.278v4.476a14.039,14.039,0,0,0-7.353,7.834H1.651A1.651,1.651,0,0,0,0,144.216v6.6a1.651,1.651,0,0,0,1.651,1.651H4.211a14.015,14.015,0,0,0,7.348,7.833v2.9a1.651,1.651,0,0,0,1.651,1.651h4.954a1.651,1.651,0,0,0,1.651-1.651v-1.651h9.907V163.2a1.651,1.651,0,0,0,1.651,1.651h4.954a1.651,1.651,0,0,0,1.651-1.651v-2.9A13.978,13.978,0,0,0,46.2,148.344h.855v1.651a1.651,1.651,0,0,0,1.651,1.651h.826v-1.651h-.826Zm0,0" transform="translate(0 -115.32)" fill="#58d8c4"/>
      <path id="Path_50461" data-name="Path 50461" d="M91.3,241.651A1.651,1.651,0,0,1,89.651,240H88a3.3,3.3,0,0,0,6.6,0H92.954A1.651,1.651,0,0,1,91.3,241.651Zm0,0" transform="translate(-78.918 -215.232)" fill="#58d8c4"/>
      <path id="Path_50462" data-name="Path 50462" d="M224,216h9.907v1.651H224Zm0,0" transform="translate(-200.883 -193.709)" fill="#58d8c4"/>
      <path id="Path_50463" data-name="Path 50463" d="M89.651,24.256H91.3V23.43a1.651,1.651,0,0,0,1.651-1.651v-.826A1.651,1.651,0,0,0,91.3,19.3H89.651v-.826h3.3V16.826H91.3V16H89.651v.826A1.651,1.651,0,0,0,88,18.477V19.3a1.651,1.651,0,0,0,1.651,1.651H91.3v.826H88V23.43h1.651Zm0,0" transform="translate(-78.918 -14.349)" fill="#58d8c4"/>
      <path id="Path_50464" data-name="Path 50464" d="M436.954,90.477V88.826H435.3V88h-1.651v.826A1.651,1.651,0,0,0,432,90.477V91.3a1.651,1.651,0,0,0,1.651,1.651H435.3v.826H432V95.43h1.651v.826H435.3V95.43a1.651,1.651,0,0,0,1.651-1.651v-.826A1.651,1.651,0,0,0,435.3,91.3h-1.651v-.826Zm0,0" transform="translate(-387.418 -78.918)" fill="#58d8c4"/>
      <path id="Path_50465" data-name="Path 50465" d="M249.651,8.256H251.3V7.43a1.651,1.651,0,0,0,1.651-1.651V4.954A1.651,1.651,0,0,0,251.3,3.3h-1.651V2.477h3.3V.826H251.3V0h-1.651V.826A1.651,1.651,0,0,0,248,2.477V3.3a1.651,1.651,0,0,0,1.651,1.651H251.3v.826H248V7.43h1.651Zm0,0" transform="translate(-222.406)" fill="#58d8c4"/>
      <path id="Path_50466" data-name="Path 50466" d="M264,192h1.651v1.651H264Zm0,0" transform="translate(-236.755 -172.186)" fill="#58d8c4"/>
      <path id="Path_50467" data-name="Path 50467" d="M264,160h1.651v1.651H264Zm0,0" transform="translate(-236.755 -143.488)" fill="#58d8c4"/>
      <path id="Path_50468" data-name="Path 50468" d="M264,128h1.651v1.651H264Zm0,0" transform="translate(-236.755 -114.791)" fill="#58d8c4"/>
      <path id="Path_50469" data-name="Path 50469" d="M264,96h1.651v1.651H264Zm0,0" transform="translate(-236.755 -86.093)" fill="#58d8c4"/>
      <path id="Path_50470" data-name="Path 50470" d="M403.007,121.651V120c-.506,0-1.009.022-1.5.066l.15,1.644C402.1,121.671,402.55,121.651,403.007,121.651Zm0,0" transform="translate(-360.076 -107.616)" fill="#58d8c4"/>
      <path id="Path_50471" data-name="Path 50471" d="M315.928,155.812l-1.148-1.187a12.732,12.732,0,0,0-1.179,1.313l1.3,1.015A10.964,10.964,0,0,1,315.928,155.812Zm0,0" transform="translate(-281.237 -138.668)" fill="#58d8c4"/>
      <path id="Path_50472" data-name="Path 50472" d="M340.414,136.088l-.766-1.463a12.3,12.3,0,0,0-1.5.93l.967,1.338A10.585,10.585,0,0,1,340.414,136.088Zm0,0" transform="translate(-303.248 -120.732)" fill="#58d8c4"/>
      <path id="Path_50473" data-name="Path 50473" d="M370.439,124.811,370.1,123.2a13.383,13.383,0,0,0-1.692.476l.552,1.555a11.563,11.563,0,0,1,1.481-.419Zm0,0" transform="translate(-330.386 -110.485)" fill="#58d8c4"/>
      <path id="Path_50474" data-name="Path 50474" d="M298.618,182.369l-1.428-.826a9.774,9.774,0,0,0-.784,1.651l1.569.524A8.393,8.393,0,0,1,298.618,182.369Zm0,0" transform="translate(-265.817 -162.808)" fill="#58d8c4"/>
      <path id="Path_50475" data-name="Path 50475" d="M231.418,191.873h1.651a7.262,7.262,0,0,0-.083-.935l-1.635.23A5.817,5.817,0,0,1,231.418,191.873Zm0,0" transform="translate(-207.476 -171.233)" fill="#58d8c4"/>
      <path id="Path_50476" data-name="Path 50476" d="M223.106,159.291l1.581-.475a13.489,13.489,0,0,0-.641-1.7l-1.5.683A11.8,11.8,0,0,1,223.106,159.291Zm0,0" transform="translate(-199.576 -140.899)" fill="#58d8c4"/>
      <path id="Path_50477" data-name="Path 50477" d="M207.112,129.678l1.4-.877a14.352,14.352,0,0,0-1.055-1.473l-1.28,1.044A12.752,12.752,0,0,1,207.112,129.678Zm0,0" transform="translate(-184.898 -114.188)" fill="#58d8c4"/>
      <path id="Path_50478" data-name="Path 50478" d="M186.123,104.3a15.8,15.8,0,0,0-1.365-1.172l-1,1.311a14.336,14.336,0,0,1,1.225,1.051Zm0,0" transform="translate(-164.791 -92.486)" fill="#58d8c4"/>
      <path id="Path_50479" data-name="Path 50479" d="M165.681,89.442c-.24-.146-.488-.292-.743-.434l-.8,1.443q.351.2.681.4Zm0,0" transform="translate(-147.198 -79.822)" fill="#58d8c4"/>
    </g>
  </g>
</svg>
