<svg xmlns="http://www.w3.org/2000/svg" width="61.705" height="48.354" viewBox="0 0 61.705 48.354">
  <g id="Group_21488" data-name="Group 21488" transform="translate(-396.925 -465.906)">
    <g id="Group_10309" data-name="Group 10309" transform="translate(396.925 465.906)">
      <path id="Path_39203" data-name="Path 39203" d="M433.014,159.364c-2.216-2.844-5.628-5-9.227-4.786-6.462.392-10.457,7.767-16.751,9.281-3.192.768-6.532-.09-9.668-1.063a46.113,46.113,0,0,0-6.063-1.628h0a14.4,14.4,0,0,0-3.551-.178c-.125.01-.247.026-.366.043a11.768,11.768,0,0,0-6.949,2.863,10.761,10.761,0,0,0-1.89,2.069h0a16.191,16.191,0,0,0-1.706,3.122,24.414,24.414,0,0,0,20.6,33.752c7.307.577,14.51-2.163,20.837-5.863,6.6-3.858,12.719-9.018,16.053-15.9S437.711,165.392,433.014,159.364Z" transform="translate(-375 -154.563)" fill="#fbebee"/>
    </g>
    <g id="money_6_" data-name="money (6)" transform="translate(402.342 469.943)">
      <g id="Group_20868" data-name="Group 20868" transform="translate(5.851 38.893)">
        <g id="Group_20867" data-name="Group 20867">
          <path id="Path_50456" data-name="Path 50456" d="M69.472,452.253a.86.86,0,1,0,.252.608A.866.866,0,0,0,69.472,452.253Z" transform="translate(-68.003 -452.001)" fill="#f4566f"/>
        </g>
      </g>
      <g id="Group_20870" data-name="Group 20870" transform="translate(38.931 15.489)">
        <g id="Group_20869" data-name="Group 20869">
          <path id="Path_50457" data-name="Path 50457" d="M453.923,180.26a.858.858,0,1,0,.253.608A.865.865,0,0,0,453.923,180.26Z" transform="translate(-452.454 -180.008)" fill="#f4566f"/>
        </g>
      </g>
      <g id="Group_20872" data-name="Group 20872" transform="translate(0)">
        <g id="Group_20871" data-name="Group 20871" transform="translate(0)">
          <path id="Path_50458" data-name="Path 50458" d="M43.809.252A.861.861,0,0,0,43.2,0H22.034a.86.86,0,0,0-.86.86V3.322L13.017,5.508a.86.86,0,0,0-.608,1.054l4.227,15.776-3.657,3.657a2.58,2.58,0,0,0-2.131-1.127H2.588A2.584,2.584,0,0,0,.007,27.449V41.474a2.584,2.584,0,0,0,2.581,2.581h8.26a2.586,2.586,0,0,0,2.505-1.96l1.023.892a4.335,4.335,0,0,0,2.85,1.068H43.2a.861.861,0,0,0,.86-.86V.86A.861.861,0,0,0,43.809.252Zm-32.1,41.222a.861.861,0,0,1-.86.86H2.588a.861.861,0,0,1-.86-.86V27.449a.861.861,0,0,1,.86-.86h3.27V36.5a.86.86,0,1,0,1.721,0V26.589h3.27a.861.861,0,0,1,.86.86V41.474ZM14.294,6.947,21.173,5.1V8.292l-.577.155A.86.86,0,0,0,19.988,9.5a2.319,2.319,0,0,1-1.638,2.838.861.861,0,0,0-.608,1.056L21.1,25.813H19.369l-.89-3.482a.859.859,0,0,0-.144-.3Zm6.88,5.291V19.5L19.6,13.688A4.031,4.031,0,0,0,21.173,12.238Zm12.362,30.1H17.226a2.615,2.615,0,0,1-1.719-.644L13.43,39.878v-11.9l3.757-3.757.681,2.666a.86.86,0,0,0,.834.647H35.618a1.2,1.2,0,0,1,0,2.409H26.95a.86.86,0,0,0,0,1.721H38.311a1.2,1.2,0,0,1,0,2.409H26.95a.86.86,0,0,0,0,1.721h9.52a1.2,1.2,0,0,1,0,2.409H26.95a.86.86,0,0,0,0,1.721h6.585a1.2,1.2,0,1,1,0,2.409Zm8.805,0H36.2a2.915,2.915,0,0,0,0-2.409h.27a2.924,2.924,0,0,0,2.615-4.235,2.923,2.923,0,0,0,1.574-4.564V20.221a.86.86,0,1,0-1.721,0v9.791a2.926,2.926,0,0,0-.627-.068h-.028a2.924,2.924,0,0,0-2.665-4.13H34.235a4.118,4.118,0,1,0-3.235,0H26.3V9.453a4.05,4.05,0,0,0,3.085-3.085h6.472a4.05,4.05,0,0,0,3.085,3.085v2.675a.86.86,0,1,0,1.721,0V8.685a.861.861,0,0,0-.86-.86,2.319,2.319,0,0,1-2.317-2.317.861.861,0,0,0-.86-.86H28.613a.861.861,0,0,0-.86.86,2.319,2.319,0,0,1-2.317,2.317.861.861,0,0,0-.86.86V25.814H22.894V1.722H42.34Zm-9.723-17.91a2.4,2.4,0,1,1,2.4-2.4A2.4,2.4,0,0,1,32.617,24.425Z" transform="translate(-0.007)" fill="#f4566f"/>
        </g>
      </g>
    </g>
  </g>
</svg>
