<svg xmlns="http://www.w3.org/2000/svg" width="60.549" height="47.447" viewBox="0 0 60.549 47.447">
  <g id="Group_11544" data-name="Group 11544" transform="translate(-494.367 -212.025)">
    <g id="Group_11160" data-name="Group 11160" transform="translate(494.367 212.025)">
      <path id="Path_39203" data-name="Path 39203" d="M431.927,159.274c-2.174-2.791-5.523-4.911-9.054-4.7-6.341.385-10.261,7.621-16.437,9.107-3.132.753-6.41-.089-9.487-1.043a45.247,45.247,0,0,0-5.949-1.6h0a14.129,14.129,0,0,0-3.485-.175c-.123.01-.242.025-.359.042a11.547,11.547,0,0,0-6.819,2.81,10.558,10.558,0,0,0-1.854,2.031h0a15.89,15.89,0,0,0-1.674,3.063,23.956,23.956,0,0,0,20.218,33.119c7.17.566,14.238-2.122,20.447-5.753,6.473-3.786,12.481-8.849,15.752-15.6S436.536,165.189,431.927,159.274Z" transform="translate(-375 -154.563)" fill="rgba(99,199,219,0.2)"/>
    </g>
    <g id="money_3_" data-name="money (3)" transform="translate(505.766 208.523)">
      <path id="Path_39959" data-name="Path 39959" d="M43.046,184.244H6.856V166.873h36.19Z" transform="translate(-6.236 -144.515)" fill="#63c7db"/>
      <path id="Path_39960" data-name="Path 39960" d="M15.744,72.282l2.091-9.409,32.348,7.279L49.8,72.282" transform="translate(-14.32 -49.925)" fill="#63c7db"/>
      <path id="Path_39961" data-name="Path 39961" d="M59.122,210.454h5.452l3.233-3.154V202.09l-2.941-3.217H42.089l-3.233,3.154v5.211l2.941,3.217H59.122Z" transform="translate(-35.341 -173.62)" fill="rgba(99,199,219,0)"/>
      <path id="Path_39962" data-name="Path 39962" d="M96.384,18.793l2.376-5.672L122.3,22.93l-.518,1.579" transform="translate(-87.664 -4.674)" fill="#63c7db"/>
      <path id="Path_39963" data-name="Path 39963" d="M310.856,406.873v2.9c0,1.2,3.24,2.171,7.238,2.171s7.238-.972,7.238-2.171v-2.9" transform="translate(-282.731 -362.801)" fill="#63c7db"/>
      <circle id="Ellipse_2122" data-name="Ellipse 2122" cx="5.79" cy="5.79" r="5.79" transform="translate(12.201 25.253)" fill="#63c7db"/>
      <path id="Path_39964" data-name="Path 39964" d="M310.856,374.873v2.9c0,1.2,3.24,2.171,7.238,2.171s7.238-.972,7.238-2.171v-2.9" transform="translate(-282.731 -333.696)" fill="#58d8c4"/>
      <path id="Path_39965" data-name="Path 39965" d="M310.856,342.873v2.9c0,1.2,3.24,2.171,7.238,2.171s7.238-.972,7.238-2.171v-2.9" transform="translate(-282.731 -304.592)" fill="#63c7db"/>
      <path id="Path_39966" data-name="Path 39966" d="M310.856,310.873v2.9c0,1.2,3.24,2.171,7.238,2.171s7.238-.972,7.238-2.171v-2.9" transform="translate(-282.731 -275.487)" fill="#58d8c4"/>
      <path id="Path_39967" data-name="Path 39967" d="M310.856,278.873v2.9c0,1.2,3.24,2.171,7.238,2.171s7.238-.972,7.238-2.171v-2.9" transform="translate(-282.731 -246.382)" fill="#58d8c4"/>
      <path id="Path_39968" data-name="Path 39968" d="M310.856,246.873v2.9c0,1.2,3.24,2.171,7.238,2.171s7.238-.972,7.238-2.171v-2.9" transform="translate(-282.731 -217.277)" fill="#58d8c4"/>
      <ellipse id="Ellipse_2123" data-name="Ellipse 2123" cx="7.238" cy="2.171" rx="7.238" ry="2.171" transform="translate(28.125 27.424)" fill="#63c7db"/>
      <path id="Path_39969" data-name="Path 39969" d="M36.81,163.429a.62.62,0,0,0,.62-.619h0v-2.171a.62.62,0,0,0-.619-.62H.62a.62.62,0,0,0-.62.619H0v17.371a.62.62,0,0,0,.619.62H25.23a.62.62,0,1,0,0-1.241H1.241V161.258H36.19v1.551a.62.62,0,0,0,.619.62Z" transform="translate(0 -138.28)"/>
      <path id="Path_39970" data-name="Path 39970" d="M17.731,56.116a.624.624,0,0,0-.274.389L16.01,63.019a.621.621,0,0,0,1.212.269h0l1.312-5.907L46.88,63.759a.59.59,0,0,0,.137.015.62.62,0,0,0,.135-1.225L18.2,56.035a.624.624,0,0,0-.468.081Z" transform="translate(-14.548 -43.691)"/>
      <path id="Path_39971" data-name="Path 39971" d="M105.063,11.779,106.251,9.4l16.835,7.014a.622.622,0,0,0,.479-1.148L106.194,8.03a.622.622,0,0,0-.8.3l-1.448,2.9a.622.622,0,1,0,1.1.592c.006-.012.012-.024.018-.036Z" transform="translate(-94.477 0)"/>
      <path id="Path_39972" data-name="Path 39972" d="M262.985,192.637a.62.62,0,0,0-.62-.62H256.62a.62.62,0,1,0,0,1.241h5.745A.62.62,0,0,0,262.985,192.637Z" transform="translate(-232.838 -167.384)"/>
      <path id="Path_39973" data-name="Path 39973" d="M134.825,205.212a6.369,6.369,0,1,0-6.369-6.369h0A6.376,6.376,0,0,0,134.825,205.212Zm0-11.581a5.211,5.211,0,1,1-5.211,5.211A5.211,5.211,0,0,1,134.825,193.631Z" transform="translate(-116.834 -167.799)"/>
      <path id="Path_39974" data-name="Path 39974" d="M310.818,214.873c-3.836,0-7.962.906-7.962,2.9v17.371c0,1.989,4.126,2.9,7.962,2.9s7.962-.906,7.962-2.9V217.768C318.78,215.779,314.654,214.873,310.818,214.873Zm6.514,17.36c-.109.4-2.28,1.458-6.514,1.458s-6.4-1.057-6.514-1.448v-1.138a19.211,19.211,0,0,0,13.028,0Zm0-2.9c-.109.4-2.28,1.458-6.514,1.458s-6.4-1.057-6.514-1.448v-1.138a19.211,19.211,0,0,0,13.028,0Zm0-2.9c-.109.4-2.28,1.458-6.514,1.458s-6.4-1.057-6.514-1.448v-1.138a19.211,19.211,0,0,0,13.028,0Zm0-2.9c-.109.4-2.28,1.458-6.514,1.458s-6.4-1.057-6.514-1.448v-1.138a19.211,19.211,0,0,0,13.028,0Zm0-2.9c-.109.4-2.28,1.458-6.514,1.458s-6.4-1.057-6.514-1.448v-1.138a19.211,19.211,0,0,0,13.028,0Zm-6.514-4.332c4.2,0,6.369,1.038,6.514,1.448-.145.41-2.316,1.448-6.514,1.448-4.228,0-6.4-1.054-6.514-1.435v0C304.42,217.374,306.59,216.321,310.818,216.321Zm0,20.266c-4.234,0-6.4-1.057-6.514-1.448V234a19.211,19.211,0,0,0,13.028,0v1.128C317.223,235.53,315.052,236.587,310.818,236.587Z" transform="translate(-275.455 -188.172)"/>
      <path id="Path_39975" data-name="Path 39975" d="M36.1,193.258h5.2a.62.62,0,0,0,0-1.241H35.846a.621.621,0,0,0-.434.176l-3.233,3.154a.777.777,0,0,0-.187.507V201a.621.621,0,0,0,.162.418l2.941,3.217a.62.62,0,0,0,.458.2H41.3a.62.62,0,1,0,0-1.241H35.827l-2.594-2.837v-4.7Z" transform="translate(-29.098 -167.384)"/>
      <path id="Path_39976" data-name="Path 39976" d="M177.389,231.216h-1.81a.724.724,0,1,0,0,1.448h.724a.724.724,0,0,0,1.448,0v-.033a1.685,1.685,0,0,0,1.448-1.592,1.728,1.728,0,0,0-1.809-1.632h-.724c-.225,0-.362-.126-.362-.181s.137-.181.362-.181h1.809a.724.724,0,0,0,0-1.448h-.724a.724.724,0,0,0-1.448,0v.033a1.685,1.685,0,0,0-1.448,1.592,1.728,1.728,0,0,0,1.81,1.632h.724c.225,0,.362.126.362.181S177.614,231.216,177.389,231.216Z" transform="translate(-159.036 -199.087)"/>
    </g>
  </g>
</svg>
