<svg xmlns="http://www.w3.org/2000/svg" width="57.26" height="65.134" viewBox="0 0 57.26 65.134">
  <g id="Group_21488" data-name="Group 21488" transform="translate(-1147.148 -449.262)">
    <g id="Group_20876" data-name="Group 20876" transform="translate(1147.148 469.525)">
      <path id="Path_39203" data-name="Path 39203" d="M428.835,159.018c-2.056-2.639-5.223-4.644-8.562-4.441-6,.364-9.7,7.207-15.545,8.612-2.962.712-6.061-.084-8.971-.986a42.788,42.788,0,0,0-5.626-1.51h0a13.363,13.363,0,0,0-3.3-.165c-.116.01-.229.024-.34.04a10.92,10.92,0,0,0-6.449,2.657,9.986,9.986,0,0,0-1.754,1.92h0a15.023,15.023,0,0,0-1.583,2.9,22.655,22.655,0,0,0,19.12,31.32c6.78.535,13.465-2.007,19.336-5.441,6.121-3.58,11.8-8.369,14.9-14.75S433.193,164.612,428.835,159.018Z" transform="translate(-375 -154.563)" fill="rgba(35,195,119,0.18)"/>
    </g>
    <g id="dollar" transform="translate(1156.083 449.262)">
      <path id="Path_50482" data-name="Path 50482" d="M83.917,151.281H79.732A10.935,10.935,0,0,1,70,135.383l7.269-14.235h9.115l7.268,14.235A10.938,10.938,0,0,1,83.917,151.281Z" transform="translate(-62.803 -93.63)" fill="none"/>
      <path id="Path_50488" data-name="Path 50488" d="M108.852,156.611h-2.915a1.451,1.451,0,1,1,.019-2.9h2.789a2.1,2.1,0,0,1,1.743,1,1.167,1.167,0,0,0,1.95-1.281,4.4,4.4,0,0,0-3.684-2.051h-.192V150a1.167,1.167,0,1,0-2.333,0v1.373h-.292a3.785,3.785,0,1,0,0,7.569h2.915a1.451,1.451,0,1,1-.008,2.9h-3.054a2.077,2.077,0,0,1-1.573-.768,1.167,1.167,0,1,0-1.793,1.493,4.41,4.41,0,0,0,3.359,1.607h.447v1.373a1.167,1.167,0,1,0,2.333,0V164.18h.263a3.785,3.785,0,1,0,.028-7.569Z" transform="translate(-88.379 -114.857)" fill="#fff"/>
      <path id="Path_50489" data-name="Path 50489" d="M131.7,197.989a.583.583,0,0,1,0-1.167,7.786,7.786,0,0,0,7.7-8.843.583.583,0,0,1,1.156-.16,8.954,8.954,0,0,1-8.86,10.169Zm7.115-12.091q-.088-.2-.187-.392a.583.583,0,1,1,1.039-.531q.113.222.214.451a.583.583,0,1,1-1.067.472Z" transform="translate(-110.586 -142.321)" fill="#23c377"/>
      <path id="Path_50490" data-name="Path 50490" d="M113.6,111.592h-7.991a.583.583,0,1,1,0-1.167H113.6a.583.583,0,1,1,0,1.167Z" transform="translate(-90.581 -85.409)" fill="#23c377"/>
      <path id="Path_50491" data-name="Path 50491" d="M175.1,131c.413-1.782,1.022-1.983,1.864-2.261a.578.578,0,0,0,0-1.1c-.809-.266-1.441-.439-1.864-2.261a.577.577,0,0,0-1.124,0c-.414,1.782-.991,1.973-1.864,2.261a.577.577,0,0,0,0,1.1c1.451.479,1.615,1.188,1.864,2.261a.577.577,0,0,0,1.124,0Zm-.551-1.841a3,3,0,0,0-.9-.955,2.859,2.859,0,0,0,.894-1.006,2.945,2.945,0,0,0,.863,1A2.855,2.855,0,0,0,174.545,129.162Z" transform="translate(-141.71 -96.536)" fill="#23c377"/>
      <path id="Path_50492" data-name="Path 50492" d="M190.942,156.43a.577.577,0,0,0,1.124,0c.413-1.782,1.022-1.983,1.864-2.261a.578.578,0,0,0,0-1.1c-.809-.266-1.441-.439-1.864-2.261a.577.577,0,0,0-1.124,0c-.414,1.782-.991,1.973-1.864,2.261a.578.578,0,0,0,0,1.1C190.529,154.648,190.693,155.357,190.942,156.43Zm.564-3.8a2.943,2.943,0,0,0,.863,1,2.856,2.856,0,0,0-.854.963,3,3,0,0,0-.9-.955,2.863,2.863,0,0,0,.894-1.005Z" transform="translate(-154.721 -116.03)" fill="#23c377"/>
      <path id="Path_50493" data-name="Path 50493" d="M45.387,139.331c-.414,1.782-.991,1.973-1.864,2.261a.577.577,0,0,0,0,1.1c1.451.479,1.615,1.188,1.864,2.261a.577.577,0,0,0,1.124,0c.413-1.782,1.022-1.983,1.864-2.261a.578.578,0,0,0,0-1.1c-.809-.266-1.441-.439-1.864-2.261a.577.577,0,0,0-1.124,0Zm.564,1.816a2.943,2.943,0,0,0,.863,1,2.856,2.856,0,0,0-.853.963,3,3,0,0,0-.9-.955A2.862,2.862,0,0,0,45.951,141.147Z" transform="translate(-43.127 -107.229)" fill="#23c377"/>
      <path id="Path_50494" data-name="Path 50494" d="M145.53,63.423a.583.583,0,0,0,.579.585h0a.583.583,0,1,0-.583-.585Z" transform="translate(-121.637 -48.928)" fill="#23c377"/>
      <path id="Path_50495" data-name="Path 50495" d="M69.688,87.516a.6.6,0,0,0-.784.254l-1.349,2.644A11.516,11.516,0,0,0,77.8,107.16h4.19A11.52,11.52,0,0,0,92.245,90.414l-6.894-13.5a2.5,2.5,0,0,0,.481-4.564l4.533-6.066a1.71,1.71,0,0,0-.737-2.616,11.714,11.714,0,0,0-1.834-.56.59.59,0,0,0-.693.448.583.583,0,0,0,.446.693,10.678,10.678,0,0,1,1.652.5.547.547,0,0,1,.231.835l-4.809,6.44H81.978l1.892-3.695a.583.583,0,1,0-1.038-.532l-2.165,4.226H79.132L76.967,67.8a.583.583,0,1,0-1.038.532l1.892,3.695H75.18l-4.811-6.44a.545.545,0,0,1,.233-.835,10.54,10.54,0,0,1,9.013.59.589.589,0,0,0,.567,0,10.559,10.559,0,0,1,2.975-1.108.583.583,0,0,0-.24-1.141A11.651,11.651,0,0,0,79.9,64.165a11.715,11.715,0,0,0-9.727-.5,1.713,1.713,0,0,0-.737,2.618l4.529,6.063a2.5,2.5,0,0,0,.484,4.568l-3.422,6.7a.581.581,0,0,0,.252.784.593.593,0,0,0,.786-.254v0L75.7,77.028h8.4l7.106,13.917a10.354,10.354,0,0,1-9.214,15.049H77.807a10.353,10.353,0,0,1-9.214-15.049L69.942,88.3a.583.583,0,0,0-.254-.787Zm4.175-12.991a1.342,1.342,0,0,1,1.332-1.335h0c9.846,0,9.445-.011,9.6.015h.006A1.335,1.335,0,0,1,84.6,75.86H75.2a1.337,1.337,0,0,1-1.336-1.334Z" transform="translate(-60.879 -48.926)" fill="#23c377"/>
      <path id="Path_50496" data-name="Path 50496" d="M82.114,160.54a.583.583,0,1,0,.53-1.038.591.591,0,0,0-.784.255.581.581,0,0,0,.254.784Z" transform="translate(-72.773 -122.988)" fill="#23c377"/>
      <path id="Path_50497" data-name="Path 50497" d="M133.41,39.387a.583.583,0,1,0,.821-.084A.6.6,0,0,0,133.41,39.387Z" transform="translate(-112.245 -30.785)" fill="#23c377"/>
      <path id="Path_50498" data-name="Path 50498" d="M99.739,9.282,105,15.728a.582.582,0,0,0,.9,0l1.122-1.374a.586.586,0,0,0-.082-.821.6.6,0,0,0-.821.084l-.67.821L101.419,9.5h1.489a.583.583,0,0,0,.579-.649l-.565-5.121a.583.583,0,0,0-1.16.129l.495,4.475h-2.067a.583.583,0,0,0-.45.952Z" transform="translate(-86.429 -3.207)" fill="#23c377"/>
      <path id="Path_50499" data-name="Path 50499" d="M134.257,3.212a.589.589,0,0,0-.644.518l-.565,5.119a.586.586,0,0,0,.581.649h1.489l-.413.5a.584.584,0,0,0,.905.738L136.8,9.283a.583.583,0,0,0-.45-.952h-2.067l.492-4.475A.583.583,0,0,0,134.257,3.212Z" transform="translate(-112.065 -3.209)" fill="#23c377"/>
      <path id="Path_50500" data-name="Path 50500" d="M106.93,159.343h-3.057a1.5,1.5,0,0,1-1.125-.558,1.75,1.75,0,0,0-2.69,2.24,5.009,5.009,0,0,0,3.67,1.815v.791a1.75,1.75,0,0,0,3.5,0v-.8a4.368,4.368,0,0,0-.292-8.726h-2.914a.869.869,0,1,1,0-1.738h2.8a1.522,1.522,0,0,1,1.251.73,1.75,1.75,0,1,0,2.933-1.911,4.993,4.993,0,0,0-3.784-2.3v-.807a1.75,1.75,0,0,0-3.5,0v.8a4.367,4.367,0,0,0,.294,8.724h2.914a.869.869,0,1,1-.007,1.739Zm.007-2.9h-2.914a3.2,3.2,0,1,1,0-6.4h.292a.58.58,0,0,0,.583-.583v-1.372a.583.583,0,1,1,1.167,0v1.372a.583.583,0,0,0,.583.583h.194a3.825,3.825,0,0,1,3.192,1.783.583.583,0,1,1-.968.651,2.673,2.673,0,0,0-2.228-1.265c-2.94,0-2.809,0-2.809,0a2.036,2.036,0,1,0,0,4.071h2.914a3.2,3.2,0,1,1-.007,6.4h-.285a.583.583,0,0,0-.583.583v1.372a.583.583,0,1,1-1.167,0V162.26a.581.581,0,0,0-.583-.583h-.446a3.834,3.834,0,0,1-2.912-1.4.583.583,0,0,1,.9-.747,2.665,2.665,0,0,0,2.021.978h3.059a2.035,2.035,0,1,0,.007-4.07Z" transform="translate(-86.464 -112.937)" fill="#23c377"/>
    </g>
  </g>
</svg>
