<svg xmlns="http://www.w3.org/2000/svg" width="66" height="66" viewBox="0 0 66 66">
  <g id="Group_11506" data-name="Group 11506" transform="translate(-182 -524)">
    <g id="Group_11502" data-name="Group 11502" transform="translate(182 524)">
      <rect id="Rectangle_2824" data-name="Rectangle 2824" width="66" height="66" rx="33" fill="#fff5ed"/>
    </g>
    <g id="international" transform="translate(196.349 538.222)">
      <path id="Path_41042" data-name="Path 41042" d="M52.171,14.273a8.591,8.591,0,0,0,1.4-4.125A4.651,4.651,0,0,0,52.3,6.77a4.437,4.437,0,0,0-3.194-1.4h-.05a4.475,4.475,0,0,0-2.893,1.051A19.14,19.14,0,0,0,26.5,4.184,4.65,4.65,0,0,0,25.254,1.4,4.437,4.437,0,0,0,22.061,0h-.05A4.513,4.513,0,0,0,17.5,4.513,9.039,9.039,0,0,0,19.46,9.729a19.066,19.066,0,0,0-2.84,4.987.6.6,0,1,0,1.112.427A17.868,17.868,0,0,1,20.2,10.719a4.186,4.186,0,0,0-.023.422v2.893a1.525,1.525,0,0,0,2.4,1.253l2.134-1.482a3.533,3.533,0,0,1,2.024-.634h2.746A3.962,3.962,0,0,0,32.3,12l2.71-2.71a2.466,2.466,0,0,0,.114-3.355L33.8,4.425a.94.94,0,0,1-.216-.769c.3-.015.6-.024.9-.024A17.987,17.987,0,0,1,45.358,7.3a4.477,4.477,0,0,0-.81,2.58,7.214,7.214,0,0,0,.418,2.364,6.981,6.981,0,0,0,.55,3.8l1.158,2.579a3.852,3.852,0,0,0,5.663,1.618l.037-.025q.049.67.05,1.349a17.939,17.939,0,1,1-35.4-4.11.6.6,0,1,0-1.159-.272,19.221,19.221,0,0,0-.5,4.381,19.129,19.129,0,1,0,36.816-7.3ZM19.675,2.151a3.3,3.3,0,0,1,2.336-.96h.037A3.255,3.255,0,0,1,24.391,2.22a3.454,3.454,0,0,1,.938,2.509c-.111,2.653-2.243,5.041-3.155,5.944a.232.232,0,0,1-.325,0c-.95-.941-3.16-3.426-3.16-6.161A3.3,3.3,0,0,1,19.675,2.151ZM32.9,5.208l1.32,1.513a1.272,1.272,0,0,1-.059,1.73l-2.71,2.71a2.778,2.778,0,0,1-1.978.819H26.73a4.718,4.718,0,0,0-2.7.846l-2.134,1.481a.335.335,0,0,1-.526-.275V11.775a1.426,1.426,0,0,0,1.645-.257,11.594,11.594,0,0,0,3.431-5.986,17.954,17.954,0,0,1,5.941-1.777,2.131,2.131,0,0,0,.52,1.452ZM49.06,6.561H49.1A3.255,3.255,0,0,1,51.439,7.59a3.454,3.454,0,0,1,.938,2.509c-.111,2.653-2.243,5.041-3.155,5.944a.232.232,0,0,1-.325,0c-.95-.941-3.16-3.426-3.16-6.161A3.322,3.322,0,0,1,49.06,6.561Zm2.612,12.7A2.661,2.661,0,0,1,47.76,18.14L46.6,15.561a5.817,5.817,0,0,1-.259-.692A15.232,15.232,0,0,0,48.06,16.89a1.426,1.426,0,0,0,2,0,15.59,15.59,0,0,0,1.288-1.446,17.726,17.726,0,0,1,.875,3.443Z" transform="translate(-15.355 0)" fill="#ff9b54"/>
      <path id="Path_41043" data-name="Path 41043" d="M410.273,99.6a2.512,2.512,0,1,0-2.512-2.512A2.515,2.515,0,0,0,410.273,99.6Zm0-3.834a1.321,1.321,0,1,1-1.321,1.321A1.323,1.323,0,0,1,410.273,95.766Z" transform="translate(-376.568 -87.057)" fill="#ff9b54"/>
      <path id="Path_41044" data-name="Path 41044" d="M165.019,147.55a4.437,4.437,0,0,0-3.193-1.4h-.05a4.516,4.516,0,0,0-4.421,3.6,4.075,4.075,0,0,0-3.5,1.714l-2,2.826a3.609,3.609,0,0,0-.275,3.721,4.5,4.5,0,0,0-.389,1.837c0,2.623,1.607,4.93,2.894,6.357l-.13,3.519a2.49,2.49,0,0,0,3.906,2.135l5.48-3.807a8.892,8.892,0,0,0,2.19-2.171l1.654-2.337a.6.6,0,0,0-.972-.688l-1.654,2.337a7.706,7.706,0,0,1-1.9,1.881l-5.48,3.807a1.3,1.3,0,0,1-2.037-1.113l.1-2.582a1.42,1.42,0,0,0,1.462-.333c1.256-1.245,3.383-3.777,3.506-6.741a4.651,4.651,0,0,0-1.264-3.378,4.483,4.483,0,0,0-6.417-.1c-.04.04-.079.081-.117.122a2.42,2.42,0,0,1,.415-1.784l2-2.826a2.884,2.884,0,0,1,2.443-1.213c.128,2.948,2.235,5.466,3.506,6.726a1.426,1.426,0,0,0,2,0,15.121,15.121,0,0,0,1.8-2.139l3.089,2.187a1.788,1.788,0,0,1,.426,2.493l-.434.614a.6.6,0,1,0,.972.688l.434-.614a2.979,2.979,0,0,0-.71-4.153l-3.15-2.23a8.215,8.215,0,0,0,1.081-3.587A4.65,4.65,0,0,0,165.019,147.55Zm-9.317,8.98h.037a3.256,3.256,0,0,1,2.343,1.029,3.454,3.454,0,0,1,.938,2.509c-.111,2.653-2.243,5.041-3.155,5.944a.231.231,0,0,1-.325,0c-.95-.941-3.16-3.426-3.16-6.161a3.322,3.322,0,0,1,3.322-3.322Zm6.237.292a.231.231,0,0,1-.325,0c-.95-.941-3.16-3.426-3.16-6.161a3.322,3.322,0,0,1,3.322-3.322h.037a3.255,3.255,0,0,1,2.343,1.029,3.454,3.454,0,0,1,.938,2.509C164.983,153.532,162.85,155.92,161.939,156.823Z" transform="translate(-140.391 -134.532)" fill="#ff9b54"/>
      <path id="Path_41045" data-name="Path 41045" d="M257.207,175.086a.6.6,0,0,0-.6.6,1.32,1.32,0,1,1-1.059-1.3.6.6,0,1,0,.235-1.168,2.512,2.512,0,1,0,2.015,2.463A.6.6,0,0,0,257.207,175.086Z" transform="translate(-233.905 -159.404)" fill="#ff9b54"/>
      <path id="Path_41046" data-name="Path 41046" d="M178.88,293.8a2.512,2.512,0,1,0-2.512-2.512A2.515,2.515,0,0,0,178.88,293.8Zm0-3.834a1.321,1.321,0,1,1-1.321,1.321A1.323,1.323,0,0,1,178.88,289.969Z" transform="translate(-163.569 -265.823)" fill="#ff9b54"/>
      <path id="Path_41047" data-name="Path 41047" d="M72.512,29.53A2.512,2.512,0,1,0,70,32.042,2.515,2.515,0,0,0,72.512,29.53Zm-3.833,0A1.321,1.321,0,1,1,70,30.851,1.323,1.323,0,0,1,68.679,29.53Z" transform="translate(-63.344 -24.87)" fill="#ff9b54"/>
    </g>
  </g>
</svg>
