<svg xmlns="http://www.w3.org/2000/svg" width="66" height="66" viewBox="0 0 66 66">
  <g id="Group_12289" data-name="Group 12289" transform="translate(-235 -1188)">
    <g id="Group_11505" data-name="Group 11505" transform="translate(235 1188)">
      <rect id="Rectangle_2824" data-name="Rectangle 2824" width="66" height="66" rx="33" fill="#f9f2ff"/>
    </g>
    <path id="Shape" d="M1.513,45.314H37.764a1.5,1.5,0,0,0,1.5-1.518v-3.05c-.251-5.088-3.021-5.942-3.133-5.974l-9.7-2.861V27.682a5.4,5.4,0,0,0,1.718-3.514h2.058A2.266,2.266,0,0,0,32.478,21.9V17.37a2.266,2.266,0,0,0-1.51-2.127v-4.67C30.967,4.546,26.1,0,19.638,0S8.31,4.546,8.31,10.573v4.67A2.266,2.266,0,0,0,6.8,17.37V21.9a2.266,2.266,0,0,0,1.51,2.127v.894a3.021,3.021,0,0,0,3.021,3.021h1.51v3.967L3.148,34.77C3.03,34.8.261,35.658.01,40.783v3a1.5,1.5,0,0,0,1.5,1.531ZM9.82,12.159a9.592,9.592,0,0,1,9.818-7.628,9.627,9.627,0,0,1,9.818,7.628V15.1h-.933c-.755-3.183-2.214-4.161-2.381-4.263C24.04,9.581,17.462,9.789,15,9.947a2.9,2.9,0,0,0-1.91.815A10,10,0,0,0,10.811,15.1H9.82Zm4.531,17.129c1.236,1.6,1.817,3.187,4.095,3.187,3.423,0,4.038.314,5.819-2.276.2-.291.418-.6.66-.915v3.072c-1.214,3.214-9.385,3.186-10.573,0ZM25.091,26.88C22.735,29,22.666,30.965,20.83,30.965c-3.262,0-3.24.317-4.574-1.621-.288-.418-.628-.9-1.049-1.4h1.621a1.505,1.505,0,0,0,1.3.755h3.021a1.51,1.51,0,0,0,1.51-1.51v-1.51a1.51,1.51,0,0,0-1.51-1.51H18.128a1.51,1.51,0,0,0-1.51,1.51v.755h-2.87a4.649,4.649,0,0,1-1.125-3.9,10.928,10.928,0,0,0-.217-3.3,7.643,7.643,0,0,1-.113-3.824,8.45,8.45,0,0,1,1.866-3.576,1.422,1.422,0,0,1,.932-.378c2.456-.158,8.024-.344,10.279.687a6.867,6.867,0,0,1,1.816,5.032c-.174,1.822-.557,2.719-.557,4.154,0,2.347.467,3.748-1.538,5.551Zm-6.963.308v-1.51h3.021v1.51ZM30.967,21.9a.755.755,0,0,1-.755.755H28.173c-.116-3.238.239-2.417.515-5.339a6.412,6.412,0,0,0,.014-.7h1.51a.755.755,0,0,1,.755.755ZM28.946,7.54a10.839,10.839,0,0,0-9.308-4.519A10.839,10.839,0,0,0,10.331,7.54C13.143-.525,26.134-.514,28.946,7.54ZM8.31,17.37a.755.755,0,0,1,.755-.755h1.52a14.06,14.06,0,0,0,.335,2.9,10.062,10.062,0,0,1,.184,3.144H9.065A.755.755,0,0,1,8.31,21.9Zm1.51,7.552v-.755h1.3a5.173,5.173,0,0,0,.727,2.266h-.52a1.51,1.51,0,0,1-1.51-1.51Zm-6.25,11.3,9.61-2.835c.6,1.054,2.237,2.866,6.458,2.866s5.86-1.813,6.458-2.87l9.6,2.832c.076.026,1.871.68,2.064,4.565V43.8H1.52V40.82c.193-3.926,1.985-4.577,2.05-4.6Z" transform="translate(248.348 1198.214)" fill="#bf86fc"/>
  </g>
</svg>
