<svg id="Layer_1" data-name="Layer 1" xmlns="http://www.w3.org/2000/svg" viewBox="0 0 50 50"><defs><style>.cls-1{fill:#63c7db;}.cls-2{fill:#1b4791;}.cls-3{fill:#fff;}</style></defs><rect class="cls-1" x="25.84" y="10.91" width="1.99" height="3.88"/><path d="M27.77,11v3.78H25.89V11h1.88m.1-.1H25.78v4h2.09v-4Z"/><path class="cls-1" d="M23.23,43.63A2.68,2.68,0,0,1,20.55,41V22.18a2.72,2.72,0,0,1,.34-1.31l2-3.62a2.67,2.67,0,0,1,2.33-1.37h3.16a2.67,2.67,0,0,1,2.33,1.37l2,3.62a2.72,2.72,0,0,1,.34,1.31V41a2.68,2.68,0,0,1-2.68,2.67Z"/><path d="M28.41,15.93a2.63,2.63,0,0,1,2.29,1.34l2,3.62a2.67,2.67,0,0,1,.34,1.29V41a2.62,2.62,0,0,1-2.63,2.62h-7.2A2.62,2.62,0,0,1,20.6,41V22.18a2.66,2.66,0,0,1,.33-1.29l2-3.62a2.63,2.63,0,0,1,2.29-1.34h3.16m0-.1H25.25a2.74,2.74,0,0,0-2.38,1.39l-2,3.63a2.67,2.67,0,0,0-.35,1.33V41a2.72,2.72,0,0,0,2.73,2.72h7.2A2.72,2.72,0,0,0,33.16,41V22.18a2.67,2.67,0,0,0-.35-1.33l-2-3.63a2.72,2.72,0,0,0-2.37-1.39Z"/><rect class="cls-2" x="23.01" y="13.88" width="7.63" height="3.32"/><path d="M30.6,13.93v3.22H23.06V13.93H30.6m.1-.1H23v3.42H30.7V13.83Z"/><path class="cls-2" d="M23.84,11a.83.83,0,0,1-.83-.82V8.59h8.92A2.38,2.38,0,0,1,34.3,11v0Z"/><path d="M31.93,8.64A2.32,2.32,0,0,1,34.25,11H23.84a.77.77,0,0,1-.78-.77V8.64h8.87m0-.1H23v1.65a.88.88,0,0,0,.88.87H34.35V11a2.43,2.43,0,0,0-2.42-2.42Z"/><path class="cls-1" d="M33.62,16.53c-.54,0-1-.69-1-1.52s.39-2.91,1-2.91,1,2.18,1,2.91S34.16,16.53,33.62,16.53Z"/><path d="M33.62,12.15c.51,0,.93,2,.93,2.86s-.42,1.47-.93,1.47-.93-.66-.93-1.47.41-2.86.93-2.86m0-.1c-.66,0-1,2.24-1,3s.46,1.57,1,1.57,1-.71,1-1.57-.38-3-1-3Z"/><path d="M22.13,36.29a0,0,0,0,1-.05,0V27.18a.05.05,0,0,1,.1,0v9.06A0,0,0,0,1,22.13,36.29Z"/><path d="M22.13,38a.05.05,0,0,1-.05-.05v-.81a.05.05,0,0,1,.1,0v.81A.05.05,0,0,1,22.13,38Z"/><path class="cls-3" d="M30.6,39.29a.1.1,0,0,1-.11-.1V23.4a.11.11,0,0,1,.11-.1.11.11,0,0,1,.1.1V39.19A.1.1,0,0,1,30.6,39.29Z"/><path d="M7.05,40.58c-.49,0-1-.85-1.36-1.41a3.24,3.24,0,0,0-.22-.35,21,21,0,0,1-3-5.28,5.81,5.81,0,0,1-.07-4.21,1.55,1.55,0,0,1,1.3-.9h.09c.89.08,1.67,1.12,2.18,1.81l.13.17.23.28A3.17,3.17,0,0,1,7,31.79H7a5.22,5.22,0,0,1,0,1.63c0,.21,0,.41,0,.57l-.15,5.4.36,1.17-.1,0Zm-3.33-12a1.38,1.38,0,0,0-1.15.8,5.69,5.69,0,0,0,.08,4.07,20.83,20.83,0,0,0,3,5.23c.06.08.14.22.23.37.27.44.75,1.22,1.14,1.32l-.31-1h0L6.82,34c0-.17,0-.38,0-.59a5.48,5.48,0,0,0,0-1.57h0a3.29,3.29,0,0,0-.65-1c-.08-.1-.16-.19-.23-.29l-.13-.17c-.49-.66-1.24-1.67-2-1.73Z"/><path d="M24.46,40.2l.35-.82L24.66,34c0-.14,0-.28,0-.44A5.36,5.36,0,0,1,24.7,32a5.17,5.17,0,0,1,.84-1.54l.13-.17c.51-.69,1.29-1.73,2.18-1.81h.09a1.55,1.55,0,0,1,1.3.9c.79,1.55.14,3.61-.07,4.21a21,21,0,0,1-3,5.28c-.35.46-1,1.25-1.57,1.35Zm3.48-11.59h-.08c-.81.06-1.56,1.07-2.05,1.73l-.13.17A5.06,5.06,0,0,0,24.87,32h0a5.35,5.35,0,0,0-.06,1.55c0,.16,0,.31,0,.45L25,39.42l-.23.53a4.09,4.09,0,0,0,1.29-1.24A20.46,20.46,0,0,0,29,33.48a5.64,5.64,0,0,0,.08-4.07A1.35,1.35,0,0,0,27.94,28.61Z"/><path class="cls-2" d="M15.62,43.48a13.32,13.32,0,0,1-8.85-3.16l0,0v-9l.12.05a6.44,6.44,0,0,0,7.45-1.61,4.19,4.19,0,0,0,.51-.66,1.48,1.48,0,0,1,1-.9,1.25,1.25,0,0,1,.32-.05.83.83,0,0,1,.32.06,1.39,1.39,0,0,1,.67.64l.08.13a7.89,7.89,0,0,0,.77,1,6.51,6.51,0,0,0,1.78,1.31c.18.08.37.17.56.24a6.42,6.42,0,0,0,2.3.42,6.29,6.29,0,0,0,2.29-.42l.11-.05v8.35A13.21,13.21,0,0,1,15.62,43.48Z"/><path d="M16.1,28.24a.93.93,0,0,1,.29.05c.35.12.52.45.71.74a6.8,6.8,0,0,0,.78,1,6.48,6.48,0,0,0,1.8,1.32c.19.09.38.18.57.25a6.63,6.63,0,0,0,2.33.43,6.38,6.38,0,0,0,2.32-.43v8.22a13.24,13.24,0,0,1-9.28,3.58,13.35,13.35,0,0,1-8.8-3.14v-8.8A6.59,6.59,0,0,0,9.49,32a6.49,6.49,0,0,0,4.88-2.2,3.66,3.66,0,0,0,.52-.67c.23-.41.43-.75.91-.87a1.54,1.54,0,0,1,.3,0m0-.17a1.37,1.37,0,0,0-.34,0,1.64,1.64,0,0,0-1,.95,3.75,3.75,0,0,1-.46.61l0,0a6.33,6.33,0,0,1-4.75,2.14,6.26,6.26,0,0,1-2.6-.55l-.24-.11v9.15l.06.06a13.44,13.44,0,0,0,8.91,3.17A13.44,13.44,0,0,0,25,39.94l.05,0V31.34l-.24.09a6.24,6.24,0,0,1-2.25.41,6.47,6.47,0,0,1-2.27-.41,5.38,5.38,0,0,1-.55-.24A6.55,6.55,0,0,1,18,29.9a7.63,7.63,0,0,1-.75-1l-.09-.13a1.51,1.51,0,0,0-.71-.68,1.29,1.29,0,0,0-.35-.05Z"/><path d="M15.66,35.9A44.8,44.8,0,0,1,6.81,35l0-.17a44.38,44.38,0,0,0,18-.08l0,.17A45.37,45.37,0,0,1,15.66,35.9Z"/><path d="M15.66,39.11a44.79,44.79,0,0,1-8.85-.88l0-.18a44.38,44.38,0,0,0,18-.08l0,.17A44.68,44.68,0,0,1,15.66,39.11Z"/><path class="cls-2" d="M42.65,43.63A7.06,7.06,0,0,0,48,42.38a1,1,0,0,0,.39-.94A21.15,21.15,0,0,1,46.48,37c-.21-1.12-.34-3-.47-5,0-.7-.09-1.4-.15-2.08A8.77,8.77,0,0,0,45,26.31a.69.69,0,0,0-.45-.58.65.65,0,0,0-.6.13.71.71,0,0,0-.22.67l.39,2.39-.76-3.18a.79.79,0,0,0-.51-.62.76.76,0,0,0-.71.16.8.8,0,0,0-.21.77l.63,3.74L41.39,25.5a1,1,0,0,0-.62-.68A.73.73,0,0,0,40,25a.94.94,0,0,0-.15,1l.9,4.11-1-3a.84.84,0,0,0-.54-.61.68.68,0,0,0-.69.16.84.84,0,0,0-.17.86L40,33.37l-.08-.12a3.77,3.77,0,0,1-.26-.39,5.83,5.83,0,0,0-.76-1,5.35,5.35,0,0,0-.77-.58L38,31.25a2.42,2.42,0,0,0-.57-.31l-.22,0a.71.71,0,0,0-.66.32.74.74,0,0,0-.11.5,1.07,1.07,0,0,0,.29.52,58.48,58.48,0,0,1,3.83,5c.78,1.36,1.36,5.68,1.37,5.72a.93.93,0,0,0,.73.65Z"/><path d="M42.83,25.18a.7.7,0,0,1,.48.57l1.1,4.66-.62-3.89a.59.59,0,0,1,.74-.73.62.62,0,0,1,.42.55A8.9,8.9,0,0,1,45.81,30c.19,2.56.33,5.54.61,7.07a21.31,21.31,0,0,0,1.86,4.4c.34,1.39-3.9,2.67-5.62,2.13A.92.92,0,0,1,42,43s-.58-4.35-1.37-5.74a60.66,60.66,0,0,0-3.82-5,1,1,0,0,1-.29-.51.7.7,0,0,1,.1-.47A.64.64,0,0,1,37.2,31a.65.65,0,0,1,.2,0,3,3,0,0,1,.68.37,5.2,5.2,0,0,1,.76.57,8.25,8.25,0,0,1,1,1.34c.08.12.17.24.26.35l-1.64-6.12c-.2-.69.34-1.09.8-1a.81.81,0,0,1,.5.58L41.1,31.3,39.94,26c-.29-.81.29-1.3.81-1.13a.93.93,0,0,1,.59.64l1.46,5.37L42,26a.67.67,0,0,1,.84-.86m0-.11a.79.79,0,0,0-.76.17.84.84,0,0,0-.22.82l.44,2.64-.88-3.22a1,1,0,0,0-.65-.71.79.79,0,0,0-.8.2A1,1,0,0,0,39.83,26L40.47,29l-.59-1.85a.91.91,0,0,0-.58-.66.77.77,0,0,0-.75.18.88.88,0,0,0-.18.91l1.47,5.53c-.05-.08-.1-.16-.16-.24a4.71,4.71,0,0,0-.76-1,5.22,5.22,0,0,0-.78-.58L38,31.2a2.49,2.49,0,0,0-.58-.31,1,1,0,0,0-.23,0,.75.75,0,0,0-.72.34.78.78,0,0,0-.11.54,1.09,1.09,0,0,0,.3.55l0,0a60.2,60.2,0,0,1,3.8,5c.78,1.35,1.36,5.66,1.36,5.71a1,1,0,0,0,.77.69A7.18,7.18,0,0,0,48,42.43a1,1,0,0,0,.41-1v0h0A20.81,20.81,0,0,1,46.53,37c-.2-1.12-.33-3-.46-5,0-.7-.1-1.41-.15-2.08a9.22,9.22,0,0,0-.86-3.67.73.73,0,0,0-.5-.62.7.7,0,0,0-.65.13.78.78,0,0,0-.23.73l.14.89-.4-1.7a.87.87,0,0,0-.56-.66l0,.11,0-.11Z"/><path class="cls-1" d="M42.65,43.63A7.06,7.06,0,0,0,48,42.38a1,1,0,0,0,.39-.94s-.29-.52-.63-1.21l0,0L41.74,41.8v.05c.11.67.17,1.13.17,1.13A.93.93,0,0,0,42.65,43.63Z"/><path d="M47.66,40.25c.34.7.62,1.2.62,1.2.34,1.39-3.9,2.67-5.62,2.13A.92.92,0,0,1,42,43s-.06-.46-.17-1.13l5.86-1.59m.06-.13-.09,0-5.86,1.59-.1,0,0,.1c.11.66.17,1.12.17,1.14a1,1,0,0,0,.77.69A7.18,7.18,0,0,0,48,42.43a1,1,0,0,0,.41-1v0h0s-.28-.51-.62-1.2l0-.08Z"/><path d="M45,41.54h0L47,41a.06.06,0,1,0,0-.11l-2,.54a.06.06,0,0,0,0,.07S45,41.53,45,41.54Z"/><path d="M44.12,41.78h0l.42-.13a.05.05,0,0,0,0-.07.07.07,0,0,0-.07,0l-.41.13a.06.06,0,0,0,0,.07Z"/><path class="cls-3" d="M46.33,39.37a.09.09,0,0,0,.07,0,.11.11,0,0,0,.07-.14L46,37.89a17.8,17.8,0,0,1-.51-3.76A.13.13,0,0,0,45.4,34a.12.12,0,0,0-.11.12A17,17,0,0,0,45.82,38l.44,1.34A.1.1,0,0,0,46.33,39.37Z"/><path class="cls-3" d="M45.31,33.77h0a.11.11,0,0,0,.11-.12l0-.68a.12.12,0,1,0-.23,0l0,.68A.15.15,0,0,0,45.31,33.77Z"/><path class="cls-2" d="M33.85,43.7a6.65,6.65,0,0,1-3.42-3.82.9.9,0,0,1,.21-.93,20.43,20.43,0,0,0,3.8-2.4c.76-.76,1.87-2.14,3-3.6l1.23-1.53a8.24,8.24,0,0,1,2.63-2.36.63.63,0,0,1,.66-.2.59.59,0,0,1,.4.41.67.67,0,0,1-.19.64l-1.59,1.64,2.3-2.05a.72.72,0,0,1,.72-.2.67.67,0,0,1,.46.5.73.73,0,0,1-.25.71l-2.49,2.55,3.2-2.69a1,1,0,0,1,.85-.19.68.68,0,0,1,.47.55.91.91,0,0,1-.43.86l-2.91,2.68,2.36-1.8a.81.81,0,0,1,.75-.19.66.66,0,0,1,.44.5.77.77,0,0,1-.32.76L41.43,37.2l.12,0L42,37a5.11,5.11,0,0,1,1.11-.34,5.56,5.56,0,0,1,.9,0h.13a2,2,0,0,1,.6.07l.19.08a.68.68,0,0,1,.35.6.73.73,0,0,1-.19.45,1,1,0,0,1-.5.25,56.85,56.85,0,0,0-5.66,1.81c-1.33.64-4.1,3.65-4.13,3.68a.88.88,0,0,1-.91.12Z"/><path d="M43.63,29.35a.64.64,0,0,1,.18,1.12l-3.23,3.31,4-3.37a.92.92,0,0,1,.79-.18c.49.16.68.84,0,1.32L41.67,35l3.27-2.5a.74.74,0,0,1,.69-.18.64.64,0,0,1,.1,1.16l-4.54,3.85.38-.13a8.25,8.25,0,0,1,1.5-.5,4.51,4.51,0,0,1,.9,0,2.93,2.93,0,0,1,.72.07l.18.08a.62.62,0,0,1,.14,1,1.07,1.07,0,0,1-.51.25,54.73,54.73,0,0,0-5.63,1.81c-1.36.64-4.15,3.69-4.15,3.69a.86.86,0,0,1-.85.1c-1.62-.51-4.2-3.77-3.2-4.66a19.87,19.87,0,0,0,3.8-2.4c1-1,2.75-3.26,4.28-5.13a8.3,8.3,0,0,1,2.61-2.35.62.62,0,0,1,.63-.2.56.56,0,0,1,.18,1l-2.58,2.67,3.36-3a.69.69,0,0,1,.68-.19m0-.1,0,.1,0-.1a.79.79,0,0,0-.78.21l-1.23,1.1.59-.62a.7.7,0,0,0,.21-.68.67.67,0,0,0-.43-.45.7.7,0,0,0-.72.21,8.77,8.77,0,0,0-2.63,2.37c-.41.49-.82,1-1.23,1.53-1.17,1.46-2.28,2.84-3,3.59a19.85,19.85,0,0,1-3.77,2.38h0a1,1,0,0,0-.22,1,6.73,6.73,0,0,0,3.46,3.85,1,1,0,0,0,1-.12s2.79-3.05,4.11-3.68a57.93,57.93,0,0,1,5.62-1.8h0a1,1,0,0,0,.52-.26.73.73,0,0,0,.21-.48.79.79,0,0,0-.57-.74,2.57,2.57,0,0,0-.62-.08H44a4.74,4.74,0,0,0-.91,0,4.83,4.83,0,0,0-1.12.34l-.25.1,4.11-3.47a.87.87,0,0,0,.35-.81.73.73,0,0,0-.48-.54.85.85,0,0,0-.8.2l-1.45,1.11,2.07-1.92a.93.93,0,0,0,.44-.9.74.74,0,0,0-.51-.59,1,1,0,0,0-.88.2l-2.41,2,1.76-1.8a.78.78,0,0,0,.27-.75.74.74,0,0,0-.5-.54Z"/><path class="cls-1" d="M33.85,43.7a6.65,6.65,0,0,1-3.42-3.82.9.9,0,0,1,.21-.93l1.13-.6,0,0,3.73,4.45,0,0-.74.78A.88.88,0,0,1,33.85,43.7Z"/><path d="M31.8,38.39l3.66,4.38c-.44.45-.74.78-.74.78a.86.86,0,0,1-.85.1c-1.62-.51-4.2-3.77-3.2-4.66,0,0,.49-.24,1.13-.6m0-.13-.08,0c-.62.35-1.11.59-1.11.59h0a1,1,0,0,0-.22,1,6.73,6.73,0,0,0,3.46,3.85,1,1,0,0,0,1-.12s.3-.34.74-.79l.07-.07-.06-.07-3.67-4.38-.06-.06Z"/><path d="M33.18,40.82h0L31.9,39.32a.05.05,0,0,1,0-.08,0,0,0,0,1,.07,0l1.26,1.49a0,0,0,0,1,0,.07S33.2,40.83,33.18,40.82Z"/><path d="M33.71,41.47l0,0-.25-.32a.06.06,0,0,1,0-.07.06.06,0,0,1,.08,0l.25.32a0,0,0,0,1,0,.07S33.73,41.48,33.71,41.47Z"/><path class="cls-3" d="M33.3,38.43l-.06,0a.12.12,0,0,1,0-.15l1.07-.8a16.18,16.18,0,0,0,2.41-2.62.1.1,0,0,1,.15,0,.09.09,0,0,1,0,.14,15.74,15.74,0,0,1-2.46,2.67l-1.06.8A.1.1,0,0,1,33.3,38.43Z"/><path class="cls-3" d="M37.1,34.65l0,0a.12.12,0,0,1,0-.15l.39-.51a.1.1,0,0,1,.15,0,.09.09,0,0,1,0,.14l-.39.52A.12.12,0,0,1,37.1,34.65Z"/></svg>