<svg id="Layer_1" data-name="Layer 1" xmlns="http://www.w3.org/2000/svg" viewBox="0 0 50 50"><defs><style>.cls-1{fill:#63c7db;}.cls-2{fill:#1b4791;}.cls-3{fill:#fff;}</style></defs><rect class="cls-1" x="36.94" y="21.41" width="1.41" height="14.02"/><path d="M38.37,35.45H36.93V21.4h1.44Zm-1.41,0h1.38v-14H37Z"/><polygon class="cls-1" points="29.92 46.38 23.82 46.38 22.37 34.77 31.62 34.77 29.92 46.38"/><path d="M29.93,46.4H23.81L22.35,34.75h9.29v0Zm-6.1,0h6.08L31.6,34.78H22.39Z"/><path class="cls-2" d="M43.77,44.61a1.58,1.58,0,0,1-2.22-.35L36,36.65A1.61,1.61,0,0,0,34.74,36H17.86a.44.44,0,0,1-.16,0,.38.38,0,0,1-.16-.17.41.41,0,0,0-.07-.11l-.09-.11,0,0,0,0,0,0,0-.05,0,0,0-.05,0-.06,0-.05,0-.06L17,35.07,17,35l-.05-.06-.05-.07-.05-.06,0-.07-.05-.07-.05-.08-.06-.07-.05-.08-.06-.08-.06-.08-.06-.08-.05-.08L16.25,34,16.19,34l-.06-.08-.06-.09L16,33.69l-.06-.09-.07-.09-.07-.1-.07-.09-.07-.1-.07-.09-.07-.1-.07-.1-.07-.1-.08-.1-.07-.11-.08-.1-.07-.1L15,32.31l-.08-.11-.07-.1L14.77,32l-.08-.11-.08-.11-.08-.11-.08-.12-.09-.11-.08-.11-.08-.12-.08-.11L14,31,14,30.86l-.09-.12-.08-.12-.09-.11-.08-.12-.09-.12-.09-.12L13.35,30l-.09-.12-.09-.12-.09-.12L13,29.55l-.09-.13-.09-.12-.09-.12-.09-.12-.09-.13-.09-.12-.09-.12-.09-.13-.08-.12-.09-.12L12,28.19l-.09-.12L11.84,28l-.09-.13-.09-.12-.09-.12-.09-.13-.09-.12-.09-.12-.09-.13L11.12,27,11,26.84l-.09-.12-.08-.13-.09-.12-.09-.12-.09-.12-.09-.12L10.42,26l-.09-.12-.09-.12-.08-.12-.09-.12L10,25.4l-.09-.12-.08-.12-.09-.11-.08-.12-.08-.11-.09-.12-.08-.11-.08-.11-.08-.12-.08-.11-.08-.11L9,24l-.08-.11-.08-.11-.07-.11-.08-.1-.08-.11-.07-.1-.07-.1-.08-.1-.07-.1L8.25,23l-.07-.1-.07-.1L8,22.71,8,22.61l-.07-.09-.06-.09-.07-.09-.06-.09-.07-.09-.06-.08L7.52,22l-.06-.08-.06-.08-.06-.08-.06-.08,0-.08-.06-.08,0-.07,0-.07L7,21.3l0-.07,0-.07,0-.06,0-.07,0-.06,0-.06,0-.06,0-.06,0-.05,0,0,0-.05,0-.05,0-.05,0,0,0-.05,0,0,0,0,0,0,0,0,0,0,0,0,0,0,0,0,0,0v0l0,0h0a1.59,1.59,0,0,1,1.29-2.53,1.58,1.58,0,0,1,1.29.66l10.12,14a1.61,1.61,0,0,0,1.29.66H37a.38.38,0,0,1,.3.17,3.48,3.48,0,0,1,.28.39,4.15,4.15,0,0,1,.24.34l.47.67,1,1.31,1.08,1.5,1.12,1.54,1,1.43.86,1.18.57.8.14.19s.05,0,.05.07A1.58,1.58,0,0,1,43.77,44.61Z"/><path d="M42.84,44.93a1.06,1.06,0,0,1-.25,0,1.62,1.62,0,0,1-1.05-.64L36,36.66A1.58,1.58,0,0,0,34.74,36H17.86a.44.44,0,0,1-.16,0,.35.35,0,0,1-.17-.17l0,0-.05-.09-.05-.05,0,0-2.3-3.18-.08-.1-.72-1-.08-.12L14,31l-.08-.11L12.36,28.7l-.09-.13L11,26.85l-.09-.13L9.8,25.17l-.08-.12L7,21.31l0-.07-.75-1,0,0,0,0v0l0,0h0a1.66,1.66,0,0,1-.29-1.2,1.61,1.61,0,0,1,.65-1.05,1.58,1.58,0,0,1,.94-.31,1.62,1.62,0,0,1,1.31.67l10.11,14a1.59,1.59,0,0,0,1.28.65H37a.42.42,0,0,1,.31.18,1.57,1.57,0,0,1,.19.26.64.64,0,0,0,.1.13l.07.11c.06.07.11.15.17.23.17.26.32.47.46.67l5.77,8h0s0,0,0,.06a1.6,1.6,0,0,1,.29,1.2,1.64,1.64,0,0,1-.65,1.05h0A1.57,1.57,0,0,1,42.84,44.93Zm-24-9H34.74a1.61,1.61,0,0,1,1.3.66l5.52,7.61a1.59,1.59,0,0,0,2.21.35h0a1.58,1.58,0,0,0,.63-1,1.52,1.52,0,0,0-.28-1.17h0l0,0h0L38.3,34.38l-.47-.67-.16-.23-.08-.11-.09-.13a2.48,2.48,0,0,0-.19-.26.39.39,0,0,0-.29-.17H20.11a1.62,1.62,0,0,1-1.3-.66L8.69,18.2a1.58,1.58,0,0,0-2.84.68,1.64,1.64,0,0,0,.28,1.18l0,0v0l0,0v0l.76,1,0,.07L9.74,25l.09.11L11,26.71l.08.12,1.26,1.73.09.12L14,30.85,14,31l.17.23.08.11.72,1,.08.11,2.3,3.17,0,.05.05.06.06.09v0a.41.41,0,0,0,.16.16h1.15Z"/><rect class="cls-2" x="21.25" y="46.38" width="11.49" height="1.87" rx="0.93"/><path d="M31.81,48.26H22.18a.95.95,0,0,1,0-1.89h9.63a.95.95,0,0,1,0,1.89ZM22.18,46.4a.92.92,0,1,0,0,1.83h9.63a.92.92,0,0,0,0-1.83Z"/><rect class="cls-1" x="5.57" y="14.98" width="0.73" height="4.19" rx="0.36" transform="translate(-7.74 5.25) rotate(-30)"/><path d="M6.8,19l-.1,0a.36.36,0,0,1-.23-.17l-1.73-3a.38.38,0,0,1,.14-.52.39.39,0,0,1,.52.14l1.72,3a.31.31,0,0,1,0,.28A.36.36,0,0,1,7,18.9H7A.35.35,0,0,1,6.8,19ZM5.07,15.23a.41.41,0,0,0-.18,0,.35.35,0,0,0-.13.48l1.73,3a.35.35,0,0,0,.48.13H7a.34.34,0,0,0,.16-.21.32.32,0,0,0,0-.27l-1.73-3A.33.33,0,0,0,5.07,15.23Z"/><rect class="cls-2" x="3.4" y="12.26" width="3.22" height="4.73" rx="1.59" transform="translate(-3.3 1.59) rotate(-13.63)"/><path d="M5.19,17a1.63,1.63,0,0,1-1.58-1.24l-.35-1.47A1.57,1.57,0,0,1,3.45,13a1.58,1.58,0,0,1,1-.73,1.62,1.62,0,0,1,2,1.19L6.77,15a1.63,1.63,0,0,1-1.2,2h0A1.73,1.73,0,0,1,5.19,17Zm-.35-4.69a1.58,1.58,0,0,0-.38.05,1.55,1.55,0,0,0-1,.72,1.58,1.58,0,0,0-.19,1.2l.36,1.47a1.59,1.59,0,0,0,.72,1,1.54,1.54,0,0,0,1.2.19v0A1.59,1.59,0,0,0,6.74,15l-.36-1.47a1.56,1.56,0,0,0-.72-1A1.51,1.51,0,0,0,4.84,12.29Z"/><polygon class="cls-1" points="38.61 20.74 37.39 21.33 28.84 8.94 24.55 8.94 24.55 11.46 23.14 11.46 23.14 7.76 29.65 7.76 38.61 20.74"/><path d="M37.38,21.34h0L28.83,9H24.56v2.52H23.12V7.75h6.55l9,13ZM24.53,8.93h4.32l8.54,12.38,1.2-.58-9-13H23.15v3.67h1.38Z"/><rect class="cls-2" x="33.15" y="18.72" width="8.22" height="3.18" rx="0.89"/><path d="M40.44,21.92H34.07a.93.93,0,0,1-.93-.94V19.64a.93.93,0,0,1,.93-.93h6.37a.94.94,0,0,1,.94.93V21A.94.94,0,0,1,40.44,21.92Zm-6.37-3.19a.91.91,0,0,0-.91.91V21a.91.91,0,0,0,.91.91h6.37a.91.91,0,0,0,.91-.91V19.64a.91.91,0,0,0-.91-.91Z"/><path class="cls-2" d="M23.63,10.46a2.69,2.69,0,0,0-2.69,2.7h5.39A2.7,2.7,0,0,0,23.63,10.46Z"/><path d="M26.35,13.17H20.92a2.72,2.72,0,1,1,5.43,0Zm-5.4,0h5.37a2.69,2.69,0,0,0-5.37,0Z"/><rect class="cls-1" x="25.92" y="28.23" width="2.15" height="6.59" rx="1.07"/><path d="M27,34.82a1.09,1.09,0,0,1-1.09-1.09V29.35a1.1,1.1,0,0,1,2.19,0v4.38A1.09,1.09,0,0,1,27,34.82Zm0-6.53a1.07,1.07,0,0,0-1.06,1.06v4.38a1.07,1.07,0,0,0,2.13,0V29.35A1.07,1.07,0,0,0,27,28.29Z"/><rect class="cls-2" x="21.34" y="27.32" width="11.26" height="2.38" rx="1.14"/><path d="M31.41,29.71H22.53a1.21,1.21,0,0,1,0-2.41h8.88a1.21,1.21,0,1,1,0,2.41Zm-8.88-2.38a1.18,1.18,0,0,0,0,2.35h8.88a1.18,1.18,0,1,0,0-2.35Z"/><path d="M15.7,31.74a.12.12,0,0,1-.1,0L9,22.54a.12.12,0,0,1,0-.17.12.12,0,0,1,.17,0l6.62,9.14a.13.13,0,0,1,0,.18Z"/><path d="M16.61,33a.14.14,0,0,1-.1,0l-.6-.71a.14.14,0,0,1,0-.18.13.13,0,0,1,.18,0l.59.71a.13.13,0,0,1,0,.18A.13.13,0,0,1,16.61,33Z"/><path class="cls-3" d="M42.54,41.77a.25.25,0,0,1-.2-.1L37,34.31A.25.25,0,0,1,37,34a.25.25,0,0,1,.35.06l5.38,7.35a.25.25,0,0,1-.05.35A.3.3,0,0,1,42.54,41.77Z"/><path class="cls-3" d="M24.37,45.72a.25.25,0,0,1-.25-.22l-1-7.85a.25.25,0,0,1,.22-.28.26.26,0,0,1,.28.22l1,7.85a.26.26,0,0,1-.22.28Z"/><path class="cls-3" d="M39.45,19.54h0l-3.61,0a.18.18,0,0,1-.17-.18.18.18,0,0,1,.17-.17h0l3.61,0a.17.17,0,1,1,0,.34Z"/></svg>