<svg xmlns="http://www.w3.org/2000/svg" xmlns:xlink="http://www.w3.org/1999/xlink" width="380.345" height="318.794" viewBox="0 0 380.345 318.794">
  <defs>
    <linearGradient id="linear-gradient" x1="0.5" y1="-0.227" x2="0.5" y2="0.559" gradientUnits="objectBoundingBox">
      <stop offset="0" stop-color="#e5e5e5"/>
      <stop offset="0.476" stop-color="#f3f3f3"/>
      <stop offset="1" stop-color="#fff"/>
    </linearGradient>
    <linearGradient id="linear-gradient-2" x1="1.154" y1="0.568" x2="0.42" y2="0.49" gradientUnits="objectBoundingBox">
      <stop offset="0" stop-color="#f2bfad"/>
      <stop offset="1" stop-color="#f2dad4"/>
    </linearGradient>
    <linearGradient id="linear-gradient-3" x1="0.202" y1="0.241" x2="1.023" y2="0.87" gradientUnits="objectBoundingBox">
      <stop offset="0" stop-color="#63c7db"/>
      <stop offset="0.984" stop-color="#63c7db"/>
      <stop offset="1" stop-color="#63c7db"/>
    </linearGradient>
    <linearGradient id="linear-gradient-4" x1="0.51" y1="0.622" x2="0.569" y2="1.822" gradientUnits="objectBoundingBox">
      <stop offset="0" stop-color="#f2bfad"/>
      <stop offset="0.704" stop-color="#f2dad4"/>
    </linearGradient>
    <linearGradient id="linear-gradient-5" x1="0.404" y1="0.306" x2="0.835" y2="1.076" xlink:href="#linear-gradient-2"/>
    <linearGradient id="linear-gradient-6" x1="0.386" y1="0.075" x2="0.681" y2="1.17" gradientUnits="objectBoundingBox">
      <stop offset="0" stop-color="#f6dbdb"/>
      <stop offset="1" stop-color="#eb9a99"/>
    </linearGradient>
  </defs>
  <g id="Group_21176" data-name="Group 21176" transform="translate(-1070.487 -556.911)">
    <g id="Group_21174" data-name="Group 21174" transform="translate(1070.487 707.645)">
      <path id="Path_50594" data-name="Path 50594" d="M1760.494,908.512a2.643,2.643,0,0,0-5.222.817c.379,2.461.862,10.173-1.8,13.275a3.552,3.552,0,0,1-2.145,1.234l.242-14.686a3.82,3.82,0,1,0-7.638.032l.69,27.871a3.565,3.565,0,0,1-2.235-1.245c-2.661-3.1-2.178-10.814-1.8-13.275a2.643,2.643,0,1,0-5.222-.817c-.19,1.213-1.717,12.01,3,17.525a8.946,8.946,0,0,0,6.386,3.139l.3,12.131h5.767l.418-25.346a8.93,8.93,0,0,0,6.252-3.129C1762.211,920.522,1760.684,909.725,1760.494,908.512Z" transform="translate(-1447.456 -905.268)" fill="#bdbdbd"/>
      <path id="Path_50595" data-name="Path 50595" d="M1203.571,964.657a1.684,1.684,0,1,0-3.328.521c.241,1.569.549,6.484-1.147,8.462a2.264,2.264,0,0,1-1.367.787l.155-9.362a2.435,2.435,0,1,0-4.869.02l.44,17.767a2.27,2.27,0,0,1-1.425-.794c-1.7-1.978-1.389-6.894-1.147-8.463a1.684,1.684,0,1,0-3.328-.521c-.121.773-1.1,7.656,1.913,11.171a5.7,5.7,0,0,0,4.071,2l.192,7.734h3.676l.266-16.157a5.7,5.7,0,0,0,3.986-1.995C1204.666,972.313,1203.693,965.43,1203.571,964.657Z" transform="translate(-1136.76 -937.786)" fill="#bdbdbd"/>
      <ellipse id="Ellipse_2524" data-name="Ellipse 2524" cx="190.173" cy="67.325" rx="190.173" ry="67.325" transform="translate(0 33.412)" fill="url(#linear-gradient)"/>
    </g>
    <g id="Group_21175" data-name="Group 21175" transform="translate(1228.114 556.911)">
      <path id="Path_50596" data-name="Path 50596" d="M1570.486,948.917s-.11,6.479,0,7.128-2.536,4.446-3.618,4.278-3.244-.529-3.557-.889-.175-1.21-.063-1.987.92-7.832.92-8.193S1569.285,947.932,1570.486,948.917Z" transform="translate(-1507.584 -779.053)" fill="#ffd3bc"/>
      <path id="Path_50597" data-name="Path 50597" d="M1565.291,964.415c-1.353.731-2.112,2.956-2.3,2.983s-.55-.027-.55-.247.055-.962-.192-.962-.522,1.209-.577,2.968-.681,5.953,0,6.487c.427.334,4.343,2.391,4.452,2.666s-.083,2.2.248,2.5,1.1,1.045,1.7,1.072a26.287,26.287,0,0,0,5.745,0,12.66,12.66,0,0,0,3.793-1.4c.055-.22-.412-4.892-.934-5.469s-4.287-5.744-4.59-6.211a5.333,5.333,0,0,1-.522-2.254,2.9,2.9,0,0,0-1.707-2.445A7.766,7.766,0,0,0,1565.291,964.415Z" transform="translate(-1506.583 -787.795)" fill="#ffca01"/>
      <path id="Path_50598" data-name="Path 50598" d="M1488.738,957.576s0,3.773-.109,4.422,2.536,4.446,3.618,4.278,3.244-.528,3.557-.889.175-1.211.064-1.987-.809-5.127-.809-5.487S1489.939,956.59,1488.738,957.576Z" transform="translate(-1465.325 -783.964)" fill="#ffd3bc"/>
      <path id="Path_50599" data-name="Path 50599" d="M1489.811,764.51c-1.531,5.566-4.426,24.636-4.426,33.9s-.927,32.9-.927,36.487-.386,12.5.541,12.964a9.273,9.273,0,0,0,6.032,1.392c2.939-.464,3.712-2.32,3.789-4.021s.774-13.919,1.469-18.637,3.171-13.815,4.795-19.667,5.413-17.62,6.419-17.574,7.268,25.825,7.789,27.286,1.516,22.22,1.581,23.962,0,3.42,1.1,4.129,4.452,2.451,6.193,2.581,2.9-2.645,3.226-3.484.895-28.6.688-36.222.4-21.821.044-26.452-1.485-14.557-2.206-16.645S1489.811,764.51,1489.811,764.51Z" transform="translate(-1462.916 -674.156)" fill="#192b59"/>
      <path id="Path_50600" data-name="Path 50600" d="M1462.175,584.072c1.461-1.623,8.279-9.308,9.632-9.578s4.646-.866,5.38-1.623,3.84-10.508,2.611-12.282-5.974-1.27-7.411,1.748-1.366,4.6-3.738,6.685-12.707,10.534-13.669,11.388.947,5,2.456,5.719S1462.175,584.072,1462.175,584.072Z" transform="translate(-1446.09 -558.418)" fill="url(#linear-gradient-2)"/>
      <path id="Path_50601" data-name="Path 50601" d="M1469.7,612.672c-3.484.73-9.271,1.349-11.182,1.967s-9.44,3.259-9.384,2.135,3.484-6.069,2.866-6.574-4.327-1.124-4.944-1.91-1.461-2.641-2.3-2.416-10.615,9.327-9.946,12.811c1.577,8.215,24.672,14.2,25.2,17.784s-1.791,37.938-.527,39.2,14.649,6.112,21.393,6.534,18.576-1.928,19.222-3.7-3.291-35.91-2.834-35.91.586,10.745,5.723,13.524c3.391,1.834,8.056-.055,8.949-1.067s-3.188-15.3-5.034-20.115-3.613-14.772-7.788-18.3-10.068-2.932-12.1-3.762-8.836-.235-10.553-.414A62.443,62.443,0,0,0,1469.7,612.672Z" transform="translate(-1434.776 -584.677)" fill="url(#linear-gradient-3)"/>
      <path id="Path_50602" data-name="Path 50602" d="M1606.654,697.356s-6.006,1.815-6.475,2.44-1.3,3.124,0,4.165,2.729,1.82,4.273.619,2.952-2.819,3.844-3.023,3.561.18,4.682-.26,3.247-8.935,2.389-9.45S1606.654,697.356,1606.654,697.356Z" transform="translate(-1528.214 -633.443)" fill="url(#linear-gradient-4)"/>
      <path id="Path_50603" data-name="Path 50603" d="M1506.862,583.758c-1.938-.4-5.68-4.061-6.024-7.78-.334-3.623-3-13.8,6.275-17.623,8.7-3.583,17.656.1,18.943,4.522,1.2,4.127-9.012,4.312-12.757,7s-4,4.472-4.934,4.047S1506.862,583.758,1506.862,583.758Z" transform="translate(-1471.909 -556.912)" fill="#e64d4e"/>
      <path id="Path_50604" data-name="Path 50604" d="M1514.885,599.948c-.123,1.659-.541,9.685.154,10.867.638,1.085,1.772,4.239,6.22,4.1s7.332-4.586,7.575-5.107-.278-6.95-.278-8.027-5.976-3.614-8.374-3.544S1515,598.388,1514.885,599.948Z" transform="translate(-1480.088 -580.355)" fill="url(#linear-gradient-5)"/>
      <path id="Path_50605" data-name="Path 50605" d="M1510.753,585.2c.5-.014-.091,3.044.818,4.044s4.864,6.213,9.049,5.7c3.619-.44,3.1-3.559,3.622-6.127.473-2.331,1.978-2.532,2.506-8.618.2-2.356,1.318-6.044-.727-6.725s-9.724-2.5-11.632,0-2.09,8.5-3.09,7.724-3.09-4.544-4.317-2.5S1508.072,585.28,1510.753,585.2Z" transform="translate(-1475.547 -565.586)" fill="#f2dad4"/>
      <path id="Path_50606" data-name="Path 50606" d="M1574.489,673.348l-12.18,15.4a1.21,1.21,0,0,0,.97,1.96l22.512-.383a1.209,1.209,0,0,0,.948-.485l11.506-15.376a1.1,1.1,0,0,0-.888-1.757l-21.929.182A1.21,1.21,0,0,0,1574.489,673.348Z" transform="translate(-1506.977 -622.602)" fill="url(#linear-gradient-6)"/>
      <path id="Path_50607" data-name="Path 50607" d="M1622.939,688.509c-1.185.119-2.906.786-2.906,1.405s1.382.79,1.763.848.882.177.739.367-.429,1.144-1.191.977a46.65,46.65,0,0,0-4.741-.215c-.643,0-1.406.453-1.453.929s-.191.572-.572.6-1.072.381-1.072,1,1.531,1.177,1.531,1.4a27.4,27.4,0,0,0,3.591,2.394c.589.341,1.688,1.208,2.308,1.208a1.877,1.877,0,0,0,1.734-1.44c.077-.852,1.3-1.471,1.316-1.889s-.387-.728-.341-.991,1.115-.635,1.115-1.3a7.546,7.546,0,0,0-.48-1.843c-.062-.279-.31-.883-.062-.96s1.115-.883.96-1.626S1623.487,688.454,1622.939,688.509Z" transform="translate(-1536.169 -631.562)" fill="#ffd3bc"/>
      <path id="Path_50608" data-name="Path 50608" d="M1482.165,966.821c1.353.731,2.112,2.955,2.3,2.983s.55-.028.55-.247-.055-.962.193-.962.522,1.209.577,2.968.68,5.953,0,6.486c-.427.334-4.343,2.391-4.453,2.666s.082,2.2-.247,2.5-1.1,1.044-1.7,1.072a26.263,26.263,0,0,1-5.744,0,12.659,12.659,0,0,1-3.793-1.4c-.055-.22.412-4.893.935-5.469s4.287-5.744,4.589-6.212a5.333,5.333,0,0,0,.522-2.253,2.9,2.9,0,0,1,1.707-2.446A7.765,7.765,0,0,1,1482.165,966.821Z" transform="translate(-1454.67 -789.16)" fill="#ffca01"/>
    </g>
  </g>
</svg>
