<svg xmlns="http://www.w3.org/2000/svg" width="17.017" height="18.435" viewBox="0 0 17.017 18.435">
  <g id="power-switch" transform="translate(-80.979 -74.23)">
    <path id="Path_51070" data-name="Path 51070" d="M18.314,19.509a1.064,1.064,0,0,1-1.064-1.064V12.064a1.064,1.064,0,0,1,2.127,0v6.381A1.064,1.064,0,0,1,18.314,19.509Z" transform="translate(71.173 63.23)" fill="#63c7db"/>
    <path id="Path_51071" data-name="Path 51071" d="M20.509,28.545a8.506,8.506,0,0,1-5.267-15.188,1.064,1.064,0,0,1,1.316,1.673,6.381,6.381,0,1,0,7.9,0,1.064,1.064,0,1,1,1.316-1.673,8.506,8.506,0,0,1-5.267,15.188Z" transform="translate(68.979 64.121)" fill="#63c7db"/>
  </g>
</svg>
