<svg xmlns="http://www.w3.org/2000/svg" width="18.555" height="24.359" viewBox="0 0 18.555 24.359">
  <g id="Group_21507" data-name="Group 21507" transform="translate(-61)">
    <path id="Path_51067" data-name="Path 51067" d="M127.423,60a6.423,6.423,0,1,0,6.423,6.423A6.43,6.43,0,0,0,127.423,60Zm0,11.418a5,5,0,1,1,5-5A5,5,0,0,1,127.423,71.418Z" transform="translate(-57.145 -57.145)" fill="#63c7db"/>
    <path id="Path_51068" data-name="Path 51068" d="M184.73,112.188l-1.7-.247-.761-1.543a.714.714,0,0,0-1.28,0l-.761,1.543-1.7.247a.714.714,0,0,0-.4,1.217l1.232,1.2-.291,1.7a.714.714,0,0,0,1.035.752l1.523-.8,1.523.8a.714.714,0,0,0,1.035-.752l-.291-1.7,1.232-1.2a.714.714,0,0,0-.4-1.217Zm-2.1,1.658a.714.714,0,0,0-.205.632l.11.64-.575-.3a.714.714,0,0,0-.664,0l-.575.3.11-.64a.714.714,0,0,0-.205-.632l-.465-.454.643-.093a.714.714,0,0,0,.537-.39l.288-.583.288.583a.714.714,0,0,0,.537.39l.643.093Z" transform="translate(-111.349 -104.767)" fill="#63c7db"/>
    <path id="Path_51069" data-name="Path 51069" d="M78.842,10.86a2.656,2.656,0,0,0,.713-1.583,2.656,2.656,0,0,0-.713-1.583,2.345,2.345,0,0,1-.389-.608,2.413,2.413,0,0,1,.029-.759,2.582,2.582,0,0,0-.17-1.69,2.636,2.636,0,0,0-1.392-1,2.383,2.383,0,0,1-.659-.344,2.382,2.382,0,0,1-.344-.659,2.636,2.636,0,0,0-1-1.393,2.582,2.582,0,0,0-1.69-.17,2.415,2.415,0,0,1-.759.029A2.347,2.347,0,0,1,71.86.713a2.112,2.112,0,0,0-3.165,0,2.346,2.346,0,0,1-.608.389,2.419,2.419,0,0,1-.759-.029,2.581,2.581,0,0,0-1.69.17,2.636,2.636,0,0,0-1,1.393,2.382,2.382,0,0,1-.344.659,2.382,2.382,0,0,1-.659.344,2.636,2.636,0,0,0-1.393,1,2.581,2.581,0,0,0-.17,1.69,2.414,2.414,0,0,1,.029.759,2.347,2.347,0,0,1-.389.608A2.656,2.656,0,0,0,61,9.277a2.656,2.656,0,0,0,.713,1.583,2.345,2.345,0,0,1,.389.608,2.413,2.413,0,0,1-.029.759,2.582,2.582,0,0,0,.17,1.69,2.636,2.636,0,0,0,1.392,1,2.383,2.383,0,0,1,.659.344,2.382,2.382,0,0,1,.344.659,5.549,5.549,0,0,0,.318.675L63.38,22.476a.714.714,0,0,0,1.046.8l1.713-.989L67.128,24a.714.714,0,0,0,1.307-.172L69.863,18.5a1.616,1.616,0,0,0,.829,0L72.12,23.83A.714.714,0,0,0,73.427,24l.989-1.713,1.713.989a.714.714,0,0,0,1.046-.8L75.6,16.595a5.551,5.551,0,0,0,.317-.675,2.382,2.382,0,0,1,.344-.659,2.382,2.382,0,0,1,.659-.344,2.636,2.636,0,0,0,1.393-1,2.581,2.581,0,0,0,.17-1.69,2.414,2.414,0,0,1-.029-.759,2.346,2.346,0,0,1,.389-.608ZM67.5,21.8l-.484-.839a.714.714,0,0,0-.975-.261l-.839.484.984-3.671a3.756,3.756,0,0,0,1.139-.028,2.412,2.412,0,0,1,.76-.029,1.822,1.822,0,0,1,.5.3Zm7.009-1.1a.714.714,0,0,0-.975.261l-.484.839L71.97,17.757a1.821,1.821,0,0,1,.5-.3,2.419,2.419,0,0,1,.759.029,3.753,3.753,0,0,0,1.139.028l.984,3.671Zm3.2-10.706a3.265,3.265,0,0,0-.636,1.109,3.375,3.375,0,0,0-.007,1.311,1.86,1.86,0,0,1,.011.793,1.852,1.852,0,0,1-.7.4,3.325,3.325,0,0,0-1.122.654,3.324,3.324,0,0,0-.654,1.122,1.851,1.851,0,0,1-.4.7,1.861,1.861,0,0,1-.793-.011,3.374,3.374,0,0,0-1.311.007,3.268,3.268,0,0,0-1.109.635,1.831,1.831,0,0,1-.713.418,1.831,1.831,0,0,1-.713-.418,3.266,3.266,0,0,0-1.109-.635A2.225,2.225,0,0,0,67.879,16a5.716,5.716,0,0,0-.734.062,1.86,1.86,0,0,1-.793.011,1.851,1.851,0,0,1-.4-.7,3.324,3.324,0,0,0-.654-1.122,3.323,3.323,0,0,0-1.122-.654,1.851,1.851,0,0,1-.7-.4,1.861,1.861,0,0,1,.011-.792,3.374,3.374,0,0,0-.007-1.311,3.266,3.266,0,0,0-.635-1.109,1.832,1.832,0,0,1-.418-.713,1.832,1.832,0,0,1,.418-.713,3.265,3.265,0,0,0,.636-1.109,3.375,3.375,0,0,0,.007-1.311,1.86,1.86,0,0,1-.011-.793,1.852,1.852,0,0,1,.7-.4A3.324,3.324,0,0,0,65.3,4.3a3.324,3.324,0,0,0,.654-1.122,1.851,1.851,0,0,1,.4-.7,1.861,1.861,0,0,1,.793.011,3.378,3.378,0,0,0,1.311-.007,3.268,3.268,0,0,0,1.109-.635,1.831,1.831,0,0,1,.713-.418,1.831,1.831,0,0,1,.713.418,3.266,3.266,0,0,0,1.109.635,3.372,3.372,0,0,0,1.311.007,1.86,1.86,0,0,1,.793-.011,1.851,1.851,0,0,1,.4.7A3.324,3.324,0,0,0,75.252,4.3a3.323,3.323,0,0,0,1.122.654,1.851,1.851,0,0,1,.7.4,1.861,1.861,0,0,1-.011.792,3.374,3.374,0,0,0,.007,1.311,3.266,3.266,0,0,0,.635,1.109,1.831,1.831,0,0,1,.418.713,1.832,1.832,0,0,1-.418.713Z" fill="#63c7db"/>
  </g>
</svg>
