<svg id="supermarket_2_" data-name="supermarket (2)" xmlns="http://www.w3.org/2000/svg" width="23.283" height="20.464" viewBox="0 0 23.283 20.464">
  <path id="Path_41003" data-name="Path 41003" d="M7.5,13.643H19.872a.682.682,0,0,0,.656-.495L23.257,3.6a.682.682,0,0,0-.656-.87H5.928L5.441.534A.682.682,0,0,0,4.775,0H.682a.682.682,0,0,0,0,1.364H4.228L6.69,12.447A2.046,2.046,0,0,0,7.5,16.371H19.872a.682.682,0,1,0,0-1.364H7.5a.682.682,0,0,1,0-1.364Zm14.2-9.55-2.339,8.185H8.05L6.231,4.093Zm0,0" transform="translate(0 0)" fill="#1b4791"/>
  <path id="Path_41004" data-name="Path 41004" d="M150,362.046A2.046,2.046,0,1,0,152.046,360,2.049,2.049,0,0,0,150,362.046Zm2.046-.682a.682.682,0,1,1-.682.682A.683.683,0,0,1,152.046,361.364Zm0,0" transform="translate(-143.179 -343.629)" fill="#1b4791"/>
  <path id="Path_41005" data-name="Path 41005" d="M362,362.046A2.046,2.046,0,1,0,364.046,360,2.049,2.049,0,0,0,362,362.046Zm2.046-.682a.682.682,0,1,1-.682.682A.683.683,0,0,1,364.046,361.364Zm0,0" transform="translate(-345.538 -343.629)" fill="#1b4791"/>
</svg>
