<svg id="question_5_" data-name="question (5)" xmlns="http://www.w3.org/2000/svg" width="18.109" height="18.109" viewBox="0 0 18.109 18.109">
  <g id="Group_20045" data-name="Group 20045">
    <g id="Group_20044" data-name="Group 20044">
      <circle id="Ellipse_2458" data-name="Ellipse 2458" cx="0.884" cy="0.884" r="0.884" transform="translate(8.17 12.503)" fill="#63c7db"/>
      <path id="Path_50146" data-name="Path 50146" d="M9.055,0a9.055,9.055,0,1,0,9.055,9.055A9.05,9.05,0,0,0,9.055,0Zm0,16.695a7.64,7.64,0,1,1,7.64-7.64A7.636,7.636,0,0,1,9.055,16.695Z" fill="#63c7db"/>
      <path id="Path_50147" data-name="Path 50147" d="M178.83,128.5a2.833,2.833,0,0,0-2.83,2.83.707.707,0,0,0,1.415,0,1.415,1.415,0,1,1,1.415,1.415.707.707,0,0,0-.707.707v1.768a.707.707,0,0,0,1.415,0V134.07a2.83,2.83,0,0,0-.707-5.57Z" transform="translate(-169.775 -123.955)" fill="#63c7db"/>
    </g>
  </g>
</svg>
