<svg id="Layer_1" data-name="Layer 1" xmlns="http://www.w3.org/2000/svg" viewBox="0 0 50 50"><defs><style>.cls-1{fill:#1b4791;}.cls-2{fill:#63c7db;}.cls-3{fill:#fff;}</style></defs><rect class="cls-1" x="18.69" y="21.37" width="13.72" height="5.33" transform="translate(-9.51 25.14) rotate(-45.06)"/><path d="M32.2,21.06,22.58,30.7,18.89,27l9.62-9.64,3.69,3.69m.15,0L32.28,21l-3.7-3.69-.07-.08-.07.08-9.62,9.64-.08.07.08.08,3.69,3.68.07.08.08-.08,9.62-9.63.07-.08Z"/><rect x="3.89" y="41.41" width="8.52" height="0.11" transform="translate(-26.96 17.94) rotate(-45.06)"/><path class="cls-2" d="M10.12,35.65H14a0,0,0,0,1,0,0v2.13a1.7,1.7,0,0,1-1.7,1.7h-.33a1.8,1.8,0,0,1-1.8-1.8v-2A0,0,0,0,1,10.12,35.65Z" transform="translate(30.06 2.47) rotate(44.94)"/><path d="M10.81,39.13l-.26-.27a1.81,1.81,0,0,1,0-2.58L12,34.78l2.79,2.78-1.55,1.56A1.76,1.76,0,0,1,10.81,39.13ZM12,34.93l-1.42,1.42a1.72,1.72,0,0,0,0,2.43l.27.27a1.63,1.63,0,0,0,2.31,0l1.48-1.49Z"/><path class="cls-1" d="M11.61,36.38a3.07,3.07,0,0,1,0-4.33L22.34,21.3l5.95,5.93L17.53,38a3,3,0,0,1-4.27,0Z"/><path d="M28.22,27.23,17.49,38a3,3,0,0,1-4.19,0l-1.65-1.65a3,3,0,0,1,0-4.25l10.7-10.72,5.88,5.86m.15,0-.08-.07L22.42,21.3l-.08-.08-.07.08L11.57,32a3.12,3.12,0,0,0,0,4.4l1.65,1.64a3.08,3.08,0,0,0,4.35,0L28.29,27.31l.08-.08Z"/><path class="cls-2" d="M11.58,29.25h8.3a0,0,0,0,1,0,0v6.26a3,3,0,0,1-3,3H14.62a3,3,0,0,1-3-3V29.25a0,0,0,0,1,0,0Z" transform="translate(28.53 -1.21) rotate(44.94)"/><rect class="cls-2" x="19.76" y="23.97" width="11.09" height="0.6" rx="0.3" transform="translate(24.54 -10.79) rotate(44.94)"/><path d="M28.77,28.23l-7.42-7.41a.35.35,0,0,1,.5-.5l7.42,7.41a.35.35,0,0,1-.5.5Zm-7-7.84a.26.26,0,0,0-.35,0,.25.25,0,0,0,0,.36l7.43,7.41a.26.26,0,0,0,.35,0,.25.25,0,0,0,0-.36Z"/><path d="M21.89,24.61,21,23.7a0,0,0,0,1,0-.07,0,0,0,0,1,.07,0l.91.91a0,0,0,0,1-.07.07Z"/><path d="M22.53,24l-.91-.91a0,0,0,0,1,0-.07.06.06,0,0,1,.08,0l.91.91a0,0,0,0,1-.07.07Z"/><path d="M20,26.54l-.91-.92a0,0,0,0,1,.07-.07l.92.91a.06.06,0,0,1-.08.08Z"/><path d="M20.61,25.9,19.7,25a0,0,0,0,1,.07-.07l.91.91s0,.05,0,.08A0,0,0,0,1,20.61,25.9Z"/><path d="M22.2,26.2l-1.86-1.86a0,0,0,0,1,.07-.07l1.86,1.86a0,0,0,0,1-.07.07Z"/><path d="M20.28,28.12l-1.86-1.85a.06.06,0,0,1,0-.08,0,0,0,0,1,.07,0l1.87,1.86a0,0,0,0,1,0,.07A.06.06,0,0,1,20.28,28.12Z"/><path d="M18.05,28.46l-.91-.91a.06.06,0,0,1,0-.08,0,0,0,0,1,.07,0l.92.91a.06.06,0,1,1-.08.08Z"/><path d="M18.69,27.82l-.91-.91a.06.06,0,0,1,0-.08,0,0,0,0,1,.07,0l.92.91a.06.06,0,1,1-.08.08Z"/><path d="M18.36,30.05,16.5,28.19a.06.06,0,0,1,0-.08,0,0,0,0,1,.07,0L18.44,30a.06.06,0,0,1-.08.08Z"/><path d="M16.13,30.38l-.91-.91a.06.06,0,0,1,.08-.08l.91.91a.06.06,0,1,1-.08.08Z"/><path d="M16.77,29.74l-.91-.91a.06.06,0,1,1,.08-.08l.91.91a.06.06,0,1,1-.08.08Z"/><path d="M16.44,32l-1.86-1.86a.06.06,0,0,1,.08-.08l1.86,1.86a.06.06,0,0,1-.08.08Z"/><path d="M14.22,32.3l-.92-.91a0,0,0,0,1,0-.07,0,0,0,0,1,.08,0l.91.91a0,0,0,1,1-.07.07Z"/><path d="M14.86,31.66l-.92-.91a.06.06,0,0,1,.08-.08l.91.92a0,0,0,0,1-.07.07Z"/><path d="M14.53,33.89,12.66,32a0,0,0,0,1,0-.07.06.06,0,0,1,.08,0l1.86,1.85a.06.06,0,0,1,0,.08A0,0,0,0,1,14.53,33.89Z"/><rect class="cls-2" x="26.05" y="18.47" width="8.45" height="1.65" rx="0.82" transform="translate(22.48 -15.75) rotate(44.94)"/><path d="M32.07,22.32l-4.82-4.81a.88.88,0,1,1,1.24-1.24l4.82,4.81a.88.88,0,0,1-1.24,1.24Zm-3.66-6a.77.77,0,1,0-1.08,1.09l4.81,4.8a.77.77,0,1,0,1.09-1.09Z"/><rect class="cls-2" x="33.76" y="26.94" width="11.02" height="3.07"/><path d="M44.84,30.06H33.71V26.89H44.84Zm-11-.1H44.74V27H33.81Z"/><rect class="cls-1" x="32.54" y="24.33" width="13.47" height="3.37" rx="0.49"/><path d="M45.52,24.38a.44.44,0,0,1,.44.44V27.2a.44.44,0,0,1-.44.44H33a.44.44,0,0,1-.44-.44V24.82a.44.44,0,0,1,.44-.44H45.52m0-.11H33a.55.55,0,0,0-.54.55V27.2a.54.54,0,0,0,.54.54H45.52a.54.54,0,0,0,.54-.54V24.82a.55.55,0,0,0-.54-.55Z"/><path class="cls-1" d="M33.58,45.85a1.32,1.32,0,0,1-1.32-1.32V30.41a1.07,1.07,0,0,1,1.07-1.07h12a.94.94,0,0,1,.94.94V44.53A1.32,1.32,0,0,1,45,45.85Z"/><path d="M45.35,29.39a.89.89,0,0,1,.89.89V44.53A1.27,1.27,0,0,1,45,45.8H33.58a1.27,1.27,0,0,1-1.27-1.27V30.41a1,1,0,0,1,1-1h12m0-.1h-12a1.13,1.13,0,0,0-1.13,1.12V44.53a1.37,1.37,0,0,0,1.38,1.37H45a1.37,1.37,0,0,0,1.37-1.37V30.28a1,1,0,0,0-1-1Z"/><path class="cls-2" d="M32.26,43.2V32.46H38a1.36,1.36,0,0,1,1.36,1.36v8A1.36,1.36,0,0,1,38,43.2Z"/><path d="M38,32.52a1.3,1.3,0,0,1,1.3,1.3v8a1.3,1.3,0,0,1-1.3,1.3H32.31V32.52H38m0-.11H32.2V43.25H38a1.42,1.42,0,0,0,1.41-1.41v-8A1.42,1.42,0,0,0,38,32.41Z"/><path d="M35.4,38.28H32.31a.05.05,0,1,1,0-.1H35.4a0,0,0,0,1,0,.1Z"/><path d="M36.45,40.47H32.31a.06.06,0,0,1-.06,0,.06.06,0,0,1,.06-.05h4.14a.05.05,0,0,1,0,.05A0,0,0,0,1,36.45,40.47Z"/><path class="cls-3" d="M44.79,38.75a.11.11,0,0,1-.11-.1V31.58a.11.11,0,0,1,.11-.1.11.11,0,0,1,.1.1v7.07A.11.11,0,0,1,44.79,38.75Z"/><path class="cls-3" d="M44.79,42.05a.11.11,0,0,1-.11-.1v-2a.11.11,0,0,1,.11-.1.11.11,0,0,1,.1.1v2A.11.11,0,0,1,44.79,42.05Z"/><path d="M39.58,25.36h-5.2a.06.06,0,0,1-.05-.06.05.05,0,0,1,.05-.05h5.2a.05.05,0,0,1,.05.05A.06.06,0,0,1,39.58,25.36Z"/><path d="M42.92,25.36h-2a.06.06,0,0,1,0-.06.05.05,0,0,1,0-.05h2a.05.05,0,0,1,0,.05A.06.06,0,0,1,42.92,25.36Z"/><path class="cls-1" d="M23.06,45.93a1.47,1.47,0,1,1,0-2.94h6.75a1.47,1.47,0,1,1,0,2.94Z"/><path d="M29.81,43.05a1.42,1.42,0,1,1,0,2.83H23.06a1.42,1.42,0,1,1,0-2.83h6.75m0-.11H23.06a1.53,1.53,0,1,0,0,3.05h6.75a1.53,1.53,0,1,0,0-3.05Z"/><path class="cls-2" d="M26,43.05H23.06a1.42,1.42,0,1,0,0,2.83H26Z"/><path class="cls-3" d="M30,45.56h-3.4a.11.11,0,0,1,0-.22H30a.11.11,0,1,1,0,.22Z"/><path d="M25.47,43.37h-2a.06.06,0,0,1-.06,0,.06.06,0,0,1,.06-.06h2a.06.06,0,0,1,.05.06A0,0,0,0,1,25.47,43.37Z"/><path class="cls-1" d="M19.3,45.83a1.47,1.47,0,1,1-1.39-2.59l6-3.19a1.46,1.46,0,0,1,2,.6,1.48,1.48,0,0,1-.6,2Z"/><path d="M23.89,40.09a1.42,1.42,0,0,1,1.34,2.5l-5.95,3.19a1.42,1.42,0,1,1-1.34-2.5l5.95-3.19M23.84,40l-5.95,3.19a1.53,1.53,0,1,0,1.44,2.69l6-3.19A1.53,1.53,0,1,0,23.84,40Z"/><path class="cls-2" d="M20.51,41.91l-2.57,1.37a1.42,1.42,0,1,0,1.34,2.5l2.57-1.38Z"/><path class="cls-3" d="M25.24,42.23l-3,1.6a.11.11,0,0,1-.15,0,.11.11,0,0,1,.05-.15l3-1.61a.1.1,0,0,1,.14,0A.11.11,0,0,1,25.24,42.23Z"/><path d="M20.22,42.43l-1.81,1a.06.06,0,0,1-.07,0,.05.05,0,0,1,0-.08l1.81-1a.05.05,0,0,1,.07,0A0,0,0,0,1,20.22,42.43Z"/></svg>