<svg xmlns="http://www.w3.org/2000/svg" width="47.617" height="48.083" viewBox="0 0 47.617 48.083">
    <defs>
        <style>
            .cls-1{fill:#1b4791}.cls-2{fill:#f2f7f7}.cls-3{fill:#e6f0f0}.cls-5{fill:#63c7db}.cls-6{fill:#060606}
        </style>
    </defs>
    <g id="dental-probe" transform="translate(-.063 4.884)">
        <g id="Group_16983" data-name="Group 16983" transform="translate(3.591 -4.884)">
            <g id="Group_16982" data-name="Group 16982">
                <g id="Group_16979" data-name="Group 16979" transform="translate(9.803)">
                    <g id="Group_16975" data-name="Group 16975" transform="translate(29.451 22.645)">
                        <path id="Path_46644" d="M468.959 263.254v-8.561l.93-4.744-.93-5.123v-4.708l.789-1.209a.894.894 0 0 1 1.5 0l.789 1.209v4.708l-.93 5.123.93 4.744v8.561z" class="cls-1" data-name="Path 46644" transform="translate(-468.959 -238.504)"/>
                        <path id="Path_46645" d="M479.529 240.118l-.789-1.209a.894.894 0 0 0-1.5 0l-.02.031.769 1.178v4.708l-.769 4.233.162.89-.162.824.769 3.92v8.561h1.538v-8.561l-.93-4.744.93-5.123v-4.708z" class="cls-1" data-name="Path 46645" transform="translate(-476.453 -238.503)"/>
                        <path id="Path_46646" d="M468.959 306.458h3.075v9.867h-3.075z" class="cls-2" data-name="Path 46646" transform="translate(-468.959 -300.135)"/>
                        <path id="Path_46647" d="M485.486 306.458h1.538v9.867h-1.538z" class="cls-3" data-name="Path 46647" transform="translate(-483.948 -300.135)"/>
                    </g>
                    <g id="Group_16976" data-name="Group 16976" transform="translate(15.981)">
                        <path id="Path_46648" fill="#abc9d4" d="M387.877 262.6v-8.561l.93-4.933-.93-4.933v-4.708l.857-1.313a.813.813 0 0 1 1.361 0l.857 1.313v4.708l-.93 4.933.93 4.933v8.561z" data-name="Path 46648" transform="translate(-381.951 -215.203)"/>
                        <path id="Path_46649" d="M387.877 262.6v-8.561l.93-4.933-.93-4.933v-4.708l.857-1.313a.813.813 0 0 1 1.361 0l.857 1.313v4.708l-.93 4.933.93 4.933v8.561z" class="cls-1" data-name="Path 46649" transform="translate(-381.951 -215.203)"/>
                        <path id="Path_46650" d="M398.446 239.462l-.857-1.313a.813.813 0 0 0-1.361 0l-.088.135.769 1.178v4.708l-.769 4.077.162.857-.162.857.769 4.077v8.562h1.538v-8.561l-.93-4.934.93-4.934z" class="cls-1" data-name="Path 46650" transform="translate(-389.445 -215.202)"/>
                        <path id="Path_46651" d="M387.877 306.458h3.075v9.867h-3.075z" class="cls-2" data-name="Path 46651" transform="translate(-381.951 -277.49)"/>
                        <path id="Path_46652" d="M387.877 306.458h3.075v9.867h-3.075z" class="cls-2" data-name="Path 46652" transform="translate(-381.951 -277.49)"/>
                        <path id="Path_46653" d="M404.4 306.458h1.538v9.867H404.4z" class="cls-3" data-name="Path 46653" transform="translate(-396.939 -277.49)"/>
                        <ellipse id="Ellipse_2319" cx="3.392" cy="6.921" class="cls-2" data-name="Ellipse 2319" rx="3.392" ry="6.921" transform="rotate(-21.844 6.54 1.262)"/>
                        <path id="Path_46654" d="M354.831 12.8c-1.421-3.549-3.982-5.86-5.721-5.163a1.94 1.94 0 0 0-.928.827 11.129 11.129 0 0 1 2.927 4.335c1.109 2.77 1.2 5.475.353 6.86a2.849 2.849 0 0 0 2.793.827c1.739-.693 1.997-4.135.576-7.686z" class="cls-3" data-name="Path 46654" transform="translate(-345.949 -6.362)"/>
                    </g>
                    <g id="Group_16977" data-name="Group 16977" transform="translate(7.163 5.746)">
                        <path id="Path_46655" d="M237.889 75.231l-8.477-18.357 4.809 18.367-.766 23.282" class="cls-1" data-name="Path 46655" transform="translate(-229.412 -56.874)"/>
                        <path id="Path_46656" d="M275.012 98.524l.883-8.561-.422-4.933 1.439-4.934.5-4.865-7.447-18.357 3.873 18.362-.752 4.859.2 4.747-1.722 5.12-1.325 8.566z" class="cls-1" data-name="Path 46656" transform="translate(-266.194 -56.874)"/>
                        <path id="Path_46657" d="M277.414 75.231l-7.447-18.357.075.355 5.511 18-.5 4.865-1.439 4.934.422 4.933-.883 8.561h1.861l.883-8.561-.422-4.933 1.439-4.934z" class="cls-1" data-name="Path 46657" transform="translate(-266.194 -56.874)"/>
                        <path id="Path_46658" d="M288.637 306.458h3.824l-1.018 9.867h-4.332z" class="cls-2" data-name="Path 46658" transform="translate(-281.743 -283.236)"/>
                        <path id="Path_46659" d="M314.526 306.458l-1.018 9.867h1.876l1.018-9.867z" class="cls-3" data-name="Path 46659" transform="translate(-305.684 -283.236)"/>
                    </g>
                    <g id="Group_16978" data-name="Group 16978" transform="translate(0 18.759)">
                        <path id="Path_46660" d="M178.534 198.173l-1.233-1.444h-1.233l-1.233 1.444v3.738l1.85 1.032 1.849-1.032z" class="cls-2" data-name="Path 46660" transform="translate(-172.75 -196.729)"/>
                        <path id="Path_46661" d="M186.315 196.729h-1.233l-.308.361.925 1.083v3.738l-.925.516.925.516 1.849-1.032v-3.738z" class="cls-3" data-name="Path 46661" transform="translate(-181.765 -196.729)"/>
                        <path id="Path_46662" d="M161.376 399.809h6.216v5.528h-6.216z" class="cls-5" data-name="Path 46662" transform="translate(-160.544 -380.914)"/>
                        <path id="Path_46663" d="M194.779 399.809h3.108v5.528h-3.108z" class="cls-5" data-name="Path 46663" transform="translate(-190.839 -380.914)"/>
                        <path id="Path_46664" d="M167.592 258.25l-3.006 1.258-3.209-1.258.777-5.821h4.662z" class="cls-5" data-name="Path 46664" transform="translate(-160.544 -247.247)"/>
                        <path id="Path_46665" d="M184.606 252.429h-2.357l.026 5.821-1.283.715 1.384.543 3.006-1.258z" class="cls-5" data-name="Path 46665" transform="translate(-178.334 -247.247)"/>
                        <path id="Path_46666" d="M159.754 323.972h-6.77a.555.555 0 0 1-.555-.555v-7.474a.555.555 0 0 1 .555-.555h6.77a.555.555 0 0 1 .555.555v7.474a.555.555 0 0 1-.555.555z" class="cls-2" data-name="Path 46666" transform="translate(-152.429 -304.348)"/>
                        <path id="Path_46667" d="M198.1 315.387h-3.385l-.006 8.584h3.391a.555.555 0 0 0 .555-.555v-7.474a.555.555 0 0 0-.555-.555z" class="cls-3" data-name="Path 46667" transform="translate(-190.779 -304.347)"/>
                        <path id="Path_46668" d="M152.429 457.3v-4.288a.555.555 0 0 1 .555-.555h6.771a.555.555 0 0 1 .555.555v4.288h-7.881z" class="cls-2" data-name="Path 46668" transform="translate(-152.429 -428.667)"/>
                        <path id="Path_46669" d="M198.164 452.461h-3.385v4.839h3.94v-4.288a.555.555 0 0 0-.555-.551z" class="cls-3" data-name="Path 46669" transform="translate(-190.839 -428.667)"/>
                    </g>
                </g>
                <g id="Group_16981" data-name="Group 16981" transform="translate(0 17.118)">
                    <path id="Path_46670" d="M60.9 307.253v-20.237h4.523v20.237z" class="cls-1" data-name="Path 46670" transform="translate(-59.612 -276.975)"/>
                    <path id="Path_46671" d="M85.205 287.016v20.237h2.261v-20.237z" class="cls-1" data-name="Path 46671" transform="translate(-81.656 -276.975)"/>
                    <path id="Path_46672" d="M60.9 218.984h4.523v6.6H60.9z" class="cls-2" data-name="Path 46672" transform="translate(-59.612 -215.273)"/>
                    <path id="Path_46673" d="M85.205 218.985h2.261v6.6h-2.261z" class="cls-3" data-name="Path 46673" transform="translate(-81.656 -215.274)"/>
                    <g id="Group_16980" data-name="Group 16980">
                        <path id="Path_46674" d="M53.739 184.5a.712.712 0 0 1-.924.68l-3.212-1c-1.359-.461-2.54-1.162-2.54-2.777A2.393 2.393 0 0 1 49.6 179.1h3.424a.712.712 0 0 1 .712.712z" class="cls-1" data-name="Path 46674" transform="translate(-47.064 -179.096)"/>
                    </g>
                </g>
            </g>
        </g>
        <g id="Group_16984" data-name="Group 16984" transform="translate(.063 -4.43)">
            <path id="Path_46675" d="M452.973 95.739v-5.118c0-1.4 1.768-2.005 1.768-3.491 0-2.292-3.11-4.014-4.858-4.885a.7.7 0 0 0-.623 1.249c1.163.579 4.085 2.049 4.085 3.636 0 1.246-1.768 1.985-1.768 3.491v5.16l-1.41 2.161a.7.7 0 0 0-.113.381v23.133a.7.7 0 0 0 1.4 0v-7.862h1.68v7.862a.7.7 0 0 0 1.4 0V98.324a.7.7 0 0 0-.113-.381zm-.684 1.506l.84 1.287v3.8h-1.68v-3.8zm-.84 14.955v-8.47h1.68v8.47z" class="cls-6" data-name="Path 46675" transform="translate(-407.124 -74.521)"/>
            <path id="Path_46676" d="M340.953 1.294c-1.289-1.163-2.605-1.56-3.707-1.119a2.626 2.626 0 0 0-1.272 1.125.7.7 0 0 0 1.2.721 1.269 1.269 0 0 1 .6-.553c.572-.229 1.393.084 2.252.859a10.693 10.693 0 0 1 2.561 3.914c1.363 3.4 1 6.305-.187 6.78-.572.23-1.393-.084-2.252-.859a10.688 10.688 0 0 1-2.561-3.914 12.327 12.327 0 0 1-.8-3.025.7.7 0 0 0-1.385.17 13.747 13.747 0 0 0 .889 3.374A12.1 12.1 0 0 0 339.2 13.2a5.212 5.212 0 0 0 1.892 1.151v6.909l-1.41 2.161a.7.7 0 0 0-.113.381v23.134a.7.7 0 0 0 1.4 0v-7.862h1.68v7.862a.7.7 0 0 0 1.4 0V23.8a.7.7 0 0 0-.113-.381l-1.438-2.2v-6.775c1.608-.329 2.219-2.042 2.327-3.495a12.1 12.1 0 0 0-.945-5.224 12.1 12.1 0 0 0-2.922-4.432zm.016 36.384v-8.47h1.68v8.47zm1.68-9.866h-1.68v-3.8l.84-1.287.84 1.287v3.8z" class="cls-6" data-name="Path 46676" transform="translate(-304.188)"/>
            <path id="Path_46677" d="M391.718 75.821a.75.75 0 0 0 .772-.615 7.739 7.739 0 0 0-.674-4.376.7.7 0 0 0-1.219.68 6.238 6.238 0 0 1 .506 3.539.7.7 0 0 0 .615.772z" class="cls-6" data-name="Path 46677" transform="translate(-354.176 -63.922)"/>
            <path id="Path_46678" d="M227.008 49.918a.7.7 0 0 0-1.329.406l1.9 8.989-4.353-9.426a.7.7 0 0 0-1.309.469l4.783 18.268-.766 23.176a.7.7 0 0 0 1.387.135l1.234-7.974h2.961l-.8 7.79a.7.7 0 0 0 1.388.143l.883-8.559L234 73.472l.5-4.863a.7.7 0 0 0-.048-.334zm6.092 18.719l-.419 4.065H230.3l.627-4.055a.7.7 0 0 0-.007-.251l-2.255-10.687zm-7.836-11.006l3.358 7.27a.7.7 0 0 0 .187.242l.721 3.416-1.821 11.741.386-11.734a.7.7 0 0 0-.022-.2zm3.51 24.936l1.311-8.47h2.452l-.874 8.47z" class="cls-6" data-name="Path 46678" transform="translate(-201.249 -44.889)"/>
            <path id="Path_46679" d="M153.3 137.207l-.708-5.3a.7.7 0 0 0-.481-.572v-3.073a.7.7 0 0 0-.167-.453l-1.233-1.444a.7.7 0 0 0-.449-.24l.005-5.8a.7.7 0 0 0-1.4 0l-.005 5.8a.7.7 0 0 0-.45.24l-1.233 1.444a.7.7 0 0 0-.167.453v3.077a.7.7 0 0 0-.469.568l-.708 5.3a1.254 1.254 0 0 0-.908 1.2v2.478a.7.7 0 0 0 1.4 0v-2.335h6.485v7.188h-6.485v-.856a.7.7 0 0 0-1.4 0v1a1.254 1.254 0 0 0 .832 1.179v2.921a1.254 1.254 0 0 0-.832 1.179v4.287a.7.7 0 0 0 1.4 0v-4.145h6.485v4.145a.7.7 0 0 0 1.4 0v-4.287a1.254 1.254 0 0 0-.832-1.179v-2.921a1.254 1.254 0 0 0 .832-1.179v-7.473a1.255 1.255 0 0 0-.912-1.202zm-1.42-.086h-4.621l.591-4.425h3.44zm-3.469-8.6l.857-1h.59l.857 1v2.779h-2.3zm-1.252 21.392v-2.773h4.82v2.773z" class="cls-6" data-name="Path 46679" transform="translate(-131.451 -108.515)"/>
            <path id="Path_46680" d="M10.4 171.577H6.976a3.156 3.156 0 0 0-3.152 2.305H.74a.7.7 0 0 0 0 1.4h3.065a3.041 3.041 0 0 0 1.221 1.886v25.385a.7.7 0 0 0 1.4 0v-19.27h3.123v19.27a.7.7 0 0 0 1.4 0v-23.57a1.491 1.491 0 0 0 .865-1.3v-4.69a1.412 1.412 0 0 0-1.414-1.416zm-3.424 1.4H10.4a.014.014 0 0 1 .014.015v4.69a.7.7 0 0 0-.11-.018l-3.112-.97c-1.481-.5-2.058-1.1-2.058-2.113a1.7 1.7 0 0 1 1.842-1.608zm-.555 4.923c.112.042.223.082.33.118l.017.005 2.78.866v2.994H6.421z" class="cls-6" data-name="Path 46680" transform="translate(-.063 -155.613)"/>
        </g>
    </g>
</svg>
