<svg xmlns="http://www.w3.org/2000/svg" width="111" height="142" viewBox="0 0 111 142">
  <g id="Group_12761" data-name="Group 12761" transform="translate(0.309 0.297)" opacity="0.33">
    <rect id="Rectangle_2606" data-name="Rectangle 2606" width="4" height="4" rx="2" transform="translate(-0.309 -0.297)" fill="#1b4791"/>
    <rect id="Rectangle_2607" data-name="Rectangle 2607" width="4" height="4" rx="2" transform="translate(-0.309 15.703)" fill="#1b4791"/>
    <rect id="Rectangle_2608" data-name="Rectangle 2608" width="4" height="4" rx="2" transform="translate(-0.309 30.703)" fill="#1b4791"/>
    <rect id="Rectangle_2609" data-name="Rectangle 2609" width="4" height="4" rx="2" transform="translate(-0.309 45.703)" fill="#1b4791"/>
    <rect id="Rectangle_2610" data-name="Rectangle 2610" width="4" height="4" rx="2" transform="translate(-0.309 60.703)" fill="#1b4791"/>
    <rect id="Rectangle_2611" data-name="Rectangle 2611" width="4" height="4" rx="2" transform="translate(-0.309 76.703)" fill="#1b4791"/>
    <rect id="Rectangle_2612" data-name="Rectangle 2612" width="4" height="4" rx="2" transform="translate(-0.309 91.703)" fill="#1b4791"/>
    <rect id="Rectangle_2613" data-name="Rectangle 2613" width="4" height="4" rx="2" transform="translate(-0.309 106.703)" fill="#1b4791"/>
    <rect id="Rectangle_2614" data-name="Rectangle 2614" width="4" height="4" rx="2" transform="translate(-0.309 121.703)" fill="#1b4791"/>
    <rect id="Rectangle_2615" data-name="Rectangle 2615" width="4" height="4" rx="2" transform="translate(-0.309 137.703)" fill="#1b4791"/>
    <rect id="Rectangle_2616" data-name="Rectangle 2616" width="4" height="4" rx="2" transform="translate(30.691 -0.297)" fill="#1b4791"/>
    <rect id="Rectangle_2617" data-name="Rectangle 2617" width="4" height="4" rx="2" transform="translate(30.691 15.703)" fill="#1b4791"/>
    <rect id="Rectangle_2618" data-name="Rectangle 2618" width="4" height="4" rx="2" transform="translate(30.691 30.703)" fill="#1b4791"/>
    <rect id="Rectangle_2619" data-name="Rectangle 2619" width="4" height="4" rx="2" transform="translate(30.691 45.703)" fill="#1b4791"/>
    <rect id="Rectangle_2620" data-name="Rectangle 2620" width="4" height="4" rx="2" transform="translate(30.691 60.703)" fill="#1b4791"/>
    <rect id="Rectangle_2621" data-name="Rectangle 2621" width="4" height="4" rx="2" transform="translate(30.691 76.703)" fill="#1b4791"/>
    <rect id="Rectangle_2622" data-name="Rectangle 2622" width="4" height="4" rx="2" transform="translate(30.691 91.703)" fill="#1b4791"/>
    <rect id="Rectangle_2623" data-name="Rectangle 2623" width="4" height="4" rx="2" transform="translate(30.691 106.703)" fill="#1b4791"/>
    <rect id="Rectangle_2624" data-name="Rectangle 2624" width="4" height="4" rx="2" transform="translate(30.691 121.703)" fill="#1b4791"/>
    <rect id="Rectangle_2625" data-name="Rectangle 2625" width="4" height="4" rx="2" transform="translate(30.691 137.703)" fill="#1b4791"/>
    <rect id="Rectangle_2626" data-name="Rectangle 2626" width="4" height="4" rx="2" transform="translate(60.691 -0.297)" fill="#1b4791"/>
    <rect id="Rectangle_2627" data-name="Rectangle 2627" width="4" height="4" rx="2" transform="translate(60.691 15.703)" fill="#1b4791"/>
    <rect id="Rectangle_2628" data-name="Rectangle 2628" width="4" height="4" rx="2" transform="translate(60.691 30.703)" fill="#1b4791"/>
    <rect id="Rectangle_2629" data-name="Rectangle 2629" width="4" height="4" rx="2" transform="translate(60.691 45.703)" fill="#1b4791"/>
    <rect id="Rectangle_2630" data-name="Rectangle 2630" width="4" height="4" rx="2" transform="translate(60.691 60.703)" fill="#1b4791"/>
    <rect id="Rectangle_2631" data-name="Rectangle 2631" width="4" height="4" rx="2" transform="translate(60.691 76.703)" fill="#1b4791"/>
    <rect id="Rectangle_2632" data-name="Rectangle 2632" width="4" height="4" rx="2" transform="translate(60.691 91.703)" fill="#1b4791"/>
    <rect id="Rectangle_2633" data-name="Rectangle 2633" width="4" height="4" rx="2" transform="translate(60.691 106.703)" fill="#1b4791"/>
    <rect id="Rectangle_2634" data-name="Rectangle 2634" width="4" height="4" rx="2" transform="translate(60.691 121.703)" fill="#1b4791"/>
    <rect id="Rectangle_2635" data-name="Rectangle 2635" width="4" height="4" rx="2" transform="translate(60.691 137.703)" fill="#1b4791"/>
    <rect id="Rectangle_2636" data-name="Rectangle 2636" width="4" height="4" rx="2" transform="translate(91.691 -0.297)" fill="#1b4791"/>
    <rect id="Rectangle_2637" data-name="Rectangle 2637" width="4" height="4" rx="2" transform="translate(91.691 15.703)" fill="#1b4791"/>
    <rect id="Rectangle_2638" data-name="Rectangle 2638" width="4" height="4" rx="2" transform="translate(91.691 30.703)" fill="#1b4791"/>
    <rect id="Rectangle_2639" data-name="Rectangle 2639" width="4" height="4" rx="2" transform="translate(91.691 45.703)" fill="#1b4791"/>
    <rect id="Rectangle_2640" data-name="Rectangle 2640" width="4" height="4" rx="2" transform="translate(91.691 60.703)" fill="#1b4791"/>
    <rect id="Rectangle_2641" data-name="Rectangle 2641" width="4" height="4" rx="2" transform="translate(91.691 76.703)" fill="#1b4791"/>
    <rect id="Rectangle_2642" data-name="Rectangle 2642" width="4" height="4" rx="2" transform="translate(91.691 91.703)" fill="#1b4791"/>
    <rect id="Rectangle_2643" data-name="Rectangle 2643" width="4" height="4" rx="2" transform="translate(91.691 106.703)" fill="#1b4791"/>
    <rect id="Rectangle_2644" data-name="Rectangle 2644" width="4" height="4" rx="2" transform="translate(91.691 121.703)" fill="#1b4791"/>
    <rect id="Rectangle_2645" data-name="Rectangle 2645" width="4" height="4" rx="2" transform="translate(91.691 137.703)" fill="#1b4791"/>
    <rect id="Rectangle_2646" data-name="Rectangle 2646" width="4" height="4" rx="2" transform="translate(15.691 -0.297)" fill="#1b4791"/>
    <rect id="Rectangle_2647" data-name="Rectangle 2647" width="4" height="4" rx="2" transform="translate(15.691 15.703)" fill="#1b4791"/>
    <rect id="Rectangle_2648" data-name="Rectangle 2648" width="4" height="4" rx="2" transform="translate(15.691 30.703)" fill="#1b4791"/>
    <rect id="Rectangle_2649" data-name="Rectangle 2649" width="4" height="4" rx="2" transform="translate(15.691 45.703)" fill="#1b4791"/>
    <rect id="Rectangle_2650" data-name="Rectangle 2650" width="4" height="4" rx="2" transform="translate(15.691 60.703)" fill="#1b4791"/>
    <rect id="Rectangle_2651" data-name="Rectangle 2651" width="4" height="4" rx="2" transform="translate(15.691 76.703)" fill="#1b4791"/>
    <rect id="Rectangle_2652" data-name="Rectangle 2652" width="4" height="4" rx="2" transform="translate(15.691 91.703)" fill="#1b4791"/>
    <rect id="Rectangle_2653" data-name="Rectangle 2653" width="4" height="4" rx="2" transform="translate(15.691 106.703)" fill="#1b4791"/>
    <rect id="Rectangle_2654" data-name="Rectangle 2654" width="4" height="4" rx="2" transform="translate(15.691 121.703)" fill="#1b4791"/>
    <rect id="Rectangle_2655" data-name="Rectangle 2655" width="4" height="4" rx="2" transform="translate(15.691 137.703)" fill="#1b4791"/>
    <rect id="Rectangle_2656" data-name="Rectangle 2656" width="4" height="4" rx="2" transform="translate(45.691 -0.297)" fill="#1b4791"/>
    <rect id="Rectangle_2657" data-name="Rectangle 2657" width="4" height="4" rx="2" transform="translate(45.691 15.703)" fill="#1b4791"/>
    <rect id="Rectangle_2658" data-name="Rectangle 2658" width="4" height="4" rx="2" transform="translate(45.691 30.703)" fill="#1b4791"/>
    <rect id="Rectangle_2659" data-name="Rectangle 2659" width="4" height="4" rx="2" transform="translate(45.691 45.703)" fill="#1b4791"/>
    <rect id="Rectangle_2660" data-name="Rectangle 2660" width="4" height="4" rx="2" transform="translate(45.691 60.703)" fill="#1b4791"/>
    <rect id="Rectangle_2661" data-name="Rectangle 2661" width="4" height="4" rx="2" transform="translate(45.691 76.703)" fill="#1b4791"/>
    <rect id="Rectangle_2662" data-name="Rectangle 2662" width="4" height="4" rx="2" transform="translate(45.691 91.703)" fill="#1b4791"/>
    <rect id="Rectangle_2663" data-name="Rectangle 2663" width="4" height="4" rx="2" transform="translate(45.691 106.703)" fill="#1b4791"/>
    <rect id="Rectangle_2664" data-name="Rectangle 2664" width="4" height="4" rx="2" transform="translate(45.691 121.703)" fill="#1b4791"/>
    <rect id="Rectangle_2665" data-name="Rectangle 2665" width="4" height="4" rx="2" transform="translate(45.691 137.703)" fill="#1b4791"/>
    <rect id="Rectangle_2666" data-name="Rectangle 2666" width="4" height="4" rx="2" transform="translate(76.691 -0.297)" fill="#1b4791"/>
    <rect id="Rectangle_2667" data-name="Rectangle 2667" width="4" height="4" rx="2" transform="translate(76.691 15.703)" fill="#1b4791"/>
    <rect id="Rectangle_2668" data-name="Rectangle 2668" width="4" height="4" rx="2" transform="translate(76.691 30.703)" fill="#1b4791"/>
    <rect id="Rectangle_2669" data-name="Rectangle 2669" width="4" height="4" rx="2" transform="translate(76.691 45.703)" fill="#1b4791"/>
    <rect id="Rectangle_2670" data-name="Rectangle 2670" width="4" height="4" rx="2" transform="translate(76.691 60.703)" fill="#1b4791"/>
    <rect id="Rectangle_2671" data-name="Rectangle 2671" width="4" height="4" rx="2" transform="translate(76.691 76.703)" fill="#1b4791"/>
    <rect id="Rectangle_2672" data-name="Rectangle 2672" width="4" height="4" rx="2" transform="translate(76.691 91.703)" fill="#1b4791"/>
    <rect id="Rectangle_2673" data-name="Rectangle 2673" width="4" height="4" rx="2" transform="translate(76.691 106.703)" fill="#1b4791"/>
    <rect id="Rectangle_2674" data-name="Rectangle 2674" width="4" height="4" rx="2" transform="translate(76.691 121.703)" fill="#1b4791"/>
    <rect id="Rectangle_2675" data-name="Rectangle 2675" width="4" height="4" rx="2" transform="translate(76.691 137.703)" fill="#1b4791"/>
    <rect id="Rectangle_2676" data-name="Rectangle 2676" width="4" height="4" rx="2" transform="translate(106.691 -0.297)" fill="#1b4791"/>
    <rect id="Rectangle_2677" data-name="Rectangle 2677" width="4" height="4" rx="2" transform="translate(106.691 15.703)" fill="#1b4791"/>
    <rect id="Rectangle_2678" data-name="Rectangle 2678" width="4" height="4" rx="2" transform="translate(106.691 30.703)" fill="#1b4791"/>
    <rect id="Rectangle_2679" data-name="Rectangle 2679" width="4" height="4" rx="2" transform="translate(106.691 45.703)" fill="#1b4791"/>
    <rect id="Rectangle_2680" data-name="Rectangle 2680" width="4" height="4" rx="2" transform="translate(106.691 60.703)" fill="#1b4791"/>
    <rect id="Rectangle_2681" data-name="Rectangle 2681" width="4" height="4" rx="2" transform="translate(106.691 76.703)" fill="#1b4791"/>
    <rect id="Rectangle_2682" data-name="Rectangle 2682" width="4" height="4" rx="2" transform="translate(106.691 91.703)" fill="#1b4791"/>
    <rect id="Rectangle_2683" data-name="Rectangle 2683" width="4" height="4" rx="2" transform="translate(106.691 106.703)" fill="#1b4791"/>
    <rect id="Rectangle_2684" data-name="Rectangle 2684" width="4" height="4" rx="2" transform="translate(106.691 121.703)" fill="#1b4791"/>
    <rect id="Rectangle_2685" data-name="Rectangle 2685" width="4" height="4" rx="2" transform="translate(106.691 137.703)" fill="#1b4791"/>
  </g>
</svg>
