<svg xmlns="http://www.w3.org/2000/svg" width="74" height="78" viewBox="0 0 74 78">
  <g id="Group_20900" data-name="Group 20900" transform="translate(-57 -678)">
    <path id="Rectangle_2604" data-name="Rectangle 2604" d="M15,0H51a0,0,0,0,1,0,0V32A15,15,0,0,1,36,47H0a0,0,0,0,1,0,0V15A15,15,0,0,1,15,0Z" transform="translate(80 678)" fill="#1b4791" opacity="0.04"/>
    <path id="Rectangle_2605" data-name="Rectangle 2605" d="M7,0H23a0,0,0,0,1,0,0V15a7,7,0,0,1-7,7H0a0,0,0,0,1,0,0V7A7,7,0,0,1,7,0Z" transform="translate(57 734)" fill="#edf7fa" opacity="0.88"/>
  </g>
</svg>
