<svg id="Layer_1" data-name="Layer 1" xmlns="http://www.w3.org/2000/svg" xmlns:xlink="http://www.w3.org/1999/xlink" viewBox="0 0 600 600"><defs><style>.cls-1,.cls-34{fill:none;}.cls-2{clip-path:url(#clip-path);}.cls-3{fill:#fff;}.cls-4{fill:#0d5ca9;}.cls-5{fill:#383838;}.cls-6{fill:#d9695c;}.cls-7{fill:#ec9080;}.cls-8{fill:#c3695c;}.cls-9{fill:#ffc3ba;}.cls-10{fill:#ff9495;}.cls-11{fill:#57110b;}.cls-12{fill:#fac1ba;}.cls-13{fill:#c36c66;}.cls-14{fill:#b7e9f9;}.cls-15{fill:#ff4200;}.cls-16{fill:#ebeef0;}.cls-17{fill:#b4d8ef;}.cls-18{fill:#f39595;}.cls-19{fill:#fab8b5;}.cls-20{fill:#e88282;}.cls-21{fill:#ff314f;}.cls-22{fill:#a51b12;}.cls-23{fill:#140128;}.cls-24{fill:#281312;}.cls-25{fill:#21477b;}.cls-26{fill:#2e110d;}.cls-27{fill:#261f1c;}.cls-28{fill:#fdaba0;}.cls-29{fill:#e66625;}.cls-30{fill:#ff6194;}.cls-31{fill:#6f9ab9;}.cls-32{fill:#ff4000;}.cls-33{fill:#00ab6c;}.cls-34{stroke:#1a65fc;stroke-miterlimit:10;stroke-width:0.5px;}.cls-35{fill:#c6c6c6;}.cls-36{fill:#ededed;}.cls-37{fill:#575756;}.cls-38{fill:#1d1d1b;opacity:0.1;}.cls-39{fill:#28324e;}.cls-40{fill:#ebae73;}.cls-41{fill:#d4614f;}.cls-42{fill:#424241;}.cls-43{fill:#e96b57;}.cls-44{fill:#e9a397;}.cls-45{fill:#b55344;}.cls-46{fill:#994639;}.cls-47{fill:#ffcd2e;}.cls-48{fill:#ffb700;}.cls-49{fill:#ffcf9f;}.cls-50{fill:#faa920;}</style><clipPath id="clip-path"><rect class="cls-1" width="600" height="600"/></clipPath></defs><g class="cls-2"><rect class="cls-3" x="-8" y="-1" width="610" height="610"/><circle class="cls-4" cx="121.24" cy="121.45" r="86.48"/><rect class="cls-5" x="330" y="577" width="197" height="99"/><path class="cls-6" d="M326.1,503.35s-.9-1.41-4.45-2.56c-.69-.22-9.14,0-11.38-.31s-5.87-2.47-7.13-.82,2.91,3.76,6.14,5.41,5.28,5.75,9.57,6.21S326.1,503.35,326.1,503.35Z"/><path class="cls-7" d="M234.77,379.53V368.75L215.46,365s-1.6,5-28.88,30.91S236,422.63,236,422.63Z"/><path class="cls-8" d="M215.46,365s-.53,1.61-6,7.73A85.49,85.49,0,0,0,234.77,374v-5.26Z"/><path class="cls-9" d="M265.24,337.79c3.23,19.4-15.09,32.58-16.89,33.82-3.34,2.33-10.26,7.14-19.15,6.31-14.06-1.32-25.85-16.07-26.79-31.16s8.79-33.3,26.93-35.9C247.09,308.32,262.64,322.21,265.24,337.79Z"/><path class="cls-10" d="M231,344.93c.6,8.7-2.8,16-7.59,16.35s-9.16-6.46-9.75-15.16,2.8-16,7.59-16.36S230.38,336.23,231,344.93Z"/><path class="cls-11" d="M269.3,350.93c-.35.35,2.28-8.61-4.27-14.61,0,0-13.37,6.21-23.53,6.46l4.32-3a50.51,50.51,0,0,1-14.11.11s2.41,8.26-1.52,13.62c0,0,1.41-16.78-4.05-21.48s-14.42,15.33-10.74,22.08.75,11.92,4.25,15.49-9.54-2.13-13.12-5.29-8.31-8.48-10.74-18.44c-2.81-11.49,6.45-28.68,6.45-28.68s-20.37,7.67-23.32-3.46S206,273.28,213,280.7s2.14,20.48,2.14,20.48,28-15.13,45.36,3.72S275.59,344.6,269.3,350.93Z"/><path class="cls-12" d="M309.56,451.48c4.16.82,11.12,1,13.66-1.9a16.38,16.38,0,0,0,3.2-4.93s4-2.92,2.29-5.32c0,0,2-3.42.07-4.66,0,0-1.45-4.62-4.65-5.71s-10.71.08-13.49,1.78-14,6.73-14,6.73-2.81,6.59,1.49,12.54Z"/><path class="cls-13" d="M316.37,440.43a9.92,9.92,0,0,0,5.31,1.51,12.41,12.41,0,0,0,7.15-2.45.2.2,0,1,0-.23-.33c-6.26,4.35-11.12,1.53-12,.94.16-.26.31-.54.46-.84,0,0,.72-1.61,4.21-1.93a10.62,10.62,0,0,0,5.92-2.33.19.19,0,1,0-.26-.29,7.5,7.5,0,0,1-.83.6,2.28,2.28,0,0,0-.71-1.71c-1.12-1.07-3.39-1.36-5.51-1.37,1.1-.75,3-1.9,3.95-1.74a.2.2,0,0,0,.23-.16.19.19,0,0,0-.16-.23c-1.42-.26-4.34,1.86-4.72,2.14a30.2,30.2,0,0,0-4.08.38.19.19,0,0,0-.16.23.19.19,0,0,0,.22.16c.08,0,7.71-1.27,10,.88a1.94,1.94,0,0,1,.58,1.66,11.22,11.22,0,0,1-4.47,1.38c-3.76.35-4.51,2.11-4.53,2.17a5.84,5.84,0,0,1-4,3.54c-3.51.72-7.36-2.6-7.4-2.63a.2.2,0,0,0-.27.3c.15.13,3.3,2.83,6.63,2.83a5.94,5.94,0,0,0,.93-.08,6.56,6.56,0,0,0,1.62,1.56,3.23,3.23,0,0,0-.79,2.42,3.77,3.77,0,0,0,2.2,2.59,8.37,8.37,0,0,0,4.06,1.1,7,7,0,0,0,3.66-1,.2.2,0,1,0-.23-.33,7.11,7.11,0,0,1-7.29-.14,3.41,3.41,0,0,1-2-2.29,2.91,2.91,0,0,1,.72-2.15,9.72,9.72,0,0,0,5.32,1.43,18,18,0,0,0,6.64-1.44.2.2,0,0,0,.11-.26.2.2,0,0,0-.26-.11C317.6,448,313.8,444,313,443A5.74,5.74,0,0,0,316.37,440.43Z"/><path class="cls-12" d="M272.5,490.78s-.61-8.15,11.81-15.69,8.21-2.38,5.41,1.06-4.91,8.72,3,7.31,30.51-5,22.59-1.15a45.5,45.5,0,0,1-15.22,4.41s27.67-2.76,20,1.06-19.15,4-19.15,4,21.12-1.11,17,1.39-17.2,5.08-17.2,5.08,13.12,1.45,6.78,3.73S273.07,507.84,272.5,490.78Z"/><polygon class="cls-4" points="185.81 534.96 189.45 560.85 197.05 629.55 180.86 733.73 147.5 733.73 147.5 716.64 123.28 712.9 135.11 592.39 132.29 532.13 185.81 534.96"/><path class="cls-14" d="M147.49,584.28a.74.74,0,0,0-.74.74V706.76l-17.22-3.06,10.24-98.54a.74.74,0,0,0-1.48-.15L127.75,706.46a.75.75,0,0,0,.67.81h.07a.75.75,0,0,0,.74-.67l.15-1.43,17.37,3.09v8.37a.74.74,0,0,0,.74.74.75.75,0,0,0,.75-.74V585A.75.75,0,0,0,147.49,584.28Z"/><path class="cls-14" d="M186.74,631l-10.32-77.38a.74.74,0,1,0-1.47.2l10.3,77.27-13.93,97h-20a.75.75,0,0,0-.74.75.74.74,0,0,0,.74.74h24.56a.74.74,0,0,0,.74-.74.75.75,0,0,0-.74-.75h-3l13.91-96.88A.67.67,0,0,0,186.74,631Z"/><path class="cls-15" d="M234.92,380.11s-7.46,49.09-25.29-7.48L186,536.32l3.45,24.53L232.53,446Z"/><path class="cls-16" d="M152.93,427.93a5.59,5.59,0,0,0-.48.61c-1.83,3.1-16.14,27.51-31.39,56.43-16.33,31-45.36,100.66-45.36,100.66,7.6,8.73,64.19,49.55,64.19,49.55C145.1,617,196.28,513.54,204,498a2.85,2.85,0,0,1,5.26,2.16l-19.78,60.65,7.6,68.7,29-129.25,48.43,8.17L286,471.88l-51.8-7.74,2.25-10,17.17,11.26s51.81-6.19,51-6.48-5.18-31.46-5.18-31.46l-34.34,4.09L243.23,413l-8.46-33.5-7.29,64.72h0l-17.85-71.62-9,3.74S156.71,423.15,152.93,427.93Z"/><path class="cls-17" d="M226.22,499.57l-20.42-3.48c-1.94-5-21.62-56-20.46-76.64a.73.73,0,0,0-.69-.78.71.71,0,0,0-.79.7c-.92,16.35,10.5,50.11,16.78,67.25L137,623.14,84,583.07a.74.74,0,0,0-.9,1.18l53.76,40.63a.74.74,0,0,0,.45.15l.18,0a.73.73,0,0,0,.49-.4l63.4-136c1.77,4.78,3,7.92,3.21,8.43a.75.75,0,0,0,.57.46L226,501h.13a.75.75,0,0,0,.73-.62A.74.74,0,0,0,226.22,499.57Z"/><path class="cls-17" d="M227.24,443.55a.74.74,0,0,0-.47.94l6.75,19.89a.74.74,0,0,0,.7.51,1,1,0,0,0,.24,0,.75.75,0,0,0,.47-.94L228.18,444A.75.75,0,0,0,227.24,443.55Z"/><path class="cls-17" d="M238.55,415.45a.75.75,0,0,0-.68.8c.73,8.75-2.11,37.52-2.14,37.81a.75.75,0,0,0,.67.82h.07a.75.75,0,0,0,.74-.67c.12-1.19,2.88-29.2,2.14-38.08A.77.77,0,0,0,238.55,415.45Z"/><path class="cls-17" d="M264.63,431c-.4.31-9.61,7.67-11.14,14.54a.74.74,0,0,0,.56.89l.16,0a.75.75,0,0,0,.73-.59c1.41-6.35,10.52-13.62,10.61-13.7a.74.74,0,0,0-.92-1.16Z"/><path class="cls-17" d="M296.49,430a.76.76,0,0,0-.85-.62.75.75,0,0,0-.62.85l3.79,24.12a.75.75,0,0,0,.74.63h.11a.73.73,0,0,0,.62-.85Z"/><path class="cls-17" d="M280.21,474.69a.76.76,0,0,0-.94.48l-9.16,28.51a.73.73,0,0,0,.48.93.57.57,0,0,0,.22,0,.74.74,0,0,0,.71-.52l9.17-28.5A.76.76,0,0,0,280.21,474.69Z"/><path class="cls-17" d="M138,553.15a10.89,10.89,0,0,0,3.48.57c17,0,33.42-39.69,34.11-41.38a.71.71,0,0,0,0-.57.76.76,0,0,0-.41-.4l-30.72-11.76a.75.75,0,0,0-.92.34c-.72,1.32-17.67,32.56-12.08,46.91A10.31,10.31,0,0,0,138,553.15Zm6.53-51.92L174,512.48c-2.3,5.38-17.57,39.76-32.44,39.76a9.3,9.3,0,0,1-3-.5,8.74,8.74,0,0,1-5.64-5.42C127.93,533.64,142.27,505.59,144.57,501.23Z"/><polygon class="cls-17" points="209.63 372.63 203.93 372.63 208.35 406.47 216.89 401.74 221.47 420.15 222.3 398.74 209.63 372.63"/><path class="cls-17" d="M234.77,379.53,229.19,400l1.85,1.85s-.72,17.21-.68,16.85,1.62-16.1,1.62-16.1l3.35,2.41,2.27-21.36Z"/><path class="cls-18" d="M436,362.39c4.21,2.19,10.89-2.34,14.93-10.11s3.89-15.84-.32-18c-3.24-1.68-7.95.63-11.79,5.33a27.51,27.51,0,0,0-3.13,4.79l-.09.17c-3.59,7-3.76,14.23-.62,17.11a5.23,5.23,0,0,0,.64.5C435.73,362.23,435.85,362.32,436,362.39Z"/><path class="cls-7" d="M435.16,393.51a8.8,8.8,0,0,0-.23-6.55c-1-2.5-1.83-4.62-2.54-6.48a61.41,61.41,0,0,1-3.12-9.65,12.13,12.13,0,0,1,0-4.91c.69-3.88-32-7.63-24.89,15.3v0a22.13,22.13,0,0,1,3.11,4.43,25.74,25.74,0,0,1,1.3,2.77c-.08.2-8.81,25.41-5.43,36.13s17.35,13.27,28.21,2.65C438.12,420.78,437,405,435.16,393.51Z"/><path class="cls-6" d="M429.23,365.92c.69-3.88-32-7.63-24.89,15.3v0s8.37,4.31,27.19-3a49.9,49.9,0,0,1-2.27-7.39A12.13,12.13,0,0,1,429.23,365.92Z"/><path class="cls-6" d="M409.08,388.13a.44.44,0,0,0-.63,0,.43.43,0,0,0,0,.62l6.7,7.2a.43.43,0,0,0,.32.14.42.42,0,0,0,.3-.12.43.43,0,0,0,0-.62Z"/><path class="cls-6" d="M432.62,380.11a.45.45,0,0,0-.61.13l-8.71,13.84a.44.44,0,0,0,.14.61.46.46,0,0,0,.23.06.46.46,0,0,0,.38-.2l8.71-13.84A.43.43,0,0,0,432.62,380.11Z"/><path class="cls-19" d="M384.44,340.85s2.85,9.4,2.43,17.23,8.85,19.62,16.47,22.83,22.33-5.65,27.53-11.75,8.2-21,7.92-27.6c-.48-11.49-11.83-32.23-30.47-27.91S380.12,324.78,384.44,340.85Z"/><path class="cls-20" d="M430.87,369.16c5.19-6.1,8.2-21,7.92-27.6-.48-11.49-11.83-32.23-30.47-27.91s-28.2,11.13-23.88,27.2c0,0,.37,1.24.83,3.17h0s6.72-4.62,9.56-11.85c0,0,4,13.64,19.37,11.87,0,0-5.55-4-5.91-7.15a9.18,9.18,0,0,0,9.51.37s4.05,10.62,12.05,8.77a6,6,0,0,1-2.28-2.94s2.68,2.94,7.48.81c0,0,3.29,7.33-1.93,7.61l2.95.81s-2.29,13.23-7.14,18.84A25.51,25.51,0,0,0,430.87,369.16Z"/><path class="cls-21" d="M398,355c-2,2.86-2.18,5.85-1,7a4.43,4.43,0,0,0,2,1,4.67,4.67,0,0,0,2,0Z"/><path class="cls-22" d="M405.15,341.22s9.52-4.88,14.87-2.29c2.3,1.11,1.38-.86-.76-2.6-4.26-3.46-10.25.25-12.68-.47-.72-.21-4.19,2.05-4.06,3.86S402.91,342.29,405.15,341.22Z"/><path class="cls-22" d="M392.07,343.31c-.8-1.28-4.24-1.11-4.62-.61a5.84,5.84,0,0,1-2.18,1.32h0c-1.13,2.05,0,2.73.43,2.91a.85.85,0,0,0,.2.06,29.07,29.07,0,0,1,5.14-1.38C393.06,345.24,392.87,344.6,392.07,343.31Z"/><path class="cls-23" d="M411.34,344.58h0a1.49,1.49,0,0,1,1.49,1.49v5.25a0,0,0,0,1,0,0h-3a0,0,0,0,1,0,0v-5.25A1.49,1.49,0,0,1,411.34,344.58Z" transform="translate(-47.12 64.96) rotate(-8.54)"/><path class="cls-23" d="M390.81,350h0a1.49,1.49,0,0,1,1.49,1.49v5.25a0,0,0,0,1,0,0h-3a0,0,0,0,1,0,0v-5.25A1.49,1.49,0,0,1,390.81,350Z" transform="translate(-57.4 76.42) rotate(-10.41)"/><path class="cls-3" d="M396.21,368.46c1.28,5.83,7.21,8.68,11.34,7,3.43-1.38,5.67-5.87,4.45-10.47a15.13,15.13,0,0,1-6.83,3.9A15.3,15.3,0,0,1,396.21,368.46Z"/><path class="cls-24" d="M383.86,433.19c4.2-10.17,7.07-32.73,7.07-32.73l17.82-12c-.2-.5-.41-1-.63-1.44h0c-.22-.46-.44-.9-.66-1.31s-.39-.69-.58-1l-.12-.19-.44-.7a.7.7,0,0,1-.06-.09l-.47-.67-.06-.08c-.15-.2-.28-.39-.41-.55l0,0-.38-.46v0c-.11-.13-.21-.25-.3-.34h0l-.19-.21,0,0,0,0a8.56,8.56,0,0,1-1-.34c-7.62-3.21-16.88-15-16.47-22.83a53.59,53.59,0,0,0-1.6-14.05h0s5.88-4.4,8.81-14.68c0,0,5,13.38,20.12,14.7A15.16,15.16,0,0,1,405.08,332s1.86,8.13,13,3.57c0,0,4.93,10.14,11.79,10.47a7.9,7.9,0,0,1-4.42-4.86s4.79,3.58,9.7,1.35h0s2.87,3.44,2.05,6.24-4.5,4-5.64,1.11c0,0,1.11,4.72,6.25,1.66,4.69-2.79,2.9-12,2.55-13.65,3.5-3.53,7.43-5.09,10.25-3.63,4.21,2.19,4.35,10.26.32,18s-10.72,12.3-14.93,10.11c-.13-.07-.25-.16-.38-.24a5.23,5.23,0,0,1-.64-.5,26.46,26.46,0,0,1-4.09,7.51c-.46.54-1,1.1-1.6,1.67,0,.1,0,.21.07.32a5.2,5.2,0,0,0,.11.51l.06.27c.06.21.11.42.17.65l0,.12c.08.29.16.58.26.89,0,.12.07.24.11.36s.15.49.23.76l.26.77c.06.16.1.3.16.46.44,1.3,1,2.8,1.66,4.54,0,0,30.87,8.26,38.39,14.67,6.13,5.23,7.85,14.81,10.19,31a57.72,57.72,0,0,0-1.47-27,35.57,35.57,0,0,1,6.64,25.66s6.41-18.86-5.53-42.27S455.39,338.07,447,316.84c-1.21-3.26-6-14.9-17.8-19.79-14.79-6.13-29.5,2.95-35.11,6.41a47.46,47.46,0,0,0-13.85,12.89,48.2,48.2,0,0,0-7.44,17.35c-2.32,10.23-.22,26.32,2.21,31.49,0,0-.33-11.3,2-16.28,0,0,4,16.42-.22,33.59s-12.61,35.74-8.29,52.33c2.07,8,7.36,13.62,12.74,17.32C381,445.24,381.72,438.38,383.86,433.19Z"/><path class="cls-25" d="M487.86,541.05c-4.53-7.38-10.94-17.61-10.94-17.61l-77.14-3s4.13,11.2,2.66,12.68-70.48,18-82.86,21.23-11.5,19.75-10.32,31.55,11.5,74,11.5,74H442.84l10-30.66s23.09-28.42,34.8-40.56C503.51,572.21,492.38,548.42,487.86,541.05Zm-106.95,92.3c-9.73-20.35-5.7-36-5.7-36l39.61-12.66Z"/><path class="cls-26" d="M476.4,553c-10.72-7-40.12,2.56-45.42,4.37a25.86,25.86,0,0,0,.8-8.08.44.44,0,1,0-.88.07c.44,5.89-1.89,12.45-4.93,18.29l-3.88-5.66a59.73,59.73,0,0,0,2.17-22.6.46.46,0,0,0-.49-.4.45.45,0,0,0-.39.49,58.72,58.72,0,0,1-2.19,22.43.44.44,0,0,0,.05.4l4.27,6.23-49.92,28.66a.4.4,0,0,0-.1-.12c-.08-.07-8.15-6.76-14.53-19.85a.44.44,0,0,0-.79.39A69,69,0,0,0,373,595.92c-8.41-3.75-36.79-16.87-47.32-27.75a.44.44,0,1,0-.63.62c12.48,12.89,49.61,28.83,50,29l.18,0a.47.47,0,0,0,.38-.21.45.45,0,0,0,0-.36l39.2-12.09a.44.44,0,0,0,.33-.14,90.39,90.39,0,0,0,6.41-8.31h0c3.42-5,7.29-11.62,9.15-18.34,2.93-1,34.48-11.64,45.2-4.66a.45.45,0,0,0,.61-.13A.44.44,0,0,0,476.4,553Z"/><path class="cls-26" d="M491.35,546.75a.44.44,0,0,0-.56-.27c-17.12,5.95-28.6-13.44-28.72-13.63a.43.43,0,0,0-.6-.17.45.45,0,0,0-.16.61c.1.17,9,15.21,22.95,15.21a20.65,20.65,0,0,0,6.82-1.19A.44.44,0,0,0,491.35,546.75Z"/><path class="cls-26" d="M315.38,576.51a.45.45,0,0,0-.37.51l12.68,79a.45.45,0,0,0,.44.37h.07a.46.46,0,0,0,.37-.51l-12.68-79A.46.46,0,0,0,315.38,576.51Z"/><path class="cls-27" d="M399.78,520.41s4.13,11.2,2.66,12.68c0,0,31.06,4.91,80.18-.51-3.08-5-5.7-9.14-5.7-9.14Z"/><path class="cls-28" d="M404.21,499.32c-1.33-4.42-20.35-37.47-20.35-37.47l3.34,38.41s-20,4.22-29.29,4.63c0,0-23.44.25-28.82-.84s-11.44,2.89-11.44,2.89l-4.37-3.47s-2.41-6.43-3.5-8.69-3.51-3.42-3.35-1.63,1.17,6.39,1.56,9.41a13.77,13.77,0,0,0,2.8,5.93l-4-3.27-1.56-7.55c.55-2.18-.62-7.32-1.4-7.56s-4,8.26-4,8.26l.62,8.64-4.44-5.68s-.86-4.29-1.4-6.16-2.1-2.8-2.88-2.57-.55,7.71-.31,8.26,3,8.26,3,8.26l-4.05-.94c-3.11-4.2-6.23-3.89-7.24-3.89s.16,1.94,1.71,3.89,4.6,5.06,6.94,5.22,12.07,1.64,12.69,1.71,2.49,1.87,3,1.72,2.73-.47,4.28-.78,23.65,4.28,26.12,3.14a6.92,6.92,0,0,1,3.61-.11c.64.15,43.83,8.12,51.51,9.66s11.39,1.54,14.82-.67S405.54,503.74,404.21,499.32Z"/><path class="cls-29" d="M325.17,517.61a20.28,20.28,0,0,1-5.9-1.61c-2.49-1.24-8.26-7.59-8.31-7.66a.23.23,0,0,0-.32,0,.22.22,0,0,0,0,.31c.24.27,5.88,6.48,8.44,7.76a20.55,20.55,0,0,0,6.05,1.65h0a.22.22,0,0,0,.22-.2A.21.21,0,0,0,325.17,517.61Z"/><path class="cls-29" d="M300.72,507a.21.21,0,0,0-.26-.16.22.22,0,0,0-.16.27c.07.27,1.77,6.72,4.14,8.23a.27.27,0,0,0,.12,0,.22.22,0,0,0,.19-.1.22.22,0,0,0-.07-.3C302.46,513.51,300.74,507,300.72,507Z"/><path class="cls-29" d="M294.71,509a.21.21,0,0,0-.29-.1.22.22,0,0,0-.11.29l2.33,4.89a.22.22,0,0,0,.2.12.15.15,0,0,0,.09,0,.22.22,0,0,0,.11-.29Z"/><path class="cls-29" d="M340.49,518.71c-.06,0-5.93-2.51-5.28-10.2a.22.22,0,0,0-.21-.24.23.23,0,0,0-.24.21c-.66,8,5.5,10.61,5.56,10.64h.08a.23.23,0,0,0,.21-.13A.23.23,0,0,0,340.49,518.71Z"/><path class="cls-30" d="M486.85,472.7c-.83-8.78-2.19-21.44-4.13-34.46-.65-4.39-1.22-8.41-1.75-12.09-2.34-16.19-4.06-25.77-10.19-31-7.52-6.41-38.39-14.67-38.39-14.67-2.33,11.72-4.5,21.51-6.16,29.36-.51,2.45-1.79,8.54-6.72,13-1.6,1.43-2.4,2.13-3.39,2-6.89-.81-7.36-36.38-7.36-36.38h0l-17.82,12s-2.87,22.56-7.07,32.73c-2.14,5.19-2.84,12.05-2.64,19,.2,6.64,3,18.94,4.41,24.25,2.88,10.84,7.08,51,7.08,51,19.68,7.74,86.4-4.35,86.4-4.35a58,58,0,0,0-5-14.67A116.51,116.51,0,0,1,467.46,490l19.83-7.56.36,4.46.21-2.43,3.07-13.19Z"/><path class="cls-26" d="M486.76,472.26l-33.82,6.58-5.83-63.67a.43.43,0,0,0-.48-.4.44.44,0,0,0-.4.48l-3.35,65.55L436.51,482a.45.45,0,0,0-.35.36.46.46,0,0,0,.2.46l19.08,11.61a.39.39,0,0,0,.23.07.45.45,0,0,0,.37-.21.44.44,0,0,0-.14-.61l-18.1-11,49.13-9.55a.44.44,0,0,0,.35-.52A.45.45,0,0,0,486.76,472.26Z"/><path class="cls-26" d="M449.82,508.79h.1a.44.44,0,0,0,.09-.87c-30.77-6.63-53.23-28.61-53.45-28.83a.44.44,0,0,0-.63,0,.43.43,0,0,0,0,.62C396.16,480,418.8,502.11,449.82,508.79Z"/><path class="cls-26" d="M415.42,525.71a198.39,198.39,0,0,1-20-.69.44.44,0,0,0-.1.88c.13,0,6.62.7,18.25.7a375,375,0,0,0,48.22-3.32.44.44,0,0,0,.38-.49.44.44,0,0,0-.49-.39,377.23,377.23,0,0,1-46,3.31l46.14-19.35-5.78-12,1.69,11.19Z"/><path class="cls-26" d="M413.56,427c7.9,4.61,14.36-10.42,18-22,3.25-10.38,5.62-21.05,6.07-23.12-3.17-.92-5.22-1.47-5.22-1.47h0s-2.75,30.15-12.88,42.32-10.75-34.37-10.75-34.37h0l-3,2C405.8,395,406.31,422.81,413.56,427Z"/><path class="cls-19" d="M489,510.23v0a16,16,0,0,0-.13-2.24l-1.55-25.5L456,494.32s3.77,7,5.87,12.24L407.47,529c-6.49,2.21-11-.59-11-.59-3.61-.59-4.2-11.43-4.2-11.43-4.94-1.18-12.31-8.84-12.31-8.84-1.84,1.18-8.85,1-8.85,1-1.91,2.5-7.59,2.65-6.63,4.86s8.92.15,8.92.15c1.55,1,5.45.52,5.45.52l3.32,4-4.55.37c-3.88-2.07-11.08-4.13-11.15-1.7s3.32,4,3.32,4a28.29,28.29,0,0,1-6,2.51c-3.75,5-8.84,5.67-6.19,7.81,1.84,1.48,7.84-1.56,11.36-3.58-3.26,2-8.39,5.35-8.34,6.46.08,1.62,5,.22,5,.22s-1.55,1,0,2.51,10.47-.74,11.2-.74,8.7,4.79,11.5,7.44,7.3,2.88,7.3,2.88,58.09-8.55,77.41-16.66c13.82-5.81,15.85-15.09,15.89-19.9Z"/><path class="cls-29" d="M369.1,528.21l5.33-3.19,9.13-1.43a.22.22,0,0,0,.19-.25.23.23,0,0,0-.25-.19l-9.18,1.44-.08,0-5.36,3.21a.23.23,0,0,0-.08.31.21.21,0,0,0,.19.1A.2.2,0,0,0,369.1,528.21Z"/><path class="cls-29" d="M384.73,528.59c-.29,0-6.9.67-9.17,1.19s-9.68,4.55-10,4.72a.23.23,0,0,0-.09.3.22.22,0,0,0,.2.12.19.19,0,0,0,.1,0c.08,0,7.65-4.17,9.88-4.68s9.05-1.17,9.12-1.18a.22.22,0,0,0,0-.44Z"/><path class="cls-29" d="M395.2,527.6a.22.22,0,0,0,0,.31c.05.06,5,5.84,3.43,12.94a.23.23,0,0,0,.17.27h.05A.21.21,0,0,0,399,541c1.63-7.33-3.48-13.27-3.53-13.33A.22.22,0,0,0,395.2,527.6Z"/><path class="cls-29" d="M392.33,516.72c-4.82-1.15-12.13-8.71-12.2-8.78a.23.23,0,0,0-.28,0c-1.76,1.14-8.65,1-8.72,1a.25.25,0,0,0-.18.08c-.83,1.08-2.43,1.72-3.83,2.29s-2.55,1-2.87,1.8a1.21,1.21,0,0,0,0,1c1,2.25,7.9.6,9.08.3,1.5.91,4.72.59,5.4.51l3,3.56-4.06.33c-3.32-1.75-9-3.53-10.82-2.48a1.16,1.16,0,0,0-.6,1c-.07,2.1,2.2,3.53,3.1,4a32.08,32.08,0,0,1-5.6,2.27.22.22,0,0,0-.15.27.22.22,0,0,0,.22.16h.06a27.76,27.76,0,0,0,6-2.53l3.18-1.81,4.57-.44h0l9.54-.77a.22.22,0,1,0,0-.44l-4.88.39L379,514.51a.2.2,0,0,0-.19-.08s-3.85.49-5.31-.48a.19.19,0,0,0-.18,0c-2.16.56-7.93,1.65-8.66,0a.85.85,0,0,1,0-.66c.26-.61,1.41-1.07,2.63-1.56a9.78,9.78,0,0,0,4-2.34c.91,0,6.75.07,8.7-1,1,1,7.64,7.67,12.3,8.78a.23.23,0,0,0,.27-.17A.22.22,0,0,0,392.33,516.72ZM373,519.23l-.08,0L369.79,521c-.53-.26-3.15-1.68-3.09-3.72a.69.69,0,0,1,.38-.63c1.42-.83,6.3.47,9.78,2.17Z"/><path class="cls-29" d="M479.38,507.91c-8.56-5.69-17.47-1.59-17.56-1.55a.22.22,0,0,0-.11.29.23.23,0,0,0,.3.11c.08,0,8.78-4,17.12,1.51a.22.22,0,0,0,.31-.06A.21.21,0,0,0,479.38,507.91Z"/><path class="cls-4" d="M326.77,122a2.1,2.1,0,0,0-2.94-.37L303.89,137.1l-10.36-9.45a2.09,2.09,0,0,0-2.82,3.09l11.67,10.64a2.09,2.09,0,0,0,1.41.54,2,2,0,0,0,1.28-.44l21.33-16.57A2.09,2.09,0,0,0,326.77,122Z"/><path class="cls-4" d="M308.62,104.81a25.72,25.72,0,1,0,25.72,25.72A25.75,25.75,0,0,0,308.62,104.81Zm0,49.09A23.37,23.37,0,1,1,332,130.53,23.39,23.39,0,0,1,308.62,153.9Z"/><path class="cls-4" d="M122.62,304.51a2.11,2.11,0,0,0-2.94-.37L99.74,319.63l-10.36-9.44a2.09,2.09,0,0,0-2.82,3.09l11.67,10.63a2.09,2.09,0,0,0,1.41.55,2.11,2.11,0,0,0,1.28-.44l21.33-16.57A2.11,2.11,0,0,0,122.62,304.51Z"/><path class="cls-4" d="M104.47,287.35a25.72,25.72,0,1,0,25.72,25.72A25.75,25.75,0,0,0,104.47,287.35Zm0,49.09a23.37,23.37,0,1,1,23.37-23.37A23.4,23.4,0,0,1,104.47,336.44Z"/><path class="cls-4" d="M498.46,277.05a2.08,2.08,0,0,0-2.93-.36l-19.94,15.49-10.36-9.45a2.09,2.09,0,0,0-2.82,3.09l11.66,10.63a2.07,2.07,0,0,0,1.41.55,2.12,2.12,0,0,0,1.29-.44L498.1,280A2.1,2.1,0,0,0,498.46,277.05Z"/><path class="cls-4" d="M480.32,259.89A25.72,25.72,0,1,0,506,285.61,25.75,25.75,0,0,0,480.32,259.89Zm0,49.09a23.37,23.37,0,1,1,23.37-23.37A23.4,23.4,0,0,1,480.32,309Z"/><rect class="cls-4" x="17.54" y="354.66" width="92.91" height="130.46"/><polygon class="cls-3" points="104.47 364.35 23.52 364.35 23.52 479.11 89.65 479.11 104.47 465.36 104.47 364.35"/><polygon class="cls-31" points="104.47 465.36 86.81 465.36 89.65 479.11 104.47 465.36"/><polygon class="cls-17" points="89.65 479.11 104.47 465.36 89.65 462.67 89.65 479.11"/><path class="cls-32" d="M78.69,343.22v-3.59H49.29v3.59H37.65v17.13H90.34V343.22ZM71.26,350H56.71a4,4,0,1,1,0-8H71.26a4,4,0,1,1,0,8Z"/><circle class="cls-14" cx="43.4" cy="386.23" r="13.11"/><rect class="cls-14" x="30.3" y="406.14" width="69.07" height="3.46"/><rect class="cls-14" x="60.17" y="390.24" width="38.27" height="8.43"/><rect class="cls-14" x="60.17" y="372.57" width="38.27" height="8.43"/><rect class="cls-14" x="30.3" y="411.42" width="69.07" height="3.46"/><rect class="cls-14" x="54.52" y="421.99" width="44.85" height="3.46"/><rect class="cls-14" x="54.52" y="428.7" width="44.85" height="3.46"/><rect class="cls-14" x="54.52" y="445.07" width="44.85" height="3.46"/><rect class="cls-14" x="54.52" y="452.26" width="44.85" height="3.46"/><rect class="cls-14" x="30.3" y="421.62" width="21.23" height="16.28"/><rect class="cls-14" x="30.3" y="445.32" width="21.23" height="16.28"/><path class="cls-33" d="M53,422.82a1.43,1.43,0,0,0-2-.25L37.4,433.15l-7.07-6.45a1.43,1.43,0,1,0-1.92,2.11l8,7.26a1.4,1.4,0,0,0,1,.37,1.44,1.44,0,0,0,.88-.3l14.56-11.31A1.43,1.43,0,0,0,53,422.82Z"/><path class="cls-33" d="M53,445.73a1.42,1.42,0,0,0-2-.25L37.4,456.06l-7.07-6.46a1.43,1.43,0,1,0-1.92,2.12l8,7.26a1.44,1.44,0,0,0,1.84.07l14.56-11.32A1.42,1.42,0,0,0,53,445.73Z"/><path class="cls-34" d="M94.2,356.58,95,345.17l-11.62-.79.24-3.58-29.33-2L54,342.38l-11.62-.79L41.62,353l-20.06-1.36L12.71,481.8l92.7,6.3,8.85-130.16ZM61.5,341.69l14.52,1a4,4,0,1,1-.54,7.95l-14.52-1a4,4,0,1,1,.54-7.95Z"/><rect class="cls-35" x="82.01" y="94.86" width="19.91" height="3.76"/><rect class="cls-35" x="82.01" y="151.01" width="19.91" height="3.76"/><ellipse class="cls-36" cx="91.96" cy="124.81" rx="12.14" ry="34.46"/><rect class="cls-35" x="114.31" y="94.86" width="19.91" height="3.76"/><rect class="cls-35" x="114.31" y="151.01" width="19.91" height="3.76"/><ellipse class="cls-36" cx="124.26" cy="124.81" rx="12.14" ry="34.46"/><rect class="cls-35" x="146.61" y="94.86" width="19.91" height="3.76"/><rect class="cls-35" x="146.61" y="151.01" width="19.91" height="3.76"/><ellipse class="cls-36" cx="156.56" cy="124.81" rx="12.14" ry="34.46"/><rect class="cls-36" x="71.66" y="154.76" width="105.21" height="5.45"/><rect class="cls-36" x="68.6" y="160.21" width="111.33" height="5.45"/><rect class="cls-36" x="65.11" y="165.66" width="118.31" height="5.45"/><rect class="cls-35" x="71.66" y="157.49" width="105.21" height="2.72"/><rect class="cls-35" x="68.6" y="162.93" width="111.33" height="2.72"/><rect class="cls-35" x="65.11" y="168.38" width="118.31" height="2.72"/><rect class="cls-36" x="77.13" y="88.1" width="94.27" height="6.76"/><rect class="cls-35" x="72.4" y="81.55" width="103.73" height="6.55"/><polygon class="cls-35" points="72.4 81.55 124.26 50.34 176.13 81.55 72.4 81.55"/><path class="cls-35" d="M124.26,57.36l30.22,18.18H94.05l30.21-18.18Zm0-7L72.4,81.55H176.13L124.26,50.34Z"/><polygon class="cls-35" points="72.4 81.55 124.26 50.34 176.13 81.55 72.4 81.55"/><path class="cls-36" d="M124.26,57.36l30.22,18.18H94.05l30.21-18.18Zm0-7L72.4,81.55H176.13L124.26,50.34Z"/><path class="cls-37" d="M128.42,68.7a3.21,3.21,0,0,0-.7-1,4.08,4.08,0,0,0-1-.65c-.36-.17-.72-.32-1.07-.45l-1-.35a4.13,4.13,0,0,1-.92-.5.94.94,0,0,1-.36-.8.92.92,0,0,1,.34-.74,3.33,3.33,0,0,1,2.59-.3,3.83,3.83,0,0,1,.49.2l.38.18a.68.68,0,0,0,.34.08.64.64,0,0,0,.38-.12,1,1,0,0,0,.26-.29,1.89,1.89,0,0,0,.16-.36,1.47,1.47,0,0,0,0-.33.72.72,0,0,0-.28-.59,2.39,2.39,0,0,0-.69-.39,4.23,4.23,0,0,0-.9-.21,5.61,5.61,0,0,0-.86-.07v-.42a.35.35,0,0,0-.17-.28.64.64,0,0,0-.38-.12.6.6,0,0,0-.38.12.33.33,0,0,0-.16.28v.45a5.55,5.55,0,0,0-1.17.28,3.22,3.22,0,0,0-1,.59,2.8,2.8,0,0,0-.68.93,3.14,3.14,0,0,0-.26,1.32,2.67,2.67,0,0,0,.28,1.29,2.84,2.84,0,0,0,.73.88,4.35,4.35,0,0,0,1,.6c.37.16.73.31,1.1.45l1,.38a2.92,2.92,0,0,1,.85.56,1.19,1.19,0,0,1,.35.92,1.15,1.15,0,0,1-.34.88,1.8,1.8,0,0,1-.86.43,2.9,2.9,0,0,1-1.86-.24A4.86,4.86,0,0,1,123,71l-.5-.38a.77.77,0,0,0-.45-.17.55.55,0,0,0-.35.12.93.93,0,0,0-.28.28,1.46,1.46,0,0,0-.2.37,1.27,1.27,0,0,0-.07.36,1.16,1.16,0,0,0,.26.68,2.6,2.6,0,0,0,.71.63,4.11,4.11,0,0,0,1.08.48,4.89,4.89,0,0,0,1.35.18V74a.35.35,0,0,0,.16.28.6.6,0,0,0,.38.12.64.64,0,0,0,.38-.12.35.35,0,0,0,.17-.28v-.5a3.78,3.78,0,0,0,2.18-1.06,3.19,3.19,0,0,0,.84-2.33A3.14,3.14,0,0,0,128.42,68.7Z"/><path class="cls-36" d="M127.77,68a3.09,3.09,0,0,0-.7-1,4,4,0,0,0-1-.64c-.36-.17-.72-.32-1.07-.45l-1-.35a3.91,3.91,0,0,1-.92-.5,1,1,0,0,1,0-1.55,3.31,3.31,0,0,1,2.59-.29,3.83,3.83,0,0,1,.49.2l.38.18a.68.68,0,0,0,.34.08.62.62,0,0,0,.38-.12,1,1,0,0,0,.27-.3,1.14,1.14,0,0,0,.15-.36,1.39,1.39,0,0,0,.05-.33.74.74,0,0,0-.28-.58,2.24,2.24,0,0,0-.7-.39,4.94,4.94,0,0,0-.9-.22,7.05,7.05,0,0,0-.86-.06v-.42a.35.35,0,0,0-.17-.28.65.65,0,0,0-.38-.13.62.62,0,0,0-.38.12.35.35,0,0,0-.16.28v.45a5.57,5.57,0,0,0-1.17.29,3.29,3.29,0,0,0-1,.59,2.69,2.69,0,0,0-.69.93,3.07,3.07,0,0,0-.26,1.32,2.8,2.8,0,0,0,.28,1.29,3,3,0,0,0,.73.88,4.35,4.35,0,0,0,1,.6c.37.16.74.31,1.1.44l1,.39a3,3,0,0,1,.86.55,1.21,1.21,0,0,1,.34.92,1.12,1.12,0,0,1-.34.88,1.72,1.72,0,0,1-.86.44,2.9,2.9,0,0,1-1.86-.24,7.4,7.4,0,0,1-.65-.4l-.5-.38a.77.77,0,0,0-.45-.17.61.61,0,0,0-.35.11,1.24,1.24,0,0,0-.28.28,1.44,1.44,0,0,0-.19.37,1.12,1.12,0,0,0-.08.37,1.16,1.16,0,0,0,.26.68,2.6,2.6,0,0,0,.71.63,4.47,4.47,0,0,0,2.43.66v.45a.36.36,0,0,0,.16.29.62.62,0,0,0,.38.12.64.64,0,0,0,.38-.12.36.36,0,0,0,.17-.28v-.5a3.74,3.74,0,0,0,2.18-1.07,3.17,3.17,0,0,0,.84-2.33A3.13,3.13,0,0,0,127.77,68Z"/><polygon class="cls-38" points="72.4 81.55 72.4 88.1 77.13 88.1 77.13 94.86 124.26 94.86 124.26 50.34 72.4 81.55"/><path class="cls-38" d="M92,94.86H82v3.75h2.06a239.07,239.07,0,0,0,0,52.4H82v3.75H92Z"/><path class="cls-38" d="M124.26,94.86h-10v3.75h2.07a237.84,237.84,0,0,0,0,52.4h-2.07v3.75h10Z"/><path class="cls-38" d="M156.56,94.86h-9.95v3.75h2.07a237.84,237.84,0,0,0,0,52.4h-2.07v3.75h9.95Z"/><polygon class="cls-38" points="124.26 154.76 71.66 154.76 71.66 157.49 71.66 160.21 68.6 160.21 68.6 162.93 68.6 165.66 65.11 165.66 65.11 168.38 65.11 171.1 124.26 171.1 124.26 154.76"/><path class="cls-17" d="M312,465a50.27,50.27,0,0,1,34.44,13c3.81-6.44,7.67-13.64,11.37-21.58A253.38,253.38,0,0,0,369,428a118.8,118.8,0,0,0-34-22c-1.35,2.87-3.07,6.6-5,11-.8,1.82-3.58,8.22-7,17C320.18,441.24,316.3,451.7,312,465Z"/><path class="cls-3" d="M310,462a50.27,50.27,0,0,1,34.44,13c3.81-6.44,7.67-13.64,11.37-21.58A253.38,253.38,0,0,0,367,425a118.8,118.8,0,0,0-34-22c-1.35,2.87-3.07,6.6-5,11-.8,1.82-3.58,8.22-7,17C318.18,438.24,314.3,448.7,310,462Z"/><path class="cls-12" d="M325,433a2.26,2.26,0,0,1,1,1,1.58,1.58,0,0,1-.07,1.45c-.42.6-1.36.6-1.77.62-1.13,0-5.24.13-7.16,1.93-1.22,1.14-.63,2.1-2,3a5.24,5.24,0,0,1-3.73.54c-1-.16-2.16-.36-2.61-1.22-.69-1.32.81-3.26,1.36-4a10,10,0,0,1,5-3.35C320.08,432.39,323.87,432.4,325,433Z"/><path d="M336.67,431.82a2.69,2.69,0,0,1-.25,1.86,2.85,2.85,0,0,1-1.91,1.62,4.27,4.27,0,0,1-2.9-.52l-4.77-2.41L332,422.1l4.66,2.35a4.28,4.28,0,0,1,2.09,1.9,2.62,2.62,0,0,1-.13,2.38,2.68,2.68,0,0,1-1.27,1.3,2.6,2.6,0,0,1-1.7.15A2.87,2.87,0,0,1,336.67,431.82Zm-2.61.23a1.2,1.2,0,0,0,.07-1,1.71,1.71,0,0,0-.88-.83l-1.75-.89-1.16,2.31,1.77.89C333,433,333.68,432.81,334.06,432.05Zm-1.69-4.5,1.63.82c.86.43,1.48.28,1.85-.46s.11-1.32-.77-1.76l-1.6-.81Z"/><path d="M344,428.12l-5.17,10.27-2.48-1.25,5.16-10.27Z"/><path d="M344,438.6l3.31,1.66-1,1.91-5.79-2.92L345.68,429l2.49,1.25Z"/><path d="M350.9,442.09l3.31,1.66-.95,1.91-5.8-2.92,5.16-10.26,2.49,1.24Z"/><ellipse class="cls-23" cx="261.33" cy="349.97" rx="3.65" ry="1.22" transform="translate(-161.4 459.83) rotate(-67.82)"/><path class="cls-21" d="M258.76,365a3.33,3.33,0,0,1-2.2,1.32,2,2,0,0,1-2.08-1.25.72.72,0,0,1,0-.54,1.05,1.05,0,0,1,.49-.36,5.24,5.24,0,0,0,1-.78,36.8,36.8,0,0,0,4.56-5C261.81,359.29,259.52,364.12,258.76,365Z"/><path class="cls-3" d="M243,360a13.33,13.33,0,0,0-1,6c.1,1.45.15,2.62,1,3.65a5.13,5.13,0,0,0,3.78,1.59l3-1.61L252,368.4a10.93,10.93,0,0,1-2.63-.87A13.29,13.29,0,0,1,243,360Z"/><path class="cls-36" d="M418.36,149.41a1.79,1.79,0,1,0-3.41-1.12,1.79,1.79,0,0,0,3.41,1.12Z"/><path class="cls-36" d="M424.18,149.1a1.8,1.8,0,1,0-2.27,1.15A1.8,1.8,0,0,0,424.18,149.1Z"/><rect class="cls-36" x="430.7" y="145.46" width="16.78" height="29.08"/><polygon class="cls-39" points="400.51 176.64 400.48 143.99 407.68 143.91 434.9 143.6 434.93 176.42 400.51 176.64"/><path class="cls-36" d="M430,149.1a1.8,1.8,0,1,0-2.27,1.15A1.8,1.8,0,0,0,430,149.1Z"/><path class="cls-38" d="M480.72,160.32l3.2-.38V65a11.25,11.25,0,0,0-10,16.35c-20.12,3.63-35.12,17.67-35.12,34.44,0,.05,0,.1,0,.15a6.48,6.48,0,0,1-7.47,3.17,5,5,0,0,1-3.46-6.12,3.74,3.74,0,0,1,4.6-2.6,2.75,2.75,0,0,1,1.91,3.38,2,2,0,0,1-2.4,1.35,1.23,1.23,0,0,0-.66,2.37,4.4,4.4,0,0,0,5.42-3.06,5.2,5.2,0,0,0-3.61-6.4,6.18,6.18,0,0,0-7.62,4.3,7.44,7.44,0,0,0,5.16,9.15,9.18,9.18,0,0,0,2.43.33,9,9,0,0,0,4.4-1.16,9.55,9.55,0,0,0,1.55-1.12c1.51,11.18,9.71,20.82,21.43,26.42v2.39a25.92,25.92,0,0,0-7.2,0l-5.79.85v-3.71H434.91V143.6l-27.22.31-7.2.08,0,32.65,34.42-.22v-1.87h12.55v-3l9.67,1.64c9.05,3.14,19.78,4.31,26.77,4.74V161.46Z"/><path class="cls-40" d="M519.59,151.62l-.07-.07a4.77,4.77,0,0,0-6.75.09l-13,13.4a4.77,4.77,0,0,0,.08,6.74l.07.07a4.77,4.77,0,0,0,6.75-.09l13-13.39A4.77,4.77,0,0,0,519.59,151.62Z"/><rect class="cls-40" x="503.94" y="152.48" width="28.24" height="9.64" rx="4.77" transform="translate(43.83 418.52) rotate(-45.74)"/><path class="cls-40" d="M516.1,162.52l0-.09a4.77,4.77,0,0,0-6-3l-17.91,5.9a4.71,4.71,0,0,0-2.83,6.07l0,.09a4.75,4.75,0,0,0,6,3l17.74-5.93A4.77,4.77,0,0,0,516.1,162.52Z"/><path class="cls-40" d="M533.48,150.85l-.06-.08a5.18,5.18,0,0,0-7.27-1L510,162.13a5.18,5.18,0,0,0-1,7.26l.07.08a5.18,5.18,0,0,0,7.26,1l16.13-12.33A5.18,5.18,0,0,0,533.48,150.85Z"/><path class="cls-40" d="M518.33,165.41l0-.1a5.18,5.18,0,0,0-6-4.19l-20.17,3.51a5.1,5.1,0,0,0-4,6.07l0,.1a5.18,5.18,0,0,0,6,4.19l20-3.57A5.18,5.18,0,0,0,518.33,165.41Z"/><rect class="cls-41" x="494.72" y="140.23" width="13.23" height="19.4"/><rect class="cls-41" x="467.08" y="140.23" width="13.23" height="19.4"/><polygon class="cls-42" points="494.72 165.57 501.34 163.62 507.95 165.57 507.95 159.63 494.72 159.63 494.72 165.57"/><polygon class="cls-42" points="467.08 165.57 473.7 163.62 480.32 165.57 480.32 159.63 467.08 159.63 467.08 165.57"/><rect class="cls-43" x="488.1" y="143.2" width="13.23" height="19.4"/><rect class="cls-43" x="460.46" y="143.2" width="13.23" height="19.4"/><polygon class="cls-37" points="488.1 168.53 494.72 166.59 501.34 168.53 501.34 162.6 488.1 162.6 488.1 168.53"/><polygon class="cls-37" points="460.46 168.53 467.08 166.59 473.7 168.53 473.7 162.6 460.46 162.6 460.46 168.53"/><path class="cls-41" d="M511.19,99.82h12.87v-19a1.23,1.23,0,0,0-2.09-.86A36.15,36.15,0,0,0,511.19,99.82Z"/><ellipse class="cls-43" cx="484.21" cy="115.74" rx="45.43" ry="35.37"/><rect class="cls-43" x="515.73" y="106.35" width="21.74" height="24.18"/><path class="cls-44" d="M537.42,106.35c3.29-.06,6,5.31,6,12s-2.62,12.13-5.91,12.19-6-5.31-6-12S534.12,106.41,537.42,106.35Z"/><path class="cls-45" d="M535,116.13c.62,0,1.14,1,1.14,2.29s-.5,2.32-1.12,2.33-1.15-1-1.15-2.29S534.41,116.14,535,116.13Z"/><path class="cls-45" d="M540.54,116.13c.63,0,1.14,1,1.14,2.29s-.49,2.32-1.12,2.33-1.14-1-1.15-2.29S539.91,116.14,540.54,116.13Z"/><path class="cls-46" d="M511.19,106.35a3.07,3.07,0,1,0,3.07-3.07A3.07,3.07,0,0,0,511.19,106.35Z"/><path class="cls-3" d="M494.78,121.48a9.44,9.44,0,0,0-2.13-2.89,12.28,12.28,0,0,0-3-2c-1.1-.52-2.19-1-3.26-1.36l-2.91-1.07a11.57,11.57,0,0,1-2.8-1.51,2.85,2.85,0,0,1-1.09-2.43,2.8,2.8,0,0,1,1-2.26c2.7-2.1,7.28-1.09,7.85-.9a15.22,15.22,0,0,1,1.51.61l1.14.56a2.25,2.25,0,0,0,1,.24,1.94,1.94,0,0,0,1.17-.36,3.18,3.18,0,0,0,.8-.91,4.36,4.36,0,0,0,.46-1.1,3.84,3.84,0,0,0,.15-1,2.26,2.26,0,0,0-.85-1.79,7.26,7.26,0,0,0-2.12-1.17,14.06,14.06,0,0,0-2.72-.66,19.94,19.94,0,0,0-2.63-.19v-1.28a1.07,1.07,0,0,0-.51-.86,2,2,0,0,0-2.31,0,1.05,1.05,0,0,0-.48.85v1.36a16,16,0,0,0-3.55.88,9.69,9.69,0,0,0-3,1.77,8.38,8.38,0,0,0-2.09,2.82,9.47,9.47,0,0,0-.78,4,8.27,8.27,0,0,0,.85,3.92,8.71,8.71,0,0,0,2.22,2.67,13.21,13.21,0,0,0,3,1.83c1.11.48,2.22.94,3.33,1.36l2.91,1.16a9,9,0,0,1,2.6,1.68,3.69,3.69,0,0,1,1.05,2.8,3.52,3.52,0,0,1-1,2.67,5.25,5.25,0,0,1-2.63,1.31c-.93.44-3.76.23-5.64-.72a14.87,14.87,0,0,1-2-1.22l-1.53-1.14a2.26,2.26,0,0,0-1.36-.51,1.79,1.79,0,0,0-1.07.34,3.43,3.43,0,0,0-.85.85A4.58,4.58,0,0,0,473,129a3.2,3.2,0,0,0-.22,1.1,3.48,3.48,0,0,0,.78,2.07,7.91,7.91,0,0,0,2.16,1.93,13,13,0,0,0,3.28,1.43,14.19,14.19,0,0,0,4.09.56v1.38a1.07,1.07,0,0,0,.48.86,1.92,1.92,0,0,0,1.17.37,1.87,1.87,0,0,0,1.14-.37,1,1,0,0,0,.51-.85V136a11.45,11.45,0,0,0,6.64-3.23,9.66,9.66,0,0,0,2.55-7.07A9.43,9.43,0,0,0,494.78,121.48Z"/><path class="cls-43" d="M433.08,121.76a9,9,0,0,0,8.63-6.57,1.23,1.23,0,0,0-.85-1.52,1.22,1.22,0,0,0-1.51.86,6.52,6.52,0,0,1-8,4.53,5,5,0,0,1-3.46-6.12,3.74,3.74,0,0,1,4.6-2.6,2.75,2.75,0,0,1,1.91,3.38,2,2,0,0,1-2.4,1.35,1.23,1.23,0,0,0-.66,2.37,4.4,4.4,0,0,0,5.42-3.06,5.2,5.2,0,0,0-3.61-6.4,6.18,6.18,0,0,0-7.62,4.3,7.44,7.44,0,0,0,5.16,9.15A9.18,9.18,0,0,0,433.08,121.76Z"/><path class="cls-41" d="M506.81,99.82h9.42v-19a1.22,1.22,0,0,0-2.08-.86,36.86,36.86,0,0,0-10,16.44A2.75,2.75,0,0,0,506.81,99.82Z"/><path class="cls-46" d="M470.91,91.41a85.36,85.36,0,0,1,26.6,0l.9-5.66a90.78,90.78,0,0,0-28.4,0Z"/><path class="cls-47" d="M495.18,76.21A11.26,11.26,0,1,1,483.92,65,11.26,11.26,0,0,1,495.18,76.21Z"/><path class="cls-48" d="M483.92,67.4a8.81,8.81,0,1,1-8.8,8.81,8.82,8.82,0,0,1,8.8-8.81Zm0-2.45a11.26,11.26,0,1,0,11.26,11.26A11.26,11.26,0,0,0,483.92,65Z"/><path class="cls-49" d="M440.46,150.2l12.8-1.88a25.69,25.69,0,0,1,9.25.33l8,1.74a9.1,9.1,0,0,0,3,.16l18.37-2.08a5.18,5.18,0,0,1,5.75,4.54l0,.1a5.18,5.18,0,0,1-4.54,5.75l-12.35,1.46,12,4.27,18.92.17,17-8.46a5.18,5.18,0,0,1,6.94,2.33l0,.1a5.18,5.18,0,0,1-2.33,6.94s-20.5,9.58-20.56,9.57-15.18,2.61-20,3c-.91.08-2.17,0-3.46-.06-5.33-.12-20.22-.84-32.16-5l-16.69-2.83Z"/><circle class="cls-4" cx="545.29" cy="371.2" r="42.6"/><path class="cls-3" d="M536.81,358.91a1.69,1.69,0,0,0,1.67-1.09,8.37,8.37,0,0,0,.44-3.37,2.64,2.64,0,0,1-1.2,1.32,3.91,3.91,0,0,1-2,.48,4.26,4.26,0,0,1-3.22-1.23,5,5,0,0,1-1.19-3.55,5.5,5.5,0,0,1,.59-2.57,4.22,4.22,0,0,1,1.75-1.75,5.81,5.81,0,0,1,2.77-.62,5.62,5.62,0,0,1,3.41.92,4.68,4.68,0,0,1,1.69,2.5,13.31,13.31,0,0,1,.47,3.81,11.88,11.88,0,0,1-1.19,5.93,4.31,4.31,0,0,1-4,2,5.31,5.31,0,0,1-2.66-.62,4.5,4.5,0,0,1-1.72-1.66,5.18,5.18,0,0,1-.68-2.29H535C535.21,358.31,535.81,358.91,536.81,358.91Zm1.31-8.8a2,2,0,0,0-1.55-.58,1.8,1.8,0,0,0-2,2,2,2,0,0,0,.53,1.5,2,2,0,0,0,1.45.53,2.2,2.2,0,0,0,1.47-.5,1.78,1.78,0,0,0,.59-1.42A2.16,2.16,0,0,0,538.12,350.11Z"/><path class="cls-3" d="M543.7,354.19a9.14,9.14,0,0,1,1.37-5.34,5.82,5.82,0,0,1,8.73,0,9.14,9.14,0,0,1,1.38,5.34,9.25,9.25,0,0,1-1.38,5.37,5.8,5.8,0,0,1-8.73,0A9.25,9.25,0,0,1,543.7,354.19Zm8,0a7.43,7.43,0,0,0-.46-3,1.78,1.78,0,0,0-1.8-1,1.81,1.81,0,0,0-1.84,1.05,7.45,7.45,0,0,0-.47,3,7.62,7.62,0,0,0,.47,3,1.81,1.81,0,0,0,1.84,1.05,1.77,1.77,0,0,0,1.8-1.05A7.64,7.64,0,0,0,551.7,354.19Z"/><path class="cls-3" d="M530.6,382.59a6.4,6.4,0,0,1-2.62,2.56,8.33,8.33,0,0,1-4,.92h-5.45V371.63H524a8.46,8.46,0,0,1,4,.9,6.3,6.3,0,0,1,2.61,2.53,7.66,7.66,0,0,1,.91,3.76A7.76,7.76,0,0,1,530.6,382.59Zm-3.76-.73a4.65,4.65,0,0,0,0-6.08,4.4,4.4,0,0,0-3.18-1.09H522v8.25h1.65A4.44,4.44,0,0,0,526.84,381.86Z"/><path class="cls-3" d="M542.43,383.43H537l-.9,2.64h-3.68l5.29-14.34h4l5.29,14.34h-3.72Zm-.9-2.65-1.79-5.31-1.82,5.31Z"/><path class="cls-3" d="M560.87,371.63l-5,9.64v4.8h-3.51v-4.8l-5-9.64h4l2.77,5.88,2.78-5.88Z"/><path class="cls-3" d="M572,384.11a4.06,4.06,0,0,1-1.71,1.53,6.07,6.07,0,0,1-2.75.57,6.46,6.46,0,0,1-4-1.18,4.3,4.3,0,0,1-1.72-3.31h3.72a2,2,0,0,0,.58,1.29,1.82,1.82,0,0,0,1.28.47,1.5,1.5,0,0,0,1.06-.37,1.29,1.29,0,0,0,.39-1,1.25,1.25,0,0,0-.36-.92,2.59,2.59,0,0,0-.89-.6q-.52-.24-1.47-.57a18.21,18.21,0,0,1-2.23-.9,4.13,4.13,0,0,1-1.49-1.31,4.21,4.21,0,0,1,0-4.48,4,4,0,0,1,1.8-1.44,6.49,6.49,0,0,1,2.65-.51,6,6,0,0,1,3.83,1.15,4.37,4.37,0,0,1,1.6,3.14h-3.78a2,2,0,0,0-.52-1.13,1.53,1.53,0,0,0-1.13-.42,1.44,1.44,0,0,0-1,.33,1.34,1.34,0,0,0,0,1.83,2.61,2.61,0,0,0,.84.58c.34.15.83.34,1.48.57a15.27,15.27,0,0,1,2.26.93,4.27,4.27,0,0,1,1.51,1.34,3.73,3.73,0,0,1,.64,2.28A4,4,0,0,1,572,384.11Z"/><path class="cls-50" d="M71.65,248.72l-20-8.41,43.6-23.48q2.23,21.53,4.48,43l-17.89-6.71A156.82,156.82,0,0,0,56.08,329.9a103.18,103.18,0,0,1,15.57-81.18Z"/><path class="cls-50" d="M343.7,71l2.7-21.52,34.38,35.65-40.24,15.92,1.63-19A157,157,0,0,0,261.33,78,103.14,103.14,0,0,1,343.7,71Z"/><path class="cls-50" d="M553.67,274.37l21.69-.36-30.45,39.06-21.44-37.6,19.08-1.07a157.08,157.08,0,0,0-7.32-80.61,103.17,103.17,0,0,1,18.44,80.58Z"/></g></svg>