<svg id="Layer_1" data-name="Layer 1" xmlns="http://www.w3.org/2000/svg" xmlns:xlink="http://www.w3.org/1999/xlink" viewBox="0 0 138 44"><defs><style>.cls-1{fill:#fff;}.cls-2{clip-path:url(#clip-path);}.cls-3{clip-path:url(#clip-path-2);}.cls-4{clip-path:url(#clip-path-3);}.cls-5{clip-path:url(#clip-path-4);}.cls-6{clip-path:url(#clip-path-5);}.cls-7{clip-path:url(#clip-path-6);}.cls-8{clip-path:url(#clip-path-7);}.cls-9{clip-path:url(#clip-path-8);}.cls-10{clip-path:url(#clip-path-9);}.cls-11{clip-path:url(#clip-path-10);}.cls-12{clip-path:url(#clip-path-11);}.cls-13{clip-path:url(#clip-path-12);}.cls-14{clip-path:url(#clip-path-13);}.cls-15{clip-path:url(#clip-path-14);}.cls-16{clip-path:url(#clip-path-15);}.cls-17{clip-path:url(#clip-path-16);}.cls-18{clip-path:url(#clip-path-17);}.cls-19{clip-path:url(#clip-path-18);}.cls-20{clip-path:url(#clip-path-19);}.cls-21{clip-path:url(#clip-path-20);}</style><clipPath id="clip-path"><path class="cls-1" d="M81,26.1V36.92a1,1,0,1,0,2,0V26.1a1,1,0,0,0-2,0"/></clipPath><clipPath id="clip-path-2"><path class="cls-1" d="M107.91,30.17a1,1,0,1,0,0,2h2.72a1.9,1.9,0,0,1,0,3.79h-2.72a1,1,0,1,0,0,2h2.72a3.87,3.87,0,0,0,0-7.74Z"/></clipPath><clipPath id="clip-path-3"><path class="cls-1" d="M101.5,20.55a1,1,0,0,0,1.83.76,6.38,6.38,0,1,1,5.87,8.86h-1.85a1,1,0,1,0,0,2h1.85a8.36,8.36,0,1,0-7.7-11.6"/></clipPath><clipPath id="clip-path-4"><path class="cls-1" d="M108.68,5.74v7a.52.52,0,0,0,.52.51.51.51,0,0,0,.52-.51v-7a.52.52,0,0,0-.52-.52.52.52,0,0,0-.52.52"/></clipPath><clipPath id="clip-path-5"><path class="cls-1" d="M96.07,10.66a.5.5,0,0,0,0,.73L101,16.33a.52.52,0,0,0,.36.16.54.54,0,0,0,.37-.16.52.52,0,0,0,0-.73L96.8,10.66a.53.53,0,0,0-.37-.15.51.51,0,0,0-.36.15"/></clipPath><clipPath id="clip-path-6"><path class="cls-1" d="M121.61,10.66l-5,4.94a.52.52,0,0,0,0,.73.56.56,0,0,0,.37.16.52.52,0,0,0,.36-.16l5-4.94a.52.52,0,0,0,0-.73.53.53,0,0,0-.37-.15.51.51,0,0,0-.36.15"/></clipPath><clipPath id="clip-path-7"><path class="cls-1" d="M103.27,9.49a.51.51,0,0,0-.27.67l1.49,3.61a.51.51,0,0,0,.47.32.65.65,0,0,0,.2,0,.51.51,0,0,0,.28-.68L104,9.77a.52.52,0,0,0-.68-.28"/></clipPath><clipPath id="clip-path-8"><path class="cls-1" d="M94.89,17.87a.54.54,0,0,0,.28.68L98.78,20a.65.65,0,0,0,.19,0,.52.52,0,0,0,.2-1l-3.6-1.49a.48.48,0,0,0-.2,0,.53.53,0,0,0-.48.32"/></clipPath><clipPath id="clip-path-9"><path class="cls-1" d="M114.45,9.77,113,13.37a.52.52,0,0,0,.28.68.71.71,0,0,0,.2,0,.53.53,0,0,0,.48-.32l1.49-3.61a.52.52,0,0,0-.28-.67.48.48,0,0,0-.2,0,.53.53,0,0,0-.48.32"/></clipPath><clipPath id="clip-path-10"><path class="cls-1" d="M122.83,17.59l-3.6,1.49a.52.52,0,0,0,.2,1,.79.79,0,0,0,.2,0l3.6-1.49a.53.53,0,0,0,.28-.68.52.52,0,0,0-.48-.32.51.51,0,0,0-.2,0"/></clipPath><clipPath id="clip-path-11"><path class="cls-1" d="M7.2,26.1V36.92a1,1,0,0,0,1,1h8.15a1,1,0,1,0,0-2H9.19V26.1a1,1,0,0,0-2,0"/></clipPath><clipPath id="clip-path-12"><path class="cls-1" d="M28.65,26.1v7.21a2.78,2.78,0,0,1-2.91,2.63h-.35a2.79,2.79,0,0,1-2.92-2.63V26.1a1,1,0,1,0-2,0v7.21a4.75,4.75,0,0,0,4.89,4.6h.35a4.75,4.75,0,0,0,4.89-4.6V26.1a1,1,0,1,0-2,0"/></clipPath><clipPath id="clip-path-13"><path class="cls-1" d="M57.2,26.1V36.92a1,1,0,0,0,2,0V26.1a1,1,0,0,0-2,0"/></clipPath><clipPath id="clip-path-14"><path class="cls-1" d="M39.37,25.09a4.76,4.76,0,0,0-4.89,4.6V36.9a1,1,0,0,0,2,0V29.69a2.78,2.78,0,0,1,2.91-2.62h.36a2.78,2.78,0,0,1,2.91,2.62V36.9a1,1,0,1,0,2,0V29.69a4.76,4.76,0,0,0-4.89-4.6Z"/></clipPath><clipPath id="clip-path-15"><path class="cls-1" d="M47.53,25.08a4.76,4.76,0,0,0-4.89,4.6V37a1,1,0,0,0,2,0V29.68a2.79,2.79,0,0,1,2.91-2.62h.35a2.79,2.79,0,0,1,2.92,2.62V37a1,1,0,0,0,2,0V29.68a4.77,4.77,0,0,0-4.9-4.6Z"/></clipPath><clipPath id="clip-path-16"><path class="cls-1" d="M63.19,31.51a6.84,6.84,0,0,0,11.38,5.12,1,1,0,0,0-1.32-1.48A4.82,4.82,0,0,1,70,36.37a4.86,4.86,0,1,1,4.76-5.85H68.38a1,1,0,1,0,0,2h7.5a1,1,0,0,0,1-1,6.84,6.84,0,0,0-13.68,0"/></clipPath><clipPath id="clip-path-17"><path class="cls-1" d="M89.5,31.51a6.84,6.84,0,0,0,11.38,5.12,1,1,0,1,0-1.32-1.48,4.86,4.86,0,1,1,1.54-4.63H94.69a1,1,0,0,0,0,2h7.5a1,1,0,0,0,1-1,6.84,6.84,0,0,0-13.68,0"/></clipPath><clipPath id="clip-path-18"><path class="cls-1" d="M81,31.51a1,1,0,0,0,2,0c0-2,1.77-4.39,3.84-4.39a1,1,0,1,0,0-2c-3.27,0-5.82,3.42-5.82,6.36"/></clipPath><clipPath id="clip-path-19"><path class="cls-1" d="M119.19,29.35a1,1,0,1,0,2,0,2.53,2.53,0,0,1,5,0,2.12,2.12,0,0,1-.66,1.52l-.9.73-5.71,4.55a1,1,0,0,0,.61,1.76h7.35a1,1,0,1,0,0-2h-4.52l3.5-2.79,1-.77.06-.05a4.09,4.09,0,0,0,1.3-3,4.51,4.51,0,0,0-9,0"/></clipPath><clipPath id="clip-path-20"><path class="cls-1" d="M56.88,21.58a1.31,1.31,0,1,0,1.31-1.31,1.31,1.31,0,0,0-1.31,1.31"/></clipPath></defs><path class="cls-1" d="M81,26.1V36.92a1,1,0,1,0,2,0V26.1a1,1,0,0,0-2,0"/><g class="cls-2"><rect class="cls-1" x="80.96" y="25.11" width="1.98" height="12.8"/></g><path class="cls-1" d="M107.91,30.17a1,1,0,1,0,0,2h2.72a1.9,1.9,0,0,1,0,3.79h-2.72a1,1,0,1,0,0,2h2.72a3.87,3.87,0,0,0,0-7.74Z"/><g class="cls-3"><rect class="cls-1" x="106.92" y="30.17" width="7.43" height="7.74"/></g><path class="cls-1" d="M101.5,20.55a1,1,0,0,0,1.83.76,6.38,6.38,0,1,1,5.87,8.86h-1.85a1,1,0,1,0,0,2h1.85a8.36,8.36,0,1,0-7.7-11.6"/><g class="cls-4"><rect class="cls-1" x="101.29" y="15.44" width="16.27" height="16.71"/></g><path class="cls-1" d="M108.68,5.74v7a.52.52,0,0,0,.52.51.51.51,0,0,0,.52-.51v-7a.52.52,0,0,0-.52-.52.52.52,0,0,0-.52.52"/><g class="cls-5"><rect class="cls-1" x="108.68" y="5.22" width="1.03" height="8.02"/></g><path class="cls-1" d="M96.07,10.66a.5.5,0,0,0,0,.73L101,16.33a.52.52,0,0,0,.36.16.54.54,0,0,0,.37-.16.52.52,0,0,0,0-.73L96.8,10.66a.53.53,0,0,0-.37-.15.51.51,0,0,0-.36.15"/><g class="cls-6"><rect class="cls-1" x="95.86" y="10.51" width="6.08" height="5.98"/></g><path class="cls-1" d="M121.61,10.66l-5,4.94a.52.52,0,0,0,0,.73.56.56,0,0,0,.37.16.52.52,0,0,0,.36-.16l5-4.94a.52.52,0,0,0,0-.73.53.53,0,0,0-.37-.15.51.51,0,0,0-.36.15"/><g class="cls-7"><rect class="cls-1" x="116.46" y="10.51" width="6.07" height="5.98"/></g><path class="cls-1" d="M103.27,9.49a.51.51,0,0,0-.27.67l1.49,3.61a.51.51,0,0,0,.47.32.65.65,0,0,0,.2,0,.51.51,0,0,0,.28-.68L104,9.77a.52.52,0,0,0-.68-.28"/><g class="cls-8"><rect class="cls-1" x="102.89" y="9.45" width="2.66" height="4.64"/></g><path class="cls-1" d="M94.89,17.87a.54.54,0,0,0,.28.68L98.78,20a.65.65,0,0,0,.19,0,.52.52,0,0,0,.2-1l-3.6-1.49a.48.48,0,0,0-.2,0,.53.53,0,0,0-.48.32"/><g class="cls-9"><rect class="cls-1" x="94.79" y="17.55" width="4.77" height="2.53"/></g><path class="cls-1" d="M114.45,9.77,113,13.37a.52.52,0,0,0,.28.68.71.71,0,0,0,.2,0,.53.53,0,0,0,.48-.32l1.49-3.61a.52.52,0,0,0-.28-.67.48.48,0,0,0-.2,0,.53.53,0,0,0-.48.32"/><g class="cls-10"><rect class="cls-1" x="112.85" y="9.45" width="2.67" height="4.64"/></g><path class="cls-1" d="M122.83,17.59l-3.6,1.49a.52.52,0,0,0,.2,1,.79.79,0,0,0,.2,0l3.6-1.49a.53.53,0,0,0,.28-.68.52.52,0,0,0-.48-.32.51.51,0,0,0-.2,0"/><g class="cls-11"><rect class="cls-1" x="118.84" y="17.55" width="4.77" height="2.53"/></g><path class="cls-1" d="M7.2,26.1V36.92a1,1,0,0,0,1,1h8.15a1,1,0,1,0,0-2H9.19V26.1a1,1,0,0,0-2,0"/><g class="cls-12"><rect class="cls-1" x="7.2" y="25.11" width="10.14" height="12.8"/></g><path class="cls-1" d="M28.65,26.1v7.21a2.78,2.78,0,0,1-2.91,2.63h-.35a2.79,2.79,0,0,1-2.92-2.63V26.1a1,1,0,1,0-2,0v7.21a4.75,4.75,0,0,0,4.89,4.6h.35a4.75,4.75,0,0,0,4.89-4.6V26.1a1,1,0,1,0-2,0"/><g class="cls-13"><rect class="cls-1" x="20.5" y="25.11" width="10.14" height="12.8"/></g><path class="cls-1" d="M57.2,26.1V36.92a1,1,0,0,0,2,0V26.1a1,1,0,0,0-2,0"/><g class="cls-14"><rect class="cls-1" x="57.2" y="25.11" width="1.98" height="12.8"/></g><path class="cls-1" d="M39.37,25.09a4.76,4.76,0,0,0-4.89,4.6V36.9a1,1,0,0,0,2,0V29.69a2.78,2.78,0,0,1,2.91-2.62h.36a2.78,2.78,0,0,1,2.91,2.62V36.9a1,1,0,1,0,2,0V29.69a4.76,4.76,0,0,0-4.89-4.6Z"/><g class="cls-15"><rect class="cls-1" x="34.48" y="25.09" width="10.14" height="12.8"/></g><path class="cls-1" d="M47.53,25.08a4.76,4.76,0,0,0-4.89,4.6V37a1,1,0,0,0,2,0V29.68a2.79,2.79,0,0,1,2.91-2.62h.35a2.79,2.79,0,0,1,2.92,2.62V37a1,1,0,0,0,2,0V29.68a4.77,4.77,0,0,0-4.9-4.6Z"/><g class="cls-16"><rect class="cls-1" x="42.64" y="25.08" width="10.14" height="12.86"/></g><path class="cls-1" d="M63.19,31.51a6.84,6.84,0,0,0,11.38,5.12,1,1,0,0,0-1.32-1.48A4.82,4.82,0,0,1,70,36.37a4.86,4.86,0,1,1,4.76-5.85H68.38a1,1,0,1,0,0,2h7.5a1,1,0,0,0,1-1,6.84,6.84,0,0,0-13.68,0"/><g class="cls-17"><rect class="cls-1" x="63.19" y="24.67" width="13.68" height="13.68"/></g><path class="cls-1" d="M89.5,31.51a6.84,6.84,0,0,0,11.38,5.12,1,1,0,1,0-1.32-1.48,4.86,4.86,0,1,1,1.54-4.63H94.69a1,1,0,0,0,0,2h7.5a1,1,0,0,0,1-1,6.84,6.84,0,0,0-13.68,0"/><g class="cls-18"><rect class="cls-1" x="89.5" y="24.67" width="13.68" height="13.68"/></g><path class="cls-1" d="M81,31.51a1,1,0,0,0,2,0c0-2,1.77-4.39,3.84-4.39a1,1,0,1,0,0-2c-3.27,0-5.82,3.42-5.82,6.36"/><g class="cls-19"><rect class="cls-1" x="80.96" y="25.15" width="6.81" height="7.36"/></g><path class="cls-1" d="M119.19,29.35a1,1,0,1,0,2,0,2.53,2.53,0,0,1,5,0,2.12,2.12,0,0,1-.66,1.52l-.9.73-5.71,4.55a1,1,0,0,0,.61,1.76h7.35a1,1,0,1,0,0-2h-4.52l3.5-2.79,1-.77.06-.05a4.09,4.09,0,0,0,1.3-3,4.51,4.51,0,0,0-9,0"/><g class="cls-20"><rect class="cls-1" x="118.48" y="25.11" width="9.71" height="12.8"/></g><path class="cls-1" d="M56.88,21.58a1.31,1.31,0,1,0,1.31-1.31,1.31,1.31,0,0,0-1.31,1.31"/><g class="cls-21"><rect class="cls-1" x="56.88" y="20.27" width="2.61" height="2.62"/></g></svg>