<svg xmlns="http://www.w3.org/2000/svg" width="30.382" height="47.971" viewBox="0 0 30.382 47.971">
    <defs>
        <style>
            .cls-1{fill:#e9eef2}
        </style>
    </defs>
    <g id="Group_17035" data-name="Group 17035" transform="translate(-389.135 -793.063)">
        <g id="medicine" transform="translate(389.135 793.063)">
            <path id="Path_46681" d="M307.2 248v4.8a3.2 3.2 0 0 0-3.2 3.2v14.391a1.6 1.6 0 0 0 1.6 1.6h6.4a1.6 1.6 0 0 0 1.6-1.6V256a3.2 3.2 0 0 0-3.2-3.2V248z" class="cls-1" data-name="Path 46681" transform="translate(-284.012 -224.814)"/>
            <path id="Path_46682" d="M171.2 124.8v-3.2a1.6 1.6 0 1 0-3.2 0v3.2z" class="cls-1" data-name="Path 46682" transform="translate(-161.604 -109.606)"/>
            <path id="Path_46683" fill="#c3c6c7" d="M164.8 156.8v-3.2a1.6 1.6 0 0 0-1.6-1.6h-1.6a1.6 1.6 0 0 0-1.6 1.6v3.2z" data-name="Path 46683" transform="translate(-154.403 -138.408)"/>
            <path id="Path_46684" fill="#7e8589" d="M320 232h6.4v3.2H320z" data-name="Path 46684" transform="translate(-298.412 -210.413)"/>
            <path id="Path_46685" d="M121.6 456h9.594a1.6 1.6 0 0 1 1.6 1.6v1.6H120v-1.6a1.6 1.6 0 0 1 1.6-1.6z" class="cls-1" data-name="Path 46685" transform="translate(-118.401 -412.027)"/>
            <path id="Path_46686" fill="#fff" d="M145.594 206.386V188.8c0-2.649-1.841-4.8-4.112-4.8h-1.371c-2.271 0-4.112 2.148-4.112 4.8v17.589z" data-name="Path 46686" transform="translate(-132.802 -167.21)"/>
            <path id="Path_46687" fill="#63c7db" d="M121.6 456h9.594a1.6 1.6 0 0 1 1.6 1.6v1.6H120v-1.6a1.6 1.6 0 0 1 1.6-1.6z" data-name="Path 46687" transform="translate(-118.401 -412.027)"/>
            <path id="Path_46688" fill="#1b4791" d="M304 328v14.391a1.6 1.6 0 0 0 1.6 1.6h6.4a1.6 1.6 0 0 0 1.6-1.6V328z" data-name="Path 46688" transform="translate(-284.012 -296.819)"/>
            <path id="Path_46689" d="M119.191 54.377h-1.6v-16.79a5.79 5.79 0 0 0-2.4-4.806v-1.59a2.393 2.393 0 0 0-.8-1.786v-1.412a2.4 2.4 0 0 0-1.6-2.261V16.8a.8.8 0 0 0-1.6 0v8.932a2.4 2.4 0 0 0-1.6 2.261V29.4a2.393 2.393 0 0 0-.8 1.786v1.59a5.791 5.791 0 0 0-2.4 4.806v16.79h-1.6a.8.8 0 1 0 0 1.6H108v3.2h-.8a2.4 2.4 0 0 0-2.4 2.4v1.6a.8.8 0 0 0 .8.8h12.792a.8.8 0 0 0 .8-.8v-1.6a2.4 2.4 0 0 0-2.4-2.4h-.8v-3.2h3.2a.8.8 0 1 0 0-1.6zm-8-26.384a.8.8 0 1 1 1.6 0v.8h-1.6zm-.8 3.2a.8.8 0 0 1 .8-.8h1.6a.8.8 0 0 1 .8.8v.9a4.329 4.329 0 0 0-.914-.1h-1.367a4.329 4.329 0 0 0-.914.1zM108 54.377v-1.6h4.8a.8.8 0 0 0 0-1.6H108v-1.6h2.4a.8.8 0 1 0 0-1.6H108v-1.6h4.8a.8.8 0 0 0 0-1.6H108v-1.6h2.4a.8.8 0 1 0 0-1.6H108v-1.6h4.8a.8.8 0 1 0 0-1.6H108v-.8c0-2.2 1.486-4 3.312-4h1.371c1.826 0 3.312 1.793 3.312 4v16.79zm6.4 1.6v3.2h-1.6v-3.2zm-3.2 0v3.2h-1.6v-3.2zm5.6 4.8a.8.8 0 0 1 .8.8v.8h-11.2v-.8a.8.8 0 0 1 .8-.8z" data-name="Path 46689" transform="translate(-104 -16)"/>
            <path id="Path_46690" d="M304 230.476V228.8h.8a.8.8 0 0 0 .8-.8v-3.2a.8.8 0 0 0-.8-.8h-6.4a.8.8 0 0 0-.8.8v3.2a.8.8 0 0 0 .8.8h.8v1.679a4 4 0 0 0-3.2 3.918v14.391a2.4 2.4 0 0 0 2.4 2.4h6.4a2.4 2.4 0 0 0 2.4-2.4v-14.394a4 4 0 0 0-3.2-3.918zm-4.8-3.278v-1.6h4.8v1.6zm.8 4.8a.8.8 0 0 0 .8-.8v-2.4h1.6v2.4a.8.8 0 0 0 .8.8 2.4 2.4 0 0 1 2.261 1.6h-7.72A2.4 2.4 0 0 1 300 232zm5.6 16.79a.8.8 0 0 1-.8.8h-6.4a.8.8 0 0 1-.8-.8v-13.595h8z" data-name="Path 46690" transform="translate(-276.812 -203.213)"/>
        </g>
    </g>
</svg>
