<svg xmlns="http://www.w3.org/2000/svg" width="100.595" height="70.817" viewBox="0 0 100.595 70.817">
  <g id="Group_21491" data-name="Group 21491" transform="translate(-427.223 -2507)">
    <g id="healthcare-and-medical_1_" data-name="healthcare-and-medical (1)" transform="translate(452.25 2502.25)">
      <path id="Path_41368" data-name="Path 41368" d="M75.567,44.94a1.046,1.046,0,0,0-1.046-1.046H70.278V39.561h1.554a1.046,1.046,0,0,0,1.046-1.046V28.8a1.046,1.046,0,0,0-1.046-1.046H60.161V12.967A8.226,8.226,0,0,0,51.944,4.75H28.374a8.226,8.226,0,0,0-8.217,8.217V27.758H8.485A1.046,1.046,0,0,0,7.439,28.8v9.711a1.046,1.046,0,0,0,1.046,1.046h1.554v4.333H5.8A1.046,1.046,0,0,0,4.75,44.94c0,3.834,0,9.017,5.289,10.885v18.7a1.046,1.046,0,0,0,1.046,1.046H69.233a1.046,1.046,0,0,0,1.046-1.046v-18.7C75.563,53.957,75.567,48.773,75.567,44.94ZM22.248,12.967a6.132,6.132,0,0,1,6.126-6.126h23.57a6.132,6.132,0,0,1,6.126,6.126V27.758H56.575V12.967a4.637,4.637,0,0,0-4.632-4.632H28.374a4.637,4.637,0,0,0-4.632,4.632V27.758H22.248Zm3.586,14.791V12.967a2.543,2.543,0,0,1,2.54-2.54h23.57a2.543,2.543,0,0,1,2.54,2.54V27.758ZM9.531,29.85H70.786v7.62H63.1V35.253a1.045,1.045,0,0,0-1.046-1.046H55.529a1.045,1.045,0,0,0-1.046,1.046v2.216H25.834V35.253a1.045,1.045,0,0,0-1.046-1.046H18.264a1.045,1.045,0,0,0-1.046,1.046v2.216H9.531ZM56.575,36.3h4.433v4.432H56.575ZM23.742,40.731H19.31V36.3h4.433ZM6.849,45.985h3.189v7.578C7.35,52.251,6.906,49.554,6.849,45.985Zm61.337,27.49H12.131V39.561h5.087v2.216a1.045,1.045,0,0,0,1.046,1.046h6.524a1.045,1.045,0,0,0,1.046-1.046V39.561h28.65v2.216a1.045,1.045,0,0,0,1.046,1.046h6.524A1.045,1.045,0,0,0,63.1,41.777V39.561h5.087Zm2.092-19.912V45.985h3.189C73.411,49.554,72.968,52.251,70.278,53.564Z"/>
      <path id="Path_41369" data-name="Path 41369" d="M105.95,98.5a1.045,1.045,0,0,0-1.046,1.046v5.528a1.046,1.046,0,1,0,2.092,0V99.546A1.045,1.045,0,0,0,105.95,98.5Z" transform="translate(-40.3 -37.724)"/>
      <path id="Path_41370" data-name="Path 41370" d="M55.287,68.6A12.941,12.941,0,1,0,68.228,81.54,12.941,12.941,0,0,0,55.287,68.6Zm0,23.789A10.849,10.849,0,1,1,66.136,81.54,10.849,10.849,0,0,1,55.287,92.389Z" transform="translate(-15.128 -25.692)"/>
      <path id="Path_41371" data-name="Path 41371" d="M64.955,83.287H62.714V81.046A1.046,1.046,0,0,0,61.668,80H58.083a1.046,1.046,0,0,0-1.046,1.046v2.241H54.8a1.046,1.046,0,0,0-1.046,1.046v3.586A1.045,1.045,0,0,0,54.8,88.964h2.241v2.241a1.045,1.045,0,0,0,1.046,1.046h3.586a1.045,1.045,0,0,0,1.046-1.046V88.964h2.241A1.045,1.045,0,0,0,66,87.918V84.333A1.046,1.046,0,0,0,64.955,83.287Zm-1.046,3.586H61.668a1.046,1.046,0,0,0-1.046,1.046v2.241H59.129V87.918a1.046,1.046,0,0,0-1.046-1.046H55.842V85.379h2.241a1.045,1.045,0,0,0,1.046-1.046V82.092h1.494v2.241a1.045,1.045,0,0,0,1.046,1.046h2.241Z" transform="translate(-19.717 -30.279)"/>
    </g>
    <path id="Path_42528" data-name="Path 42528" d="M79.58,208A11.986,11.986,0,0,1,72,215.58a11.986,11.986,0,0,1,7.58,7.58,11.986,11.986,0,0,1,7.58-7.58A11.986,11.986,0,0,1,79.58,208Z" transform="translate(366.931 2345.872)" fill="none" stroke="#ffca01" stroke-width="2"/>
    <path id="Path_42530" data-name="Path 42530" d="M77.142,208A8.131,8.131,0,0,1,72,213.142a8.131,8.131,0,0,1,5.142,5.142,8.131,8.131,0,0,1,5.142-5.142A8.131,8.131,0,0,1,77.142,208Z" transform="matrix(0.875, 0.485, -0.485, 0.875, 474.375, 2319.635)" fill="none" stroke="#ffca01" stroke-width="2"/>
  </g>
</svg>
