<svg xmlns="http://www.w3.org/2000/svg" width="103.496" height="73.04" viewBox="0 0 103.496 73.04">
  <g id="Group_21493" data-name="Group 21493" transform="translate(-902.223 -2507)">
    <path id="Path_42536" data-name="Path 42536" d="M79.58,208A11.986,11.986,0,0,1,72,215.58a11.986,11.986,0,0,1,7.58,7.58,11.986,11.986,0,0,1,7.58-7.58A11.986,11.986,0,0,1,79.58,208Z" transform="translate(841.931 2345.872)" fill="none" stroke="#ffca01" stroke-width="2"/>
    <path id="Path_42537" data-name="Path 42537" d="M77.142,208A8.131,8.131,0,0,1,72,213.142a8.131,8.131,0,0,1,5.142,5.142,8.131,8.131,0,0,1,5.142-5.142A8.131,8.131,0,0,1,77.142,208Z" transform="matrix(0.875, 0.485, -0.485, 0.875, 949.375, 2319.635)" fill="none" stroke="#ffca01" stroke-width="2"/>
    <g id="doctor_3_" data-name="doctor (3)" transform="translate(929 2495.492)">
      <g id="Group_11784" data-name="Group 11784" transform="translate(0 11.508)">
        <g id="Group_11783" data-name="Group 11783" transform="translate(0 0)">
          <path id="Path_41366" data-name="Path 41366" d="M76.626,52.436a8.951,8.951,0,0,0-7.58-7.58V42.531c0-6.414-4.875-11.636-10.868-11.636-5.82,0-10.693,5.063-10.868,11.288h.074l-.074.013v25.2c0,8.055-6.022,14.6-13.426,14.6s-13.426-6.55-13.426-14.6V65.212c1.854,0,3.836-1.344,3.836-5.115V56.881c8.206-2.1,14.065-9.145,14.065-17.134V37.082H35.8L35.748,20.44a6.4,6.4,0,0,0-5.26-6.259,3.816,3.816,0,1,0-.087,2.607,3.836,3.836,0,0,1,2.786,3.659l.058,16.634H30.687v2.7a10.168,10.168,0,0,1-7.36,9.54,11.626,11.626,0,0,1-7.032,0,10.162,10.162,0,0,1-7.344-9.54v-2.7H5.115V20.46a3.836,3.836,0,0,1,2.839-3.688,3.854,3.854,0,1,0-.079-2.6A6.393,6.393,0,0,0,2.557,20.46V37.082H0v2.66c0,8,5.863,15.047,14.065,17.14V60.1c0,3.771,1.982,5.114,3.836,5.114v2.183c0,9.462,7.169,17.154,15.983,17.154s15.983-7.7,15.983-17.154V42.258c.128-4.852,3.859-8.8,8.311-8.8,4.583,0,8.311,4.071,8.311,9.078v2.321a8.95,8.95,0,1,0,10.137,7.58ZM26.851,16.624a1.279,1.279,0,1,1,1.279-1.279A1.279,1.279,0,0,1,26.851,16.624ZM11.508,14.066a1.279,1.279,0,1,1-1.279,1.279A1.279,1.279,0,0,1,11.508,14.066ZM2.557,39.741v-.1H6.393v.146A12.7,12.7,0,0,0,15.52,51.757a14.228,14.228,0,0,0,8.59,0,12.707,12.707,0,0,0,9.135-11.972v-.146H35.8v.1c0,7.113-5.483,13.372-13.042,14.886a18.24,18.24,0,0,1-5.395.265,16.7,16.7,0,0,1-1.766-.267C8.04,53.113,2.557,46.854,2.557,39.741ZM17.9,62.654c-1.151,0-1.279-1.79-1.279-2.557V57.384c.1.013.207.018.311.028.128.014.256.024.384.036.6.054,1.215.089,1.83.091h.064c.614,0,1.222-.037,1.823-.091.128-.012.263-.022.4-.036.1-.012.206-.015.307-.028V60.1c0,.767-.128,2.557-1.279,2.557ZM67.767,60.1A6.393,6.393,0,1,1,74.16,53.7,6.393,6.393,0,0,1,67.767,60.1Z" transform="translate(0 -11.508)"/>
        </g>
      </g>
      <g id="Group_11786" data-name="Group 11786" transform="translate(63.931 49.868)">
        <g id="Group_11785" data-name="Group 11785" transform="translate(0 0)">
          <path id="Path_41367" data-name="Path 41367" d="M403.836,251.515a3.836,3.836,0,1,0,3.836,3.836A3.836,3.836,0,0,0,403.836,251.515Zm0,5.114a1.279,1.279,0,1,1,1.279-1.279A1.279,1.279,0,0,1,403.836,256.629Z" transform="translate(-400 -251.515)"/>
        </g>
      </g>
    </g>
  </g>
</svg>
