<svg id="Layer_1" data-name="Layer 1" xmlns="http://www.w3.org/2000/svg" viewBox="0 0 50 50"><defs><style>.cls-1{fill:#1b4791;}.cls-2{fill:#63c7db;}.cls-3{fill:#fff;}.cls-4{fill:none;stroke:#000;stroke-miterlimit:10;stroke-width:0.25px;}</style></defs><rect class="cls-1" x="36.11" y="22.64" width="8.06" height="3.13" transform="translate(-6.7 22.47) rotate(-28.96)"/><path d="M44.38,23.61l-7,3.87L35.9,24.8l7-3.87,1.48,2.68m.08,0,0-.05L43,20.9l0-.06-.05,0-7,3.88,0,0,0,0,1.48,2.68,0,.06,0,0,7-3.88.05,0Z"/><rect x="24.99" y="31.18" width="5" height="0.06" transform="translate(-11.67 17.22) rotate(-28.96)"/><path class="cls-2" d="M29.19,28.51h2.25a0,0,0,0,1,0,0v1.14a1.11,1.11,0,0,1-1.11,1.11h0a1.14,1.14,0,0,1-1.14-1.14V28.51a0,0,0,0,1,0,0Z" transform="translate(41.57 -11.24) rotate(61.04)"/><path d="M29.37,30.32l-.1-.19a1.07,1.07,0,0,1,.42-1.46l1.08-.6,1.12,2-1.13.63A1,1,0,0,1,29.37,30.32Zm1.38-2.17-1,.57a1,1,0,0,0-.4,1.38l.11.19a1,1,0,0,0,1.3.37l1.08-.59Z"/><path class="cls-1" d="M30.27,28.9a1.8,1.8,0,0,1,.7-2.44l7.81-4.32,2.39,4.32-7.83,4.33a1.79,1.79,0,0,1-2.41-.69Z"/><path d="M41.13,26.44l-7.8,4.32A1.74,1.74,0,0,1,31,30.08l-.66-1.2A1.75,1.75,0,0,1,31,26.49l7.78-4.31,2.36,4.26m.08,0,0-.06-2.36-4.26,0,0,0,0L31,26.43a1.84,1.84,0,0,0-.72,2.48l.67,1.2a1.81,1.81,0,0,0,2.45.71l7.8-4.32.05,0Z"/><path class="cls-2" d="M30.56,25.44h4.87a0,0,0,0,1,0,0v3.22a2.21,2.21,0,0,1-2.21,2.21h-.39a2.27,2.27,0,0,1-2.27-2.27V25.44A0,0,0,0,1,30.56,25.44Z" transform="translate(41.66 -14.35) rotate(61.04)"/><rect class="cls-2" x="36.71" y="24.12" width="6.51" height="0.35" rx="0.18" transform="translate(41.87 -22.44) rotate(61.04)"/><path d="M41.28,27.1l-3-5.39a.21.21,0,1,1,.37-.2l3,5.38a.21.21,0,0,1-.08.29A.21.21,0,0,1,41.28,27.1ZM38.6,21.54a.14.14,0,0,0-.19-.06.14.14,0,0,0-.06.2l3,5.39a.15.15,0,0,0,.2.05.15.15,0,0,0,.06-.2Z"/><path d="M38,23.94l-.36-.67a0,0,0,0,1,0,0s0,0,0,0l.37.67a0,0,0,0,1,0,0S38,24,38,23.94Z"/><path d="M38.45,23.68,38.08,23a0,0,0,0,1,0-.05s0,0,0,0l.37.66s0,0,0,0S38.46,23.69,38.45,23.68Z"/><path d="M36.59,24.71,36.22,24s0,0,0,0a0,0,0,0,1,.05,0l.36.67s0,0,0,0S36.6,24.72,36.59,24.71Z"/><path d="M37.05,24.45l-.36-.66s0,0,0,0a0,0,0,0,1,0,0l.37.66s0,0,0,0A0,0,0,0,1,37.05,24.45Z"/><path d="M37.9,24.88l-.75-1.35s0,0,0,0,0,0,0,0L38,24.85s0,0,0,0A0,0,0,0,1,37.9,24.88Z"/><path d="M36.5,25.65l-.74-1.35a0,0,0,0,1,0,0s0,0,0,0l.75,1.35a0,0,0,0,1,0,.05S36.51,25.67,36.5,25.65Z"/><path d="M35.19,25.48l-.36-.66s0,0,0-.05a0,0,0,0,1,0,0l.37.66s0,0,0,0A0,0,0,0,1,35.19,25.48Z"/><path d="M35.66,25.22l-.37-.66s0,0,0,0,0,0,.05,0l.36.66s0,0,0,0S35.67,25.24,35.66,25.22Z"/><path d="M35.11,26.43l-.75-1.36s0,0,0,0a0,0,0,0,1,.05,0l.74,1.36a0,0,0,0,1,0,0S35.12,26.44,35.11,26.43Z"/><path d="M33.8,26.25l-.37-.66s0,0,0,0,0,0,.05,0l.36.66s0,0,0,0A0,0,0,0,1,33.8,26.25Z"/><path d="M34.26,26l-.36-.66a0,0,0,0,1,0,0s0,0,0,0l.37.66a0,0,0,0,1,0,.05S34.27,26,34.26,26Z"/><path d="M33.71,27.2,33,25.85s0,0,0-.05a0,0,0,0,1,0,0l.75,1.35s0,0,0,0A0,0,0,0,1,33.71,27.2Z"/><path d="M32.4,27,32,26.36a0,0,0,0,1,0,0s0,0,0,0l.37.66a0,0,0,0,1,0,.05S32.41,27,32.4,27Z"/><path d="M32.87,26.77l-.37-.67s0,0,0,0a0,0,0,0,1,.05,0l.36.67a0,0,0,0,1,0,0S32.88,26.78,32.87,26.77Z"/><path d="M32.32,28l-.75-1.35s0,0,0,0,0,0,.05,0l.74,1.35a0,0,0,0,1,0,0S32.33,28,32.32,28Z"/><rect class="cls-2" x="41.1" y="21.82" width="4.96" height="0.97" rx="0.48" transform="translate(41.99 -26.63) rotate(61.04)"/><path d="M44.1,24.3l-1.94-3.5a.51.51,0,1,1,.9-.5L45,23.8a.51.51,0,0,1-.9.5Zm-1.09-4a.46.46,0,0,0-.62-.17.45.45,0,0,0-.17.61l1.93,3.5a.45.45,0,0,0,.79-.44Z"/><rect class="cls-2" x="34.42" y="34.97" width="7.71" height="2.15"/><path d="M42.17,37.15H34.39V34.94h7.78Zm-7.71-.07H42.1V35H34.46Z"/><rect class="cls-1" x="33.57" y="33.14" width="9.43" height="2.35" rx="0.34"/><path d="M42.65,33.18a.31.31,0,0,1,.31.31v1.66a.31.31,0,0,1-.31.31H33.91a.31.31,0,0,1-.31-.31V33.49a.31.31,0,0,1,.31-.31h8.74m0-.07H33.91a.38.38,0,0,0-.38.38v1.66a.38.38,0,0,0,.38.38h8.74a.38.38,0,0,0,.38-.38V33.49a.38.38,0,0,0-.38-.38Z"/><path class="cls-1" d="M34.29,48.2a.92.92,0,0,1-.92-.92V37.4a.75.75,0,0,1,.75-.75h8.41a.65.65,0,0,1,.66.66v10a.92.92,0,0,1-.92.92Z"/><path d="M42.53,36.68a.63.63,0,0,1,.63.63v10a.89.89,0,0,1-.89.89h-8a.89.89,0,0,1-.89-.89V37.4a.72.72,0,0,1,.72-.72h8.41m0-.07H34.12a.8.8,0,0,0-.79.79v9.88a1,1,0,0,0,1,1h8a1,1,0,0,0,1-1v-10a.7.7,0,0,0-.7-.7Z"/><path class="cls-2" d="M33.37,46.34v-7.5h4a1,1,0,0,1,1,.95v5.6a1,1,0,0,1-1,1Z"/><path d="M37.36,38.87a.92.92,0,0,1,.92.92v5.6a.92.92,0,0,1-.92.92h-4V38.87h4m0-.07h-4v7.58h4a1,1,0,0,0,1-1v-5.6a1,1,0,0,0-1-1Z"/><path d="M35.57,42.91H33.4s0,0,0,0a0,0,0,0,1,0,0h2.17a0,0,0,0,1,0,0S35.59,42.91,35.57,42.91Z"/><path d="M36.31,44.44H33.4s0,0,0,0a0,0,0,0,1,0,0h2.91a0,0,0,0,1,0,0A0,0,0,0,1,36.31,44.44Z"/><path class="cls-3" d="M42.14,43.23a.07.07,0,0,1-.07-.07V38.22a.07.07,0,0,1,.14,0v4.94A.07.07,0,0,1,42.14,43.23Z"/><path class="cls-3" d="M42.14,45.54a.07.07,0,0,1-.07-.07V44.06a.07.07,0,0,1,.14,0v1.41A.07.07,0,0,1,42.14,45.54Z"/><path d="M38.49,33.86H34.85a0,0,0,0,1,0,0,0,0,0,0,1,0,0h3.64a0,0,0,0,1,0,0S38.51,33.86,38.49,33.86Z"/><path d="M40.83,33.86H39.44s0,0,0,0a0,0,0,0,1,0,0h1.39a0,0,0,0,1,0,0S40.85,33.86,40.83,33.86Z"/><path class="cls-4" d="M5.93,37.44a4.29,4.29,0,0,0-.82-1.25C4.64,35.57,3.89,34.47,3,34.4a1.34,1.34,0,0,0-1.21.79A5.12,5.12,0,0,0,1.9,39a19.61,19.61,0,0,0,2.74,4.84c.24.32.9,1.66,1.43,1.58l-.31-1,.14-5A8.32,8.32,0,0,0,5.93,37.44Z"/><path class="cls-4" d="M22.35,37.58a5,5,0,0,1,.76-1.39c.47-.62,1.22-1.72,2.07-1.79a1.34,1.34,0,0,1,1.21.79A5.12,5.12,0,0,1,26.32,39a19.3,19.3,0,0,1-2.74,4.84c-.24.32-.87,1.12-1.39,1.21l.27-.63-.14-5A7.27,7.27,0,0,1,22.35,37.58Z"/><path class="cls-1" d="M13.92,48.22A12.34,12.34,0,0,1,5.74,45.3l0,0V36.91l.18.08a5.81,5.81,0,0,0,2.4.51,5.89,5.89,0,0,0,4.41-2,3.71,3.71,0,0,0,.46-.6,1.42,1.42,0,0,1,.91-.86,1.76,1.76,0,0,1,.31,0,1,1,0,0,1,.31,0,1.4,1.4,0,0,1,.64.61l.08.12a6.43,6.43,0,0,0,.7.9,5.9,5.9,0,0,0,1.62,1.19c.17.08.34.16.51.22a5.81,5.81,0,0,0,2.11.39,5.66,5.66,0,0,0,2.09-.39l.17-.06V44.8A12.16,12.16,0,0,1,13.92,48.22Z"/><path d="M14.36,34.15a.84.84,0,0,1,.27,0c.32.12.47.42.65.68a7.12,7.12,0,0,0,.72.92A6,6,0,0,0,17.66,37a4.83,4.83,0,0,0,.52.23,6,6,0,0,0,2.15.39,5.8,5.8,0,0,0,2.13-.39V44.8a12.17,12.17,0,0,1-8.54,3.29,12.29,12.29,0,0,1-8.1-2.88V37.1a5.91,5.91,0,0,0,2.45.52,6,6,0,0,0,4.5-2,3.66,3.66,0,0,0,.48-.62,1.32,1.32,0,0,1,.83-.8,1.33,1.33,0,0,1,.28,0m0-.25a1.37,1.37,0,0,0-.34,0,1.57,1.57,0,0,0-1,.92,2.63,2.63,0,0,1-.42.54,5.76,5.76,0,0,1-4.34,2,5.58,5.58,0,0,1-2.35-.5l-.35-.15v8.6l.08.08a12.49,12.49,0,0,0,8.27,2.94A12.45,12.45,0,0,0,22.64,45l.07-.07v-8l-.34.13a5.59,5.59,0,0,1-2,.37A5.74,5.74,0,0,1,18.27,37l-.5-.22a5.89,5.89,0,0,1-1.59-1.17,6.35,6.35,0,0,1-.69-.88l-.08-.11a1.37,1.37,0,0,0-.7-.66,1,1,0,0,0-.35-.06Z"/><path class="cls-4" d="M5.82,40.3a40.73,40.73,0,0,0,16.64-.08"/><path class="cls-4" d="M5.82,43.26a40.56,40.56,0,0,0,16.64-.08"/><path class="cls-1" d="M44.33,17.69a.66.66,0,0,1-.56-.24A18,18,0,0,0,41.29,14a42,42,0,0,0-3.92-2.3.92.92,0,0,1-.36-.28A.54.54,0,0,1,37,11a.5.5,0,0,1,.35-.4.88.88,0,0,1,.24,0,2.6,2.6,0,0,1,.39.05l.09,0a3.08,3.08,0,0,1,.68.17,4.16,4.16,0,0,1,.77.44l.28.19.09,0L37.2,8.05a.6.6,0,0,1-.12-.64.53.53,0,0,1,.46-.28.6.6,0,0,1,.48.26l1.47,1.75-1.73-2.5a.69.69,0,0,1-.17-.74.53.53,0,0,1,.49-.31.76.76,0,0,1,.55.28l2,2.56L39.14,6.09a.58.58,0,0,1-.06-.59.53.53,0,0,1,.47-.28.58.58,0,0,1,.47.27L41.4,7.42l-.92-1.5a.51.51,0,0,1,0-.52.44.44,0,0,1,.4-.23.54.54,0,0,1,.44.27,6.61,6.61,0,0,1,1.57,2.21c.21.44.44.9.66,1.35.64,1.3,1.24,2.52,1.68,3.22a15.41,15.41,0,0,0,2.45,2.43.75.75,0,0,1,0,.81A5.07,5.07,0,0,1,44.33,17.69Z"/><path d="M40.85,5.21a.47.47,0,0,1,.4.25,6.48,6.48,0,0,1,1.57,2.21c.83,1.66,1.74,3.62,2.35,4.57a15.11,15.11,0,0,0,2.45,2.44c.62.87-2,3-3.29,3a.61.61,0,0,1-.52-.22A18,18,0,0,0,41.32,14a44.29,44.29,0,0,0-3.93-2.31.7.7,0,0,1-.34-.27A.45.45,0,0,1,37,11a.48.48,0,0,1,.33-.36.78.78,0,0,1,.22,0,2.65,2.65,0,0,1,.48.07,4.11,4.11,0,0,1,.67.17,5.54,5.54,0,0,1,1,.63l.27.16L37.23,8a.49.49,0,0,1,.31-.85.57.57,0,0,1,.45.25l2,2.42L37.79,6.61c-.42-.48-.13-1,.29-1a.72.72,0,0,1,.52.27l2.45,3.2-1.87-3a.49.49,0,0,1,.37-.81.52.52,0,0,1,.43.26l2,2.82L40.52,5.9a.43.43,0,0,1,.33-.69m0-.08h0a.47.47,0,0,0-.43.25.52.52,0,0,0,0,.56l.34.56-.74-1a.61.61,0,0,0-.5-.29.56.56,0,0,0-.5.3.6.6,0,0,0,.06.64l1,1.64L38.66,5.85a.77.77,0,0,0-.58-.3.56.56,0,0,0-.52.33.74.74,0,0,0,.17.79L39,8.45l-.9-1.09a.69.69,0,0,0-.52-.28.56.56,0,0,0-.49.31.64.64,0,0,0,.11.68l2.51,3.31-.18-.12a3.53,3.53,0,0,0-.78-.45,3.08,3.08,0,0,0-.68-.17l-.09,0a1.83,1.83,0,0,0-.4,0,1,1,0,0,0-.25,0,.57.57,0,0,0-.31.83.86.86,0,0,0,.35.28h0s3,1.6,3.92,2.3a18.81,18.81,0,0,1,2.47,3.45.65.65,0,0,0,.59.26,5.14,5.14,0,0,0,3.33-2.25.8.8,0,0,0,0-.84h0a15.37,15.37,0,0,1-2.43-2.42c-.45-.7-1.05-1.92-1.68-3.22l-.67-1.35a6.48,6.48,0,0,0-1.58-2.22.54.54,0,0,0-.46-.28Z"/><path class="cls-2" d="M44.33,17.69a.66.66,0,0,1-.56-.24l-.42-.71,0,0L46.88,14l0,0c.42.37.74.63.75.63a.75.75,0,0,1,0,.81,5.07,5.07,0,0,1-3.29,2.23Z"/><path d="M46.88,14.05c.42.37.74.63.74.63.62.87-2,3-3.29,3a.61.61,0,0,1-.52-.22l-.43-.71,3.5-2.67m0-.11-.05,0-3.5,2.67-.06.05,0,.06c.26.41.43.71.43.71a.65.65,0,0,0,.59.26,5.14,5.14,0,0,0,3.33-2.25.8.8,0,0,0,0-.84h0s-.33-.27-.74-.63l0-.05Z"/><path class="cls-1" d="M32.44,17.85a5.1,5.1,0,0,1-3.39-2A.7.7,0,0,1,29,15.1a16.29,16.29,0,0,0,2.24-2.64c.38-.73.88-2,1.4-3.35.18-.47.37-.94.55-1.4a6.41,6.41,0,0,1,1.39-2.34.48.48,0,0,1,.44-.3.46.46,0,0,1,.39.21.51.51,0,0,1,0,.51l-.78,1.57,1.21-2A.57.57,0,0,1,36.32,5a.52.52,0,0,1,.45.26.58.58,0,0,1,0,.58L35.51,8.3l1.73-2.71a.72.72,0,0,1,.58-.33.52.52,0,0,1,.47.29.68.68,0,0,1-.12.73L36.66,8.92,38,7.05a.61.61,0,0,1,.5-.31.48.48,0,0,1,.44.27.61.61,0,0,1-.06.63l-2.35,3.69.08-.06.27-.21a3.68,3.68,0,0,1,.73-.51,5.22,5.22,0,0,1,.66-.23l.09,0a1.86,1.86,0,0,1,.47-.09l.16,0a.5.5,0,0,1,.38.36.47.47,0,0,1,0,.37.74.74,0,0,1-.31.3,43.1,43.1,0,0,0-3.74,2.64,18.26,18.26,0,0,0-2.18,3.65.7.7,0,0,1-.65.3Z"/><path d="M36.32,5.05a.49.49,0,0,1,.39.78L35.1,9l2.18-3.4a.67.67,0,0,1,.54-.31c.39,0,.69.46.32,1l-2,3.41L38,7.07a.58.58,0,0,1,.47-.29c.35,0,.63.39.34.83l-2.45,3.87.25-.18a6.37,6.37,0,0,1,1-.71,3.87,3.87,0,0,1,.65-.23,2.44,2.44,0,0,1,.55-.11l.15,0a.48.48,0,0,1,.36.33.53.53,0,0,1,0,.35.78.78,0,0,1-.31.29,43,43,0,0,0-3.73,2.63,18.29,18.29,0,0,0-2.19,3.67.65.65,0,0,1-.61.27c-1.3,0-3.95-1.8-3.42-2.69a15.1,15.1,0,0,0,2.24-2.64c.53-1,1.27-3,2-4.75A6.38,6.38,0,0,1,34.6,5.4.45.45,0,0,1,35,5.11a.43.43,0,0,1,.36.66L34.09,8.33l1.78-3a.5.5,0,0,1,.45-.3m0-.08V5a.62.62,0,0,0-.53.34L35.14,6.4l.3-.59a.56.56,0,0,0,0-.55A.5.5,0,0,0,35,5a.53.53,0,0,0-.48.32A6.65,6.65,0,0,0,33.14,7.7c-.18.45-.36.93-.55,1.4-.52,1.34-1,2.61-1.4,3.34A15.61,15.61,0,0,1,29,15.06h0a.75.75,0,0,0,.07.77,5.12,5.12,0,0,0,3.42,2,.74.74,0,0,0,.68-.31,17.92,17.92,0,0,1,2.18-3.65A44.06,44.06,0,0,1,39,11.31h0a.76.76,0,0,0,.32-.32.5.5,0,0,0,0-.4.54.54,0,0,0-.41-.39l-.17,0a1.94,1.94,0,0,0-.48.09l-.09,0a3.56,3.56,0,0,0-.67.23,3.75,3.75,0,0,0-.74.51l-.16.13,2.22-3.5A.64.64,0,0,0,39,7a.55.55,0,0,0-.48-.29.66.66,0,0,0-.54.33l-.81,1.15,1.08-1.89a.73.73,0,0,0,.12-.76.56.56,0,0,0-.51-.32.79.79,0,0,0-.61.35l-1.3,2,.88-1.73a.65.65,0,0,0,0-.62A.58.58,0,0,0,36.32,5Z"/><path class="cls-2" d="M32.44,17.85a5.1,5.1,0,0,1-3.39-2A.7.7,0,0,1,29,15.1s.31-.3.69-.7l0,0,3.77,2.41,0,0c-.22.44-.36.74-.36.74A.7.7,0,0,1,32.44,17.85Z"/><path d="M29.71,14.42l3.7,2.37c-.22.44-.36.75-.36.75a.65.65,0,0,1-.61.27c-1.3,0-3.95-1.8-3.42-2.69,0,0,.3-.29.69-.7m0-.1-.05,0c-.38.4-.68.69-.68.69h0a.75.75,0,0,0,.07.77,5.12,5.12,0,0,0,3.42,2,.74.74,0,0,0,.68-.31s.15-.32.37-.75l0-.07-.06,0-3.71-2.36-.05,0Z"/><path class="cls-1" d="M14.27,33.3A16.66,16.66,0,0,1,7.7,31.94l0,0,.66-18.31a.12.12,0,0,0,0-.11.16.16,0,0,0-.11-.05.19.19,0,0,0-.11,0L6.14,15.37l0,6.26H2.68V14.24a2.78,2.78,0,0,1,.78-1.93L7.75,7.93a2.77,2.77,0,0,1,2-.82h9.68a3,3,0,0,1,2.18,1l4.13,4.52a2.81,2.81,0,0,1,.73,1.89v7.37H22.86V15.14L21,13.29a.22.22,0,0,0-.16-.07.29.29,0,0,0-.18.07.24.24,0,0,0-.06.17l.7,18.46-.05,0A19.67,19.67,0,0,1,14.27,33.3Z"/><path d="M19.39,7.17a2.92,2.92,0,0,1,2.13.94l4.13,4.52a2.74,2.74,0,0,1,.71,1.85v7.3H22.92V15.14L21,13.24a.3.3,0,0,0-.52.23l.7,18.4a19.48,19.48,0,0,1-6.94,1.36,16.42,16.42,0,0,1-6.54-1.36l.65-18.26a.21.21,0,0,0-.22-.23.23.23,0,0,0-.16.07L6.1,15.32l0,6.24H2.75V14.24a2.69,2.69,0,0,1,.76-1.88L7.8,8a2.65,2.65,0,0,1,1.91-.81h9.68m0-.13H9.71a2.86,2.86,0,0,0-2,.84L3.42,12.27a2.8,2.8,0,0,0-.81,2V21.7H6.19v-.14l0-6.19L8.1,13.54l.06,0a.07.07,0,0,1,.06,0,.06.06,0,0,1,0,.06L7.59,31.87V32l.09,0a16.64,16.64,0,0,0,6.6,1.37,19.58,19.58,0,0,0,7-1.37l.1,0v-.1l-.69-18.41a.17.17,0,0,1,0-.12.19.19,0,0,1,.13-.05.15.15,0,0,1,.11.05l1.86,1.85v6.73H26.5V14.48a2.89,2.89,0,0,0-.75-1.94L21.62,8a3,3,0,0,0-2.23-1Z"/><path d="M14.4,32.21a.06.06,0,0,1-.06-.06V16.81a.07.07,0,0,1,.06-.07.07.07,0,0,1,.07.07V32.15A.07.07,0,0,1,14.4,32.21Z"/><path class="cls-1" d="M14.17,12.13,12.07,5h4.68c-.39,2-1.26,6.32-1.26,6.38s-.5,1.07-.86,1.8Z"/><path d="M16.67,5.09c-1.05,5.27-1.22,6.12-1.24,6.27h0c0,.09-.46,1-.79,1.67l-.4-.91-2.08-7h4.51M16.83,5H12l2.14,7.21.52,1.2s.93-1.91.93-2S16.83,5,16.83,5Z"/><polygon class="cls-2" points="14.47 11.48 16.86 5.07 18.84 6.78 18.09 8.98 16.79 8.76 18.05 10.72 14.47 15.67 14.47 11.48"/><path d="M16.89,5.18,18.76,6.8,18,8.9,17,8.72l-.31-.05.17.26L18,10.72l-3.43,4.74v-4l2.35-6.32M16.83,5,14.4,11.48v4.4l3.74-5.15L16.93,8.86l1.21.2.78-2.3L16.83,5Z"/><polygon class="cls-2" points="10.75 10.72 12.02 8.76 10.72 8.98 9.97 6.78 11.94 5.07 14.34 11.5 14.34 15.67 10.75 10.72"/><path d="M11.91,5.18l2.36,6.32v4l-3.43-4.74L12,8.93l.17-.26-.31.05-1.09.18-.71-2.1,1.86-1.62M12,5,9.89,6.76l.78,2.3,1.2-.2-1.2,1.87,3.73,5.15v-4.4L12,5Z"/><path d="M13.3,20.27a.55.55,0,1,1,.55-.55A.55.55,0,0,1,13.3,20.27Zm0-1a.41.41,0,1,0,.42.41A.41.41,0,0,0,13.3,19.31Z"/><path d="M13.3,24.32a.54.54,0,0,1-.54-.55.55.55,0,1,1,.54.55Zm0-1a.42.42,0,1,0,.42.41A.42.42,0,0,0,13.3,23.36Z"/><path d="M13.3,28.38a.55.55,0,0,1-.54-.55.55.55,0,1,1,1.09,0A.55.55,0,0,1,13.3,28.38Zm0-1a.41.41,0,0,0-.41.41.42.42,0,0,0,.83,0A.41.41,0,0,0,13.3,27.42Z"/><path class="cls-2" d="M7.85,25.79,8,21.56l2.36.06c.12,1.69-.13,2.88-.74,3.53A2.13,2.13,0,0,1,8,25.79Z"/><path d="M8.08,21.63l2.24.06a4.61,4.61,0,0,1-.73,3.42,2.08,2.08,0,0,1-1.6.61H7.93l.15-4.09M8,21.48l-.17,4.37H8c1.75,0,2.68-1.28,2.46-4.3L8,21.48Z"/><path class="cls-2" d="M20.92,25.8a2.14,2.14,0,0,1-1.66-.65c-.62-.66-.87-1.85-.75-3.53l2.39-.07.16,4.25Z"/><path d="M20.84,21.63l.15,4.1h-.07a2.08,2.08,0,0,1-1.61-.63,4.54,4.54,0,0,1-.74-3.41l2.27-.06m.13-.15-2.53.08c-.23,3,.73,4.31,2.48,4.31h.21L21,21.48Z"/></svg>