<svg xmlns="http://www.w3.org/2000/svg" xmlns:xlink="http://www.w3.org/1999/xlink" width="371.191" height="353.417" viewBox="0 0 371.191 353.417">
  <defs>
    <clipPath id="clip-path">
      <rect id="Rectangle_3051" data-name="Rectangle 3051" width="77.757" height="34.855" transform="translate(55.461 79.36) rotate(-135.501)" fill="none"/>
    </clipPath>
    <clipPath id="clip-path-2">
      <path id="Path_42634" data-name="Path 42634" d="M1322.643,1377.239a2.691,2.691,0,0,0-2.709-2.673l-89.264.583c-.079,0-.155.009-.233.013l-16.773.11-.042,0-5.267.034a4.224,4.224,0,0,0-3.936,4.469l.444,66.114a4.225,4.225,0,0,0,4,4.416l90.358-.591.042,0,9.234-.06v-.011l11.946-.078a2.691,2.691,0,0,0,2.673-2.709Z" transform="translate(-1204.419 -1374.565)" fill="none"/>
    </clipPath>
  </defs>
  <g id="Group_21490" data-name="Group 21490" transform="translate(-92.944 -2951.385)">
    <g id="delete" transform="matrix(0.914, -0.407, 0.407, 0.914, 181.476, 3295.456)">
      <path id="Path_43" data-name="Path 43" d="M9.884,2.017l-3.1,3.1,3.1,3.1a1.18,1.18,0,1,1-1.669,1.67l-3.1-3.1-3.1,3.1A1.18,1.18,0,0,1,.346,8.217l3.1-3.1-3.1-3.1A1.18,1.18,0,0,1,2.015.347l3.1,3.1,3.1-3.1A1.18,1.18,0,0,1,9.884,2.017Z" transform="translate(0 -0.002)" fill="#3e86b5"/>
    </g>
    <g id="Group_21489" data-name="Group 21489">
      <g id="Group_21488" data-name="Group 21488">
        <g id="Design" transform="translate(61.431 2964.385)">
          <path id="Shape" d="M336.726,209.564c92.527-21.951,89.587,78.354,124.718,125.107,40.094,53.357-54,120.984-120.608,120.984S234.378,391.7,220.228,334.671C204.14,269.831,271.9,224.942,336.726,209.564Z" transform="translate(-136.489 -134.338)" fill="#2556a7"/>
          <path id="Shape-2" data-name="Shape" d="M1657,193.558,1695.557,155h1.691L1657,195.248ZM1689.6,155h1.691L1657,189.292V187.6Zm-6.037,0h1.691L1657,183.254v-1.69Zm-6.037,0h1.691L1657,177.217v-1.69Zm-6.037,0h1.691L1657,171.18v-1.69Zm-6.117,0h1.69L1657,165.062v-1.69Zm-5.958,0h1.691L1657,159.106v-1.69Zm2.335,40.248,35.5-35.5v1.691l-33.809,33.808Zm6.44,0,29.059-29.059v1.69l-27.369,27.369Zm6.479,0,22.58-22.58v1.691l-20.889,20.889Zm6.44,0,16.14-16.14v1.69l-14.45,14.45Zm6.52,0,9.62-9.619v1.69l-7.929,7.929Zm6.44,0,3.18-3.18v1.69l-1.49,1.49Z" transform="translate(-1300.431 -168)" fill="#fff" opacity="0.05"/>
          <path id="Shape-3" data-name="Shape" d="M34.673,75.006a2.052,2.052,0,1,1,1.587.751A2.051,2.051,0,0,1,34.673,75.006Zm9.111-7.455a2.052,2.052,0,1,1,1.587.752A2.051,2.051,0,0,1,43.784,67.552Zm-17.664-3a2.052,2.052,0,1,1,1.587.752A2.051,2.051,0,0,1,26.12,64.547ZM52.9,60.1a2.052,2.052,0,1,1,1.587.752A2.051,2.051,0,0,1,52.9,60.1Zm-17.664-3a2.052,2.052,0,1,1,1.587.751A2.051,2.051,0,0,1,35.232,57.093Zm-17.664-3a2.052,2.052,0,1,1,1.587.752A2.051,2.051,0,0,1,17.568,54.089Zm44.439-1.446a2.051,2.051,0,1,1,1.587.752A2.051,2.051,0,0,1,62.007,52.642Zm-17.664-3a2.051,2.051,0,1,1,1.587.752A2.051,2.051,0,0,1,44.343,49.638Zm-17.664-3a2.052,2.052,0,1,1,1.587.751A2.051,2.051,0,0,1,26.679,46.634Zm44.439-1.446a2.051,2.051,0,1,1,1.587.752A2.052,2.052,0,0,1,71.118,45.188ZM9.015,43.63a2.052,2.052,0,1,1,1.587.752A2.051,2.051,0,0,1,9.015,43.63Zm44.439-1.446a2.051,2.051,0,1,1,1.587.752A2.051,2.051,0,0,1,53.454,42.184Zm-17.664-3a2.051,2.051,0,1,1,1.587.752A2.051,2.051,0,0,1,35.79,39.179Zm-17.664-3a2.052,2.052,0,1,1,1.587.751A2.052,2.052,0,0,1,18.127,36.175Zm44.439-1.446a2.052,2.052,0,1,1,1.587.751A2.051,2.051,0,0,1,62.566,34.729ZM.463,33.171a2.051,2.051,0,1,1,1.587.752A2.051,2.051,0,0,1,.463,33.171ZM44.9,31.725a2.051,2.051,0,1,1,1.587.752A2.051,2.051,0,0,1,44.9,31.725Zm-17.664-3a2.051,2.051,0,1,1,1.587.752A2.051,2.051,0,0,1,27.238,28.721Zm-17.664-3a2.052,2.052,0,1,1,1.587.751A2.051,2.051,0,0,1,9.574,25.716ZM54.013,24.27a2.051,2.051,0,1,1,1.587.752A2.05,2.05,0,0,1,54.013,24.27Zm-17.664-3a2.052,2.052,0,1,1,1.587.751A2.051,2.051,0,0,1,36.349,21.266Zm-17.664-3a2.051,2.051,0,1,1,1.587.752A2.051,2.051,0,0,1,18.686,18.262Zm26.775-4.45a2.051,2.051,0,1,1,1.587.752A2.051,2.051,0,0,1,45.461,13.811Zm-17.664-3a2.052,2.052,0,1,1,1.587.752A2.051,2.051,0,0,1,27.8,10.807Zm9.111-7.455A2.051,2.051,0,1,1,38.5,4.1,2.05,2.05,0,0,1,36.908,3.353Z" transform="translate(31.513 34.222)" fill="#fff" opacity="0.42"/>
          <path id="Shape-4" data-name="Shape" d="M1604.383,1441.176c-6.771,1.138-10.924-1.019-13.89-7.212-1.934-4.038-4.644-5.445-9.059-4.7-6.708,1.125-10.641-.917-13.578-7.05-1.955-4.084-4.123-5.21-8.591-4.46l-.4-2.461c5.428-.911,8.769.673,11.24,5.836,2.33,4.866,4.976,6.674,10.929,5.675,5.644-.949,9.346,1.147,11.708,6.079,2.424,5.064,5.487,6.8,11.24,5.836,5.647-.948,8.3.43,10.772,5.593l-2.246,1.085C1610.52,1441.242,1608.924,1440.414,1604.383,1441.176Zm3.123-6.015c-6.771,1.138-10.924-1.019-13.89-7.212-1.933-4.04-4.643-5.447-9.059-4.7-6.708,1.125-10.641-.917-13.578-7.05-1.955-4.084-4.123-5.21-8.591-4.46l-.4-2.461c5.429-.912,8.769.673,11.24,5.836,2.33,4.866,4.976,6.674,10.929,5.675,5.645-.949,9.346,1.147,11.708,6.079,2.424,5.064,5.487,6.8,11.24,5.836,5.647-.948,8.3.43,10.772,5.593l-2.246,1.085C1613.643,1435.228,1612.047,1434.4,1607.506,1435.162Zm-40.527-8.021c2.329,4.867,4.976,6.674,10.929,5.675,5.645-.949,9.346,1.147,11.708,6.079,2.424,5.066,5.486,6.8,11.24,5.836,5.647-.948,8.3.43,10.772,5.593l-2.246,1.085c-1.987-4.15-3.583-4.979-8.123-4.217-6.771,1.138-10.925-1.017-13.89-7.212-1.934-4.038-4.644-5.445-9.059-4.7-6.708,1.127-10.642-.915-13.579-7.05-1.955-4.084-4.123-5.21-8.591-4.461l-.4-2.46C1561.167,1420.394,1564.509,1421.978,1566.979,1427.141Z" transform="translate(-1215.171 -1143.446)" fill="#fff" opacity="0.11"/>
        </g>
        <g id="Group_12758" data-name="Group 12758" transform="translate(-383.055 2573.186)">
          <g id="Group_12757" data-name="Group 12757" transform="translate(554.009 511.25)">
            <g id="Group_12756" data-name="Group 12756" transform="translate(0)">
              <g id="Group_12527" data-name="Group 12527" transform="translate(38.458 18.942)" opacity="0.2">
                <path id="Path_42539" data-name="Path 42539" d="M1199.271,865.729l1.735,1.1a79.56,79.56,0,0,0,4.16-7.063l-5.96-3.789-.294-43.809a4.844,4.844,0,0,0-4.832-4.8h-.032l-9.637.063-11.684-39.9a3.2,3.2,0,0,0-3.973-2.173l-39.57,11.587-13.834-13.594a3.2,3.2,0,0,0-4.529.04l-29.079,29.592a3.2,3.2,0,0,0,.04,4.529l10.721,10.535-4.724.031-.1,0-5.206.034a5.852,5.852,0,0,0-4.389,2.046,6.833,6.833,0,0,0-1.675,4.579l.3,45.034-12.483.005c-.083,0-.164.007-.246.013a79.91,79.91,0,0,0,20.2,24.839c15.07-.251,32.207-.392,50.383-.392s35.313.142,50.383.392a80.037,80.037,0,0,0,14.346-15.315Z" transform="translate(-1063.978 -762.432)" fill="#6d4c41"/>
              </g>
              <g id="Group_12528" data-name="Group 12528" transform="translate(0 140.748)" opacity="0.3">
                <path id="Path_42540" data-name="Path 42540" d="M772.1,2381.1c0-1.919-48.821-3.475-109.045-3.475s-109.045,1.556-109.045,3.475c0,1.109,16.314,2.1,41.715,2.733,5.481,1.244,26.732,2.171,52.112,2.171,21.254,0,39.611-.65,48.237-1.592C740.155,2383.971,772.1,2382.656,772.1,2381.1Z" transform="translate(-554.009 -2377.629)" fill="#4cb6cb"/>
              </g>
              <g id="Group_12529" data-name="Group 12529" transform="translate(9.023 140.835)">
                <line id="Line_283" data-name="Line 283" x2="197.903" transform="translate(1.071 1.071)" fill="#f5f5f5"/>
                <path id="Path_42541" data-name="Path 42541" d="M872.638,2380.919h-197.9a1.071,1.071,0,0,1,0-2.141h197.9a1.071,1.071,0,0,1,0,2.141Z" transform="translate(-673.664 -2378.778)" fill="#63c7db"/>
              </g>
              <g id="Group_12747" data-name="Group 12747" transform="translate(30.878 18.025)">
                <g id="Group_12552" data-name="Group 12552" transform="translate(66.259 2.796)">
                  <g id="Group_12533" data-name="Group 12533">
                    <g id="Group_12530" data-name="Group 12530" transform="translate(0.918 0.918)">
                      <path id="Path_42542" data-name="Path 42542" d="M1880.2,896.571a2.3,2.3,0,0,1-2.192-1.643L1854.342,814.1a2.287,2.287,0,0,1,1.551-2.835l39.817-11.659a2.283,2.283,0,0,1,2.835,1.551l23.668,80.828a2.284,2.284,0,0,1-1.551,2.835l-39.817,11.659a2.286,2.286,0,0,1-.643.092Z" transform="translate(-1854.25 -799.514)" fill="#2ecc71"/>
                    </g>
                    <g id="Group_12532" data-name="Group 12532">
                      <g id="Group_12531" data-name="Group 12531">
                        <path id="Path_42543" data-name="Path 42543" d="M1885.1,789.18a1.368,1.368,0,0,1,1.311.983l23.668,80.828a1.367,1.367,0,0,1-.928,1.7l-39.817,11.659a1.366,1.366,0,0,1-1.7-.928l-23.668-80.828a1.367,1.367,0,0,1,.928-1.7l39.817-11.659a1.368,1.368,0,0,1,.385-.055m0-1.835a3.2,3.2,0,0,0-.9.129l-39.817,11.659a3.206,3.206,0,0,0-2.173,3.973l23.668,80.828a3.175,3.175,0,0,0,1.171,1.676,3.2,3.2,0,0,0,2.8.5l39.817-11.659a3.206,3.206,0,0,0,2.173-3.973l-23.668-80.828a3.175,3.175,0,0,0-1.171-1.676,3.225,3.225,0,0,0-1.9-.627Z" transform="translate(-1842.08 -787.345)" fill="#6d4c41"/>
                      </g>
                    </g>
                  </g>
                  <g id="Group_12534" data-name="Group 12534" transform="translate(1.837 1.835)" opacity="0.5">
                    <path id="Path_42544" data-name="Path 42544" d="M1932.606,893.493l-23.668-80.828a1.367,1.367,0,0,0-1.7-.928L1867.425,823.4a1.366,1.366,0,0,0-.978,1.4,1.353,1.353,0,0,1,.366-.177l39.817-11.659a1.367,1.367,0,0,1,1.7.928l23.668,80.828a1.352,1.352,0,0,1,.05.3A1.363,1.363,0,0,0,1932.606,893.493Z" transform="translate(-1866.444 -811.682)" fill="#fff"/>
                  </g>
                  <g id="Group_12538" data-name="Group 12538" transform="translate(5.765 5.707)">
                    <g id="Group_12535" data-name="Group 12535" transform="translate(0.765 0.765)">
                      <path id="Path_42545" data-name="Path 42545" d="M1951.28,959.121a.765.765,0,0,1-.734-.55l-21.851-74.623a.765.765,0,0,1,.519-.949l33.45-9.795a.765.765,0,0,1,.949.519l21.851,74.623a.765.765,0,0,1-.519.949l-33.45,9.795A.765.765,0,0,1,1951.28,959.121Z" transform="translate(-1928.664 -873.174)" fill="#fafafa"/>
                    </g>
                    <g id="Group_12537" data-name="Group 12537">
                      <g id="Group_12536" data-name="Group 12536">
                        <path id="Path_42546" data-name="Path 42546" d="M1953.506,864.558l21.851,74.623-33.45,9.795-21.851-74.623,33.45-9.795m0-1.53a1.531,1.531,0,0,0-.43.062l-33.45,9.795a1.529,1.529,0,0,0-1.038,1.9l21.851,74.623a1.528,1.528,0,0,0,1.9,1.038l33.45-9.795a1.53,1.53,0,0,0,1.038-1.9l-21.851-74.623a1.53,1.53,0,0,0-1.467-1.1Z" transform="translate(-1918.526 -863.028)" fill="#6d4c41"/>
                      </g>
                    </g>
                  </g>
                  <g id="Group_12547" data-name="Group 12547" transform="translate(7.294 7.237)">
                    <g id="Group_12539" data-name="Group 12539" transform="translate(46.256 65.539)">
                      <path id="Path_42547" data-name="Path 42547" d="M2552.557,1764.013l8.663-2.537-2.66-9.084A9.488,9.488,0,0,0,2552.557,1764.013Z" transform="translate(-2552.174 -1752.392)" fill="#2ecc71"/>
                    </g>
                    <g id="Group_12540" data-name="Group 12540" transform="translate(44.726 64.07)">
                      <path id="Path_42548" data-name="Path 42548" d="M2533.8,1746.006a9.488,9.488,0,0,1,6-11.621l-.43-1.469a11.018,11.018,0,0,0-7.041,13.519Z" transform="translate(-2531.892 -1732.917)" fill="#6d4c41"/>
                    </g>
                    <g id="Group_12541" data-name="Group 12541" transform="translate(19.191 75.064)">
                      <path id="Path_42549" data-name="Path 42549" d="M2200.069,1879.858a9.4,9.4,0,0,0-6.776-.9l2.66,9.083,8.663-2.537A9.415,9.415,0,0,0,2200.069,1879.858Z" transform="translate(-2193.293 -1878.691)" fill="#2ecc71"/>
                    </g>
                    <g id="Group_12542" data-name="Group 12542" transform="translate(18.761 73.534)">
                      <path id="Path_42550" data-name="Path 42550" d="M2195.526,1859.763a10.925,10.925,0,0,0-7.94-1.023l.43,1.47a9.475,9.475,0,0,1,11.323,6.546l1.468-.43A10.935,10.935,0,0,0,2195.526,1859.763Z" transform="translate(-2187.586 -1858.408)" fill="#6d4c41"/>
                    </g>
                    <g id="Group_12543" data-name="Group 12543" transform="translate(24.787)">
                      <path id="Path_42551" data-name="Path 42551" d="M2272.043,891.5a9.409,9.409,0,0,0,6.776.9l-2.66-9.084-8.663,2.537h0A9.414,9.414,0,0,0,2272.043,891.5Z" transform="translate(-2267.496 -883.314)" fill="#2ecc71"/>
                    </g>
                    <g id="Group_12544" data-name="Group 12544" transform="translate(23.319 2.537)">
                      <path id="Path_42552" data-name="Path 42552" d="M2248.033,917.382a10.978,10.978,0,0,0,13.221,7.586l-.43-1.469a9.476,9.476,0,0,1-11.323-6.547h0l-1.468.43Z" transform="translate(-2248.033 -916.952)" fill="#6d4c41"/>
                    </g>
                    <g id="Group_12545" data-name="Group 12545" transform="translate(0 7.258)">
                      <path id="Path_42553" data-name="Path 42553" d="M1947.469,979.561h0l-8.663,2.537,2.66,9.084A9.488,9.488,0,0,0,1947.469,979.561Z" transform="translate(-1938.806 -979.561)" fill="#2ecc71"/>
                    </g>
                    <g id="Group_12546" data-name="Group 12546" transform="translate(2.66 6.828)">
                      <path id="Path_42554" data-name="Path 42554" d="M1981.549,973.862h0l-1.468.43h0a9.488,9.488,0,0,1-6,11.621l.43,1.469A11.018,11.018,0,0,0,1981.549,973.862Z" transform="translate(-1974.078 -973.862)" fill="#6d4c41"/>
                    </g>
                  </g>
                  <g id="Group_12551" data-name="Group 12551" transform="translate(22.823 36.751)">
                    <g id="Group_12548" data-name="Group 12548" transform="translate(0.767 0.765)">
                      <path id="Path_42555" data-name="Path 42555" d="M2166,1307.056a11.2,11.2,0,0,1-6.6-2.179,11.117,11.117,0,0,1,3.484-19.61,11.093,11.093,0,0,1,9.732,1.728,11.122,11.122,0,0,1-6.612,20.06Z" transform="translate(-2154.886 -1284.817)" fill="#2ecc71"/>
                    </g>
                    <g id="Group_12550" data-name="Group 12550">
                      <g id="Group_12549" data-name="Group 12549">
                        <path id="Path_42556" data-name="Path 42556" d="M2156.607,1276.206a10.361,10.361,0,1,1-2.914.42,10.357,10.357,0,0,1,2.914-.42m0-1.529a11.893,11.893,0,1,0,3.738.606,11.891,11.891,0,0,0-3.738-.606Z" transform="translate(-2144.718 -1274.677)" fill="#6d4c41"/>
                      </g>
                    </g>
                  </g>
                </g>
                <g id="Group_12575" data-name="Group 12575" transform="translate(20.448)">
                  <g id="Group_12556" data-name="Group 12556">
                    <g id="Group_12553" data-name="Group 12553" transform="translate(0.918 0.918)">
                      <path id="Path_42557" data-name="Path 42557" d="M1309.136,855.624a2.271,2.271,0,0,1-1.6-.655l-60.073-59.031a2.284,2.284,0,0,1-.028-3.231l29.079-29.592a2.285,2.285,0,0,1,3.231-.028l60.073,59.031a2.285,2.285,0,0,1,.028,3.231l-29.079,29.592a2.268,2.268,0,0,1-1.63.683Z" transform="translate(-1246.779 -762.432)" fill="#2ecc71"/>
                    </g>
                    <g id="Group_12555" data-name="Group 12555">
                      <g id="Group_12554" data-name="Group 12554">
                        <path id="Path_42558" data-name="Path 42558" d="M1266.893,752.1a1.362,1.362,0,0,1,.958.392l60.073,59.031a1.367,1.367,0,0,1,.017,1.933l-29.079,29.592a1.367,1.367,0,0,1-1.933.017l-60.073-59.031a1.367,1.367,0,0,1-.017-1.933l29.079-29.592a1.363,1.363,0,0,1,.975-.409m0-1.835a3.179,3.179,0,0,0-2.284.958l-29.079,29.592a3.2,3.2,0,0,0,.04,4.529l60.073,59.031a3.2,3.2,0,0,0,4.529-.04l29.079-29.592a3.206,3.206,0,0,0-.04-4.529l-60.073-59.031a3.184,3.184,0,0,0-2.244-.918Z" transform="translate(-1234.611 -750.264)" fill="#6d4c41"/>
                      </g>
                    </g>
                  </g>
                  <g id="Group_12557" data-name="Group 12557" transform="translate(1.838 1.835)" opacity="0.5">
                    <path id="Path_42559" data-name="Path 42559" d="M1259.681,805.825l29.079-29.593a1.367,1.367,0,0,1,1.933-.017l60.073,59.031c.023.022.039.048.06.072a1.362,1.362,0,0,0-.366-1.3l-60.073-59.031a1.367,1.367,0,0,0-1.933.017L1259.375,804.6a1.363,1.363,0,0,0-.043,1.861A1.353,1.353,0,0,1,1259.681,805.825Z" transform="translate(-1258.986 -774.6)" fill="#fff"/>
                  </g>
                  <g id="Group_12561" data-name="Group 12561" transform="translate(6.303 6.304)">
                    <g id="Group_12558" data-name="Group 12558" transform="translate(0.765 0.765)">
                      <path id="Path_42560" data-name="Path 42560" d="M1384.563,924.894a.765.765,0,0,1-.536-.219l-55.461-54.5a.765.765,0,0,1-.009-1.081l24.43-24.861a.765.765,0,0,1,.539-.229h.007a.765.765,0,0,1,.536.219l55.461,54.5a.765.765,0,0,1,.01,1.081l-24.43,24.861a.765.765,0,0,1-.539.229Z" transform="translate(-1328.338 -844.005)" fill="#fafafa"/>
                    </g>
                    <g id="Group_12560" data-name="Group 12560">
                      <g id="Group_12559" data-name="Group 12559">
                        <path id="Path_42561" data-name="Path 42561" d="M1344.157,835.393l55.461,54.5-24.43,24.861-55.461-54.5,24.429-24.861m0-1.529h-.014a1.529,1.529,0,0,0-1.077.457l-24.43,24.861a1.529,1.529,0,0,0,.019,2.163l55.461,54.5a1.529,1.529,0,0,0,1.072.439h.013a1.53,1.53,0,0,0,1.078-.457l24.429-24.861a1.529,1.529,0,0,0-.019-2.163l-55.461-54.5a1.529,1.529,0,0,0-1.072-.439Z" transform="translate(-1318.198 -833.864)" fill="#6d4c41"/>
                      </g>
                    </g>
                  </g>
                  <g id="Group_12570" data-name="Group 12570" transform="translate(7.833 7.834)">
                    <g id="Group_12569" data-name="Group 12569" transform="translate(0)" clip-path="url(#clip-path)">
                      <g id="Group_12568" data-name="Group 12568" transform="translate(-11.316 -11.326)">
                        <g id="Group_12564" data-name="Group 12564" transform="translate(55.456 54.499)">
                          <g id="Group_12562" data-name="Group 12562" transform="translate(25.065)">
                            <circle id="Ellipse_2254" data-name="Ellipse 2254" cx="10.241" cy="10.241" r="10.241" transform="translate(0.76 0.765)" fill="#2ecc71"/>
                            <path id="Path_42562" data-name="Path 42562" d="M2267.168,1448.642a11,11,0,1,1,7.851-3.287A10.969,10.969,0,0,1,2267.168,1448.642Zm0-20.477h-.085a9.414,9.414,0,0,0-6.676,2.834h0a9.476,9.476,0,1,0,6.761-2.834Z" transform="translate(-2256.169 -1426.636)" fill="#6d4c41"/>
                          </g>
                          <g id="Group_12563" data-name="Group 12563" transform="translate(0 25.507)">
                            <circle id="Ellipse_2255" data-name="Ellipse 2255" cx="10.241" cy="10.241" r="10.241" transform="translate(0.765 0.76)" fill="#2ecc71"/>
                            <path id="Path_42563" data-name="Path 42563" d="M1934.8,1786.872a11,11,0,1,1,7.851-3.287A10.969,10.969,0,0,1,1934.8,1786.872Zm0-20.472a9.472,9.472,0,1,0,6.641,2.713A9.447,9.447,0,0,0,1934.8,1766.4Z" transform="translate(-1923.798 -1764.871)" fill="#6d4c41"/>
                          </g>
                        </g>
                        <g id="Group_12567" data-name="Group 12567">
                          <g id="Group_12565" data-name="Group 12565" transform="translate(25.055)">
                            <circle id="Ellipse_2256" data-name="Ellipse 2256" cx="10.241" cy="10.241" r="10.241" transform="translate(0.765 0.765)" fill="#2ecc71"/>
                            <path id="Path_42564" data-name="Path 42564" d="M1531.667,725.958a11,11,0,0,1-7.849-18.714h0a11.006,11.006,0,1,1,7.849,18.714Zm0-20.477h-.085a9.414,9.414,0,0,0-6.676,2.834h0a9.476,9.476,0,1,0,6.761-2.834Z" transform="translate(-1520.662 -703.952)" fill="#6d4c41"/>
                          </g>
                          <g id="Group_12566" data-name="Group 12566" transform="translate(0 25.502)">
                            <circle id="Ellipse_2257" data-name="Ellipse 2257" cx="10.241" cy="10.241" r="10.241" transform="translate(0.76 0.765)" fill="#2ecc71"/>
                            <path id="Path_42565" data-name="Path 42565" d="M1199.426,1064.131a11.005,11.005,0,0,1-7.847-18.719h0a11.006,11.006,0,1,1,7.946,18.719Zm-6.756-17.647a9.476,9.476,0,1,0,6.676-2.834,9.487,9.487,0,0,0-6.676,2.834Z" transform="translate(-1188.428 -1042.12)" fill="#6d4c41"/>
                          </g>
                        </g>
                      </g>
                    </g>
                  </g>
                  <g id="Group_12574" data-name="Group 12574" transform="translate(35.294 35.04)">
                    <g id="Group_12571" data-name="Group 12571" transform="translate(0.765 0.765)">
                      <path id="Path_42566" data-name="Path 42566" d="M1723.877,1247.281a11.117,11.117,0,1,1,7.93-3.325,11.054,11.054,0,0,1-7.93,3.325Z" transform="translate(-1712.761 -1225.047)" fill="#2ecc71"/>
                    </g>
                    <g id="Group_12573" data-name="Group 12573">
                      <g id="Group_12572" data-name="Group 12572">
                        <path id="Path_42567" data-name="Path 42567" d="M1714.5,1216.437a10.352,10.352,0,1,1-7.385,3.1,10.319,10.319,0,0,1,7.385-3.1m0-1.53a11.894,11.894,0,1,0,8.327,3.407,11.836,11.836,0,0,0-8.327-3.407Z" transform="translate(-1702.621 -1214.907)" fill="#6d4c41"/>
                      </g>
                    </g>
                  </g>
                </g>
                <g id="Group_12578" data-name="Group 12578" transform="translate(16.03 44.939)">
                  <g id="Group_12576" data-name="Group 12576" transform="translate(1.071 1.071)">
                    <path id="Path_42568" data-name="Path 42568" d="M1195.708,1438.253a5.308,5.308,0,0,1-5.042-5.48l-.444-66.114a5.763,5.763,0,0,1,1.408-3.864,4.8,4.8,0,0,1,3.592-1.683l5.234-.034.076,0,16.742-.109.033,0c.063,0,.141-.01.231-.011l89.289-.583a3.771,3.771,0,0,1,3.761,3.736l.468,69.617a3.761,3.761,0,0,1-3.737,3.787l-10.876.071v.011l-10.271.067-.075,0Z" transform="translate(-1190.222 -1360.369)" fill="#63c7db"/>
                  </g>
                  <g id="Group_12577" data-name="Group 12577">
                    <path id="Path_42569" data-name="Path 42569" d="M1293.7,1348.314a2.691,2.691,0,0,1,2.691,2.673l.468,69.617a2.691,2.691,0,0,1-2.674,2.709l-11.946.078v.011l-9.234.06-.042,0-90.358.591h-.024a4.229,4.229,0,0,1-3.972-4.416l-.444-66.114a4.225,4.225,0,0,1,3.937-4.469l5.267-.034.042,0,16.773-.11c.078,0,.154-.013.233-.013l89.264-.583h.018m0-2.141h-.032l-89.264.583c-.124,0-.229.008-.3.014l-16.707.109-.1,0-5.2.034a5.852,5.852,0,0,0-4.389,2.045,6.833,6.833,0,0,0-1.675,4.579l.444,66.114a6.837,6.837,0,0,0,1.724,4.543,5.858,5.858,0,0,0,4.389,2h.04l90.356-.591.1,0,9.171-.06,2.139-.014v-.011l9.807-.064a4.833,4.833,0,0,0,4.8-4.865l-.468-69.617a4.833,4.833,0,0,0-4.832-4.8Z" transform="translate(-1176.026 -1346.173)" fill="#63c7db"/>
                  </g>
                </g>
                <g id="Group_12579" data-name="Group 12579" transform="translate(2.753 97.338)" opacity="0.2">
                  <path id="Path_42570" data-name="Path 42570" d="M1027.8,2051.7v-.489a3.828,3.828,0,0,0-1.129-2.723c-.074-.074-.153-.143-.232-.21a3.842,3.842,0,0,0,1.361-2.934v-.489a3.851,3.851,0,0,0-3.851-3.85h0l-20.132.009a3.856,3.856,0,0,0-3.85,3.853v.489a3.827,3.827,0,0,0,1.129,2.723c.074.074.153.143.232.211a3.841,3.841,0,0,0-1.361,2.934v.489a3.826,3.826,0,0,0,1.129,2.723c.071.072.147.137.223.2a3.841,3.841,0,0,0-1.352,2.925v.489a3.827,3.827,0,0,0,1.129,2.723c.074.075.153.143.232.21a3.842,3.842,0,0,0-1.361,2.934v.489a3.852,3.852,0,0,0,3.852,3.851h0l20.132-.009a3.856,3.856,0,0,0,3.85-3.853v-.489a3.827,3.827,0,0,0-1.129-2.723c-.074-.074-.153-.143-.232-.21a3.843,3.843,0,0,0,1.361-2.934v-.489a3.828,3.828,0,0,0-1.129-2.723c-.071-.071-.147-.137-.223-.2A3.843,3.843,0,0,0,1027.8,2051.7Z" transform="translate(-999.966 -2041.007)" fill="#6d4c41"/>
                </g>
                <g id="Group_12580" data-name="Group 12580" transform="translate(68.991 65.764)" opacity="0.1">
                  <rect id="Rectangle_3052" data-name="Rectangle 3052" width="14.988" height="33.647" rx="7.494" transform="translate(33.647 0) rotate(90)" fill="#fff"/>
                </g>
                <g id="Group_12581" data-name="Group 12581" transform="translate(17.91 47.08)" opacity="0.35">
                  <path id="Path_42571" data-name="Path 42571" d="M1319.438,1377.239a2.691,2.691,0,0,0-2.709-2.673l-13.681.089a2.69,2.69,0,0,1,2.013,2.584l.292,46.055a18.494,18.494,0,0,1-13.5,17.944c-14.574,4.06-41.811,8.135-90.136,6.3l-.765,3.976h106.9l.249-1.895,9.127-.06a2.691,2.691,0,0,0,2.673-2.709Z" transform="translate(-1200.953 -1374.565)" fill="#2497ae"/>
                </g>
                <g id="Group_12582" data-name="Group 12582" transform="translate(129.482 92.99)" opacity="0.2">
                  <path id="Path_42572" data-name="Path 42572" d="M2681.314,1985.137l-.262.412a3.851,3.851,0,0,0,1.183,5.317l5.491,3.491-.066-9.749-1.03-.655A3.856,3.856,0,0,0,2681.314,1985.137Z" transform="translate(-2680.449 -1983.354)" fill="#6d4c41"/>
                </g>
                <g id="Group_12583" data-name="Group 12583" transform="translate(128.836 110.033)" opacity="0.2">
                  <path id="Path_42573" data-name="Path 42573" d="M2679.913,2218.693l-.062-9.336-4.114,0a3.857,3.857,0,0,0-3.85,3.853v.489a3.828,3.828,0,0,0,1.129,2.723c.075.075.154.144.233.211a3.843,3.843,0,0,0-1.36,2.933v.489a3.852,3.852,0,0,0,.258,1.379l5.094-.033A2.691,2.691,0,0,0,2679.913,2218.693Z" transform="translate(-2671.886 -2209.357)" fill="#6d4c41"/>
                </g>
                <g id="Group_12584" data-name="Group 12584" transform="translate(18.171 47.08)" opacity="0.5">
                  <path id="Path_42574" data-name="Path 42574" d="M1207.615,1446.809l-.444-66.114a4.224,4.224,0,0,1,3.937-4.469l5.267-.035.042,0,16.773-.11c.078,0,.154-.013.232-.013l88.554-.578a2.683,2.683,0,0,0-2.043-.922l-89.264.583c-.079,0-.155.009-.233.013l-16.773.11-.042,0-5.267.034a4.224,4.224,0,0,0-3.937,4.469l.444,66.114a4.225,4.225,0,0,0,4,4.416l.318,0A4.636,4.636,0,0,1,1207.615,1446.809Z" transform="translate(-1204.419 -1374.565)" fill="#fff"/>
                </g>
                <g id="Group_12587" data-name="Group 12587" transform="translate(20.927 73.455)">
                  <g id="Group_12585" data-name="Group 12585" transform="translate(0.77 0.765)">
                    <path id="Path_42575" data-name="Path 42575" d="M1251.166,1734.58l18.445-.129a8.53,8.53,0,0,1,8.529,8.47l.009,1.294a8.53,8.53,0,0,1-8.47,8.589l-18.385.128Z" transform="translate(-1251.166 -1734.451)" fill="#dc7633"/>
                  </g>
                  <g id="Group_12586" data-name="Group 12586">
                    <path id="Path_42576" data-name="Path 42576" d="M1260.17,1725.84a7.765,7.765,0,0,1,7.764,7.711l.009,1.294a7.765,7.765,0,0,1-7.711,7.819l-17.62.123-.118-16.824,17.62-.123h.055m0-1.529v0h-.067l-17.62.123-1.529.011.011,1.529.118,16.824.011,1.529,1.529-.011,17.62-.123a9.295,9.295,0,0,0,9.229-9.359l-.009-1.294a9.295,9.295,0,0,0-9.293-9.23Z" transform="translate(-1240.955 -1724.311)" fill="#6d4c41"/>
                  </g>
                </g>
                <g id="Group_12589" data-name="Group 12589" transform="translate(22.467 74.984)" opacity="0.3">
                  <g id="Group_12588" data-name="Group 12588">
                    <path id="Path_42577" data-name="Path 42577" d="M1261.377,1744.715l17.62-.123a7.765,7.765,0,0,1,7.819,7.711l.009,1.293a7.765,7.765,0,0,1-7.711,7.82l-17.62.123Z" transform="translate(-1261.377 -1744.592)" fill="#6d4c41"/>
                  </g>
                </g>
                <g id="Group_12592" data-name="Group 12592" transform="translate(16.793 73.475)">
                  <g id="Group_12590" data-name="Group 12590" transform="translate(0.77 0.765)">
                    <path id="Path_42578" data-name="Path 42578" d="M1196.35,1734.851l18.445-.129a8.53,8.53,0,0,1,8.529,8.47l.009,1.294a8.54,8.54,0,0,1-8.47,8.589l-18.385.128Z" transform="translate(-1196.35 -1734.722)" fill="#dc7633"/>
                  </g>
                  <g id="Group_12591" data-name="Group 12591">
                    <path id="Path_42579" data-name="Path 42579" d="M1205.355,1726.11a7.765,7.765,0,0,1,7.764,7.711l.009,1.294a7.765,7.765,0,0,1-7.711,7.819l-17.62.123-.118-16.824,17.62-.123h.055m0-1.529v0h-.067l-17.62.123-1.529.011.011,1.529.118,16.824.011,1.529,1.529-.011,17.62-.123a9.295,9.295,0,0,0,9.229-9.359l-.009-1.294a9.294,9.294,0,0,0-9.293-9.23Z" transform="translate(-1186.14 -1724.581)" fill="#6d4c41"/>
                  </g>
                </g>
                <g id="Group_12593" data-name="Group 12593" transform="translate(31.995 79.828)" opacity="0.5">
                  <path id="Path_42580" data-name="Path 42580" d="M1391.336,1808.818h-.022a3.417,3.417,0,0,0-2.67,1.386,4.6,4.6,0,0,0-.916,2.834c.016,2.338,1.607,4.17,3.622,4.17h.022a3.416,3.416,0,0,0,2.67-1.386,4.6,4.6,0,0,0,.916-2.834C1394.942,1810.65,1393.351,1808.818,1391.336,1808.818Z" transform="translate(-1387.728 -1808.818)" fill="#fff"/>
                </g>
                <g id="Group_12594" data-name="Group 12594" transform="translate(18.333 75.005)" opacity="0.5">
                  <path id="Path_42581" data-name="Path 42581" d="M1232,1752.573a7.765,7.765,0,0,0-7.819-7.711l-17.62.123.006.918h0l.111,15.906,2.447-.017-.1-14.62a1.286,1.286,0,0,1,1.277-1.3l13.88-.1a7.765,7.765,0,0,1,7.819,7.711l0,.63c0-.084.005-.168,0-.253Z" transform="translate(-1206.561 -1744.861)" fill="#fff"/>
                </g>
                <g id="Group_12597" data-name="Group 12597" transform="translate(31.077 79.216)">
                  <g id="Group_12595" data-name="Group 12595" transform="translate(0.765 0.765)">
                    <path id="Path_42582" data-name="Path 42582" d="M1388.558,1817.708a3.193,3.193,0,0,1-2.857-3.41,3.828,3.828,0,0,1,.757-2.361,2.658,2.658,0,0,1,2.069-1.089h.017a3.491,3.491,0,0,1,.031,6.86Z" transform="translate(-1385.701 -1810.847)" fill="#fdd835"/>
                  </g>
                  <g id="Group_12596" data-name="Group 12596">
                    <path id="Path_42583" data-name="Path 42583" d="M1379.168,1802.236a2.748,2.748,0,0,1,.026,5.331h-.012a2.748,2.748,0,0,1-.026-5.331h.012m0-1.53h-.022a3.416,3.416,0,0,0-2.67,1.386,4.74,4.74,0,0,0,.033,5.647,3.422,3.422,0,0,0,2.672,1.357h.022a3.417,3.417,0,0,0,2.67-1.387,4.74,4.74,0,0,0-.033-5.646,3.422,3.422,0,0,0-2.673-1.357Z" transform="translate(-1375.56 -1800.706)" fill="#6d4c41"/>
                  </g>
                </g>
                <g id="Group_12599" data-name="Group 12599" transform="translate(32.842 81.275)" opacity="0.2">
                  <g id="Group_12598" data-name="Group 12598">
                    <path id="Path_42584" data-name="Path 42584" d="M1402.053,1828.01a3.265,3.265,0,0,1,.236,1.2,2.43,2.43,0,0,1-2.067,2.68,1.8,1.8,0,0,1-1.257-.53,2.1,2.1,0,0,0,1.869,1.447,2.43,2.43,0,0,0,2.067-2.68A2.958,2.958,0,0,0,1402.053,1828.01Z" transform="translate(-1398.965 -1828.01)" fill="#6d4c41"/>
                  </g>
                </g>
                <g id="Group_12600" data-name="Group 12600" transform="translate(32.607 80.746)" opacity="0.5">
                  <path id="Path_42585" data-name="Path 42585" d="M1396.453,1824.279a2.43,2.43,0,0,1,2.067-2.68,1.727,1.727,0,0,1,.969.3,1.929,1.929,0,0,0-1.581-.91,2.43,2.43,0,0,0-2.067,2.68,2.827,2.827,0,0,0,1.135,2.353A3.113,3.113,0,0,1,1396.453,1824.279Z" transform="translate(-1395.841 -1820.987)" fill="#fff"/>
                </g>
                <g id="Group_12654" data-name="Group 12654" transform="translate(18.171 47.08)">
                  <g id="Group_12653" data-name="Group 12653" clip-path="url(#clip-path-2)">
                    <g id="Group_12613" data-name="Group 12613" transform="translate(-0.762 7.106)" opacity="0.2">
                      <g id="Group_12601" data-name="Group 12601" transform="translate(0 0.784)">
                        <path id="Path_42586" data-name="Path 42586" d="M1194.894,1479.228l5.561-.039a.763.763,0,0,1,.01,1.481l-5.561.039a.763.763,0,0,1-.01-1.481Z" transform="translate(-1194.32 -1479.189)" fill="#3aa1b6"/>
                      </g>
                      <g id="Group_12602" data-name="Group 12602" transform="translate(10.195 0.713)">
                        <path id="Path_42587" data-name="Path 42587" d="M1330.087,1478.283l5.561-.039a.763.763,0,0,1,.01,1.481l-5.561.039a.763.763,0,0,1-.01-1.481Z" transform="translate(-1329.513 -1478.244)" fill="#3aa1b6"/>
                      </g>
                      <g id="Group_12603" data-name="Group 12603" transform="translate(20.39 0.642)">
                        <path id="Path_42588" data-name="Path 42588" d="M1465.28,1477.338l5.561-.039a.763.763,0,0,1,.01,1.481l-5.561.039a.763.763,0,0,1-.01-1.481Z" transform="translate(-1464.706 -1477.299)" fill="#3aa1b6"/>
                      </g>
                      <g id="Group_12604" data-name="Group 12604" transform="translate(30.586 0.571)">
                        <path id="Path_42589" data-name="Path 42589" d="M1600.473,1476.394l5.561-.039a.763.763,0,0,1,.01,1.481l-5.561.039a.763.763,0,0,1-.01-1.481Z" transform="translate(-1599.899 -1476.355)" fill="#3aa1b6"/>
                      </g>
                      <g id="Group_12605" data-name="Group 12605" transform="translate(40.781 0.499)">
                        <path id="Path_42590" data-name="Path 42590" d="M1735.666,1475.449l5.561-.039a.763.763,0,0,1,.01,1.481l-5.561.039a.763.763,0,0,1-.01-1.481Z" transform="translate(-1735.092 -1475.41)" fill="#3aa1b6"/>
                      </g>
                      <g id="Group_12606" data-name="Group 12606" transform="translate(50.976 0.428)">
                        <path id="Path_42591" data-name="Path 42591" d="M1870.859,1474.5l5.561-.039a.763.763,0,0,1,.01,1.481l-5.561.039a.763.763,0,0,1-.01-1.481Z" transform="translate(-1870.285 -1474.466)" fill="#3aa1b6"/>
                      </g>
                      <g id="Group_12607" data-name="Group 12607" transform="translate(61.171 0.357)">
                        <path id="Path_42592" data-name="Path 42592" d="M2006.052,1473.56l5.561-.039a.763.763,0,0,1,.01,1.481l-5.561.039a.763.763,0,0,1-.01-1.481Z" transform="translate(-2005.478 -1473.521)" fill="#3aa1b6"/>
                      </g>
                      <g id="Group_12608" data-name="Group 12608" transform="translate(71.366 0.286)">
                        <path id="Path_42593" data-name="Path 42593" d="M2141.245,1472.615l5.561-.039a.763.763,0,0,1,.01,1.481l-5.561.039a.763.763,0,0,1-.01-1.481Z" transform="translate(-2140.671 -1472.576)" fill="#3aa1b6"/>
                      </g>
                      <g id="Group_12609" data-name="Group 12609" transform="translate(81.562 0.214)">
                        <path id="Path_42594" data-name="Path 42594" d="M2276.438,1471.671l5.561-.039a.763.763,0,0,1,.01,1.481l-5.561.039a.763.763,0,0,1-.01-1.481Z" transform="translate(-2275.864 -1471.632)" fill="#3aa1b6"/>
                      </g>
                      <g id="Group_12610" data-name="Group 12610" transform="translate(92.333 0.139)">
                        <path id="Path_42595" data-name="Path 42595" d="M2419.265,1470.673l5.561-.039a.763.763,0,0,1,.01,1.481l-5.561.039a.763.763,0,0,1-.01-1.481Z" transform="translate(-2418.691 -1470.634)" fill="#3aa1b6"/>
                      </g>
                      <g id="Group_12611" data-name="Group 12611" transform="translate(102.252 0.07)">
                        <path id="Path_42596" data-name="Path 42596" d="M2550.807,1469.754l5.561-.039a.763.763,0,0,1,.01,1.481l-5.561.039a.763.763,0,0,1-.01-1.481Z" transform="translate(-2550.233 -1469.715)" fill="#3aa1b6"/>
                      </g>
                      <g id="Group_12612" data-name="Group 12612" transform="translate(112.239)">
                        <path id="Path_42597" data-name="Path 42597" d="M2683.232,1468.828l5.561-.039a.763.763,0,0,1,.01,1.481l-5.561.039a.763.763,0,0,1-.01-1.481Z" transform="translate(-2682.659 -1468.789)" fill="#3aa1b6"/>
                      </g>
                    </g>
                    <g id="Group_12626" data-name="Group 12626" transform="translate(2.391 68.144)" opacity="0.2">
                      <g id="Group_12614" data-name="Group 12614" transform="translate(0 0.784)">
                        <path id="Path_42598" data-name="Path 42598" d="M1236.693,2288.624l5.561-.039a.763.763,0,0,1,.01,1.481l-5.561.039a.763.763,0,0,1-.01-1.481Z" transform="translate(-1236.119 -2288.585)" fill="#5abfd3"/>
                      </g>
                      <g id="Group_12615" data-name="Group 12615" transform="translate(10.195 0.713)">
                        <path id="Path_42599" data-name="Path 42599" d="M1371.886,2287.678l5.561-.039a.763.763,0,0,1,.01,1.481l-5.561.039a.763.763,0,0,1-.01-1.481Z" transform="translate(-1371.312 -2287.64)" fill="#5abfd3"/>
                      </g>
                      <g id="Group_12616" data-name="Group 12616" transform="translate(20.39 0.642)">
                        <path id="Path_42600" data-name="Path 42600" d="M1507.079,2286.735l5.561-.039a.763.763,0,0,1,.01,1.481l-5.561.039a.763.763,0,0,1-.01-1.481Z" transform="translate(-1506.505 -2286.696)" fill="#5abfd3"/>
                      </g>
                      <g id="Group_12617" data-name="Group 12617" transform="translate(30.586 0.57)">
                        <path id="Path_42601" data-name="Path 42601" d="M1642.272,2285.79l5.561-.039a.763.763,0,0,1,.01,1.481l-5.561.039a.763.763,0,0,1-.01-1.481Z" transform="translate(-1641.698 -2285.751)" fill="#5abfd3"/>
                      </g>
                      <g id="Group_12618" data-name="Group 12618" transform="translate(40.781 0.499)">
                        <path id="Path_42602" data-name="Path 42602" d="M1777.465,2284.845l5.561-.039a.763.763,0,0,1,.01,1.481l-5.561.039a.763.763,0,0,1-.01-1.481Z" transform="translate(-1776.891 -2284.807)" fill="#5abfd3"/>
                      </g>
                      <g id="Group_12619" data-name="Group 12619" transform="translate(50.976 0.428)">
                        <path id="Path_42603" data-name="Path 42603" d="M1912.658,2283.9l5.561-.039a.763.763,0,0,1,.01,1.481l-5.561.039a.763.763,0,0,1-.01-1.481Z" transform="translate(-1912.084 -2283.862)" fill="#5abfd3"/>
                      </g>
                      <g id="Group_12620" data-name="Group 12620" transform="translate(61.171 0.357)">
                        <path id="Path_42604" data-name="Path 42604" d="M2047.851,2282.957l5.561-.039a.763.763,0,0,1,.01,1.481l-5.561.039a.763.763,0,0,1-.01-1.481Z" transform="translate(-2047.277 -2282.918)" fill="#5abfd3"/>
                      </g>
                      <g id="Group_12621" data-name="Group 12621" transform="translate(71.366 0.286)">
                        <path id="Path_42605" data-name="Path 42605" d="M2183.044,2282.011l5.561-.039a.763.763,0,0,1,.01,1.481l-5.561.039a.763.763,0,0,1-.01-1.481Z" transform="translate(-2182.47 -2281.973)" fill="#5abfd3"/>
                      </g>
                      <g id="Group_12622" data-name="Group 12622" transform="translate(81.562 0.214)">
                        <path id="Path_42606" data-name="Path 42606" d="M2318.237,2281.067l5.561-.039a.763.763,0,0,1,.01,1.481l-5.561.039a.763.763,0,0,1-.01-1.481Z" transform="translate(-2317.663 -2281.028)" fill="#5abfd3"/>
                      </g>
                      <g id="Group_12623" data-name="Group 12623" transform="translate(92.333 0.139)">
                        <path id="Path_42607" data-name="Path 42607" d="M2461.064,2280.069l5.561-.039a.763.763,0,0,1,.01,1.481l-5.561.039a.763.763,0,0,1-.01-1.481Z" transform="translate(-2460.49 -2280.03)" fill="#5abfd3"/>
                      </g>
                      <g id="Group_12624" data-name="Group 12624" transform="translate(102.252 0.07)">
                        <path id="Path_42608" data-name="Path 42608" d="M2592.606,2279.15l5.561-.039a.763.763,0,0,1,.011,1.481l-5.561.039a.763.763,0,0,1-.01-1.481Z" transform="translate(-2592.032 -2279.111)" fill="#5abfd3"/>
                      </g>
                      <g id="Group_12625" data-name="Group 12625" transform="translate(112.239)">
                        <path id="Path_42609" data-name="Path 42609" d="M2725.032,2278.225l5.561-.039a.763.763,0,0,1,.01,1.481l-5.561.039a.763.763,0,0,1-.01-1.481Z" transform="translate(-2724.458 -2278.186)" fill="#5abfd3"/>
                      </g>
                    </g>
                    <g id="Group_12639" data-name="Group 12639" transform="translate(-1.373 6.188)">
                      <g id="Group_12627" data-name="Group 12627" transform="translate(0 0.784)">
                        <path id="Path_42610" data-name="Path 42610" d="M1186.782,1467.059l5.561-.039a.763.763,0,0,1,.01,1.481l-5.561.039a.763.763,0,0,1-.01-1.481Z" transform="translate(-1186.208 -1467.02)" fill="#4cb6cb"/>
                      </g>
                      <g id="Group_12628" data-name="Group 12628" transform="translate(10.195 0.713)">
                        <path id="Path_42611" data-name="Path 42611" d="M1321.975,1466.115l5.561-.039a.763.763,0,0,1,.01,1.481l-5.561.039a.763.763,0,0,1-.01-1.481Z" transform="translate(-1321.401 -1466.076)" fill="#4cb6cb"/>
                      </g>
                      <g id="Group_12629" data-name="Group 12629" transform="translate(20.39 0.642)">
                        <path id="Path_42612" data-name="Path 42612" d="M1457.168,1465.17l5.561-.039a.763.763,0,0,1,.01,1.481l-5.561.039a.763.763,0,0,1-.01-1.481Z" transform="translate(-1456.594 -1465.131)" fill="#4cb6cb"/>
                      </g>
                      <g id="Group_12630" data-name="Group 12630" transform="translate(30.586 0.571)">
                        <path id="Path_42613" data-name="Path 42613" d="M1592.361,1464.226l5.561-.039a.763.763,0,0,1,.01,1.481l-5.561.039a.763.763,0,0,1-.01-1.481Z" transform="translate(-1591.787 -1464.187)" fill="#4cb6cb"/>
                      </g>
                      <g id="Group_12631" data-name="Group 12631" transform="translate(40.781 0.499)">
                        <path id="Path_42614" data-name="Path 42614" d="M1727.554,1463.281l5.561-.039a.763.763,0,0,1,.01,1.481l-5.561.039a.763.763,0,0,1-.01-1.481Z" transform="translate(-1726.98 -1463.242)" fill="#4cb6cb"/>
                      </g>
                      <g id="Group_12632" data-name="Group 12632" transform="translate(50.976 0.428)">
                        <path id="Path_42615" data-name="Path 42615" d="M1862.747,1462.336l5.561-.039a.763.763,0,0,1,.01,1.481l-5.561.039a.763.763,0,0,1-.01-1.481Z" transform="translate(-1862.173 -1462.297)" fill="#4cb6cb"/>
                      </g>
                      <g id="Group_12633" data-name="Group 12633" transform="translate(61.171 0.357)">
                        <path id="Path_42616" data-name="Path 42616" d="M1997.94,1461.392l5.561-.039a.763.763,0,0,1,.01,1.481l-5.561.039a.763.763,0,0,1-.01-1.481Z" transform="translate(-1997.366 -1461.353)" fill="#4cb6cb"/>
                      </g>
                      <g id="Group_12634" data-name="Group 12634" transform="translate(71.366 0.286)">
                        <path id="Path_42617" data-name="Path 42617" d="M2133.133,1460.447l5.561-.039a.763.763,0,0,1,.011,1.481l-5.561.039a.763.763,0,0,1-.011-1.481Z" transform="translate(-2132.559 -1460.408)" fill="#4cb6cb"/>
                      </g>
                      <g id="Group_12635" data-name="Group 12635" transform="translate(81.562 0.214)">
                        <path id="Path_42618" data-name="Path 42618" d="M2268.326,1459.5l5.561-.039a.763.763,0,0,1,.01,1.481l-5.561.039a.763.763,0,0,1-.01-1.481Z" transform="translate(-2267.752 -1459.464)" fill="#4cb6cb"/>
                      </g>
                      <g id="Group_12636" data-name="Group 12636" transform="translate(92.333 0.139)">
                        <path id="Path_42619" data-name="Path 42619" d="M2411.153,1458.5l5.561-.039a.763.763,0,0,1,.011,1.481l-5.562.039a.763.763,0,0,1-.01-1.481Z" transform="translate(-2410.579 -1458.466)" fill="#4cb6cb"/>
                      </g>
                      <g id="Group_12637" data-name="Group 12637" transform="translate(102.252 0.07)">
                        <path id="Path_42620" data-name="Path 42620" d="M2542.7,1457.586l5.561-.039a.763.763,0,0,1,.01,1.481l-5.561.039a.763.763,0,0,1-.01-1.481Z" transform="translate(-2542.121 -1457.547)" fill="#4cb6cb"/>
                      </g>
                      <g id="Group_12638" data-name="Group 12638" transform="translate(112.239)">
                        <path id="Path_42621" data-name="Path 42621" d="M2675.121,1456.66l5.561-.039a.763.763,0,0,1,.01,1.481l-5.561.039a.763.763,0,0,1-.01-1.481Z" transform="translate(-2674.547 -1456.621)" fill="#4cb6cb"/>
                      </g>
                    </g>
                    <g id="Group_12652" data-name="Group 12652" transform="translate(1.779 67.226)">
                      <g id="Group_12640" data-name="Group 12640" transform="translate(0 0.784)">
                        <path id="Path_42622" data-name="Path 42622" d="M1228.581,2276.456l5.561-.039a.763.763,0,0,1,.01,1.481l-5.561.039a.763.763,0,0,1-.01-1.481Z" transform="translate(-1228.007 -2276.417)" fill="#4cb6cb"/>
                      </g>
                      <g id="Group_12641" data-name="Group 12641" transform="translate(10.195 0.713)">
                        <path id="Path_42623" data-name="Path 42623" d="M1363.774,2275.51l5.561-.039a.763.763,0,0,1,.01,1.481l-5.561.039a.763.763,0,0,1-.01-1.481Z" transform="translate(-1363.2 -2275.472)" fill="#4cb6cb"/>
                      </g>
                      <g id="Group_12642" data-name="Group 12642" transform="translate(20.39 0.642)">
                        <path id="Path_42624" data-name="Path 42624" d="M1498.967,2274.567l5.561-.039a.763.763,0,0,1,.01,1.481l-5.561.039a.763.763,0,0,1-.01-1.481Z" transform="translate(-1498.393 -2274.528)" fill="#4cb6cb"/>
                      </g>
                      <g id="Group_12643" data-name="Group 12643" transform="translate(30.586 0.57)">
                        <path id="Path_42625" data-name="Path 42625" d="M1634.16,2273.622l5.561-.039a.763.763,0,0,1,.01,1.481l-5.561.039a.763.763,0,0,1-.01-1.481Z" transform="translate(-1633.586 -2273.583)" fill="#4cb6cb"/>
                      </g>
                      <g id="Group_12644" data-name="Group 12644" transform="translate(40.781 0.499)">
                        <path id="Path_42626" data-name="Path 42626" d="M1769.353,2272.677l5.561-.039a.763.763,0,0,1,.01,1.481l-5.561.039a.763.763,0,0,1-.01-1.481Z" transform="translate(-1768.779 -2272.638)" fill="#4cb6cb"/>
                      </g>
                      <g id="Group_12645" data-name="Group 12645" transform="translate(50.976 0.428)">
                        <path id="Path_42627" data-name="Path 42627" d="M1904.546,2271.733l5.561-.039a.763.763,0,0,1,.01,1.481l-5.561.039a.763.763,0,0,1-.01-1.481Z" transform="translate(-1903.972 -2271.694)" fill="#4cb6cb"/>
                      </g>
                      <g id="Group_12646" data-name="Group 12646" transform="translate(61.171 0.357)">
                        <path id="Path_42628" data-name="Path 42628" d="M2039.739,2270.788l5.561-.039a.763.763,0,0,1,.01,1.481l-5.561.039a.763.763,0,0,1-.01-1.481Z" transform="translate(-2039.165 -2270.749)" fill="#4cb6cb"/>
                      </g>
                      <g id="Group_12647" data-name="Group 12647" transform="translate(71.366 0.286)">
                        <path id="Path_42629" data-name="Path 42629" d="M2174.932,2269.844l5.561-.039a.763.763,0,0,1,.01,1.481l-5.561.039a.763.763,0,0,1-.01-1.481Z" transform="translate(-2174.358 -2269.805)" fill="#4cb6cb"/>
                      </g>
                      <g id="Group_12648" data-name="Group 12648" transform="translate(81.562 0.214)">
                        <path id="Path_42630" data-name="Path 42630" d="M2310.125,2268.9l5.561-.039a.763.763,0,0,1,.01,1.481l-5.561.039a.763.763,0,0,1-.01-1.481Z" transform="translate(-2309.551 -2268.86)" fill="#4cb6cb"/>
                      </g>
                      <g id="Group_12649" data-name="Group 12649" transform="translate(92.333 0.139)">
                        <path id="Path_42631" data-name="Path 42631" d="M2452.952,2267.9l5.561-.039a.763.763,0,0,1,.01,1.481l-5.561.039a.763.763,0,0,1-.01-1.481Z" transform="translate(-2452.378 -2267.862)" fill="#4cb6cb"/>
                      </g>
                      <g id="Group_12650" data-name="Group 12650" transform="translate(102.252 0.07)">
                        <path id="Path_42632" data-name="Path 42632" d="M2584.494,2266.982l5.561-.039a.763.763,0,0,1,.01,1.481l-5.561.039a.763.763,0,0,1-.01-1.481Z" transform="translate(-2583.92 -2266.943)" fill="#4cb6cb"/>
                      </g>
                      <g id="Group_12651" data-name="Group 12651" transform="translate(112.239)">
                        <path id="Path_42633" data-name="Path 42633" d="M2716.92,2266.057l5.561-.039a.763.763,0,0,1,.01,1.481l-5.561.039a.763.763,0,0,1-.01-1.481Z" transform="translate(-2716.346 -2266.018)" fill="#4cb6cb"/>
                      </g>
                    </g>
                  </g>
                </g>
                <g id="Group_12655" data-name="Group 12655" transform="translate(21.427 31.199)" opacity="0.2">
                  <path id="Path_42635" data-name="Path 42635" d="M1322.691,1176.218s-52,3.059-74.634-12.235l-.459,2.294,13.153,13.153h66.07C1326.208,1179.43,1322.691,1176.218,1322.691,1176.218Z" transform="translate(-1247.598 -1163.983)" fill="#6d4c41"/>
                </g>
                <g id="Group_12656" data-name="Group 12656" transform="translate(68.839 13.764)" opacity="0.2">
                  <path id="Path_42636" data-name="Path 42636" d="M1880.419,932.787s22.635,28.753,49.552,29.058l1.071,3.518H1908.1l-31.811-30.894Z" transform="translate(-1876.29 -932.787)" fill="#6d4c41"/>
                </g>
                <g id="Group_12705" data-name="Group 12705" transform="translate(0 97.338)">
                  <g id="Group_12668" data-name="Group 12668">
                    <g id="Group_12657" data-name="Group 12657">
                      <rect id="Rectangle_3053" data-name="Rectangle 3053" width="26" height="6.357" rx="3.178" transform="translate(26.919 7.273) rotate(179.975)" fill="#fdd835"/>
                      <path id="Path_42637" data-name="Path 42637" d="M967.312,2049.207a3.852,3.852,0,0,1-3.852-3.851v-.489a3.856,3.856,0,0,1,3.85-3.853l20.132-.009h0a3.851,3.851,0,0,1,3.852,3.85v.489a3.856,3.856,0,0,1-3.85,3.853l-20.132.009Zm20.132-6.366h0l-20.132.009a2.019,2.019,0,0,0-2.015,2.017v.489a2.016,2.016,0,0,0,2.016,2.016h0l20.132-.009a2.019,2.019,0,0,0,2.016-2.017v-.489a2.017,2.017,0,0,0-2.016-2.016Z" transform="translate(-963.46 -2041.006)" fill="#6d4c41"/>
                    </g>
                    <g id="Group_12658" data-name="Group 12658" transform="translate(1.835 1.835)" opacity="0.5">
                      <path id="Path_42638" data-name="Path 42638" d="M988.715,2068.775v-.489a2.019,2.019,0,0,1,2.016-2.017l20.132-.009h0a2.005,2.005,0,0,1,.89.208,2.01,2.01,0,0,0-1.808-1.126h0l-20.132.009a2.019,2.019,0,0,0-2.016,2.017v.489a2.01,2.01,0,0,0,1.126,1.807A2.006,2.006,0,0,1,988.715,2068.775Z" transform="translate(-987.797 -2065.343)" fill="#fff"/>
                    </g>
                    <g id="Group_12666" data-name="Group 12666" transform="translate(3.532 1.27)">
                      <g id="Group_12659" data-name="Group 12659">
                        <line id="Line_284" data-name="Line 284" y2="6.013" transform="translate(0.306 0)" fill="#f1ee86"/>
                        <rect id="Rectangle_3054" data-name="Rectangle 3054" width="0.612" height="6.013" fill="#6d4c41"/>
                      </g>
                      <g id="Group_12660" data-name="Group 12660" transform="translate(3.36)">
                        <line id="Line_285" data-name="Line 285" y2="6.013" transform="translate(0.306 0)" fill="#f1ee86"/>
                        <rect id="Rectangle_3055" data-name="Rectangle 3055" width="0.612" height="6.013" fill="#6d4c41"/>
                      </g>
                      <g id="Group_12661" data-name="Group 12661" transform="translate(6.72)">
                        <line id="Line_286" data-name="Line 286" y2="6.013" transform="translate(0.306 0)" fill="#f1ee86"/>
                        <rect id="Rectangle_3056" data-name="Rectangle 3056" width="0.612" height="6.013" fill="#6d4c41"/>
                      </g>
                      <g id="Group_12662" data-name="Group 12662" transform="translate(10.079)">
                        <line id="Line_287" data-name="Line 287" y2="6.013" transform="translate(0.306 0)" fill="#f1ee86"/>
                        <rect id="Rectangle_3057" data-name="Rectangle 3057" width="0.612" height="6.013" fill="#6d4c41"/>
                      </g>
                      <g id="Group_12663" data-name="Group 12663" transform="translate(13.439)">
                        <line id="Line_288" data-name="Line 288" y2="6.013" transform="translate(0.306 0)" fill="#f1ee86"/>
                        <rect id="Rectangle_3058" data-name="Rectangle 3058" width="0.612" height="6.013" fill="#6d4c41"/>
                      </g>
                      <g id="Group_12664" data-name="Group 12664" transform="translate(16.799)">
                        <line id="Line_289" data-name="Line 289" y2="6.013" transform="translate(0.306 0)" fill="#f1ee86"/>
                        <rect id="Rectangle_3059" data-name="Rectangle 3059" width="0.612" height="6.013" fill="#6d4c41"/>
                      </g>
                      <g id="Group_12665" data-name="Group 12665" transform="translate(20.159)">
                        <line id="Line_290" data-name="Line 290" y2="6.013" transform="translate(0.306 0)" fill="#f1ee86"/>
                        <rect id="Rectangle_3060" data-name="Rectangle 3060" width="0.612" height="6.013" fill="#6d4c41"/>
                      </g>
                    </g>
                    <g id="Group_12667" data-name="Group 12667" transform="translate(1.698 1.155)" opacity="0.2">
                      <path id="Path_42639" data-name="Path 42639" d="M1011.162,2058.567c-.015-.1-.034-.191-.058-.284-.005-.021-.01-.042-.016-.062a2.957,2.957,0,0,0-.284-.672h0l-3.411-1.228s-1.529,4.588-21.411,4.282l.932,1.577h0c.045.021.091.041.137.059h22.276c.046-.018.092-.036.136-.056.2-.268,1.145-1.526,1.7-2.221q.016-.106.027-.214c.007-.08.012-.161.012-.243v-.489a2.9,2.9,0,0,0-.024-.361C1011.172,2058.625,1011.167,2058.6,1011.162,2058.567Z" transform="translate(-985.981 -2056.32)" fill="#6d4c41"/>
                    </g>
                  </g>
                  <g id="Group_12680" data-name="Group 12680" transform="translate(0 6.357)">
                    <g id="Group_12669" data-name="Group 12669">
                      <rect id="Rectangle_3061" data-name="Rectangle 3061" width="26" height="6.357" rx="3.178" transform="translate(26.919 7.273) rotate(179.975)" fill="#fdd835"/>
                      <path id="Path_42640" data-name="Path 42640" d="M967.312,2133.5a3.852,3.852,0,0,1-3.852-3.851v-.489a3.856,3.856,0,0,1,3.85-3.853l20.132-.009h0a3.851,3.851,0,0,1,3.852,3.85v.489a3.856,3.856,0,0,1-3.85,3.853l-20.132.009Zm20.132-6.365h0l-20.132.009a2.019,2.019,0,0,0-2.015,2.017v.489a2.017,2.017,0,0,0,2.016,2.016h0l20.132-.009a2.019,2.019,0,0,0,2.016-2.017v-.489a2.017,2.017,0,0,0-2.016-2.016Z" transform="translate(-963.46 -2125.301)" fill="#6d4c41"/>
                    </g>
                    <g id="Group_12670" data-name="Group 12670" transform="translate(1.835 1.835)" opacity="0.5">
                      <path id="Path_42641" data-name="Path 42641" d="M988.715,2153.069v-.489a2.019,2.019,0,0,1,2.016-2.017l20.132-.009h0a2.009,2.009,0,0,1,.89.208,2.011,2.011,0,0,0-1.808-1.126h0l-20.132.009a2.019,2.019,0,0,0-2.016,2.017v.489a2.011,2.011,0,0,0,1.126,1.808A2.005,2.005,0,0,1,988.715,2153.069Z" transform="translate(-987.797 -2149.637)" fill="#fff"/>
                    </g>
                    <g id="Group_12678" data-name="Group 12678" transform="translate(3.532 1.27)">
                      <g id="Group_12671" data-name="Group 12671">
                        <line id="Line_291" data-name="Line 291" y2="6.013" transform="translate(0.306)" fill="#f1ee86"/>
                        <rect id="Rectangle_3062" data-name="Rectangle 3062" width="0.612" height="6.013" transform="translate(0 0)" fill="#6d4c41"/>
                      </g>
                      <g id="Group_12672" data-name="Group 12672" transform="translate(3.36)">
                        <line id="Line_292" data-name="Line 292" y2="6.013" transform="translate(0.306)" fill="#f1ee86"/>
                        <rect id="Rectangle_3063" data-name="Rectangle 3063" width="0.612" height="6.013" transform="translate(0 0)" fill="#6d4c41"/>
                      </g>
                      <g id="Group_12673" data-name="Group 12673" transform="translate(6.72)">
                        <line id="Line_293" data-name="Line 293" y2="6.013" transform="translate(0.306)" fill="#f1ee86"/>
                        <rect id="Rectangle_3064" data-name="Rectangle 3064" width="0.612" height="6.013" transform="translate(0 0)" fill="#6d4c41"/>
                      </g>
                      <g id="Group_12674" data-name="Group 12674" transform="translate(10.079)">
                        <line id="Line_294" data-name="Line 294" y2="6.013" transform="translate(0.306)" fill="#f1ee86"/>
                        <rect id="Rectangle_3065" data-name="Rectangle 3065" width="0.612" height="6.013" transform="translate(0 0)" fill="#6d4c41"/>
                      </g>
                      <g id="Group_12675" data-name="Group 12675" transform="translate(13.439)">
                        <line id="Line_295" data-name="Line 295" y2="6.013" transform="translate(0.306)" fill="#f1ee86"/>
                        <rect id="Rectangle_3066" data-name="Rectangle 3066" width="0.612" height="6.013" transform="translate(0 0)" fill="#6d4c41"/>
                      </g>
                      <g id="Group_12676" data-name="Group 12676" transform="translate(16.799)">
                        <line id="Line_296" data-name="Line 296" y2="6.013" transform="translate(0.306)" fill="#f1ee86"/>
                        <rect id="Rectangle_3067" data-name="Rectangle 3067" width="0.612" height="6.013" transform="translate(0 0)" fill="#6d4c41"/>
                      </g>
                      <g id="Group_12677" data-name="Group 12677" transform="translate(20.159)">
                        <line id="Line_297" data-name="Line 297" y2="6.013" transform="translate(0.306)" fill="#f1ee86"/>
                        <rect id="Rectangle_3068" data-name="Rectangle 3068" width="0.612" height="6.013" transform="translate(0 0)" fill="#6d4c41"/>
                      </g>
                    </g>
                    <g id="Group_12679" data-name="Group 12679" transform="translate(1.698 1.155)" opacity="0.2">
                      <path id="Path_42642" data-name="Path 42642" d="M1011.162,2142.861c-.015-.1-.034-.191-.058-.284-.005-.021-.01-.042-.016-.062a2.949,2.949,0,0,0-.284-.672h0l-3.411-1.228s-1.529,4.588-21.411,4.282l.932,1.577h0c.045.021.091.041.137.06h22.276c.046-.018.092-.036.136-.056.2-.268,1.145-1.526,1.7-2.221q.016-.106.027-.214c.007-.08.012-.161.012-.243v-.489a2.905,2.905,0,0,0-.024-.361C1011.172,2142.919,1011.167,2142.89,1011.162,2142.861Z" transform="translate(-985.981 -2140.614)" fill="#6d4c41"/>
                    </g>
                  </g>
                  <g id="Group_12692" data-name="Group 12692" transform="translate(0 12.697)">
                    <g id="Group_12681" data-name="Group 12681">
                      <rect id="Rectangle_3069" data-name="Rectangle 3069" width="26" height="6.357" rx="3.178" transform="translate(26.919 7.273) rotate(179.975)" fill="#fdd835"/>
                      <path id="Path_42643" data-name="Path 42643" d="M967.312,2217.569a3.851,3.851,0,0,1-3.852-3.85v-.489a3.856,3.856,0,0,1,3.85-3.853l20.132-.009h0a3.851,3.851,0,0,1,3.852,3.851v.489a3.856,3.856,0,0,1-3.85,3.853l-20.132.009Zm20.132-6.365h0l-20.132.009a2.019,2.019,0,0,0-2.015,2.017v.489a2.017,2.017,0,0,0,2.017,2.016h0l20.132-.009a2.019,2.019,0,0,0,2.016-2.017v-.489a2.017,2.017,0,0,0-2.016-2.016Z" transform="translate(-963.46 -2209.368)" fill="#6d4c41"/>
                    </g>
                    <g id="Group_12682" data-name="Group 12682" transform="translate(1.835 1.835)" opacity="0.5">
                      <path id="Path_42644" data-name="Path 42644" d="M988.715,2237.137v-.489a2.019,2.019,0,0,1,2.016-2.017l20.132-.009h0a2.006,2.006,0,0,1,.89.208,2.01,2.01,0,0,0-1.808-1.126h0l-20.132.009a2.019,2.019,0,0,0-2.016,2.017v.489a2.01,2.01,0,0,0,1.126,1.807A2.006,2.006,0,0,1,988.715,2237.137Z" transform="translate(-987.797 -2233.705)" fill="#fff"/>
                    </g>
                    <g id="Group_12690" data-name="Group 12690" transform="translate(3.532 1.27)">
                      <g id="Group_12683" data-name="Group 12683">
                        <line id="Line_298" data-name="Line 298" y2="6.013" transform="translate(0.306)" fill="#f1ee86"/>
                        <rect id="Rectangle_3070" data-name="Rectangle 3070" width="0.612" height="6.013" fill="#6d4c41"/>
                      </g>
                      <g id="Group_12684" data-name="Group 12684" transform="translate(3.36)">
                        <line id="Line_299" data-name="Line 299" y2="6.013" transform="translate(0.306)" fill="#f1ee86"/>
                        <rect id="Rectangle_3071" data-name="Rectangle 3071" width="0.612" height="6.013" fill="#6d4c41"/>
                      </g>
                      <g id="Group_12685" data-name="Group 12685" transform="translate(6.72)">
                        <line id="Line_300" data-name="Line 300" y2="6.013" transform="translate(0.306)" fill="#f1ee86"/>
                        <rect id="Rectangle_3072" data-name="Rectangle 3072" width="0.612" height="6.013" fill="#6d4c41"/>
                      </g>
                      <g id="Group_12686" data-name="Group 12686" transform="translate(10.079)">
                        <line id="Line_301" data-name="Line 301" y2="6.013" transform="translate(0.306)" fill="#f1ee86"/>
                        <rect id="Rectangle_3073" data-name="Rectangle 3073" width="0.612" height="6.013" fill="#6d4c41"/>
                      </g>
                      <g id="Group_12687" data-name="Group 12687" transform="translate(13.439)">
                        <line id="Line_302" data-name="Line 302" y2="6.013" transform="translate(0.306)" fill="#f1ee86"/>
                        <rect id="Rectangle_3074" data-name="Rectangle 3074" width="0.612" height="6.013" fill="#6d4c41"/>
                      </g>
                      <g id="Group_12688" data-name="Group 12688" transform="translate(16.799)">
                        <line id="Line_303" data-name="Line 303" y2="6.013" transform="translate(0.306)" fill="#f1ee86"/>
                        <rect id="Rectangle_3075" data-name="Rectangle 3075" width="0.612" height="6.013" fill="#6d4c41"/>
                      </g>
                      <g id="Group_12689" data-name="Group 12689" transform="translate(20.159)">
                        <line id="Line_304" data-name="Line 304" y2="6.013" transform="translate(0.306)" fill="#f1ee86"/>
                        <rect id="Rectangle_3076" data-name="Rectangle 3076" width="0.612" height="6.013" fill="#6d4c41"/>
                      </g>
                    </g>
                    <g id="Group_12691" data-name="Group 12691" transform="translate(1.698 1.155)" opacity="0.2">
                      <path id="Path_42645" data-name="Path 42645" d="M1011.162,2226.928c-.015-.1-.034-.191-.058-.284-.005-.021-.01-.042-.016-.062a2.946,2.946,0,0,0-.284-.672h0l-3.411-1.228s-1.529,4.588-21.411,4.282l.932,1.577h0c.045.021.091.041.137.06h22.276c.046-.018.092-.036.136-.056.2-.268,1.145-1.526,1.7-2.221q.016-.106.027-.214c.007-.08.012-.161.012-.243v-.489a2.909,2.909,0,0,0-.024-.361C1011.172,2226.987,1011.167,2226.958,1011.162,2226.928Z" transform="translate(-985.981 -2224.682)" fill="#6d4c41"/>
                    </g>
                  </g>
                  <g id="Group_12704" data-name="Group 12704" transform="translate(0 19.053)">
                    <g id="Group_12693" data-name="Group 12693">
                      <rect id="Rectangle_3077" data-name="Rectangle 3077" width="26" height="6.357" rx="3.178" transform="translate(26.919 7.273) rotate(179.975)" fill="#fdd835"/>
                      <path id="Path_42646" data-name="Path 42646" d="M967.312,2301.863a3.852,3.852,0,0,1-3.852-3.851v-.489a3.856,3.856,0,0,1,3.85-3.853l20.132-.009h0a3.851,3.851,0,0,1,3.852,3.851V2298a3.856,3.856,0,0,1-3.85,3.853l-20.132.009Zm20.132-6.366h0l-20.132.009a2.019,2.019,0,0,0-2.015,2.017v.489a2.017,2.017,0,0,0,2.017,2.016h0l20.132-.009A2.019,2.019,0,0,0,989.46,2298v-.489a2.016,2.016,0,0,0-2.016-2.016Z" transform="translate(-963.46 -2293.662)" fill="#6d4c41"/>
                    </g>
                    <g id="Group_12694" data-name="Group 12694" transform="translate(1.835 1.835)" opacity="0.5">
                      <path id="Path_42647" data-name="Path 42647" d="M988.715,2321.431v-.489a2.019,2.019,0,0,1,2.016-2.017l20.132-.009h0a2,2,0,0,1,.89.208,2.01,2.01,0,0,0-1.808-1.126h0l-20.132.009a2.019,2.019,0,0,0-2.016,2.017v.489a2,2,0,0,0,.591,1.426,2.025,2.025,0,0,0,.535.382A2.006,2.006,0,0,1,988.715,2321.431Z" transform="translate(-987.797 -2317.999)" fill="#fff"/>
                    </g>
                    <g id="Group_12702" data-name="Group 12702" transform="translate(3.532 1.27)">
                      <g id="Group_12695" data-name="Group 12695">
                        <line id="Line_305" data-name="Line 305" y2="6.013" transform="translate(0.306)" fill="#f1ee86"/>
                        <rect id="Rectangle_3078" data-name="Rectangle 3078" width="0.612" height="6.013" fill="#6d4c41"/>
                      </g>
                      <g id="Group_12696" data-name="Group 12696" transform="translate(3.36)">
                        <line id="Line_306" data-name="Line 306" y2="6.013" transform="translate(0.306)" fill="#f1ee86"/>
                        <rect id="Rectangle_3079" data-name="Rectangle 3079" width="0.612" height="6.013" fill="#6d4c41"/>
                      </g>
                      <g id="Group_12697" data-name="Group 12697" transform="translate(6.72)">
                        <line id="Line_307" data-name="Line 307" y2="6.013" transform="translate(0.306)" fill="#f1ee86"/>
                        <rect id="Rectangle_3080" data-name="Rectangle 3080" width="0.612" height="6.013" fill="#6d4c41"/>
                      </g>
                      <g id="Group_12698" data-name="Group 12698" transform="translate(10.079)">
                        <line id="Line_308" data-name="Line 308" y2="6.013" transform="translate(0.306)" fill="#f1ee86"/>
                        <rect id="Rectangle_3081" data-name="Rectangle 3081" width="0.612" height="6.013" fill="#6d4c41"/>
                      </g>
                      <g id="Group_12699" data-name="Group 12699" transform="translate(13.439)">
                        <line id="Line_309" data-name="Line 309" y2="6.013" transform="translate(0.306)" fill="#f1ee86"/>
                        <rect id="Rectangle_3082" data-name="Rectangle 3082" width="0.612" height="6.013" fill="#6d4c41"/>
                      </g>
                      <g id="Group_12700" data-name="Group 12700" transform="translate(16.799)">
                        <line id="Line_310" data-name="Line 310" y2="6.013" transform="translate(0.306)" fill="#f1ee86"/>
                        <rect id="Rectangle_3083" data-name="Rectangle 3083" width="0.612" height="6.013" fill="#6d4c41"/>
                      </g>
                      <g id="Group_12701" data-name="Group 12701" transform="translate(20.159)">
                        <line id="Line_311" data-name="Line 311" y2="6.013" transform="translate(0.306)" fill="#f1ee86"/>
                        <rect id="Rectangle_3084" data-name="Rectangle 3084" width="0.612" height="6.013" fill="#6d4c41"/>
                      </g>
                    </g>
                    <g id="Group_12703" data-name="Group 12703" transform="translate(1.698 1.155)" opacity="0.2">
                      <path id="Path_42648" data-name="Path 42648" d="M1011.162,2311.222c-.015-.1-.034-.191-.058-.284-.005-.021-.01-.042-.016-.062a2.956,2.956,0,0,0-.284-.672h0l-3.411-1.228s-1.529,4.588-21.411,4.282l.932,1.577h0c.045.021.091.041.137.06h22.276c.046-.018.092-.036.136-.056.2-.268,1.145-1.526,1.7-2.221.011-.071.02-.142.027-.214s.012-.161.012-.243v-.489a2.9,2.9,0,0,0-.024-.36C1011.172,2311.281,1011.167,2311.252,1011.162,2311.222Z" transform="translate(-985.981 -2308.976)" fill="#6d4c41"/>
                    </g>
                  </g>
                </g>
                <g id="Group_12746" data-name="Group 12746" transform="translate(131.589 92.485)">
                  <g id="Group_12706" data-name="Group 12706" transform="translate(0.002 23.593)">
                    <rect id="Rectangle_3085" data-name="Rectangle 3085" width="26" height="6.357" rx="3.178" transform="matrix(-1, 0, 0, -1, 26.919, 7.273)" fill="#fdd835"/>
                    <path id="Path_42649" data-name="Path 42649" d="M2712.268,2297.7a3.852,3.852,0,0,1-3.852-3.85v-.489a3.856,3.856,0,0,1,3.85-3.853l20.132-.009h0a3.851,3.851,0,0,1,3.852,3.851v.489a3.856,3.856,0,0,1-3.85,3.853l-20.132.009Zm20.132-6.366h0l-20.132.009a2.019,2.019,0,0,0-2.015,2.017v.489a2.016,2.016,0,0,0,2.016,2.016h0l20.132-.009a2.019,2.019,0,0,0,2.015-2.017v-.489a2.016,2.016,0,0,0-2.016-2.016Z" transform="translate(-2708.416 -2289.501)" fill="#6d4c41"/>
                  </g>
                  <g id="Group_12707" data-name="Group 12707" transform="translate(1.837 25.428)" opacity="0.5">
                    <path id="Path_42650" data-name="Path 42650" d="M2733.363,2317.269v-.489a2.019,2.019,0,0,1,2.015-2.017l20.132-.009h0a2,2,0,0,1,1.309.484,2.016,2.016,0,0,0-1.921-1.4h0l-20.132.009a2.018,2.018,0,0,0-2.015,2.017v.489a2,2,0,0,0,.591,1.426c.038.037.077.072.117.106A2.022,2.022,0,0,1,2733.363,2317.269Z" transform="translate(-2732.751 -2313.837)" fill="#fff"/>
                  </g>
                  <g id="Group_12708" data-name="Group 12708" transform="translate(0 17.236)">
                    <rect id="Rectangle_3086" data-name="Rectangle 3086" width="26" height="6.357" rx="3.178" transform="matrix(-1, 0, 0, -1, 26.919, 7.273)" fill="#fdd835"/>
                    <path id="Path_42651" data-name="Path 42651" d="M2712.245,2213.408a3.851,3.851,0,0,1-3.852-3.85v-.489a3.856,3.856,0,0,1,3.85-3.853l20.132-.009h0a3.851,3.851,0,0,1,3.852,3.851v.489a3.856,3.856,0,0,1-3.85,3.853l-20.132.009h0Zm20.132-6.365h0l-20.132.009a2.019,2.019,0,0,0-2.015,2.017v.489a2.016,2.016,0,0,0,2.016,2.016h0l20.132-.009a2.019,2.019,0,0,0,2.015-2.017v-.489a2.017,2.017,0,0,0-2.016-2.016Z" transform="translate(-2708.393 -2205.207)" fill="#6d4c41"/>
                  </g>
                  <g id="Group_12709" data-name="Group 12709" transform="translate(1.835 19.071)" opacity="0.5">
                    <path id="Path_42652" data-name="Path 42652" d="M2733.646,2232.975v-.489a2.018,2.018,0,0,1,2.015-2.017l20.132-.009h0a2.011,2.011,0,0,1,.89.208,2.027,2.027,0,0,0-.382-.536,2.006,2.006,0,0,0-1.426-.59h0l-20.132.009a2.018,2.018,0,0,0-2.015,2.016v.489a2.009,2.009,0,0,0,1.126,1.808A2,2,0,0,1,2733.646,2232.975Z" transform="translate(-2732.728 -2229.543)" fill="#fff"/>
                  </g>
                  <g id="Group_12720" data-name="Group 12720" transform="translate(3.532 17.848)">
                    <g id="Group_12710" data-name="Group 12710" transform="translate(0 0.482)">
                      <line id="Line_312" data-name="Line 312" y2="6.013" transform="translate(0.306)" fill="#f1ee86"/>
                      <rect id="Rectangle_3087" data-name="Rectangle 3087" width="0.612" height="6.013" transform="translate(0 0)" fill="#6d4c41"/>
                    </g>
                    <g id="Group_12711" data-name="Group 12711" transform="translate(3.36 4.641)">
                      <line id="Line_313" data-name="Line 313" y2="1.548" transform="translate(0.306 0.306)" fill="#f1ee86"/>
                      <path id="Path_42653" data-name="Path 42653" d="M2800.092,2277.027a.306.306,0,0,1-.306-.306v-1.548a.306.306,0,0,1,.611,0v1.548A.306.306,0,0,1,2800.092,2277.027Z" transform="translate(-2799.786 -2274.867)" fill="#6d4c41"/>
                    </g>
                    <g id="Group_12712" data-name="Group 12712" transform="translate(3.36 0.184)">
                      <line id="Line_314" data-name="Line 314" y2="3.309" transform="translate(0.306 0.306)" fill="#f1ee86"/>
                      <path id="Path_42654" data-name="Path 42654" d="M2800.092,2219.681a.306.306,0,0,1-.306-.306v-3.309a.306.306,0,0,1,.611,0v3.309A.306.306,0,0,1,2800.092,2219.681Z" transform="translate(-2799.786 -2215.76)" fill="#6d4c41"/>
                    </g>
                    <g id="Group_12713" data-name="Group 12713" transform="translate(6.72 0.482)">
                      <line id="Line_315" data-name="Line 315" y2="6.013" transform="translate(0.306)" fill="#f1ee86"/>
                      <rect id="Rectangle_3088" data-name="Rectangle 3088" width="0.612" height="6.013" transform="translate(0 0)" fill="#6d4c41"/>
                    </g>
                    <g id="Group_12714" data-name="Group 12714" transform="translate(10.08 0.176)">
                      <line id="Line_316" data-name="Line 316" y2="1.859" transform="translate(0.306 0.306)" fill="#f1ee86"/>
                      <path id="Path_42655" data-name="Path 42655" d="M2889.2,2218.125a.306.306,0,0,1-.306-.306v-1.859a.306.306,0,1,1,.612,0v1.859A.306.306,0,0,1,2889.2,2218.125Z" transform="translate(-2888.892 -2215.655)" fill="#6d4c41"/>
                    </g>
                    <g id="Group_12715" data-name="Group 12715" transform="translate(10.08 3.183)">
                      <line id="Line_317" data-name="Line 317" y2="2.938" transform="translate(0.306 0.306)" fill="#f1ee86"/>
                      <path id="Path_42656" data-name="Path 42656" d="M2889.2,2259.074a.306.306,0,0,1-.306-.306v-2.938a.306.306,0,1,1,.612,0v2.938A.306.306,0,0,1,2889.2,2259.074Z" transform="translate(-2888.892 -2255.524)" fill="#6d4c41"/>
                    </g>
                    <g id="Group_12716" data-name="Group 12716" transform="translate(13.439 0.482)">
                      <line id="Line_318" data-name="Line 318" y2="6.013" transform="translate(0.306)" fill="#f1ee86"/>
                      <rect id="Rectangle_3089" data-name="Rectangle 3089" width="0.612" height="6.013" transform="translate(0 0)" fill="#6d4c41"/>
                    </g>
                    <g id="Group_12717" data-name="Group 12717" transform="translate(16.799 0.482)">
                      <line id="Line_319" data-name="Line 319" y2="6.013" transform="translate(0.306)" fill="#f1ee86"/>
                      <rect id="Rectangle_3090" data-name="Rectangle 3090" width="0.612" height="6.013" transform="translate(0 0)" fill="#6d4c41"/>
                    </g>
                    <g id="Group_12718" data-name="Group 12718" transform="translate(20.159 2.68)">
                      <line id="Line_320" data-name="Line 320" y2="3.509" transform="translate(0.306 0.306)" fill="#f1ee86"/>
                      <path id="Path_42657" data-name="Path 42657" d="M3022.855,2252.985a.306.306,0,0,1-.306-.306v-3.509a.306.306,0,0,1,.612,0v3.509A.306.306,0,0,1,3022.855,2252.985Z" transform="translate(-3022.549 -2248.864)" fill="#6d4c41"/>
                    </g>
                    <g id="Group_12719" data-name="Group 12719" transform="translate(20.159)">
                      <line id="Line_321" data-name="Line 321" y2="1.206" transform="translate(0.306 0.306)" fill="#f1ee86"/>
                      <path id="Path_42658" data-name="Path 42658" d="M3022.855,2215.138a.306.306,0,0,1-.306-.306v-1.206a.306.306,0,0,1,.612,0v1.206A.306.306,0,0,1,3022.855,2215.138Z" transform="translate(-3022.549 -2213.32)" fill="#6d4c41"/>
                    </g>
                  </g>
                  <g id="Group_12721" data-name="Group 12721" transform="translate(0.449 0)">
                    <rect id="Rectangle_3091" data-name="Rectangle 3091" width="26" height="6.357" rx="3.178" transform="translate(21.941 19.314) rotate(-147.551)" fill="#fdd835"/>
                    <path id="Path_42659" data-name="Path 42659" d="M2737.79,1998.213a3.829,3.829,0,0,1-2.06-.6l-16.989-10.8a3.851,3.851,0,0,1-1.183-5.317l.262-.413a3.856,3.856,0,0,1,5.317-1.183l16.989,10.8a3.852,3.852,0,0,1,1.184,5.317l-.262.412A3.853,3.853,0,0,1,2737.79,1998.213Zm-16.717-17.081a2.017,2.017,0,0,0-1.7.934l-.262.412a2.017,2.017,0,0,0,.619,2.784l16.989,10.8a2.019,2.019,0,0,0,2.783-.619l.262-.413a2.016,2.016,0,0,0-.62-2.784l-16.989-10.8A2,2,0,0,0,2721.073,1981.132Z" transform="translate(-2716.758 -1979.098)" fill="#6d4c41"/>
                  </g>
                  <g id="Group_12722" data-name="Group 12722" transform="translate(1.564 1.769)" opacity="0.2">
                    <path id="Path_42660" data-name="Path 42660" d="M2748.708,2014.239l-16.989-10.8a2.933,2.933,0,0,1-1.229-3.335,2.923,2.923,0,0,0-.634.707l-.262.412a2.934,2.934,0,0,0,.9,4.051l16.989,10.8a2.934,2.934,0,0,0,4.05-.9l.262-.412a2.921,2.921,0,0,0,.327-.716A2.933,2.933,0,0,1,2748.708,2014.239Z" transform="translate(-2729.135 -2000.103)" fill="#6d4c41"/>
                  </g>
                  <g id="Group_12723" data-name="Group 12723" transform="translate(2.482 2.034)" opacity="0.5">
                    <path id="Path_42661" data-name="Path 42661" d="M2741.4,2006.668a2.021,2.021,0,0,1,.219-.472l.262-.412a2.018,2.018,0,0,1,2.783-.62l16.989,10.8a2,2,0,0,1,.838,1.089,2.012,2.012,0,0,0-.838-2.312l-16.989-10.8a2.018,2.018,0,0,0-2.783.62l-.262.412a2,2,0,0,0-.267,1.52C2741.362,2006.553,2741.378,2006.611,2741.4,2006.668Z" transform="translate(-2741.3 -2003.627)" fill="#fff"/>
                  </g>
                  <g id="Group_12733" data-name="Group 12733" transform="translate(2.748 1.545)">
                    <g id="Group_12724" data-name="Group 12724" transform="translate(0 0)">
                      <line id="Line_322" data-name="Line 322" x1="3.229" y2="5.073" transform="translate(0.258 0.164)" fill="#f1ee86"/>
                      <rect id="Rectangle_3092" data-name="Rectangle 3092" width="6.013" height="0.612" transform="translate(0 5.073) rotate(-57.527)" fill="#6d4c41"/>
                    </g>
                    <g id="Group_12725" data-name="Group 12725" transform="translate(2.834 1.804)">
                      <line id="Line_323" data-name="Line 323" x1="3.229" y2="5.073" transform="translate(0.258 0.164)" fill="#f1ee86"/>
                      <rect id="Rectangle_3093" data-name="Rectangle 3093" width="6.013" height="0.612" transform="translate(0 5.073) rotate(-57.527)" fill="#6d4c41"/>
                    </g>
                    <g id="Group_12726" data-name="Group 12726" transform="translate(5.621 6.451)">
                      <line id="Line_324" data-name="Line 324" x1="1.329" y2="2.088" transform="translate(0.306 0.306)" fill="#f1ee86"/>
                      <path id="Path_42662" data-name="Path 42662" d="M2819.682,2085.382a.3.3,0,0,1-.164-.048.306.306,0,0,1-.094-.422l1.329-2.088a.306.306,0,0,1,.516.329l-1.329,2.088A.306.306,0,0,1,2819.682,2085.382Z" transform="translate(-2819.376 -2082.682)" fill="#6d4c41"/>
                    </g>
                    <g id="Group_12727" data-name="Group 12727" transform="translate(7.676 3.966)">
                      <line id="Line_325" data-name="Line 325" x1="0.878" y2="1.38" transform="translate(0.306 0.306)" fill="#f1ee86"/>
                      <path id="Path_42663" data-name="Path 42663" d="M2846.93,2051.723a.306.306,0,0,1-.258-.47l.878-1.38a.306.306,0,0,1,.516.328l-.878,1.38A.307.307,0,0,1,2846.93,2051.723Z" transform="translate(-2846.624 -2049.732)" fill="#6d4c41"/>
                    </g>
                    <g id="Group_12728" data-name="Group 12728" transform="translate(8.503 5.412)">
                      <line id="Line_326" data-name="Line 326" x1="3.229" y2="5.073" transform="translate(0.258 0.164)" fill="#f1ee86"/>
                      <rect id="Rectangle_3094" data-name="Rectangle 3094" width="6.013" height="0.612" transform="translate(0 5.073) rotate(-57.527)" fill="#6d4c41"/>
                    </g>
                    <g id="Group_12729" data-name="Group 12729" transform="translate(11.338 7.216)">
                      <line id="Line_327" data-name="Line 327" x1="3.229" y2="5.073" transform="translate(0.258 0.164)" fill="#f1ee86"/>
                      <rect id="Rectangle_3095" data-name="Rectangle 3095" width="6.013" height="0.612" transform="translate(0 5.073) rotate(-57.527)" fill="#6d4c41"/>
                    </g>
                    <g id="Group_12730" data-name="Group 12730" transform="translate(14.172 9.02)">
                      <line id="Line_328" data-name="Line 328" x1="3.229" y2="5.073" transform="translate(0.258 0.164)" fill="#f1ee86"/>
                      <rect id="Rectangle_3096" data-name="Rectangle 3096" width="6.013" height="0.612" transform="translate(0 5.073) rotate(-57.527)" fill="#6d4c41"/>
                    </g>
                    <g id="Group_12731" data-name="Group 12731" transform="translate(16.959 14.772)">
                      <line id="Line_329" data-name="Line 329" x1="0.626" y2="0.983" transform="translate(0.306 0.306)" fill="#f1ee86"/>
                      <path id="Path_42664" data-name="Path 42664" d="M2970.027,2194.609a.3.3,0,0,1-.164-.048.306.306,0,0,1-.094-.422l.626-.983a.306.306,0,1,1,.516.328l-.625.983A.306.306,0,0,1,2970.027,2194.609Z" transform="translate(-2969.722 -2193.014)" fill="#6d4c41"/>
                    </g>
                    <g id="Group_12732" data-name="Group 12732" transform="translate(18.505 10.996)">
                      <line id="Line_330" data-name="Line 330" x1="1.562" y2="2.455" transform="translate(0.306 0.306)" fill="#f1ee86"/>
                      <path id="Path_42665" data-name="Path 42665" d="M2990.523,2146.017a.306.306,0,0,1-.258-.47l1.563-2.455a.306.306,0,1,1,.516.328l-1.562,2.455A.305.305,0,0,1,2990.523,2146.017Z" transform="translate(-2990.218 -2142.95)" fill="#6d4c41"/>
                    </g>
                  </g>
                  <g id="Group_12743" data-name="Group 12743" transform="translate(3.534 24.371)">
                    <g id="Group_12734" data-name="Group 12734" transform="translate(0 4.476)">
                      <line id="Line_331" data-name="Line 331" y2="1.547" transform="translate(0.306 0.306)" fill="#f1ee86"/>
                      <path id="Path_42666" data-name="Path 42666" d="M2755.563,2361.336a.306.306,0,0,1-.306-.306v-1.547a.306.306,0,0,1,.612,0v1.547A.306.306,0,0,1,2755.563,2361.336Z" transform="translate(-2755.257 -2359.177)" fill="#6d4c41"/>
                    </g>
                    <g id="Group_12735" data-name="Group 12735">
                      <line id="Line_332" data-name="Line 332" y2="2.803" transform="translate(0.306 0.306)" fill="#f1ee86"/>
                      <path id="Path_42667" data-name="Path 42667" d="M2755.563,2303.242a.306.306,0,0,1-.306-.306v-2.8a.306.306,0,0,1,.612,0v2.8A.306.306,0,0,1,2755.563,2303.242Z" transform="translate(-2755.257 -2299.828)" fill="#6d4c41"/>
                    </g>
                    <g id="Group_12736" data-name="Group 12736" transform="translate(3.36 0.315)">
                      <line id="Line_333" data-name="Line 333" y2="6.013" transform="translate(0.306)" fill="#f1ee86"/>
                      <rect id="Rectangle_3097" data-name="Rectangle 3097" width="0.612" height="6.013" transform="translate(0 0)" fill="#6d4c41"/>
                    </g>
                    <g id="Group_12737" data-name="Group 12737" transform="translate(6.72 0.315)">
                      <line id="Line_334" data-name="Line 334" y2="6.013" transform="translate(0.306)" fill="#f1ee86"/>
                      <rect id="Rectangle_3098" data-name="Rectangle 3098" width="0.612" height="6.013" transform="translate(0 0)" fill="#6d4c41"/>
                    </g>
                    <g id="Group_12738" data-name="Group 12738" transform="translate(10.079 0.315)">
                      <line id="Line_335" data-name="Line 335" y2="6.013" transform="translate(0.306)" fill="#f1ee86"/>
                      <rect id="Rectangle_3099" data-name="Rectangle 3099" width="0.612" height="6.013" transform="translate(0 0)" fill="#6d4c41"/>
                    </g>
                    <g id="Group_12739" data-name="Group 12739" transform="translate(13.439 3.22)">
                      <line id="Line_336" data-name="Line 336" y2="2.803" transform="translate(0.306 0.306)" fill="#f1ee86"/>
                      <path id="Path_42668" data-name="Path 42668" d="M2933.773,2345.937a.306.306,0,0,1-.306-.306v-2.8a.306.306,0,0,1,.612,0v2.8A.306.306,0,0,1,2933.773,2345.937Z" transform="translate(-2933.467 -2342.522)" fill="#6d4c41"/>
                    </g>
                    <g id="Group_12740" data-name="Group 12740" transform="translate(13.439 0.302)">
                      <line id="Line_337" data-name="Line 337" y2="1.649" transform="translate(0.306 0.306)" fill="#f1ee86"/>
                      <path id="Path_42669" data-name="Path 42669" d="M2933.773,2306.089a.306.306,0,0,1-.306-.306v-1.649a.306.306,0,0,1,.612,0v1.649A.306.306,0,0,1,2933.773,2306.089Z" transform="translate(-2933.467 -2303.828)" fill="#6d4c41"/>
                    </g>
                    <g id="Group_12741" data-name="Group 12741" transform="translate(16.799 0.315)">
                      <line id="Line_338" data-name="Line 338" y2="6.013" transform="translate(0.306)" fill="#f1ee86"/>
                      <rect id="Rectangle_3100" data-name="Rectangle 3100" width="0.612" height="6.013" transform="translate(0 0)" fill="#6d4c41"/>
                    </g>
                    <g id="Group_12742" data-name="Group 12742" transform="translate(20.159 0.315)">
                      <line id="Line_339" data-name="Line 339" y2="6.013" transform="translate(0.306)" fill="#f1ee86"/>
                      <rect id="Rectangle_3101" data-name="Rectangle 3101" width="0.612" height="6.013" transform="translate(0 0)" fill="#6d4c41"/>
                    </g>
                  </g>
                  <g id="Group_12744" data-name="Group 12744" transform="translate(2.161 18.396)" opacity="0.2">
                    <path id="Path_42670" data-name="Path 42670" d="M2754.568,2220.744s.306,5.505-17.523,4.828h0l1.158.83h22.635l1.224-2.141-.306-1.835-.612-1.835Z" transform="translate(-2737.045 -2220.591)" fill="#6d4c41"/>
                  </g>
                  <g id="Group_12745" data-name="Group 12745" transform="translate(1.942 24.603)" opacity="0.2">
                    <path id="Path_42671" data-name="Path 42671" d="M2752.2,2303.273s-.612,4.588-18.047,4.588l1.288,1.262h21.878l2.069-2.333-.547-2.142-.895-1.253-5.906-.492" transform="translate(-2734.15 -2302.904)" fill="#6d4c41"/>
                  </g>
                </g>
              </g>
              <g id="Group_12755" data-name="Group 12755" transform="translate(10.415 12.245)">
                <g id="Group_12748" data-name="Group 12748" transform="translate(8.889 109.5)">
                  <circle id="Ellipse_2258" data-name="Ellipse 2258" cx="1.694" cy="1.694" r="1.694" fill="#63c7db"/>
                </g>
                <g id="Group_12749" data-name="Group 12749" transform="translate(187.471 111.26)">
                  <circle id="Ellipse_2259" data-name="Ellipse 2259" cx="1.953" cy="1.953" r="1.953" transform="translate(0 0)" fill="#63c7db"/>
                </g>
                <g id="Group_12750" data-name="Group 12750" transform="translate(189.405 43.613)">
                  <circle id="Ellipse_2260" data-name="Ellipse 2260" cx="1.63" cy="1.63" r="1.63" fill="#63c7db"/>
                </g>
                <g id="Group_12751" data-name="Group 12751" transform="translate(178.516 25.154)">
                  <path id="Path_42672" data-name="Path 42672" d="M3065.06,1012.914c.376-.377.139-1.271-.527-2.284a.9.9,0,0,1,0-.991c.665-1.013.9-1.908.527-2.285s-1.271-.139-2.285.527a.9.9,0,0,1-.991,0c-1.014-.666-1.908-.9-2.285-.527s-.139,1.271.527,2.285a.9.9,0,0,1,0,.991c-.666,1.013-.9,1.908-.527,2.284s1.271.139,2.285-.527a.9.9,0,0,1,.991,0C3063.789,1013.053,3064.683,1013.291,3065.06,1012.914Z" transform="translate(-3059.321 -1007.175)" fill="#63c7db"/>
                </g>
                <g id="Group_12752" data-name="Group 12752" transform="translate(0 93.768)">
                  <path id="Path_42673" data-name="Path 42673" d="M695.314,1923.429c.433,0,.811-.651,1.011-1.617a.733.733,0,0,1,.57-.57c.966-.2,1.617-.578,1.617-1.011s-.651-.811-1.617-1.011a.733.733,0,0,1-.57-.57c-.2-.966-.578-1.617-1.011-1.617s-.811.651-1.011,1.617a.733.733,0,0,1-.57.57c-.966.2-1.617.578-1.617,1.011s.651.811,1.617,1.011a.733.733,0,0,1,.57.57C694.5,1922.778,694.881,1923.429,695.314,1923.429Z" transform="translate(-692.116 -1917.033)" fill="#63c7db"/>
                </g>
                <g id="Group_12753" data-name="Group 12753" transform="translate(27.137)">
                  <circle id="Ellipse_2261" data-name="Ellipse 2261" cx="2.583" cy="2.583" r="2.583" fill="#63c7db"/>
                </g>
                <g id="Group_12754" data-name="Group 12754" transform="translate(15.518 14.112)">
                  <circle id="Ellipse_2262" data-name="Ellipse 2262" cx="1.689" cy="1.689" r="1.689" fill="#63c7db"/>
                </g>
              </g>
            </g>
          </g>
        </g>
      </g>
      <path id="Path_43125" data-name="Path 43125" d="M161.294,69.427l-4.6-4.6,6.278-1.682,6.278-1.682-1.682,6.278-1.682,6.278Z" transform="matrix(0.899, -0.438, 0.438, 0.899, 183.696, 3021.643)" fill="#63c7db" opacity="0.3"/>
    </g>
  </g>
</svg>
