<svg xmlns="http://www.w3.org/2000/svg" width="25.707" height="30.813" viewBox="0 0 25.707 30.813">
  <g id="user_16_" data-name="user (16)" transform="translate(0 0)">
    <path id="Path_41006" data-name="Path 41006" d="M94.453,14.843A7.181,7.181,0,0,0,99.7,12.668a7.181,7.181,0,0,0,2.174-5.247A7.182,7.182,0,0,0,99.7,2.174a7.42,7.42,0,0,0-10.495,0,7.181,7.181,0,0,0-2.174,5.247,7.181,7.181,0,0,0,2.174,5.247A7.183,7.183,0,0,0,94.453,14.843ZM90.483,3.451a5.614,5.614,0,0,1,7.941,0,5.365,5.365,0,0,1,1.645,3.97,5.365,5.365,0,0,1-1.645,3.971,5.613,5.613,0,0,1-7.941,0,5.364,5.364,0,0,1-1.646-3.971,5.365,5.365,0,0,1,1.646-3.97Zm0,0" transform="translate(-81.794)" fill="#fff"/>
    <path id="Path_41007" data-name="Path 41007" d="M25.645,256.126a18.332,18.332,0,0,0-.25-1.947,15.34,15.34,0,0,0-.479-1.958,9.669,9.669,0,0,0-.8-1.826,6.882,6.882,0,0,0-1.213-1.581,5.351,5.351,0,0,0-1.743-1.1,6.025,6.025,0,0,0-2.225-.4,2.259,2.259,0,0,0-1.206.512c-.362.236-.784.508-1.257.81a7.2,7.2,0,0,1-1.626.716,6.313,6.313,0,0,1-3.977,0,7.18,7.18,0,0,1-1.625-.716c-.468-.3-.891-.571-1.258-.811a2.256,2.256,0,0,0-1.206-.512,6.017,6.017,0,0,0-2.225.4,5.346,5.346,0,0,0-1.743,1.1A6.884,6.884,0,0,0,1.594,250.4a9.687,9.687,0,0,0-.8,1.826,15.376,15.376,0,0,0-.479,1.957,18.206,18.206,0,0,0-.25,1.948c-.041.588-.062,1.2-.062,1.82a5.116,5.116,0,0,0,1.52,3.871,5.47,5.47,0,0,0,3.916,1.428H20.272a5.47,5.47,0,0,0,3.916-1.428,5.115,5.115,0,0,0,1.52-3.871c0-.621-.021-1.233-.062-1.82Zm-2.7,4.383a3.683,3.683,0,0,1-2.671.931H5.435a3.683,3.683,0,0,1-2.671-.93,3.341,3.341,0,0,1-.959-2.563c0-.577.019-1.147.057-1.695a16.421,16.421,0,0,1,.226-1.753,13.561,13.561,0,0,1,.421-1.726,7.887,7.887,0,0,1,.655-1.485,5.1,5.1,0,0,1,.892-1.169,3.548,3.548,0,0,1,1.16-.721,4.154,4.154,0,0,1,1.422-.274c.063.034.176.1.358.217.371.242.8.518,1.272.82a8.949,8.949,0,0,0,2.041.912,8.117,8.117,0,0,0,5.088,0,8.956,8.956,0,0,0,2.042-.913c.484-.309.9-.577,1.271-.819.182-.119.3-.183.358-.217a4.158,4.158,0,0,1,1.422.274,3.553,3.553,0,0,1,1.159.721,5.088,5.088,0,0,1,.892,1.169,7.859,7.859,0,0,1,.655,1.484,13.529,13.529,0,0,1,.421,1.726,16.558,16.558,0,0,1,.226,1.754h0c.038.545.058,1.115.058,1.694a3.341,3.341,0,0,1-.959,2.563Zm0,0" transform="translate(0 -232.432)" fill="#fff"/>
  </g>
</svg>
