<svg xmlns="http://www.w3.org/2000/svg" width="25.586" height="26.665" viewBox="0 0 25.586 26.665">
  <g id="sale_3_" data-name="sale (3)" transform="translate(-10.359 0.002)">
    <g id="Group_19044" data-name="Group 19044" transform="translate(10.359 -0.002)">
      <g id="Group_19043" data-name="Group 19043" transform="translate(0 0)">
        <path id="Path_49341" data-name="Path 49341" d="M34.711,13.676a.781.781,0,0,1,0-.691l.994-2.034a2.315,2.315,0,0,0-1-3.074l-2-1.061a.781.781,0,0,1-.406-.559l-.391-2.23a2.315,2.315,0,0,0-2.615-1.9l-2.242.317A.781.781,0,0,1,26.4,2.23L24.768.656a2.315,2.315,0,0,0-3.232,0L19.908,2.23a.782.782,0,0,1-.657.213l-2.242-.317a2.315,2.315,0,0,0-2.615,1.9L14,6.257a.782.782,0,0,1-.406.559l-2,1.061a2.315,2.315,0,0,0-1,3.074l.994,2.034a.781.781,0,0,1,0,.691L10.6,15.71a2.315,2.315,0,0,0,1,3.074l2,1.061A.781.781,0,0,1,14,20.4l.391,2.23a2.313,2.313,0,0,0,2.282,1.923,2.379,2.379,0,0,0,.333-.024l2.242-.317a.781.781,0,0,1,.657.213l1.628,1.574a2.315,2.315,0,0,0,3.232,0L26.4,24.431a.782.782,0,0,1,.657-.213l2.242.317a2.315,2.315,0,0,0,2.615-1.9L32.3,20.4a.782.782,0,0,1,.406-.559l2-1.061a2.315,2.315,0,0,0,1-3.074Zm-.725,3.75-2,1.061a2.31,2.31,0,0,0-1.2,1.652l-.391,2.23a.783.783,0,0,1-.885.643l-2.242-.317a2.309,2.309,0,0,0-1.942.631L23.7,24.9a.783.783,0,0,1-1.094,0l-1.628-1.574a2.307,2.307,0,0,0-1.611-.654,2.361,2.361,0,0,0-.331.023l-2.242.317a.783.783,0,0,1-.885-.643l-.391-2.23a2.309,2.309,0,0,0-1.2-1.652l-2-1.061a.783.783,0,0,1-.338-1.04l.994-2.034a2.309,2.309,0,0,0,0-2.041l-.994-2.034a.783.783,0,0,1,.338-1.04l2-1.061a2.31,2.31,0,0,0,1.2-1.652l.391-2.23a.783.783,0,0,1,.885-.643l2.242.317a2.309,2.309,0,0,0,1.942-.631L22.6,1.761a.783.783,0,0,1,1.094,0l1.628,1.574a2.309,2.309,0,0,0,1.942.631l2.242-.317a.783.783,0,0,1,.885.643l.391,2.23a2.309,2.309,0,0,0,1.2,1.652l2,1.061a.783.783,0,0,1,.338,1.04l-.994,2.034a2.309,2.309,0,0,0,0,2.041l.994,2.034A.783.783,0,0,1,33.986,17.426Z" transform="translate(-10.359 0.002)" fill="#fff"/>
      </g>
    </g>
    <g id="Group_19046" data-name="Group 19046" transform="translate(17.308 7.487)">
      <g id="Group_19045" data-name="Group 19045">
        <path id="Path_49342" data-name="Path 49342" d="M155.254,144.017a.769.769,0,0,0-1.087,0l-10.15,10.15a.769.769,0,1,0,1.087,1.087l10.15-10.15A.769.769,0,0,0,155.254,144.017Z" transform="translate(-143.791 -143.791)" fill="#fff"/>
      </g>
    </g>
    <g id="Group_19048" data-name="Group 19048" transform="translate(17.256 6.41)">
      <g id="Group_19047" data-name="Group 19047">
        <path id="Path_49343" data-name="Path 49343" d="M145.622,123.116a2.819,2.819,0,1,0,2.819,2.82A2.823,2.823,0,0,0,145.622,123.116Zm0,4.1a1.282,1.282,0,1,1,1.282-1.282A1.283,1.283,0,0,1,145.622,127.217Z" transform="translate(-142.802 -123.116)" fill="#fff"/>
      </g>
    </g>
    <g id="Group_19050" data-name="Group 19050" transform="translate(23.408 14.612)">
      <g id="Group_19049" data-name="Group 19049" transform="translate(0)">
        <path id="Path_49344" data-name="Path 49344" d="M263.742,280.61a2.82,2.82,0,1,0,2.819,2.82A2.823,2.823,0,0,0,263.742,280.61Zm0,4.1a1.282,1.282,0,1,1,1.282-1.282A1.283,1.283,0,0,1,263.742,284.711Z" transform="translate(-260.922 -280.61)" fill="#fff"/>
      </g>
    </g>
  </g>
</svg>
