<svg xmlns="http://www.w3.org/2000/svg" width="19.015" height="19.817" viewBox="0 0 19.015 19.817">
  <g id="sale_3_" data-name="sale (3)" transform="translate(-10.359 0.002)">
    <g id="Group_19044" data-name="Group 19044" transform="translate(10.359 -0.002)">
      <g id="Group_19043" data-name="Group 19043" transform="translate(0 0)">
        <path id="Path_49341" data-name="Path 49341" d="M28.457,10.163a.581.581,0,0,1,0-.513L29.2,8.138a1.72,1.72,0,0,0-.742-2.284l-1.487-.789a.581.581,0,0,1-.3-.415l-.291-1.658A1.72,1.72,0,0,0,24.431,1.58l-1.666.236a.581.581,0,0,1-.488-.159L21.067.487a1.72,1.72,0,0,0-2.4,0l-1.21,1.17a.581.581,0,0,1-.488.159L15.3,1.58a1.72,1.72,0,0,0-1.943,1.412l-.291,1.658a.581.581,0,0,1-.3.415l-1.487.789a1.72,1.72,0,0,0-.742,2.284l.739,1.512a.581.581,0,0,1,0,.513l-.739,1.512a1.72,1.72,0,0,0,.742,2.284l1.487.789a.581.581,0,0,1,.3.415l.291,1.658a1.719,1.719,0,0,0,1.7,1.429,1.768,1.768,0,0,0,.247-.017L16.968,18a.581.581,0,0,1,.488.159l1.21,1.17a1.72,1.72,0,0,0,2.4,0l1.21-1.17A.581.581,0,0,1,22.765,18l1.666.236a1.72,1.72,0,0,0,1.943-1.412l.291-1.658a.581.581,0,0,1,.3-.415l1.487-.789a1.72,1.72,0,0,0,.742-2.284Zm-.539,2.787-1.487.789a1.716,1.716,0,0,0-.892,1.227l-.291,1.658a.582.582,0,0,1-.657.478l-1.666-.236a1.716,1.716,0,0,0-1.443.469l-1.21,1.17a.582.582,0,0,1-.813,0l-1.21-1.17a1.715,1.715,0,0,0-1.2-.486,1.755,1.755,0,0,0-.246.017l-1.666.236a.582.582,0,0,1-.657-.478l-.291-1.658a1.716,1.716,0,0,0-.892-1.227l-1.487-.789a.582.582,0,0,1-.251-.773l.739-1.512a1.716,1.716,0,0,0,0-1.517l-.739-1.512a.582.582,0,0,1,.251-.773L13.3,6.074a1.716,1.716,0,0,0,.892-1.227l.291-1.658a.582.582,0,0,1,.657-.478l1.666.236a1.716,1.716,0,0,0,1.443-.469l1.21-1.17a.582.582,0,0,1,.813,0l1.21,1.17a1.716,1.716,0,0,0,1.443.469l1.666-.236a.582.582,0,0,1,.657.478l.291,1.658a1.716,1.716,0,0,0,.892,1.227l1.487.789a.582.582,0,0,1,.251.773L27.43,9.148a1.716,1.716,0,0,0,0,1.517l.739,1.512A.582.582,0,0,1,27.918,12.95Z" transform="translate(-10.359 0.002)" fill="#63c7db"/>
      </g>
    </g>
    <g id="Group_19046" data-name="Group 19046" transform="translate(15.523 5.563)">
      <g id="Group_19045" data-name="Group 19045">
        <path id="Path_49342" data-name="Path 49342" d="M152.31,143.959a.571.571,0,0,0-.808,0l-7.543,7.543a.571.571,0,1,0,.808.808l7.543-7.543A.571.571,0,0,0,152.31,143.959Z" transform="translate(-143.791 -143.791)" fill="#63c7db"/>
      </g>
    </g>
    <g id="Group_19048" data-name="Group 19048" transform="translate(15.485 4.763)">
      <g id="Group_19047" data-name="Group 19047">
        <path id="Path_49343" data-name="Path 49343" d="M144.9,123.116a2.1,2.1,0,1,0,2.1,2.1A2.1,2.1,0,0,0,144.9,123.116Zm0,3.048a.952.952,0,1,1,.952-.952A.953.953,0,0,1,144.9,126.164Z" transform="translate(-142.802 -123.116)" fill="#63c7db"/>
      </g>
    </g>
    <g id="Group_19050" data-name="Group 19050" transform="translate(20.057 10.859)">
      <g id="Group_19049" data-name="Group 19049" transform="translate(0)">
        <path id="Path_49344" data-name="Path 49344" d="M263.017,280.61a2.1,2.1,0,1,0,2.1,2.1A2.1,2.1,0,0,0,263.017,280.61Zm0,3.048a.952.952,0,1,1,.952-.952A.954.954,0,0,1,263.017,283.658Z" transform="translate(-260.922 -280.61)" fill="#63c7db"/>
      </g>
    </g>
  </g>
</svg>
