<svg id="Layer_1" data-name="Layer 1" xmlns="http://www.w3.org/2000/svg" viewBox="0 0 50 50"><defs><style>.cls-1{fill:#63c7db;}.cls-2{fill:#1b4791;}.cls-3{fill:#fff;}</style></defs><path class="cls-1" d="M17.21,20.83A9.22,9.22,0,1,1,21.64,8.56,9.23,9.23,0,0,1,17.21,20.83Z"/><path d="M9.4,4.18A9.16,9.16,0,1,1,5,16.37,9.17,9.17,0,0,1,9.4,4.18m-.05-.1A9.28,9.28,0,1,0,21.69,8.53,9.29,9.29,0,0,0,9.35,4.08Z"/><path class="cls-1" d="M11.93,8.71l.71,1.51-.75.36L11.2,9.12A.6.6,0,0,0,11.11,9l-.73-.84.6-.52.93,1.08Z"/><path d="M12.65,10.23l-.77.36-.69-1.46A.38.38,0,0,0,11.1,9l-.74-.85h0L11,7.6h0l.95,1.11Zm-.76.33.73-.34-.7-1.5,0,0L11,7.63l-.58.5.72.83a.51.51,0,0,1,.09.16Z"/><rect class="cls-1" x="13.09" y="11.03" width="0.83" height="4.02" transform="translate(-4.26 6.98) rotate(-25.16)"/><path d="M14.75,14.69l-.77.37L12.26,11.4,13,11ZM14,15l.73-.35L13,11.06l-.73.35Z"/><line class="cls-1" x1="11.93" y1="8.71" x2="11.91" y2="8.69"/><rect class="cls-2" x="11.77" y="9.36" width="1.03" height="2.19" rx="0.48" transform="translate(-3.28 6.22) rotate(-25.16)"/><path d="M13.1,11.3l-.68.32a.14.14,0,0,1-.2-.07L11.4,9.81a.14.14,0,0,1,.08-.19l.68-.33a.16.16,0,0,1,.2.07l.82,1.74A.15.15,0,0,1,13.1,11.3ZM11.49,9.64a.11.11,0,0,0-.06.16l.81,1.74a.13.13,0,0,0,.17.06l.68-.32a.12.12,0,0,0,.06-.17l-.81-1.74a.13.13,0,0,0-.17,0Z"/><rect class="cls-2" x="12.84" y="11.63" width="1.03" height="2.19" rx="0.46" transform="translate(-4.14 6.89) rotate(-25.16)"/><path d="M14.17,13.57l-.68.32a.14.14,0,0,1-.2-.07l-.82-1.73a.16.16,0,0,1,.07-.2l.69-.32a.14.14,0,0,1,.2.07l.81,1.74A.13.13,0,0,1,14.17,13.57Zm-1.62-1.66a.13.13,0,0,0-.06.17l.82,1.73a.12.12,0,0,0,.17.06l.68-.32a.12.12,0,0,0,.06-.16l-.81-1.74a.12.12,0,0,0-.17-.06Z"/><rect class="cls-2" x="14.47" y="13.97" width="1.03" height="4.43" rx="0.52" transform="translate(-5.46 7.9) rotate(-25.16)"/><path d="M16.25,18.05l-.65.3a.16.16,0,0,1-.22-.08l-1.75-3.72a.18.18,0,0,1,.08-.23l.65-.3a.17.17,0,0,1,.22.08l1.75,3.72A.17.17,0,0,1,16.25,18.05Zm-2.53-3.7a.15.15,0,0,0-.07.19l1.75,3.72a.13.13,0,0,0,.19.07l.65-.3a.15.15,0,0,0,.07-.2l-1.75-3.72a.15.15,0,0,0-.19-.07Z"/><path d="M12.26,11.06h0l-.41-.89v0h0l.42.89Z"/><path d="M12.38,11.32h0l-.07-.14v0h0l.07.14Z"/><path d="M15.77,17.08h0l-.41-.88s0,0,0,0h0l.41.88Z"/><path d="M15.89,17.34h0l-.06-.13s0,0,0,0a0,0,0,0,1,0,0l.06.13A0,0,0,0,1,15.89,17.34Z"/><path d="M13,12.78h0v0l.51-.51h0s0,0,0,0l-.5.51Z"/><path d="M13.13,13h0v0l.51-.5h0s0,0,0,0l-.5.51Z"/><path d="M13.22,13.16h0s0,0,0,0l.5-.51h0s0,0,0,0l-.5.5Z"/><path d="M13.31,13.36h0s0,0,0,0l.5-.51h0v0l-.51.51Z"/><path class="cls-3" d="M14.57,16s0,0,0,0l-.63-1.33a0,0,0,0,1,0,0,0,0,0,0,1,0,0l.63,1.33S14.58,16,14.57,16Z"/><path class="cls-3" d="M12.71,10.48s0,0,0,0l-.43-.91a0,0,0,0,1,0,0h0l.42.91A0,0,0,0,1,12.71,10.48Z"/><rect class="cls-1" x="10.95" y="6.94" width="0.33" height="0.1" transform="translate(-1.86 8.97) rotate(-40.86)"/><path d="M11,7.15l-.08-.09h0l.26-.23.08.1h0Zm0-.09,0,.06.24-.21,0,0Z"/><rect class="cls-1" x="10.89" y="6.85" width="0.16" height="0.53" rx="0.08" transform="translate(-1.98 8.91) rotate(-40.86)"/><path d="M11.11,7.35s0,0,0,0h0L10.76,7a.05.05,0,0,1,0,0s0,0,0,0l.06,0a0,0,0,0,1,.07,0l.29.34a.05.05,0,0,1,0,0s0,0,0,0l-.06,0Zm-.27-.46h0l-.05,0V7a0,0,0,0,0,0,0l.28.33h0l.05,0v0a0,0,0,0,0,0,0l-.28-.33Z"/><polygon class="cls-2" points="11.12 6.8 11.3 7 11.3 7 11.55 6.56 11.54 6.55 11.12 6.79 11.12 6.8"/><path d="M11.31,7h0l-.18-.2v0h0l.42-.24h0L11.31,7Zm-.17-.21L11.3,7l.23-.41Z"/><rect class="cls-2" x="9.65" y="7.05" width="1.52" height="1.1" rx="0.55" transform="translate(-2.44 8.66) rotate(-40.86)"/><path d="M10.36,8.36A.34.34,0,0,1,10,8.28l-.3-.35a.34.34,0,0,1,0-.47l.67-.57a.33.33,0,0,1,.47,0l.3.35a.32.32,0,0,1,0,.46l-.66.58Zm.1-1.5-.07,0-.67.58a.3.3,0,0,0,0,.43l.3.35a.3.3,0,0,0,.43,0l.67-.57a.3.3,0,0,0,.1-.21.29.29,0,0,0-.07-.22l-.3-.35A.3.3,0,0,0,10.46,6.86Z"/><path class="cls-3" d="M9.92,7.63h0s0,0,0,0l.56-.52s0,0,0,0a0,0,0,0,1,0,0l-.55.51Z"/><rect class="cls-2" x="8.93" y="11.12" width="0.24" height="9.59" rx="0.12" transform="translate(-5.91 5.36) rotate(-25.16)"/><path d="M11.13,20.25l-.07,0a.08.08,0,0,1-.12,0l-4-8.54a.1.1,0,0,1,0-.12l.08,0a.1.1,0,0,1,.12,0l4,8.54A.09.09,0,0,1,11.13,20.25ZM7,11.6a.07.07,0,0,0,0,.09l4,8.54a.06.06,0,0,0,.09,0l.08,0a.08.08,0,0,0,0-.09l-4-8.54a.07.07,0,0,0-.09,0Z"/><path class="cls-2" d="M9.14,11.3h0a.12.12,0,0,1,.12.12V20.8a.09.09,0,0,1-.09.09h0A.12.12,0,0,1,9,20.77V11.42A.12.12,0,0,1,9.14,11.3Z" transform="translate(-5.98 5.41) rotate(-25.16)"/><path d="M11.22,20.43l-.08,0a.09.09,0,0,1-.12,0L7,11.88a.08.08,0,0,1,0-.11l.07,0a.09.09,0,0,1,.12,0l4,8.54A.09.09,0,0,1,11.22,20.43ZM7.07,11.79a.06.06,0,0,0,0,.08l4,8.54a.07.07,0,0,0,.09,0l.08,0a.07.07,0,0,0,0-.09l-4-8.54a.06.06,0,0,0-.09,0Z"/><path class="cls-2" d="M7.41,8.87H7L7,8.91H7L6.81,9,6.71,9l0,.05-.06.05,0,0-.15.17,0,.06,0,0h0l-.09.15-.06.14a.5.5,0,0,0-.05.13.83.83,0,0,0,0,.12l0,.11s0,.05,0,.08v.07s0,.06,0,.09a.49.49,0,0,1,0,.12v.13a.76.76,0,0,1,0,.15l0,.17a.3.3,0,0,0,0,.1l0,.09a.19.19,0,0,0,0,.07,1,1,0,0,0,.71.68l-.18,0a1,1,0,0,1-.72-.68,1.82,1.82,0,0,1-.07-.25v0a.06.06,0,0,1,0,0,.28.28,0,0,1,0-.09.13.13,0,0,0,0-.06v-.07h0v-.38a.52.52,0,0,1,0-.11l0-.12a.56.56,0,0,1,0-.12v0a.14.14,0,0,0,0-.06v0l.07-.13,0-.09,0-.07h0a1.24,1.24,0,0,1,.14-.18l0,0,0,0,.09-.08.16-.11h0l0,0,0,0h0l.08,0h.38Z"/><path d="M6.84,11.85l-.18,0a1,1,0,0,1-.73-.7,1.82,1.82,0,0,1-.07-.25v0a.06.06,0,0,1,0,0,.28.28,0,0,1,0-.09v0h0v-.07h0v-.17h0v-.08h0v-.11a.36.36,0,0,1,0-.11l0-.12h0a.34.34,0,0,1,0-.12s0,0,0-.05,0,0,0,0v0l.07-.14a.22.22,0,0,1,.05-.08.16.16,0,0,1,0-.07h0A1.33,1.33,0,0,1,6.3,9.2l0,0,0,0L6.47,9l.15-.11h0l0,0,.07,0h0l.07,0h.39l.17,0h0v0H7L7,8.92H7L6.82,9l-.1.06-.06,0-.06.06,0,0-.15.16,0,.07v0h0l-.09.16-.06.13a.69.69,0,0,0,0,.13s0,.08,0,.12l0,.12s0,0,0,.07v0h0v0a.28.28,0,0,0,0,.09.49.49,0,0,0,0,.12H6a.24.24,0,0,0,0,.12v.15l0,.17s0,.07,0,.1l0,.09a.14.14,0,0,0,0,.06,1,1,0,0,0,.7.68h0Zm-1-1.3h0a.15.15,0,0,0,0,.07h0v.06s0,.05,0,.09a.06.06,0,0,0,0,0,.09.09,0,0,0,0,0,2.27,2.27,0,0,0,.06.25,1,1,0,0,0,.71.67h0a1,1,0,0,1-.54-.63.14.14,0,0,1,0-.06l0-.1a.29.29,0,0,1,0-.09l0-.18c0-.05,0-.1,0-.15v-.12H6a.49.49,0,0,0,0-.12.28.28,0,0,0,0-.09v0H6v0s0-.05,0-.08l0-.12a.84.84,0,0,1,0-.12.61.61,0,0,1,0-.12l.06-.14.09-.16h0a.43.43,0,0,0,0-.07l.15-.16,0,0,.06-.05L6.71,9,6.81,9A.61.61,0,0,1,7,8.9H7l.06,0,.05,0H6.85l-.07,0h0l-.07,0,0,0h0a.91.91,0,0,0-.16.11l-.09.08,0,0,0,0a1.33,1.33,0,0,0-.14.19h0l0,.07a.59.59,0,0,0,0,.08s0,.1-.07.14v0l0,0v0a.56.56,0,0,0,0,.12h0l0,.11a.5.5,0,0,0,0,.12v.12h0v.06h0v.17ZM7.26,8.86Z"/><path class="cls-2" d="M6.06,10.17a.15.15,0,0,0,0,.07v-.07Z"/><path class="cls-2" d="M6.37,9.4l0,0h0Z"/><path class="cls-2" d="M5.84,10.55Z"/><path class="cls-2" d="M5.84,10.5v.05h0Z"/><path class="cls-1" d="M6.66,9.09a.88.88,0,0,1,1.46.46,2,2,0,0,1-.53,2.07.88.88,0,0,1-1.46-.47A1.94,1.94,0,0,1,6.66,9.09Z"/><path d="M7.37,11.78a.87.87,0,0,1-.59.06,1,1,0,0,1-.66-.68,2,2,0,0,1,.53-2.08h0a.92.92,0,0,1,.82-.21,1,1,0,0,1,.66.68,2,2,0,0,1-.53,2.08A1.5,1.5,0,0,1,7.37,11.78ZM6.66,9.09a2,2,0,0,0-.52,2.06,1,1,0,0,0,.64.66.87.87,0,0,0,.81-.2,2,2,0,0,0,.52-2.06,1,1,0,0,0-.64-.66.92.92,0,0,0-.81.2Z"/><path class="cls-3" d="M6.38,11h0a0,0,0,0,1,0,0,1.57,1.57,0,0,1,.43-1.67h0s0,0,0,0a1.54,1.54,0,0,0-.41,1.61A0,0,0,0,1,6.38,11Z"/><path d="M8.4,14.71h0s0,0,0,0l.1-.15h0l-.1.16Z"/><path d="M8.46,14.84h0v0l.1-.15h0l-.1.15Z"/><path d="M8.52,15h0v0l.09-.15h0s0,0,0,0L8.53,15Z"/><path d="M8.58,15.1h0l.09-.16h0s0,0,0,0l-.09.15Z"/><path d="M8.64,15.23h0s0,0,0,0l.09-.15h0s0,0,0,0l-.09.15Z"/><path d="M8.7,15.36h0s0,0,0,0l.09-.15h0s0,0,0,0l-.09.15Z"/><path d="M10.57,19.2h0l-.83-1.77v0a0,0,0,0,1,0,0l.83,1.77S10.57,19.2,10.57,19.2Z"/><path d="M10.64,19.36h0l-.06-.11h0s0,0,0,0l.06.11S10.65,19.35,10.64,19.36Z"/><path class="cls-2" d="M9.83,10.17a.12.12,0,0,1-.1,0l0,0-.12-.2h0L8.89,8.51a.11.11,0,0,0-.07-.06L8,8.21l1,.16a.1.1,0,0,1,.08.05l.82,1.63a.08.08,0,0,1,0,.07A.07.07,0,0,1,9.83,10.17Z"/><path d="M8.15,8.25,9,8.38s0,0,.07,0l.82,1.62a.06.06,0,0,1,0,.06.07.07,0,0,1,0,.05.08.08,0,0,1-.08,0l0,0-.12-.19h0L8.9,8.51a.1.1,0,0,0-.08-.07l-.67-.19m-.36-.08,1,.29a.11.11,0,0,1,.07.06l.68,1.41h0l.12.19,0,0h0a.12.12,0,0,0,.1,0A.1.1,0,0,0,9.88,10L9.06,8.42A.11.11,0,0,0,9,8.36L7.79,8.17Z"/><polygon class="cls-1" points="9.72 10.7 9.38 10.4 9.36 9.49 9.56 9.4 10.27 9.99 10.26 10.46 9.72 10.7"/><path d="M9.56,9.42l.7.57v.46l-.53.24L9.4,10.4l0-.9.18-.08m0,0-.21.1,0,.92.34.3.55-.24V10l-.72-.59Z"/><path class="cls-2" d="M11.44,9.74h1a0,0,0,0,1,0,0v9.34a.49.49,0,0,1-.49.49h0a.49.49,0,0,1-.49-.49V9.74a0,0,0,0,1,0,0Z" transform="translate(-5.1 6.46) rotate(-25.16)"/><path d="M14.15,19.05l-.26.13a.36.36,0,0,1-.47-.17l-4-8.6.9-.43,4,8.6A.35.35,0,0,1,14.15,19.05ZM9.41,10.42l4,8.58a.34.34,0,0,0,.44.16l.26-.13a.32.32,0,0,0,.16-.44l-4-8.58Z"/><path d="M11.3,14.3h0l.59-.68h0a0,0,0,0,1,0,0l-.59.67Z"/><path d="M11.46,14.64h0v0l.6-.67h0s0,0,0,0l-.59.68Z"/><path d="M11.64,15h0l.6-.68h0s0,0,0,0l-.59.68Z"/><path d="M11.81,15.38h0s0,0,0,0l.59-.67h0l-.59.68Z"/><path class="cls-3" d="M10.06,10h0l-.46-.41s0,0,0,0h0l.46.42s0,0,0,0Z"/><path d="M10.61,12.56h0l-.69-1.47v0h0l.69,1.47Z"/><path d="M10.84,13s0,0,0,0l-.13-.29a0,0,0,0,1,0,0h0l.13.29S10.84,13,10.84,13Z"/><path d="M14,18.32a0,0,0,0,1,0,0l-.35-.74v0h0l.35.74Z"/><path class="cls-2" d="M17.64,15.15,15.45,9l.2-.33-.33-.05-.3.52h0l2.19,6.18a1,1,0,0,0-.41,1.35,1,1,0,1,0,.84-1.49ZM18,16.8a.67.67,0,1,1-.57-1.22A.67.67,0,0,1,18,16.8Z"/><path d="M18.2,17.15a1.06,1.06,0,0,1-1-1.87L15,9.11h0l.3-.53.36,0L15.46,9l2.19,6.16a1.07,1.07,0,0,1,1.06.61A1.06,1.06,0,0,1,18.2,17.15ZM15,9.11l2.19,6.18h0a1,1,0,1,0,1.46.45,1,1,0,0,0-1-.59h0L15.43,9h0l.19-.31-.29-.05Zm3,7.7a.69.69,0,1,1,.33-.91A.69.69,0,0,1,18,16.81Zm-.58-1.22a.67.67,0,0,0-.31.88.65.65,0,0,0,.87.31.65.65,0,0,0,.32-.87A.67.67,0,0,0,17.46,15.59Z"/><polygon class="cls-2" points="16.14 7.82 15.82 8.35 15.65 8.64 15.32 8.59 15.49 8.3 15.69 7.95 14.16 5.3 14.55 5.07 16.14 7.82"/><path d="M15.65,8.65,15.3,8.6l.18-.31L15.67,8,14.14,5.29l.41-.24h0l1.6,2.76Zm-.3-.07.29,0,.48-.8L14.54,5.09l-.36.21L15.71,8Z"/><path class="cls-2" d="M19.13,15.54a1,1,0,0,0,1.9-.89,1.06,1.06,0,0,0-1.31-.54L16.37,8.48h0l-.6-.1-.17.28.39.05,3.35,5.64A1,1,0,0,0,19.13,15.54Zm.34-.16a.67.67,0,0,1,.32-.9.68.68,0,0,1,.9.33.67.67,0,0,1-.33.89A.66.66,0,0,1,19.47,15.38Z"/><path d="M19.11,15.55a1.08,1.08,0,0,1,.21-1.2L16,8.73l-.4-.06.19-.31.6.1h0l3.35,5.63a1.06,1.06,0,1,1-.62,1.46ZM15.78,8.39l-.15.26.36,0h0l3.36,5.64h0a1,1,0,1,0,.37-.24h0L16.36,8.49Zm3.67,7a.69.69,0,1,1,.92.33A.7.7,0,0,1,19.45,15.39Zm0,0a.67.67,0,0,0,.88.32.66.66,0,0,0,.31-.88.66.66,0,0,0-1.19.56Z"/><polygon class="cls-2" points="14.66 8.52 15.28 8.61 15.6 8.66 15.77 8.38 15.44 8.32 15.04 8.25 13.98 5.38 13.56 5.54 14.66 8.52"/><path d="M14.65,8.53l-1.1-3h0L14,5.36l1.07,2.88.39.06.35.06-.19.31ZM15,8.26,14,5.4l-.4.14,1.09,3,.92.14.16-.25Z"/><circle class="cls-1" cx="15.59" cy="8.45" r="0.41"/><path d="M15.78,8.84a.42.42,0,0,1-.57-.21.43.43,0,1,1,.57.21Zm-.35-.75a.39.39,0,0,0-.19.53A.39.39,0,1,0,16,8.28.4.4,0,0,0,15.43,8.09Z"/><path d="M18.16,12h0l-1.06-1.71a0,0,0,0,1,0,0h0L18.17,12s0,0,0,0Z"/><path d="M18.46,12.44h0l-.17-.28v0h0l.17.27v0Z"/><path d="M14.52,7.63h0l-.71-1.89s0,0,0,0h0l.71,1.89Z"/><path d="M14.73,8.14h0l-.12-.31v0h0l.12.31S14.74,8.13,14.73,8.14Z"/><path class="cls-3" d="M15.8,7.64s0,0,0,0L15,6.34s0,0,0,0,0,0,.05,0l.73,1.29a0,0,0,0,1,0,0Z"/><path class="cls-3" d="M17.13,14.64h0l0,0-.49-1.4s0,0,0,0,0,0,0,0l.49,1.4S17.15,14.64,17.13,14.64Z"/><rect class="cls-1" x="35.45" y="24.66" width="1.2" height="11.93"/><path d="M36.66,36.6H35.44v-12h1.22Zm-1.2,0h1.18V24.67H35.46Z"/><polygon class="cls-1" points="29.47 45.9 24.29 45.9 23.05 36.02 30.92 36.02 29.47 45.9"/><path d="M29.48,45.92h-5.2L23,36h7.9v0Zm-5.18,0h5.16L30.91,36H23.07Z"/><path class="cls-2" d="M41.26,44.4a1.36,1.36,0,0,1-1.89-.3l-4.69-6.47a1.35,1.35,0,0,0-1.1-.56H19.21a.3.3,0,0,1-.13,0,.32.32,0,0,1-.14-.14l-.06-.1-.07-.09,0,0,0,0,0,0,0,0,0,0,0-.05,0,0,0,0,0-.05,0,0,0-.06,0,0,0-.06-.05,0,0-.06,0-.06,0-.07,0-.06,0-.06-.05-.07L18,35.61,18,35.54l-.05-.07,0-.07-.05-.07-.06-.07,0-.08-.06-.08L17.58,35,17.52,35l-.06-.08-.06-.08,0-.08-.06-.08-.06-.09-.07-.08-.06-.09L17,34.29,17,34.2l-.07-.09L16.85,34l-.07-.09-.06-.09-.07-.09-.07-.09-.06-.1-.07-.09-.07-.09-.07-.1-.07-.1-.07-.09L16.1,33l-.07-.1-.07-.1-.07-.09-.07-.1-.08-.1-.07-.1-.07-.1-.08-.11-.07-.1-.07-.1-.08-.1-.07-.1-.08-.11-.07-.1-.08-.1-.07-.11-.08-.1-.07-.11-.08-.1L14.62,31l-.07-.1-.08-.1-.07-.11-.08-.11-.08-.1-.07-.11-.08-.1L14,30.11l-.07-.1-.08-.11-.07-.1-.08-.11-.08-.1-.07-.11-.08-.1-.07-.1-.08-.11-.07-.1L13.18,29l-.07-.1-.08-.1-.07-.1-.08-.11-.07-.1-.07-.1-.08-.1-.07-.1-.07-.1-.08-.1-.07-.1-.07-.1-.07-.1-.07-.09-.07-.1-.07-.1L12,27.27l-.07-.1-.07-.09-.07-.1-.06-.09-.07-.09-.07-.09-.06-.09-.07-.09-.06-.09-.06-.09-.07-.09-.06-.08-.06-.09L11,26,11,25.93l-.06-.09-.06-.08-.06-.08-.06-.08-.05-.07-.06-.08-.05-.08-.06-.07,0-.07-.05-.08-.05-.07L10.31,25l0-.07,0-.06-.05-.07-.05-.06,0-.07L10,24.62l0-.06,0-.06,0-.05,0-.06,0-.05,0-.06,0-.05,0-.05,0-.05,0,0,0-.05,0,0,0,0,0,0,0,0,0,0,0,0,0,0,0,0,0,0,0,0,0,0,0,0,0,0v0h0v0h0a1.37,1.37,0,0,1,.3-1.9,1.36,1.36,0,0,1,1.9.3L20,33.79a1.35,1.35,0,0,0,1.1.56H35.51a.3.3,0,0,1,.26.14,4.15,4.15,0,0,1,.24.34l.21.28.4.57.81,1.12.92,1.27.95,1.31.88,1.22.73,1,.49.67.12.17,0,0A1.36,1.36,0,0,1,41.26,44.4Z"/><path d="M40.47,44.67l-.22,0a1.34,1.34,0,0,1-.89-.55l-4.69-6.47a1.38,1.38,0,0,0-1.09-.55H19.21a.3.3,0,0,1-.13,0,.29.29,0,0,1-.15-.14v0l-.05-.07,0,0,0,0-2-2.7-.07-.09-.61-.84-.07-.1L16,32.8l-.07-.1-1.34-1.84-.08-.11L13.4,29.28l-.08-.1-1-1.32-.07-.1L10,24.57l0-.06-.65-.88v0l0,0h0l0,0h0a1.3,1.3,0,0,1-.24-1,1.35,1.35,0,0,1,.54-.9,1.39,1.39,0,0,1,.81-.26,1.38,1.38,0,0,1,1.11.57L20,33.79a1.38,1.38,0,0,0,1.09.55H35.51a.36.36,0,0,1,.27.15c.06.07.11.15.17.23l.07.11.07.09.14.2c.15.21.27.4.4.56l4.9,6.77h0l0,0a1.41,1.41,0,0,1,.24,1,1.37,1.37,0,0,1-.55.89h0A1.36,1.36,0,0,1,40.47,44.67ZM20.06,37.05H33.58a1.41,1.41,0,0,1,1.11.57l4.69,6.47a1.33,1.33,0,0,0,1.87.3h0a1.27,1.27,0,0,0,.54-.88,1.33,1.33,0,0,0-.24-1h0l0,0v0L36.6,35.69l-.39-.57a2.43,2.43,0,0,1-.14-.2L36,34.83l-.08-.11c-.05-.07-.1-.15-.16-.22a.3.3,0,0,0-.25-.14H21.13A1.39,1.39,0,0,1,20,33.8L11.41,21.93a1.32,1.32,0,0,0-1.08-.55A1.33,1.33,0,0,0,9,22.51a1.33,1.33,0,0,0,.24,1l0,0h0l0,0v0l.65.89,0,.06,2.31,3.18.07.1,1,1.32.08.11,1.06,1.47.08.1,1.34,1.85.07.1.14.19.07.1.61.84.07.09,2,2.7,0,0a.1.1,0,0,1,0,.05l.05.07v0c0,.05.08.11.13.13a.32.32,0,0,0,.13,0h.85Z"/><rect class="cls-2" x="22.1" y="45.9" width="9.77" height="1.59" rx="0.79"/><path d="M31.08,47.5H22.89a.81.81,0,0,1,0-1.61h8.19a.81.81,0,1,1,0,1.61Zm-8.19-1.58a.78.78,0,1,0,0,1.56h8.19a.78.78,0,0,0,0-1.56Z"/><rect class="cls-1" x="8.76" y="19.19" width="0.62" height="3.56" rx="0.31" transform="translate(-9.27 7.34) rotate(-30)"/><path d="M9.8,22.57H9.72a.34.34,0,0,1-.2-.15L8.05,19.86a.33.33,0,0,1,.12-.44.32.32,0,0,1,.44.12l1.47,2.55a.29.29,0,0,1,0,.24.33.33,0,0,1-.15.2h0A.29.29,0,0,1,9.8,22.57ZM8.33,19.4a.28.28,0,0,0-.15,0,.31.31,0,0,0-.11.41L9.54,22.4a.31.31,0,0,0,.41.11h0a.3.3,0,0,0,.14-.19.29.29,0,0,0,0-.22L8.59,19.55A.3.3,0,0,0,8.33,19.4Z"/><rect class="cls-2" x="6.92" y="16.87" width="2.74" height="4.02" rx="1.37" transform="translate(-4.22 2.48) rotate(-13.63)"/><path d="M8.43,20.89a1.39,1.39,0,0,1-.71-.2,1.41,1.41,0,0,1-.63-.86l-.3-1.25a1.38,1.38,0,0,1,2.69-.65l.3,1.25a1.39,1.39,0,0,1-1,1.67h0A1.86,1.86,0,0,1,8.43,20.89Zm-.29-4a1.24,1.24,0,0,0-.33,0,1.37,1.37,0,0,0-.84.61,1.43,1.43,0,0,0-.16,1l.31,1.25a1.29,1.29,0,0,0,.61.83,1.31,1.31,0,0,0,1,.16v0a1.35,1.35,0,0,0,1-1.63l-.3-1.25a1.33,1.33,0,0,0-.61-.84A1.38,1.38,0,0,0,8.14,16.9Z"/><polygon class="cls-1" points="36.87 24.09 35.83 24.59 28.55 14.05 24.91 14.05 24.91 16.19 23.71 16.19 23.71 13.04 29.25 13.04 36.87 24.09"/><path d="M35.82,24.6h0L28.55,14.06H24.92V16.2H23.69V13h5.57l7.63,11.05ZM24.89,14h3.67l7.27,10.53,1-.49-7.61-11H23.72v3.13h1.17Z"/><rect class="cls-2" x="32.22" y="22.37" width="6.99" height="2.71" rx="0.71"/><path d="M38.43,25.09H33a.8.8,0,0,1-.8-.79V23.15a.8.8,0,0,1,.8-.79h5.42a.79.79,0,0,1,.79.79V24.3A.79.79,0,0,1,38.43,25.09ZM33,22.38a.78.78,0,0,0-.78.77V24.3a.78.78,0,0,0,.78.77h5.42a.78.78,0,0,0,.77-.77V23.15a.78.78,0,0,0-.77-.77Z"/><path class="cls-2" d="M24.13,15.34a2.3,2.3,0,0,0-2.3,2.3h4.59A2.3,2.3,0,0,0,24.13,15.34Z"/><path d="M26.43,17.65H21.82a2.31,2.31,0,1,1,4.61,0Zm-4.59,0h4.57a2.29,2.29,0,0,0-4.57,0Z"/><rect class="cls-1" x="26.07" y="30.46" width="1.83" height="5.6" rx="0.92"/><path d="M27,36.06a.92.92,0,0,1-.93-.92V31.42a.93.93,0,1,1,1.85,0v3.72A.92.92,0,0,1,27,36.06Zm0-5.55a.91.91,0,0,0-.91.91v3.72a.91.91,0,0,0,1.81,0V31.42A.91.91,0,0,0,27,30.51Z"/><path d="M17.38,33.45a.11.11,0,0,1-.09-.05l-5.63-7.78a.11.11,0,0,1,0-.15.1.1,0,0,1,.14,0l5.63,7.78a.1.1,0,0,1,0,.15Z"/><rect class="cls-2" x="22.18" y="29.68" width="9.58" height="2.02" rx="1.01"/><path d="M30.74,31.72H23.19a1,1,0,1,1,0-2h7.55a1,1,0,1,1,0,2Zm-7.55-2a1,1,0,1,0,0,2h7.55a1,1,0,1,0,0-2Z"/><path d="M18.15,34.5a.09.09,0,0,1-.08,0l-.51-.61a.11.11,0,0,1,0-.15.1.1,0,0,1,.15,0l.51.61a.11.11,0,0,1,0,.15Z"/><path class="cls-3" d="M40,42a.21.21,0,0,1-.16-.08l-4.22-5.77a.19.19,0,0,1,.05-.27.18.18,0,0,1,.27,0l4.22,5.77a.2.2,0,0,1,0,.27A.19.19,0,0,1,40,42Z"/><path class="cls-3" d="M24.67,44.65a.17.17,0,0,1-.17-.15l-.68-5.38a.18.18,0,0,1,.15-.19.17.17,0,0,1,.19.15l.68,5.38a.18.18,0,0,1-.15.19Z"/><path class="cls-3" d="M37.58,23.07h0l-3.07,0a.15.15,0,0,1-.14-.15.14.14,0,0,1,.14-.14h0l3.06,0a.15.15,0,0,1,.15.15A.15.15,0,0,1,37.58,23.07Z"/></svg>