<svg xmlns="http://www.w3.org/2000/svg" width="56" height="56" viewBox="0 0 56 56">
  <g id="Group_21488" data-name="Group 21488" transform="translate(-464 -3903)">
    <circle id="Ellipse_2253" data-name="Ellipse 2253" cx="28" cy="28" r="28" transform="translate(464 3903)" fill="rgba(255,202,1,0.14)"/>
    <g id="pay_3_" data-name="pay (3)" transform="translate(478 3917)">
      <path id="Path_42248" data-name="Path 42248" d="M75.284,331.81a1.955,1.955,0,0,1-1.885-1.443c-.008-.029-.008-.059-.014-.089l-5.369-2.9a.956.956,0,0,0-.478-.127,1.008,1.008,0,0,0-.187.017.918.918,0,0,0-.244.079.957.957,0,0,0-.419.387.99.99,0,0,0-.131.487.969.969,0,0,0,.485.846l8.887,5.318a1.467,1.467,0,0,0,.777.223h6.868a1.468,1.468,0,0,0,.536-.1l1.79-.707v-5.251L84.158,327.5a1.461,1.461,0,0,0-.751-.208H81.538a3.411,3.411,0,0,0-.881.116l-5.627,1.505a.985.985,0,0,0-.718.86v.159a.888.888,0,0,0,.028.18.975.975,0,0,0,.943.718c.059,0,.346-.064.568-.115l5.048-1.351.251.942-5.064,1.355a4.762,4.762,0,0,1-.8.144Zm0,0" transform="translate(-62.503 -307.31)" fill="#ffca01"/>
      <path id="Path_42249" data-name="Path 42249" d="M400,320h2.925v7.8H400Zm0,0" transform="translate(-375.627 -300.502)" fill="#ffca01"/>
      <path id="Path_42250" data-name="Path 42250" d="M0,0H2.925V8.774H0ZM0,0" fill="#ffca01"/>
      <path id="Path_42251" data-name="Path 42251" d="M65.663,7.671A4.4,4.4,0,0,0,67.9,8.4V6.044a3.544,3.544,0,0,1-1-.56l-.286-.232.614-.757.283.229A2.584,2.584,0,0,0,70.8,4.676l.341-.293L74.017,7.26A.977.977,0,1,0,75.4,5.875l-3.44-3.444.689-.689,1.183,1.183h4.022L75.926,1a3.389,3.389,0,0,0-2.413-1H67.385a1.463,1.463,0,0,0-.654.154L65.638.7A2.447,2.447,0,0,1,64.46.956L64,.94V7.312h1.121Zm0,0" transform="translate(-60.1 0)" fill="#ffca01"/>
      <path id="Path_42252" data-name="Path 42252" d="M144,66.349v8.375h18.523V64H149.929l.975.975h8.207v.487a1.95,1.95,0,0,0,1.95,1.95h.487v3.9h-.487a1.95,1.95,0,0,0-1.95,1.95v.487h-11.7v-.487a1.95,1.95,0,0,0-1.95-1.95h-.487v-3.9h.487a1.945,1.945,0,0,0,1.565-.792l-.832-.832a3.545,3.545,0,0,1-2.2.561Zm0,0" transform="translate(-135.226 -60.1)" fill="#ffca01"/>
      <path id="Path_42253" data-name="Path 42253" d="M179.886,98.666a1.95,1.95,0,0,1-1.378-.565l-.735-.736A2.91,2.91,0,0,1,176,98.4v2.031a2.933,2.933,0,0,1,2.4,2.4h9.83a2.933,2.933,0,0,1,2.4-2.4V98.4a2.933,2.933,0,0,1-2.4-2.4H181.7a1.917,1.917,0,0,1-.16,1.75,2.437,2.437,0,1,1-.277.353,1.963,1.963,0,0,1-1.376.563Zm0,0" transform="translate(-165.276 -90.151)" fill="#ffca01"/>
      <path id="Path_42254" data-name="Path 42254" d="M274.925,129.462A1.462,1.462,0,1,1,273.462,128,1.462,1.462,0,0,1,274.925,129.462Zm0,0" transform="translate(-255.427 -120.201)" fill="#ffca01"/>
    </g>
  </g>
</svg>
