<svg xmlns="http://www.w3.org/2000/svg" width="24.523" height="24.525" viewBox="0 0 24.523 24.525">
  <g id="wallet_2_" data-name="wallet (2)" transform="translate(0.1 0.101)">
    <g id="Group_11238" data-name="Group 11238" transform="translate(10.813 15.862)">
      <g id="Group_11237" data-name="Group 11237">
        <path id="Path_40288" data-name="Path 40288" d="M228.85,333.891a1.235,1.235,0,1,0,1.235,1.235A1.237,1.237,0,0,0,228.85,333.891Zm0,1.52a.285.285,0,1,1,.285-.285A.285.285,0,0,1,228.85,335.411Z" transform="translate(-227.615 -333.891)" fill="#fff" stroke="#fff" stroke-width="0.2"/>
      </g>
    </g>
    <g id="Group_11240" data-name="Group 11240" transform="translate(15.051 14.149)">
      <g id="Group_11239" data-name="Group 11239">
        <path id="Path_40289" data-name="Path 40289" d="M317.619,297.958a.475.475,0,1,0,.139.336A.478.478,0,0,0,317.619,297.958Z" transform="translate(-316.808 -297.819)" fill="#fff" stroke="#fff" stroke-width="0.2"/>
      </g>
    </g>
    <g id="Group_11242" data-name="Group 11242" transform="translate(0 0)">
      <g id="Group_11241" data-name="Group 11241" transform="translate(0 0)">
        <path id="Path_40290" data-name="Path 40290" d="M21.955,6.841h-.512l-6.7-6.7a.475.475,0,0,0-.672,0L12.353,1.856,5.487.017a.475.475,0,0,0-.582.336L3.167,6.841H2a2,2,0,0,0-2,2c0,.026,0,.053,0,.079s0,.026,0,.04V21.949a2.378,2.378,0,0,0,2.375,2.375H21.955a2.378,2.378,0,0,0,2.375-2.375V9.216A2.378,2.378,0,0,0,21.955,6.841Zm-.424.95h.424A1.427,1.427,0,0,1,23.38,9.216v3.807a1.127,1.127,0,0,1-1.126,1.126h-.489V12.256a2.378,2.378,0,0,0-2.326-2.374Zm-8.7-5.069h0l1.575-1.575L20.618,7.36,18.112,9.866h-.869L18.38,8.729a.475.475,0,0,0,0-.672.987.987,0,0,1,0-1.395.475.475,0,0,0,0-.672l-2.6-2.6a.475.475,0,0,0-.672,0,.987.987,0,0,1-1.395,0,.475.475,0,0,0-.672,0l-6.48,6.48H5.687Zm-1.4,5.359A2.27,2.27,0,0,0,9.218,9.866H7.9l5.514-5.514a1.943,1.943,0,0,0,1.983,0l2.016,2.016a1.944,1.944,0,0,0,0,1.983L15.9,9.866H13.648A2.27,2.27,0,0,0,11.433,8.081Zm1.225,1.785h-2.45a1.316,1.316,0,0,1,2.45,0ZM5.185,9.024l1.258-4.7a1.942,1.942,0,0,0,1.718-.992L10.3,3.91l-3.1,3.1ZM5.7,1.057l5.877,1.575-.5.5-3.07-.823a.475.475,0,0,0-.582.336.986.986,0,0,1-1.208.7.475.475,0,0,0-.582.336l-1.662,6.2H3.336ZM2,7.791h.91l-.56,2.09H2a1.045,1.045,0,1,1,0-2.09ZM23.38,21.948a1.427,1.427,0,0,1-1.425,1.425h-.666a2.363,2.363,0,0,0,.476-1.425V20.04h.285a2.267,2.267,0,0,0,1.33-.43Zm0-4.188a1.332,1.332,0,0,1-1.33,1.33H12.074a2,2,0,1,1,0-3.991h1.44a.475.475,0,0,0,0-.95h-1.44a2.945,2.945,0,1,0,0,5.891h8.741v1.909a1.427,1.427,0,0,1-1.4,1.425H3.237v-5.35a.475.475,0,1,0-.95,0v5.346a1.427,1.427,0,0,1-1.33-1.422V10.535a1.983,1.983,0,0,0,1.045.3H19.39a1.427,1.427,0,0,1,1.425,1.425v1.893H17.38a.475.475,0,0,0,0,.95h4.874a2.063,2.063,0,0,0,1.126-.333V17.76Z" transform="translate(-0.007 0)" fill="#fff" stroke="#fff" stroke-width="0.2"/>
      </g>
    </g>
    <g id="Group_11244" data-name="Group 11244" transform="translate(2.28 15.696)">
      <g id="Group_11243" data-name="Group 11243">
        <path id="Path_40291" data-name="Path 40291" d="M48.817,330.527a.475.475,0,1,0,.139.336A.479.479,0,0,0,48.817,330.527Z" transform="translate(-48.006 -330.388)" fill="#fff" stroke="#fff" stroke-width="0.2"/>
      </g>
    </g>
  </g>
</svg>
