<svg id="user_18_" data-name="user (18)" xmlns="http://www.w3.org/2000/svg" width="77.199" height="77.199" viewBox="0 0 77.199 77.199">
  <g id="Group_20476" data-name="Group 20476">
    <path id="Path_50250" data-name="Path 50250" d="M38.6,0A38.6,38.6,0,1,0,77.2,38.6,38.644,38.644,0,0,0,38.6,0Zm0,11.258a18.5,18.5,0,1,1-18.5,18.5A18.517,18.517,0,0,1,38.6,11.258Zm0,59.508A32.1,32.1,0,0,1,12.9,57.857c6.435-3.1,15.624-6.391,25.7-6.391s19.271,3.3,25.7,6.39A32.1,32.1,0,0,1,38.6,70.766Z" fill="#fff"/>
  </g>
</svg>
