<svg xmlns="http://www.w3.org/2000/svg" width="18.015" height="21.91" viewBox="0 0 18.015 21.91">
  <g id="shield" transform="translate(-45.51)">
    <g id="Group_20148" data-name="Group 20148" transform="translate(45.51 0)">
      <g id="Group_20147" data-name="Group 20147" transform="translate(0 0)">
        <path id="Path_50173" data-name="Path 50173" d="M63.068,2.679A19.47,19.47,0,0,1,54.756.063a.487.487,0,0,0-.477,0,19.469,19.469,0,0,1-8.312,2.616.487.487,0,0,0-.456.486v9.251a7.431,7.431,0,0,0,1.42,4.33,12.009,12.009,0,0,0,3.051,2.924,18.646,18.646,0,0,0,4.387,2.217.487.487,0,0,0,.3,0,18.65,18.65,0,0,0,4.387-2.217A12.006,12.006,0,0,0,62.1,16.745a7.431,7.431,0,0,0,1.42-4.33V3.165A.487.487,0,0,0,63.068,2.679Zm-.517,9.737c0,2.422-1.356,4.588-4.031,6.439a18.23,18.23,0,0,1-4,2.054,18.171,18.171,0,0,1-3.984-2.041c-2.687-1.853-4.05-4.024-4.05-6.452v-8.8a20.527,20.527,0,0,0,8.034-2.572,20.529,20.529,0,0,0,8.034,2.572v8.8Z" transform="translate(-45.51 0)" fill="#63c7db"/>
        <path id="Path_50174" data-name="Path 50174" d="M192.472,150.377c-.069-.414-.14-.838-.2-1.259a2.921,2.921,0,1,0-3.233,0c-.063.421-.134.846-.2,1.259-.141.846-.287,1.721-.37,2.591a.487.487,0,0,0,.485.533h3.408a.487.487,0,0,0,.485-.533C192.759,152.1,192.614,151.223,192.472,150.377Zm-1.214-1.448c.075.538.165,1.082.253,1.608.109.654.221,1.326.3,1.99h-2.322c.082-.664.193-1.336.3-1.99.088-.526.178-1.07.253-1.608a.487.487,0,0,0-.264-.5,1.948,1.948,0,1,1,1.74,0A.487.487,0,0,0,191.259,148.929Z" transform="translate(-181.646 -137.611)" fill="#63c7db"/>
        <path id="Path_50175" data-name="Path 50175" d="M97.86,51.692a21.806,21.806,0,0,1-6.429,2.16.487.487,0,0,0-.409.481v7.512c0,2.066,1.2,3.951,3.556,5.6A17.325,17.325,0,0,0,97.9,69.225a.487.487,0,0,0,.364,0c.358-.144.919-.386,1.555-.717a.487.487,0,1,0-.449-.864c-.5.261-.955.464-1.287.6a16.229,16.229,0,0,1-2.946-1.6C93.052,65.189,92,63.574,92,61.844v-7.1a22.87,22.87,0,0,0,6.086-2.072,22.871,22.871,0,0,0,6.086,2.072v7.1a5.12,5.12,0,0,1-1.736,3.646.487.487,0,0,0,.684.693,6.052,6.052,0,0,0,2.025-4.339V54.332a.487.487,0,0,0-.409-.481,21.8,21.8,0,0,1-6.429-2.16A.487.487,0,0,0,97.86,51.692Z" transform="translate(-89.074 -49.429)" fill="#63c7db"/>
        <path id="Path_50176" data-name="Path 50176" d="M318.622,400.539l-.045.045a.487.487,0,1,0,.685.692l.052-.052a.487.487,0,0,0-.691-.686Z" transform="translate(-306.753 -383.261)" fill="#63c7db"/>
      </g>
    </g>
  </g>
</svg>
