<svg xmlns="http://www.w3.org/2000/svg" width="34.709" height="38.684" viewBox="0 0 34.709 38.684">
  <g id="return" transform="translate(-26.1)">
    <g id="Group_12378" data-name="Group 12378" transform="translate(26.1)">
      <g id="Group_12377" data-name="Group 12377" transform="translate(0)">
        <path id="Path_42245" data-name="Path 42245" d="M43.454,0a17.352,17.352,0,0,0-.617,34.693v3.99l4.592-4.592L42.838,29.5v3.96a16.115,16.115,0,1,1,16.73-16.105h1.241A17.371,17.371,0,0,0,43.454,0Zm.617,32.485,1.6,1.6-1.6,1.6Z" transform="translate(-26.1)" fill="#fff"/>
      </g>
    </g>
    <g id="Group_12380" data-name="Group 12380" transform="translate(34.157 8.057)">
      <g id="Group_12379" data-name="Group 12379" transform="translate(0)">
        <path id="Path_42246" data-name="Path 42246" d="M131.9,105.8v18.6h18.6V105.8Zm7.44,1.241h3.716v2.482H139.34Zm9.915,16.113H133.141V107.041H138.1v3.716h6.2v-3.716h4.957Z" transform="translate(-131.9 -105.8)" fill="#fff"/>
      </g>
    </g>
    <g id="Group_12382" data-name="Group 12382" transform="translate(46.287 18.9)">
      <g id="Group_12381" data-name="Group 12381">
        <path id="Path_42247" data-name="Path 42247" d="M293.325,248.2l-2.125,2.383.929.822.579-.647v2.711h1.241v-2.711l.571.647.929-.822Z" transform="translate(-291.2 -248.2)" fill="#fff"/>
      </g>
    </g>
    <g id="Group_12384" data-name="Group 12384" transform="translate(41.132 18.9)">
      <g id="Group_12383" data-name="Group 12383" transform="translate(0)">
        <path id="Path_42248" data-name="Path 42248" d="M225.625,248.2l-2.125,2.383.929.822.571-.647v2.711h1.241v-2.711l.579.647.921-.822Z" transform="translate(-223.5 -248.2)" fill="#fff"/>
      </g>
    </g>
  </g>
</svg>
