<svg xmlns="http://www.w3.org/2000/svg" width="32.922" height="38" viewBox="0 0 32.922 38">
  <path id="Shape" d="M1.27,38h30.4a1.256,1.256,0,0,0,1.261-1.273V34.169c-.21-4.267-2.533-4.983-2.627-5.01l-8.134-2.4V23.214a4.53,4.53,0,0,0,1.441-2.947h1.726a1.9,1.9,0,0,0,1.9-1.9v-3.8a1.9,1.9,0,0,0-1.267-1.783V8.867C25.97,3.812,21.886,0,16.47,0s-9.5,3.812-9.5,8.867v3.917A1.9,1.9,0,0,0,5.7,14.567v3.8A1.9,1.9,0,0,0,6.97,20.15v.75A2.533,2.533,0,0,0,9.5,23.433H10.77V26.76l-8.129,2.4C2.543,29.186.221,29.9.01,34.2v2.516A1.257,1.257,0,0,0,1.27,38ZM8.237,10.2A8.043,8.043,0,0,1,16.47,3.8,8.073,8.073,0,0,1,24.7,10.2v2.47h-.783c-.633-2.669-1.857-3.489-2-3.575-1.763-1.058-7.279-.883-9.345-.75a2.435,2.435,0,0,0-1.6.683,8.389,8.389,0,0,0-1.909,3.642H8.237Zm3.8,14.364c1.036,1.343,1.524,2.673,3.434,2.673,2.871,0,3.386.263,4.88-1.908.168-.244.35-.5.554-.768v2.576c-1.018,2.695-7.87,2.672-8.867,0Zm9.006-2.019c-1.976,1.774-2.034,3.425-3.574,3.425-2.735,0-2.717.266-3.835-1.359-.241-.351-.526-.753-.88-1.174h1.359a1.262,1.262,0,0,0,1.091.633h2.533A1.267,1.267,0,0,0,19,22.8V21.533a1.267,1.267,0,0,0-1.267-1.267H15.2a1.267,1.267,0,0,0-1.267,1.267v.633H11.53a3.9,3.9,0,0,1-.944-3.274,9.164,9.164,0,0,0-.182-2.766,6.409,6.409,0,0,1-.1-3.207,7.086,7.086,0,0,1,1.565-3,1.193,1.193,0,0,1,.782-.317c2.06-.132,6.729-.289,8.62.576A5.758,5.758,0,0,1,22.8,14.4c-.146,1.528-.467,2.28-.467,3.483,0,1.968.391,3.143-1.29,4.655ZM15.2,22.8V21.533h2.533V22.8ZM25.97,18.367a.633.633,0,0,1-.633.633h-1.71c-.1-2.715.2-2.027.432-4.477a5.378,5.378,0,0,0,.011-.59h1.267a.633.633,0,0,1,.633.633ZM24.275,6.323a9.09,9.09,0,0,0-7.805-3.79,9.09,9.09,0,0,0-7.805,3.79C11.023-.44,21.917-.431,24.275,6.323ZM6.97,14.567a.633.633,0,0,1,.633-.633H8.878a11.791,11.791,0,0,0,.281,2.43A8.438,8.438,0,0,1,9.313,19H7.6a.633.633,0,0,1-.633-.633ZM8.237,20.9v-.633H9.329a4.338,4.338,0,0,0,.61,1.9H9.5A1.267,1.267,0,0,1,8.237,20.9ZM3,30.374,11.055,28c.5.884,1.876,2.4,5.416,2.4s4.914-1.52,5.416-2.407l8.05,2.375c.063.022,1.569.57,1.731,3.828v2.536H1.276v-2.5C1.439,30.938,2.941,30.393,3,30.374Z" transform="translate(-0.01)" fill="#fff"/>
</svg>
