<svg xmlns="http://www.w3.org/2000/svg" xmlns:xlink="http://www.w3.org/1999/xlink" width="372.595" height="270.455" viewBox="0 0 372.595 270.455">
  <defs>
    <clipPath id="clip-path">
      <path id="Path_40816" data-name="Path 40816" d="M287.845,240.858c7.709-23.562,19.354-59.167-6.283-75.348-8.763-5.528-17.268-8.218-26.007-8.218-9.419,0-17.111,3.261-22.727,5.643-2.574,1.092-5.778,2.451-7.057,2.451s-4.482-1.36-7.056-2.451c-5.616-2.381-13.307-5.643-22.726-5.643-8.737,0-17.244,2.69-26.007,8.218-25.639,16.181-13.992,51.786-6.286,75.348,2.383,7.285,4.634,14.167,4.972,17.887.595,6.543-.066,14.912-.769,23.77-1.114,14.079-2.265,28.636,1.078,40.91,5.663,20.781,23.717,35.884,24.483,36.517a9.868,9.868,0,0,0,5.8,2.254c.183.01.368.016.554.016a9.914,9.914,0,0,0,9.558-12.509c-.846-4.987-5.163-33.074,1.344-50.991,4.854-13.366,12-20.389,15.059-22.252,3.062,1.863,10.206,8.886,15.061,22.252,7.125,19.621,1.269,51.44,1.209,51.76a9.9,9.9,0,0,0,16.04,9.47c.766-.633,18.821-15.736,24.483-36.519,3.343-12.277,2.192-26.837,1.077-40.918-.7-8.855-1.363-17.221-.77-23.764C283.21,255.025,285.461,248.143,287.845,240.858Z" transform="translate(-154.257 -157.292)" fill="none"/>
    </clipPath>
    <linearGradient id="linear-gradient" y1="0.5" x2="1" y2="0.5" gradientUnits="objectBoundingBox">
      <stop offset="0" stop-color="#27607f" stop-opacity="0.6"/>
      <stop offset="1" stop-color="#27607f"/>
    </linearGradient>
  </defs>
  <g id="Group_15801" data-name="Group 15801" transform="translate(-224 -227)">
    <path id="Path_40998" data-name="Path 40998" d="M464.125-1645.219H455.6s-38.634,10.286-58.452-11.79c0,0-6.523-6.272-4.517-22.328,0,0,9.283-18.062,4.517-37.63,0,0-8.279-44.654,40.891-56.445,0,0,26.341-3.763,19.317-33.616,0,0,16.307-48.167,72-45.658,0,0,16.055,3.763,34.118-22.328,0,0,28.6-23.833,68.989-7.275,0,0,36.626,10.536,54.354,53.685,0,0,5.6,9.157,13.128,11.666,0,0,47.916,17.184,31.108,66.856,0,0-1.255,13.045,8.53,20.821,0,0,36.375,17.812,21.824,41.142a22.532,22.532,0,0,1-10.034,12.292s-8.53,7.024-7.526,17.31c0,0,.753,14.319-22.829,15.689Z" transform="translate(-168.244 2139.728)" fill="#1259b0" opacity="0.07" style="isolation: isolate"/>
    <g id="Group_11477" data-name="Group 11477" transform="translate(256.088 227)">
      <g id="Group_11398" data-name="Group 11398" transform="translate(33.583 120.397)">
        <path id="Path_40727" data-name="Path 40727" d="M170.8,358.78c-42.735-19.316-74.525-59.973-82.966-106.1l1.226-.224c8.368,45.733,39.885,86.04,82.253,105.19Z" transform="translate(-76.182 -239.205)" fill="#63c7db"/>
        <g id="Group_11397" data-name="Group 11397">
          <path id="Path_40728" data-name="Path 40728" d="M89.223,257.07a30.054,30.054,0,0,1-6.171-17.4c-.06-1.589.062-3.378,1.033-4.462a1.389,1.389,0,0,1,.964-.534c.578,0,1.034.569,1.368,1.138,1.769,3.015,2.118,6.94,2.125,10.676s.42,6.525.681,10.584" transform="translate(-74.961 -234.672)" fill="#63c7db"/>
          <path id="Path_40729" data-name="Path 40729" d="M96.719,274.71a27.414,27.414,0,0,1,2.2-18.955c.728-1.417,1.746-2.892,3.3-3.228a1.785,1.785,0,0,1,1.276.139,2.287,2.287,0,0,1,.867,1.841c.352,3.721-1.236,7.346-3.088,10.593s-2.807,5.924-4.554,9.61" transform="translate(-78.247 -239.209)" fill="#63c7db"/>
          <path id="Path_40730" data-name="Path 40730" d="M105.282,295.755a27.412,27.412,0,0,1-.139-19.081c.549-1.5,1.379-3.084,2.884-3.608a1.789,1.789,0,0,1,1.283-.019,2.286,2.286,0,0,1,1.086,1.722c.805,3.65-.328,7.442-1.769,10.891s-2.062,6.223-3.345,10.094" transform="translate(-80.176 -244.426)" fill="#63c7db"/>
          <path id="Path_40731" data-name="Path 40731" d="M116.653,315.187a27.414,27.414,0,0,1-.139-19.082c.549-1.5,1.379-3.084,2.884-3.608a1.783,1.783,0,0,1,1.282-.018,2.289,2.289,0,0,1,1.086,1.721c.8,3.65-.329,7.442-1.77,10.891s-2.062,6.224-3.345,10.1" transform="translate(-83.075 -249.379)" fill="#63c7db"/>
          <path id="Path_40732" data-name="Path 40732" d="M134.55,338.711a27.415,27.415,0,0,1-2.115-18.965c.392-1.544,1.053-3.21,2.5-3.886a1.783,1.783,0,0,1,1.274-.151,2.284,2.284,0,0,1,1.258,1.6c1.179,3.547.445,7.435-.631,11.015s-1.406,6.4-2.281,10.387" transform="translate(-87.344 -255.313)" fill="#63c7db"/>
          <path id="Path_40733" data-name="Path 40733" d="M149.264,354.605a29.262,29.262,0,0,1-3.3-18.307c.22-1.576.664-3.312,1.862-4.194a1.477,1.477,0,0,1,1.092-.342c.6.107.969.758,1.214,1.381,1.3,3.306.96,7.236.305,10.915s-.723,6.5-1.173,10.547" transform="translate(-90.927 -259.418)" fill="#63c7db"/>
          <path id="Path_40734" data-name="Path 40734" d="M92.873,285.111a29.7,29.7,0,0,1-18.3-8.049c-1.226-1.157-2.436-2.619-2.376-4.258a1.748,1.748,0,0,1,.46-1.215,2.274,2.274,0,0,1,2.05-.283c3.79.808,6.994,3.5,9.756,6.332s5.184,4.607,8.408,7.473" transform="translate(-72.197 -243.983)" fill="#63c7db"/>
          <path id="Path_40735" data-name="Path 40735" d="M99.463,302.994a29.7,29.7,0,0,1-19.69-3.448c-1.466-.832-2.991-1.963-3.325-3.568a1.753,1.753,0,0,1,.156-1.29,2.274,2.274,0,0,1,1.923-.764c3.874-.121,7.627,1.728,10.986,3.82s6.134,3.236,9.949,5.249" transform="translate(-73.268 -249.775)" fill="#63c7db"/>
          <path id="Path_40736" data-name="Path 40736" d="M111.2,324.1a29.7,29.7,0,0,1-19.982.561c-1.6-.522-3.323-1.324-3.971-2.831a1.749,1.749,0,0,1-.105-1.294,2.274,2.274,0,0,1,1.732-1.133c3.771-.893,7.818.168,11.527,1.545s6.657,1.943,10.8,3.152" transform="translate(-75.985 -256.186)" fill="#63c7db"/>
          <path id="Path_40737" data-name="Path 40737" d="M129.451,346.208a29.7,29.7,0,0,1-19.609-3.885c-1.448-.864-2.946-2.028-3.244-3.641a1.754,1.754,0,0,1,.185-1.285,2.274,2.274,0,0,1,1.94-.721c3.874-.034,7.587,1.9,10.9,4.063s6.06,3.372,9.83,5.47" transform="translate(-80.956 -260.673)" fill="#63c7db"/>
          <path id="Path_40738" data-name="Path 40738" d="M144.416,363.968a29.708,29.708,0,0,1-19.258,5.358c-1.682-.12-3.544-.485-4.536-1.791a1.754,1.754,0,0,1-.414-1.231c.085-.7.758-1.182,1.407-1.517,3.445-1.775,7.628-1.721,11.56-1.278s6.929.283,11.24.459" transform="translate(-84.433 -267.447)" fill="#63c7db"/>
        </g>
      </g>
      <g id="Group_11400" data-name="Group 11400" transform="translate(0 205.054)">
        <path id="Path_40739" data-name="Path 40739" d="M134.968,393.4a107.349,107.349,0,0,0-95.35-23.949l-.215-.893a108.279,108.279,0,0,1,96.177,24.158Z" transform="translate(-30.255 -352.724)" fill="#43aadd"/>
        <g id="Group_11399" data-name="Group 11399">
          <path id="Path_40740" data-name="Path 40740" d="M43.454,368.04a20.184,20.184,0,0,0-13.94,1.752,4.053,4.053,0,0,0-2.352,2.456,1.315,1.315,0,0,0,.111.938,1.683,1.683,0,0,0,1.361.625c2.743.232,5.4-.963,7.777-2.349s4.342-2.109,7.043-3.421" transform="translate(-27.125 -353.189)" fill="#63c7db"/>
          <path id="Path_40741" data-name="Path 40741" d="M57.472,366.883a20.184,20.184,0,0,0-12.1,7.136,4.056,4.056,0,0,0-1.186,3.187,1.316,1.316,0,0,0,.474.817,1.687,1.687,0,0,0,1.5.034c2.61-.873,4.575-3.024,6.207-5.24s3.149-3.658,5.108-5.934" transform="translate(-31.461 -353.03)" fill="#63c7db"/>
          <path id="Path_40742" data-name="Path 40742" d="M74.044,366.532a20.185,20.185,0,0,0-12.883,5.6,4.053,4.053,0,0,0-1.567,3.018,1.313,1.313,0,0,0,.371.869,1.681,1.681,0,0,0,1.482.217c2.7-.548,4.911-2.443,6.8-4.442s3.573-3.246,5.8-5.265" transform="translate(-35.4 -352.941)" fill="#63c7db"/>
          <path id="Path_40743" data-name="Path 40743" d="M90.516,368.383a20.182,20.182,0,0,0-12.883,5.6A4.05,4.05,0,0,0,76.066,377a1.313,1.313,0,0,0,.37.869,1.683,1.683,0,0,0,1.483.217c2.7-.548,4.91-2.442,6.8-4.442s3.573-3.246,5.8-5.265" transform="translate(-39.599 -353.412)" fill="#63c7db"/>
          <path id="Path_40744" data-name="Path 40744" d="M111.587,373.635a20.189,20.189,0,0,0-13.394,4.239,4.054,4.054,0,0,0-1.871,2.84,1.317,1.317,0,0,0,.279.9,1.685,1.685,0,0,0,1.452.369c2.739-.266,5.137-1.921,7.225-3.714s3.889-2.858,6.309-4.637" transform="translate(-44.764 -354.744)" fill="#63c7db"/>
          <path id="Path_40745" data-name="Path 40745" d="M126.579,378.941a21.545,21.545,0,0,0-13.306,3.244,4.555,4.555,0,0,0-2.267,2.506,1.086,1.086,0,0,0,.1.837,1.442,1.442,0,0,0,1.291.405c2.612-.115,5.157-1.514,7.437-3.053s4.16-2.427,6.748-3.938" transform="translate(-48.497 -356.08)" fill="#63c7db"/>
          <path id="Path_40746" data-name="Path 40746" d="M62.8,363.028a21.864,21.864,0,0,0-10.879-9.911,4.481,4.481,0,0,0-3.576-.328,1.288,1.288,0,0,0-.68.672,1.674,1.674,0,0,0,.422,1.463c1.675,2.31,4.442,3.663,7.174,4.675s4.648,2.113,7.54,3.428" transform="translate(-32.348 -349.372)" fill="#63c7db"/>
          <path id="Path_40747" data-name="Path 40747" d="M76.832,362.158a21.868,21.868,0,0,0-8.2-12.222,4.488,4.488,0,0,0-3.394-1.172,1.29,1.29,0,0,0-.821.49,1.676,1.676,0,0,0,.06,1.522c1.076,2.643,3.44,4.617,5.851,6.253s4.009,3.161,6.5,5.128" transform="translate(-36.59 -348.398)" fill="#63c7db"/>
          <path id="Path_40748" data-name="Path 40748" d="M94.633,363.733a21.866,21.866,0,0,0-5.588-13.615,4.484,4.484,0,0,0-3.091-1.827,1.291,1.291,0,0,0-.9.316,1.676,1.676,0,0,0-.246,1.5c.525,2.8,2.447,5.212,4.482,7.3s3.3,3.9,5.346,6.326" transform="translate(-41.812 -348.291)" fill="#63c7db"/>
          <path id="Path_40749" data-name="Path 40749" d="M114.862,369.437a21.871,21.871,0,0,0-8.469-12.037,4.488,4.488,0,0,0-3.419-1.1,1.288,1.288,0,0,0-.81.509,1.675,1.675,0,0,0,.094,1.52c1.134,2.618,3.541,4.54,5.988,6.121s4.078,3.072,6.616,4.983" transform="translate(-46.215 -350.317)" fill="#63c7db"/>
          <path id="Path_40750" data-name="Path 40750" d="M131.638,374.066a21.87,21.87,0,0,0-2.144-14.561,4.487,4.487,0,0,0-2.56-2.518,1.286,1.286,0,0,0-.951.089,1.673,1.673,0,0,0-.6,1.4c-.166,2.848,1.119,5.648,2.591,8.161s2.259,4.579,3.665,7.428" transform="translate(-52.168 -350.495)" fill="#63c7db"/>
        </g>
      </g>
      <g id="Group_11402" data-name="Group 11402" transform="translate(186.15 88.507)">
        <path id="Path_40752" data-name="Path 40752" d="M307.112,271.783c2.846-4.426,5.771-9.068,6.306-14.3.5-4.851,1.365-10.2.7-15.028a39.459,39.459,0,0,1,.869-14.514c3.555-14.875,9.8-13.131,12.059-11.956,2.222,1.154,3.24,3.619,3.29,7.564.041,3.173-2.462,17.969,2.415,15.869,5.645-2.43,5.777-17.93,6.763-23.074,1.475-7.7,4.81-15.882,10.831-21.124,2.968-2.583,7.292-4.431,10.787-2.623a9.1,9.1,0,0,1,4.123,5.512c2.146,6.762-.329,13.692-3.1,19.872-1.156,2.584-10.377,14.45-2.95,13.436,1.774-.242,16.767-11.478,17.952.523.417,4.226-4.389,8.449-11.989,13.7-4.746,3.278-22.23,11.724-21.459,16.405s10.516-2.56,9.194,6.1c-.741,4.851-7.2,8.216-11.576,9.958-2.08.829-4.319,1.241-6.34,2.2-2.4,1.142-5.363,3.967-3.614,6.82.764,1.246,2.281,1.893,3,3.163a4.159,4.159,0,0,1-.354,4.218,9.631,9.631,0,0,1-3.35,2.87c-8.215,4.8-18.393,5.388-27.685,3.337s-17.858-6.534-26.031-11.408" transform="translate(-276.961 -191.871)" fill="#63c7db"/>
        <g id="Group_11401" data-name="Group 11401" transform="translate(32.354 8.152)">
          <path id="Path_40753" data-name="Path 40753" d="M382.614,236.851a.584.584,0,0,0-.818-.119c-.17.127-16.679,12.343-30.374,14.441a212.2,212.2,0,0,0,17.951-47.653.585.585,0,1,0-1.143-.246c-.088.406-7.339,33.174-26.408,61.86-3.023-5.214-7.306-19.155-4.493-40.005a.585.585,0,1,0-1.159-.156c-1.3,9.655-1.916,30.547,4.934,41.231a120.964,120.964,0,0,1-15.14,18.4.585.585,0,0,0,.469,1,.58.58,0,0,0,.351-.165q2.365-2.327,4.576-4.8c.4-.037.8-.074,1.189-.115,19.828-2.03,26.509-7.385,26.789-7.618a.585.585,0,0,0-.745-.9c-.066.054-6.742,5.339-26.089,7.345a130.253,130.253,0,0,0,9.72-12.713.581.581,0,0,0,.115-.171,163.253,163.253,0,0,0,8.4-14.016C364.9,250.7,381.779,238.2,382.495,237.67A.584.584,0,0,0,382.614,236.851Z" transform="translate(-321.762 -202.812)" fill="#43aadd"/>
          <path id="Path_40754" data-name="Path 40754" d="M341.223,323.5c-.1.018-10.744,1.57-19.947-4.112a.585.585,0,0,0-.615,1c8.269,5.1,17.4,4.628,20.018,4.36.41-.042.66-.079.722-.087a.586.586,0,0,0,.489-.668A.6.6,0,0,0,341.223,323.5Z" transform="translate(-320.384 -232.505)" fill="#40a5cc"/>
        </g>
      </g>
      <g id="Group_11404" data-name="Group 11404" transform="translate(61.965 78.278)">
        <path id="Path_40755" data-name="Path 40755" d="M180.364,258.054c-2.845-4.426-5.771-9.068-6.306-14.3-.5-4.85-1.364-10.2-.7-15.028a39.475,39.475,0,0,0-.87-14.514c-3.554-14.875-9.8-13.131-12.059-11.956-2.222,1.154-3.24,3.619-3.29,7.564-.04,3.173,2.463,17.969-2.414,15.869-5.646-2.43-5.777-17.93-6.764-23.074-1.475-7.7-4.81-15.882-10.831-21.124-2.968-2.583-7.291-4.431-10.787-2.623a9.1,9.1,0,0,0-4.123,5.512c-2.146,6.762.33,13.692,3.1,19.872,1.156,2.584,10.376,14.45,2.949,13.436-1.773-.242-16.766-11.478-17.952.523-.417,4.226,4.389,8.449,11.99,13.7,4.746,3.278,22.23,11.724,21.459,16.405s-10.516-2.56-9.2,6.1c.741,4.851,7.2,8.216,11.576,9.958,2.08.829,4.319,1.241,6.341,2.2,2.4,1.141,5.362,3.967,3.614,6.82-.764,1.246-2.281,1.893-3,3.163a4.159,4.159,0,0,0,.354,4.218,9.63,9.63,0,0,0,3.35,2.87c8.216,4.8,18.394,5.388,27.685,3.337s17.858-6.534,26.031-11.408" transform="translate(-110.289 -178.142)" fill="#63c7db"/>
        <g id="Group_11403" data-name="Group 11403" transform="translate(6.903 8.152)">
          <path id="Path_40756" data-name="Path 40756" d="M119.67,223.122a.584.584,0,0,1,.818-.119c.171.127,16.679,12.343,30.374,14.441a212.2,212.2,0,0,1-17.951-47.653.585.585,0,1,1,1.144-.246c.087.406,7.338,33.174,26.408,61.86,3.022-5.214,7.306-19.156,4.492-40.005a.585.585,0,1,1,1.159-.156c1.3,9.655,1.916,30.547-4.934,41.231a120.929,120.929,0,0,0,15.14,18.4.585.585,0,0,1-.469,1,.579.579,0,0,1-.35-.164q-2.366-2.328-4.577-4.8c-.4-.037-.8-.075-1.189-.115-19.828-2.03-26.509-7.385-26.789-7.618a.585.585,0,0,1,.745-.9c.066.054,6.742,5.339,26.09,7.345a130.123,130.123,0,0,1-9.72-12.713.569.569,0,0,1-.116-.171,163.263,163.263,0,0,1-8.4-14.016c-14.153-1.75-31.036-14.243-31.752-14.777A.585.585,0,0,1,119.67,223.122Z" transform="translate(-119.554 -189.083)" fill="#43aadd"/>
          <path id="Path_40757" data-name="Path 40757" d="M173.182,309.768c.1.018,10.743,1.57,19.946-4.112a.585.585,0,0,1,.615,1c-8.269,5.1-17.4,4.628-20.017,4.36-.411-.042-.661-.079-.723-.087a.587.587,0,0,1-.49-.668A.6.6,0,0,1,173.182,309.768Z" transform="translate(-133.052 -218.776)" fill="#40a5cc"/>
        </g>
      </g>
      <g id="Group_11406" data-name="Group 11406" transform="translate(268.949 167.699)">
        <path id="Path_40758" data-name="Path 40758" d="M388.544,374.071l-.457-.842c24.624-13.363,43.8-35.866,52.6-61.736l.906.309C432.713,337.9,413.377,360.593,388.544,374.071Z" transform="translate(-388.087 -301.555)" fill="#43aadd"/>
        <g id="Group_11405" data-name="Group 11405" transform="translate(7.474)">
          <path id="Path_40759" data-name="Path 40759" d="M455.689,315.275a21.039,21.039,0,0,0,6.232-13.253,4.224,4.224,0,0,0-.849-3.441,1.369,1.369,0,0,0-.888-.425,1.755,1.755,0,0,0-1.311.851c-1.735,2.284-2.164,5.291-2.269,8.158s-.564,5-.915,8.11" transform="translate(-412.793 -298.156)" fill="#63c7db"/>
          <path id="Path_40760" data-name="Path 40760" d="M448.327,327.311a21.042,21.042,0,0,0,.465-14.638,4.227,4.227,0,0,0-2.145-2.822,1.368,1.368,0,0,0-.984-.039,1.755,1.755,0,0,0-.866,1.3c-.686,2.785.113,5.716,1.153,8.389s1.465,4.813,2.377,7.809" transform="translate(-409.952 -301.108)" fill="#63c7db"/>
          <path id="Path_40761" data-name="Path 40761" d="M439.746,342.385A21.044,21.044,0,0,0,442,327.914a4.226,4.226,0,0,0-1.784-3.063,1.369,1.369,0,0,0-.972-.158,1.754,1.754,0,0,0-1.018,1.185c-1.022,2.681-.588,5.686.118,8.467s.865,4.956,1.4,8.04" transform="translate(-408.187 -304.912)" fill="#63c7db"/>
          <path id="Path_40762" data-name="Path 40762" d="M428.928,355.858a21.039,21.039,0,0,0,2.252-14.471,4.225,4.225,0,0,0-1.784-3.063,1.368,1.368,0,0,0-.972-.158,1.754,1.754,0,0,0-1.018,1.185c-1.021,2.681-.588,5.686.118,8.467s.866,4.956,1.4,8.04" transform="translate(-405.43 -308.346)" fill="#63c7db"/>
          <path id="Path_40763" data-name="Path 40763" d="M412.826,371.746a21.038,21.038,0,0,0,3.738-14.16,4.225,4.225,0,0,0-1.457-3.231,1.37,1.37,0,0,0-.95-.258,1.752,1.752,0,0,0-1.135,1.073c-1.294,2.56-1.174,5.595-.76,8.434s.348,5.02.564,8.142" transform="translate(-401.651 -312.412)" fill="#63c7db"/>
          <path id="Path_40764" data-name="Path 40764" d="M399.994,382.2a22.459,22.459,0,0,0,4.565-13.527,4.747,4.747,0,0,0-.942-3.394,1.134,1.134,0,0,0-.791-.382c-.467.013-.821.466-1.077.912-1.356,2.364-1.543,5.386-1.46,8.252s-.182,5.017-.3,8.139" transform="translate(-398.596 -315.169)" fill="#63c7db"/>
          <path id="Path_40765" data-name="Path 40765" d="M446.527,335.834a22.8,22.8,0,0,0,14.8-4.053,4.675,4.675,0,0,0,2.283-2.965,1.343,1.343,0,0,0-.213-.974,1.747,1.747,0,0,0-1.524-.446c-2.968.187-5.7,1.869-8.118,3.71s-4.453,2.915-7.224,4.728" transform="translate(-410.458 -305.607)" fill="#63c7db"/>
          <path id="Path_40766" data-name="Path 40766" d="M439.078,348.611a22.794,22.794,0,0,0,15.336-.4,4.679,4.679,0,0,0,2.925-2.335,1.345,1.345,0,0,0,.026-1,1.748,1.748,0,0,0-1.375-.8c-2.927-.527-5.984.454-8.769,1.665s-5.02,1.767-8.144,2.866" transform="translate(-408.559 -309.825)" fill="#63c7db"/>
          <path id="Path_40767" data-name="Path 40767" d="M427.674,363.214a22.8,22.8,0,0,0,15.107,2.673,4.674,4.674,0,0,0,3.333-1.7,1.345,1.345,0,0,0,.225-.971c-.116-.528-.665-.847-1.187-1.055-2.762-1.1-5.954-.752-8.925-.123s-5.272.727-8.552,1.179" transform="translate(-405.652 -314.289)" fill="#63c7db"/>
          <path id="Path_40768" data-name="Path 40768" d="M411.479,378.054a22.8,22.8,0,0,0,15.323-.744,4.674,4.674,0,0,0,2.872-2.4,1.343,1.343,0,0,0,0-1,1.745,1.745,0,0,0-1.392-.766c-2.938-.462-5.973.587-8.73,1.859s-4.979,1.878-8.078,3.047" transform="translate(-401.524 -317.244)" fill="#63c7db"/>
          <path id="Path_40769" data-name="Path 40769" d="M398.118,389.231a22.8,22.8,0,0,0,14.017,6.233,4.675,4.675,0,0,0,3.645-.849,1.346,1.346,0,0,0,.452-.888,1.746,1.746,0,0,0-.9-1.311c-2.415-1.735-5.6-2.165-8.633-2.27s-5.292-.565-8.584-.916" transform="translate(-398.118 -321.372)" fill="#63c7db"/>
        </g>
      </g>
      <g id="Group_11408" data-name="Group 11408" transform="translate(256.996 143.456)">
        <path id="Path_40770" data-name="Path 40770" d="M372.81,357.713l-.766-.575c16.8-22.417,24.843-50.866,22.054-78.05l.951-.1C397.864,306.412,389.757,335.1,372.81,357.713Z" transform="translate(-372.044 -269.028)" fill="#63c7db"/>
        <g id="Group_11407" data-name="Group 11407" transform="translate(0.85)">
          <path id="Path_40771" data-name="Path 40771" d="M401.538,283.138a21.04,21.04,0,0,0,.136-14.644,4.225,4.225,0,0,0-2.208-2.773,1.368,1.368,0,0,0-.984-.016,1.756,1.756,0,0,0-.836,1.32c-.624,2.8.241,5.712,1.341,8.361s1.573,4.779,2.551,7.753" transform="translate(-379.366 -265.619)" fill="#63c7db"/>
          <path id="Path_40772" data-name="Path 40772" d="M399.081,297.55a21.042,21.042,0,0,0-5.683-13.5,4.224,4.224,0,0,0-3.126-1.67,1.371,1.371,0,0,0-.91.376,1.757,1.757,0,0,0-.244,1.543c.539,2.817,2.486,5.148,4.547,7.143s3.339,3.763,5.417,6.105" transform="translate(-377.229 -269.891)" fill="#63c7db"/>
          <path id="Path_40773" data-name="Path 40773" d="M397.676,314.786a21.042,21.042,0,0,0-3.99-14.091,4.226,4.226,0,0,0-2.9-2.039,1.371,1.371,0,0,0-.949.262,1.755,1.755,0,0,0-.431,1.5c.189,2.863,1.838,5.413,3.639,7.646s2.854,4.143,4.63,6.721" transform="translate(-377.317 -274.04)" fill="#63c7db"/>
          <path id="Path_40774" data-name="Path 40774" d="M393.464,331.543a21.037,21.037,0,0,0-3.991-14.09,4.225,4.225,0,0,0-2.9-2.04,1.376,1.376,0,0,0-.95.262,1.757,1.757,0,0,0-.431,1.5c.19,2.862,1.838,5.413,3.64,7.645s2.854,4.144,4.63,6.721" transform="translate(-376.243 -278.311)" fill="#63c7db"/>
          <path id="Path_40775" data-name="Path 40775" d="M385.575,352.64a21.038,21.038,0,0,0-2.509-14.428,4.224,4.224,0,0,0-2.672-2.329,1.373,1.373,0,0,0-.972.162,1.754,1.754,0,0,0-.583,1.448c-.108,2.867,1.267,5.575,2.828,7.982s2.41,4.417,3.909,7.165" transform="translate(-374.624 -283.524)" fill="#63c7db"/>
          <path id="Path_40776" data-name="Path 40776" d="M378.462,367.434a22.456,22.456,0,0,0-1.494-14.2,4.746,4.746,0,0,0-2.272-2.692,1.131,1.131,0,0,0-.878-.017,1.505,1.505,0,0,0-.6,1.278c-.246,2.714.844,5.538,2.116,8.109s1.928,4.636,3.126,7.52" transform="translate(-373.184 -287.242)" fill="#63c7db"/>
          <path id="Path_40777" data-name="Path 40777" d="M401.952,304.011a22.8,22.8,0,0,0,11.758-9.856,4.673,4.673,0,0,0,.837-3.648,1.345,1.345,0,0,0-.6-.8,1.745,1.745,0,0,0-1.571.231c-2.62,1.408-4.4,4.078-5.831,6.758s-2.831,4.507-4.593,7.311" transform="translate(-380.517 -271.732)" fill="#63c7db"/>
          <path id="Path_40778" data-name="Path 40778" d="M399.974,318.627a22.8,22.8,0,0,0,13.77-6.764,4.677,4.677,0,0,0,1.685-3.342,1.346,1.346,0,0,0-.393-.917,1.745,1.745,0,0,0-1.58-.15c-2.881.742-5.25,2.909-7.276,5.171s-3.825,3.7-6.206,6" transform="translate(-380.013 -276.255)" fill="#63c7db"/>
          <path id="Path_40779" data-name="Path 40779" d="M395.286,336.788a22.792,22.792,0,0,0,14.844-3.872,4.676,4.676,0,0,0,2.32-2.938,1.348,1.348,0,0,0-.2-.976,1.746,1.746,0,0,0-1.519-.464c-2.97.151-5.725,1.8-8.163,3.611s-4.488,2.86-7.281,4.639" transform="translate(-378.818 -281.656)" fill="#63c7db"/>
          <path id="Path_40780" data-name="Path 40780" d="M387.222,356.9a22.8,22.8,0,0,0,13.616-7.069,4.678,4.678,0,0,0,1.61-3.379,1.346,1.346,0,0,0-.413-.908,1.746,1.746,0,0,0-1.584-.115c-2.863.805-5.183,3.025-7.159,5.332s-3.742,3.784-6.07,6.139" transform="translate(-376.762 -285.93)" fill="#63c7db"/>
          <path id="Path_40781" data-name="Path 40781" d="M379.024,373.512a22.8,22.8,0,0,0,15.341-.182,4.678,4.678,0,0,0,2.958-2.293,1.345,1.345,0,0,0,.041-1,1.747,1.747,0,0,0-1.363-.816c-2.919-.569-5.991.367-8.793,1.538s-5.045,1.694-8.184,2.749" transform="translate(-374.673 -291.986)" fill="#63c7db"/>
        </g>
      </g>
      <g id="Group_11409" data-name="Group 11409" transform="translate(87.045 168.538)">
        <path id="Path_40783" data-name="Path 40783" d="M145.4,318.653a50.124,50.124,0,0,0,8.086,8.13c3.065,2.3,9.492,3.984,13.318,4.2l2.159-1.93a22.812,22.812,0,0,1-9.186-4.582,38.678,38.678,0,0,1-7.009-7.58" transform="translate(-144.321 -303.77)" fill="#ffbea1"/>
        <path id="Path_40784" data-name="Path 40784" d="M144.9,299.282a9.468,9.468,0,0,1,5.216,4.185,39.368,39.368,0,0,1,2.617,6.361,5.072,5.072,0,0,0,1.606,2.509c-1.451,2.51-7.387,4.355-9.061,3.9-.268-.046-.762-2.684-1.326-3.556" transform="translate(-143.95 -299.282)" fill="#0a7c8e"/>
        <path id="Path_40785" data-name="Path 40785" d="M151.622,316.936c-.244-2.954-1.073-6.259-3.727-7.581l-2.233,9.414a.1.1,0,0,0,.05.036c1.036.282,3.705-.32,5.933-1.413C151.639,317.24,151.635,317.087,151.622,316.936Z" transform="translate(-144.386 -301.85)" fill="#096270"/>
      </g>
      <g id="Group_11413" data-name="Group 11413" transform="translate(127.561 0)">
        <path id="Path_40786" data-name="Path 40786" d="M240.513,144.249c-4.045,5.158-13.931,10.729-18.465,11.143-6.108.559-14.041-3.285-17.449-6.689-2.287,1.162-2.134-.9-4.181-.369-1.385.358-.68,2.391-.908,2.547-.589.4-.98-1.005-1.138-2.351-.228-1.944.418-3.806,2.065-4.2a4.88,4.88,0,0,1,5.1,1.647c4.683,1.864,15.564,2.024,17.981,1.4,3.806-.984,6.125-4.309,8.895-8.022" transform="translate(-198.327 -89.978)" fill="#ffbb81"/>
        <path id="Path_40787" data-name="Path 40787" d="M250.706,125.605c-1.832.493-3.284,2.292-4.6,4.206a126.766,126.766,0,0,1-8.294,10.8c1.029,1.881,8.268,5.482,9.62,5.834l5.358-4.526" transform="translate(-208.394 -86.472)" fill="#096270"/>
        <path id="Path_40788" data-name="Path 40788" d="M250.644,114.936c.6,1.016,2.343,3.645,2.294,4.884-.1,2.474-1.876,3.682-.972,8.217s2.9,1.168,4.622.336c2.143-1.033,3.3-8.088,5.562-8.829l1.064-1.359a19.6,19.6,0,0,1-4.1-2.737,9.133,9.133,0,0,1-2.693-4.076" transform="translate(-211.664 -82.844)" fill="#ffbb81"/>
        <path id="Path_40789" data-name="Path 40789" d="M262.364,120.167c-3.9.406-7.865,5.356-9.555,11.343-.163,1.161-1.091-3.262-.213-8.275-.507,1.019-1.7,2.051-2.033,3.036a17.125,17.125,0,0,0,.891,12.453,104.894,104.894,0,0,1,4.018,11.1c1.237,4,1.343,17.333-.648,21.3,7.855,2.682,14.552,2.278,22.793.624-.225-2.715-.437-5.958-.662-8.674a21.455,21.455,0,0,1,3.051,8.425,23.211,23.211,0,0,0,4.941-1.672c-.668-12.054-4.18-27.413-11.026-37.573" transform="translate(-211.438 -85.086)" fill="#0a7c8e"/>
        <path id="Path_40790" data-name="Path 40790" d="M258.6,125.389a16.041,16.041,0,0,0-4.415,10.05c-.3.123-1.951-.324-2.8-5.967a18.051,18.051,0,0,1-.194-3.829l0-.036c.487-.814,1.35-1.652,1.763-2.482-.878,5.013.072,8.478.235,7.318,1.532-5.428,4.909-9.033,8.439-10.143a4.08,4.08,0,0,1,3-.431,8.355,8.355,0,0,1,1.159.455A22.6,22.6,0,0,0,258.6,125.389Z" transform="translate(-211.794 -84.977)" fill="#0e97a5"/>
        <path id="Path_40791" data-name="Path 40791" d="M250.644,114.936l5.775-3.565a7.8,7.8,0,0,0,.89,1.936,10.407,10.407,0,0,1-.848,1.115,12.6,12.6,0,0,1-4.328,3.062C251.607,116.479,250.964,115.477,250.644,114.936Z" transform="translate(-211.664 -82.844)" fill="#ffbb81" opacity="0.55" style="mix-blend-mode: multiply;isolation: isolate"/>
        <g id="Group_11412" data-name="Group 11412" transform="translate(22.364)">
          <path id="Path_40792" data-name="Path 40792" d="M231.97,92.969c1.019,4.412.279,10.135,2.057,14.321.779,1.833,2.907,2.539,5.044,3.172,2.35.7,5.3-.148,7.541-.831a14.2,14.2,0,0,0,6.166-3.91,6.734,6.734,0,0,0,1.974-4.459,23.871,23.871,0,0,0-.217-3.894s.153-9.856-6.556-12.447-13.572.689-13.572.689A7.085,7.085,0,0,0,231.97,92.969Z" transform="translate(-229.211 -75.848)" fill="#ffbb81"/>
          <path id="Path_40793" data-name="Path 40793" d="M262.95,84.764c2.483,3.033,3.076,7.461,3.258,11.528a2.782,2.782,0,0,1-1.376-1.152c.262,3-2.919,5.385-4.839,7.3-1.114-1.7-1.593-4.033-2.481-5.889a3.177,3.177,0,0,1-.045,1.244c-.124.387-.462.706-.823.624a1.344,1.344,0,0,1-.654-.545,42.9,42.9,0,0,0-8.075-8.084" transform="translate(-233.332 -76.061)" fill="#4c2e1e"/>
          <path id="Path_40794" data-name="Path 40794" d="M259.257,103.209a1.751,1.751,0,0,1,1.576-1.041,2.345,2.345,0,0,1,1.758.817,3.6,3.6,0,0,1,.811,1.8,4.961,4.961,0,0,1-.242,2.56,2.461,2.461,0,0,1-.615.986,2.005,2.005,0,0,1-1.438.467,3.507,3.507,0,0,1-1.471-.452" transform="translate(-236.223 -80.498)" fill="#ffbb81"/>
          <path id="Path_40795" data-name="Path 40795" d="M262.678,105.369c.121-.3-.162-.616-.461-.736a1.082,1.082,0,0,0-1.017.079.729.729,0,0,0-.224.939c.128.2.375.326.443.554.141.475-.566.775-.684,1.256a.771.771,0,0,0,.361.783,1.085,1.085,0,0,0,1.229-.351" transform="translate(-236.595 -81.103)" fill="none" stroke="#ffbb81" stroke-miterlimit="10" stroke-width="0.794" style="mix-blend-mode: multiply;isolation: isolate"/>
          <path id="Path_40796" data-name="Path 40796" d="M247.433,97.51c.25-.3,2.526-.507,3.789-.761a.954.954,0,0,1,.894.124.921.921,0,0,1-.27,1.456,10.746,10.746,0,0,1-4.319.413A1.277,1.277,0,0,1,247.433,97.51Z" transform="translate(-233.178 -79.104)" fill="#4c2e1e"/>
          <g id="Group_11410" data-name="Group 11410" transform="translate(14.327 21.593)">
            <path id="Path_40797" data-name="Path 40797" d="M250.441,105.114a1.975,1.975,0,0,1-2.229.118,1.779,1.779,0,0,1-.635-1.691,1.727,1.727,0,0,1,2.816-1.074A1.71,1.71,0,0,1,250.441,105.114Z" transform="translate(-247.571 -102.064)"/>
            <path id="Path_40798" data-name="Path 40798" d="M249.15,104.963a.72.72,0,0,1-.935.039.885.885,0,0,1-.282-.853c.139-.688.627-.913,1.173-.51A.844.844,0,0,1,249.15,104.963Z" transform="translate(-247.659 -102.414)" fill="#fff"/>
          </g>
          <path id="Path_40799" data-name="Path 40799" d="M236.268,98.119c-.273-.281-2.559-.3-3.838-.453a.956.956,0,0,0-.881.2.92.92,0,0,0,.386,1.429,10.731,10.731,0,0,0,4.339.063A1.278,1.278,0,0,0,236.268,98.119Z" transform="translate(-229.111 -79.345)" fill="#4c2e1e"/>
          <g id="Group_11411" data-name="Group 11411" transform="translate(4.579 21.933)">
            <path id="Path_40800" data-name="Path 40800" d="M235.39,105.778a1.973,1.973,0,0,0,2.205-.343,1.782,1.782,0,0,0,.273-1.786,1.728,1.728,0,0,0-2.977-.471A1.71,1.71,0,0,0,235.39,105.778Z" transform="translate(-234.488 -102.521)"/>
            <path id="Path_40801" data-name="Path 40801" d="M237.214,105.3a.721.721,0,0,0,.923-.155.887.887,0,0,0,.1-.893c-.278-.646-.8-.764-1.253-.259A.846.846,0,0,0,237.214,105.3Z" transform="translate(-235.067 -102.816)" fill="#fff"/>
          </g>
          <path id="Path_40802" data-name="Path 40802" d="M233.62,92.157q-1.29,2.051-2.578,4.1c-.13.207-.416.433-.575.247a.386.386,0,0,1-.072-.2,9.814,9.814,0,0,1-.115-1.144,2.264,2.264,0,0,1-1.093,1.455.7.7,0,0,1-.363.11.561.561,0,0,1-.474-.508,1.575,1.575,0,0,1,.134-.734,28.568,28.568,0,0,1,2.319-4.923" transform="translate(-228.342 -77.54)" fill="#4c2e1e"/>
          <path id="Path_40803" data-name="Path 40803" d="M256.375,81.688c-6.983,1.786-18.717,3.781-25.863,4.711a11.773,11.773,0,0,1,1.881-8.613c1.834-2.715,5.587-3.818,7.405-4.243,3.281-.767,9.56-.5,11.369.266s6.044,3.749,7.421,7.028" transform="translate(-228.842 -73.084)" fill="#0a7c8e"/>
          <path id="Path_40804" data-name="Path 40804" d="M244.64,74.051c2.374-.031,5.488-.179,6.993.449s3.1,4.05,4.173,5.46" transform="translate(-232.497 -73.321)" fill="none" stroke="#096270" stroke-miterlimit="10" stroke-width="0.794"/>
          <path id="Path_40805" data-name="Path 40805" d="M235.042,79.134a23.676,23.676,0,0,0-.649,6.69" transform="translate(-229.879 -74.626)" fill="none" stroke="#096270" stroke-miterlimit="10" stroke-width="0.794"/>
          <path id="Path_40806" data-name="Path 40806" d="M230.147,85.467c.493-.282,12.927.089,27.01-5.25,0,0,2.7,3.851,2.089,4.2-9.656,5.5-28.438,5.8-28.977,5.35S229.655,85.75,230.147,85.467Z" transform="translate(-228.719 -74.902)" fill="#0e97a5"/>
          <path id="Path_40807" data-name="Path 40807" d="M240.913,113.391a1.107,1.107,0,0,0,1.062.995,11.184,11.184,0,0,0,3.273-.633c.537-.19-.108-.864-.239-.91a16.579,16.579,0,0,0-4.243.254" transform="translate(-231.509 -83.205)" fill="#a53830"/>
          <path id="Path_40808" data-name="Path 40808" d="M241.133,106.3a4.359,4.359,0,0,0-.689,1,1.308,1.308,0,0,0,1.121,1.945,4.231,4.231,0,0,0,1.436-.144" transform="translate(-231.389 -81.552)" fill="none" stroke="#ffbb81" stroke-miterlimit="10" stroke-width="0.794" style="mix-blend-mode: multiply;isolation: isolate"/>
        </g>
        <path id="Path_40809" data-name="Path 40809" d="M262.634,138.125l2.988,10.338H266.8s.587,3.819-1.555,6.147,6.8-3.9,6.8-3.9l1.334-11.155Z" transform="translate(-214.72 -89.664)" fill="#096270" opacity="0.55"/>
      </g>
      <g id="Group_11418" data-name="Group 11418" transform="translate(94.725 62.742)">
        <g id="Group_11417" data-name="Group 11417">
          <g id="Group_11414" data-name="Group 11414">
            <path id="Path_40811" data-name="Path 40811" d="M287.845,240.858c7.709-23.562,19.354-59.167-6.283-75.348-8.763-5.528-17.268-8.218-26.007-8.218-9.419,0-17.111,3.261-22.727,5.643-2.574,1.092-5.778,2.451-7.057,2.451s-4.482-1.36-7.056-2.451c-5.616-2.381-13.307-5.643-22.726-5.643-8.737,0-17.244,2.69-26.007,8.218-25.639,16.181-13.992,51.786-6.286,75.348,2.383,7.285,4.634,14.167,4.972,17.887.595,6.543-.066,14.912-.769,23.77-1.114,14.079-2.265,28.636,1.078,40.91,5.663,20.781,23.717,35.884,24.483,36.517a9.868,9.868,0,0,0,5.8,2.254c.183.01.368.016.554.016a9.914,9.914,0,0,0,9.558-12.509c-.846-4.987-5.163-33.074,1.344-50.991,4.854-13.366,12-20.389,15.059-22.252,3.062,1.863,10.206,8.886,15.061,22.252,7.125,19.621,1.269,51.44,1.209,51.76a9.9,9.9,0,0,0,16.04,9.47c.766-.633,18.821-15.736,24.483-36.519,3.343-12.277,2.192-26.837,1.077-40.918-.7-8.855-1.363-17.221-.77-23.764C283.21,255.025,285.461,248.143,287.845,240.858Z" transform="translate(-154.257 -157.292)" fill="#fff"/>
          </g>
          <g id="Group_11416" data-name="Group 11416">
            <g id="Group_11415" data-name="Group 11415" clip-path="url(#clip-path)">
              <path id="Path_40812" data-name="Path 40812" d="M316.14,166.652c-9.887-12.836-21.1-13.244-29.615-10.176,12.885,1.561-3.848,30.62-24.792,31.621-19.629.936-2.755,7.361,14.281,6.411,6.309-.351,18.357-6.046,23.938,9.068,1.834,4.974,2.98,20.355-2.67,30.411l20.49,4.722c1.17-2.165,1.939-18.8,2.816-20.646C329.963,198.344,322.626,175.071,316.14,166.652Z" transform="translate(-179.405 -156.68)" fill="#f4f4f4"/>
              <path id="Path_40813" data-name="Path 40813" d="M261.385,153.91c-24.428,8.912-27.2-1.408-34.946-5.3-3.228-1.623-9.079,4.173-12.336,3.557-16.209-1.234-13.759,13.391-1.242,15.666C236.957,172.211,252.353,157.206,261.385,153.91Z" transform="translate(-166.607 -155.005)" fill="#e6e7e9"/>
              <path id="Path_40814" data-name="Path 40814" d="M290.665,261.048s-7.326,11.059-5.091,28.269,7.626,32.048,7.326,49.528c-.373,21.753-16.019,49.814-27.693,41.621-4.7-3.3,2.292-25.858-.993-51.185C259,289.069,236.274,291.9,229.444,304.7c-5.444,10.2-.248,39.751-.248,39.751l13.039,54.729,55.137,4.278,36.882-37.772-9.686-78.972-7.078-24.609Z" transform="translate(-172.789 -183.74)" fill="#f4f4f4"/>
              <path id="Path_40815" data-name="Path 40815" d="M195.8,183.8a3.44,3.44,0,0,1,2.9-.569,3.529,3.529,0,0,0-2.993.41,17.375,17.375,0,0,0-2.425,1.936,48.381,48.381,0,0,1-7.829,4.489l-.3,0a32.52,32.52,0,0,1-6.216-.426,19.392,19.392,0,0,1-6.218-2.7,30.724,30.724,0,0,1-.861-3.952c-.373-2.42-.578-4.9-.752-7.385L170,160.731l-2.229.162,1.67,14.888c.267,2.479.564,4.958,1.042,7.447a26.286,26.286,0,0,0,2.377,7.241c2.337,4.574,6.063,8.153,9.983,11.22,1.244.969,2.517,1.885,3.752,2.844,1.071,3.289.853,8.966-.927,11.962,2.03-2.93,2.618-7.867,1.634-11.413.482.39.954.79,1.413,1.208a12.663,12.663,0,0,1,4.039,6.117,12.8,12.8,0,0,0-3.846-6.32c-1.789-1.758-3.818-3.237-5.713-4.833-3.775-3.182-7.277-6.843-9.33-11.276a19.263,19.263,0,0,1-.747-1.808,14.9,14.9,0,0,0,5.728,2.021,33,33,0,0,0,6.319.248c2.1-.085,4.186-.242,6.277-.233a21.958,21.958,0,0,1,6.205.789,22.051,22.051,0,0,0-6.2-.975c-1.329-.045-2.657-.022-3.983.005a36.2,36.2,0,0,0,6.07-4.176A17.256,17.256,0,0,1,195.8,183.8Z" transform="translate(-157.701 -158.169)" fill="#d6d6d6"/>
            </g>
          </g>
        </g>
      </g>
      <g id="Group_11437" data-name="Group 11437" transform="translate(184.253 126.631)">
        <g id="Group_11433" data-name="Group 11433" transform="translate(23.543)">
          <g id="Group_11432" data-name="Group 11432">
            <g id="Group_11419" data-name="Group 11419" transform="translate(34.634 130.698)">
              <path id="Path_40818" data-name="Path 40818" d="M364.218,424.185c-1.259.089-2.512.256-3.772.325-1.29.071-1.083-.393-1.623-.183-1.544.6-4.747,1.61-5.961,2.588-.465.374-.431,1.192-.206,1.32.811.46,3.7.553,5.289.314,2.333-.351,5.92-.7,6.441-1.209S364.218,424.185,364.218,424.185Z" transform="translate(-352.496 -419.912)" fill="#fff"/>
              <path id="Path_40819" data-name="Path 40819" d="M360.074,418.45c.2.783.444,1.545.674,2.319a1.109,1.109,0,0,1-.525,1.493,15.365,15.365,0,0,0-4.031,2.706,65.743,65.743,0,0,0,8.209-1.784.272.272,0,0,0,.156-.082.268.268,0,0,0,.03-.184q-.143-1.84-.287-3.679" transform="translate(-353.438 -418.45)" fill="#ffbb81"/>
              <path id="Path_40820" data-name="Path 40820" d="M364.241,423.2c-1.259.089-2.512.256-3.772.326-1.29.07-1.083-.393-1.623-.183-2.135.83-6.978,3.449-6.167,3.908s3.7.554,5.289.314c2.333-.352,5.92-.7,6.441-1.209S364.241,423.2,364.241,423.2Z" transform="translate(-352.52 -419.66)" fill="#ffca01"/>
              <path id="Path_40821" data-name="Path 40821" d="M356.875,425.247a3.412,3.412,0,0,1,.552.326,1.208,1.208,0,0,1,.4.495" transform="translate(-353.612 -420.183)" fill="none" stroke="#604f51" stroke-miterlimit="10" stroke-width="0.726"/>
              <path id="Path_40822" data-name="Path 40822" d="M358.273,424.611a3.867,3.867,0,0,1,.688.238,1.289,1.289,0,0,1,.545.469" transform="translate(-353.969 -420.021)" fill="none" stroke="#604f51" stroke-miterlimit="10" stroke-width="0.726"/>
              <path id="Path_40823" data-name="Path 40823" d="M359.935,423.754a2.575,2.575,0,0,1,.922.559,1.506,1.506,0,0,1,.311.486" transform="translate(-354.392 -419.802)" fill="none" stroke="#604f51" stroke-miterlimit="10" stroke-width="0.726"/>
            </g>
            <g id="Group_11420" data-name="Group 11420" transform="translate(56.553 131.955)">
              <path id="Path_40824" data-name="Path 40824" d="M393.635,425.873c-1.259.089-2.511.256-3.772.325-1.289.071-1.083-.392-1.622-.182-1.544.6-4.747,1.61-5.961,2.588-.465.374-.431,1.193-.207,1.319.811.46,3.7.553,5.289.314,2.334-.351,5.92-.7,6.442-1.209S393.635,425.873,393.635,425.873Z" transform="translate(-381.913 -421.6)" fill="#fff"/>
              <path id="Path_40825" data-name="Path 40825" d="M389.492,420.138c.2.783.443,1.545.673,2.319a1.108,1.108,0,0,1-.525,1.493,15.377,15.377,0,0,0-4.031,2.706,65.7,65.7,0,0,0,8.209-1.784.2.2,0,0,0,.186-.266l-.286-3.679" transform="translate(-382.856 -420.138)" fill="#ffbb81"/>
              <path id="Path_40826" data-name="Path 40826" d="M393.658,424.885c-1.259.089-2.511.256-3.772.326-1.289.071-1.083-.393-1.622-.183-2.135.83-6.979,3.449-6.168,3.909s3.7.553,5.289.314c2.334-.352,5.92-.7,6.442-1.209S393.658,424.885,393.658,424.885Z" transform="translate(-381.937 -421.348)" fill="#ffca01"/>
              <path id="Path_40827" data-name="Path 40827" d="M386.293,426.935a3.475,3.475,0,0,1,.552.326,1.21,1.21,0,0,1,.4.495" transform="translate(-383.03 -421.871)" fill="none" stroke="#604f51" stroke-miterlimit="10" stroke-width="0.726"/>
              <path id="Path_40828" data-name="Path 40828" d="M387.691,426.3a3.829,3.829,0,0,1,.688.237,1.3,1.3,0,0,1,.545.469" transform="translate(-383.386 -421.709)" fill="none" stroke="#604f51" stroke-miterlimit="10" stroke-width="0.726"/>
              <path id="Path_40829" data-name="Path 40829" d="M389.353,425.443a2.561,2.561,0,0,1,.922.558,1.511,1.511,0,0,1,.311.486" transform="translate(-383.81 -421.49)" fill="none" stroke="#604f51" stroke-miterlimit="10" stroke-width="0.726"/>
            </g>
            <path id="Path_40830" data-name="Path 40830" d="M372.11,345.956c-.717,11.351-5.856,25.259-5.712,27.9.4,7.341-1.176,24.534-2.056,26.975a5.237,5.237,0,0,1-4.828.576c-5.549-17.113-5.721-36.983-4.57-55.877" transform="translate(-318.341 -269.164)" fill="#0c2c49"/>
            <path id="Path_40831" data-name="Path 40831" d="M372.442,349.339c-.252,6.145-.306,12.4.03,18.619.941-3.508,2.132-7.93,3.017-12.474C376.018,352.765,372.442,349.339,372.442,349.339Z" transform="translate(-322.894 -270.135)" fill="#0c2c49" style="mix-blend-mode: multiply;isolation: isolate"/>
            <path id="Path_40832" data-name="Path 40832" d="M388.037,339.521c2.632,16.163-.207,27.413.507,31.492,1.5,8.589,2.36,28.314,2.547,29.748a5.238,5.238,0,0,1-4.8.769c-7.706-16.072-12.667-36.9-13.778-54.693" transform="translate(-322.964 -267.633)" fill="#0c2c49"/>
            <path id="Path_40833" data-name="Path 40833" d="M353.944,342.082a37.211,37.211,0,0,0,28.42-1.377l-1.927-7.075-24.8,1.579-1.7,6.873" transform="translate(-318.231 -266.131)" fill="#0c2c49" style="mix-blend-mode: multiply;isolation: isolate"/>
            <path id="Path_40834" data-name="Path 40834" d="M356.689,328.965a39,39,0,0,0,27.728-2.568s-3.083-21.021-3.083-21.4-1.108-10.938-1.063-10.938-3.643-3.493-3.643-3.493a19.7,19.7,0,0,0-5.377-1.194c-3.39-.335-9.4.767-9.4.767a11.615,11.615,0,0,0-3.437.428c-3.525,1.018-2.628,8.136-2.628,8.136Z" transform="translate(-318.675 -254.832)" fill="#0276cc"/>
            <g id="Group_11421" data-name="Group 11421" transform="translate(0 35.731)">
              <path id="Path_40835" data-name="Path 40835" d="M310.658,326.907a20.6,20.6,0,0,0-4.645.948l1.035,1.916c.428-.147.827-.136.94.091.136.271-2,1.057-1.538,1.393.495.357,1.7.273,3.122-.475a39.852,39.852,0,0,0,3.93-2.657l.99-2.872A34.378,34.378,0,0,1,310.658,326.907Z" transform="translate(-306.013 -299.726)" fill="#ffbb81"/>
              <path id="Path_40836" data-name="Path 40836" d="M347.1,323.974c-.245-11.154.328-21.824.518-32.98-1.839.387-5.1,1.367-6.6,2.588-3.334,2.726-14.131,16.267-14.764,16.625-7.637,4.333-5.308,2.461-12.944,6.794l1.309,4.322c7.144-1.793,12.89-2.281,18.7-5.823,4.029-2.458,5.812-4.866,9.492-8.539-1.179,11.265-1.784,28.793-1.747,36.419l6.482-.694C346.322,335.892,347.247,330.873,347.1,323.974Z" transform="translate(-307.873 -290.994)" fill="#fff"/>
              <path id="Path_40837" data-name="Path 40837" d="M314.737,324.634l.245.809c7.144-1.793,12.974-2.291,18.643-5.71,4.194-2.53,5.865-4.979,9.545-8.651l.484-3.921s-10.106,10.74-12.427,11.734-6.611,2.115-10.854,3.772A59.636,59.636,0,0,1,314.737,324.634Z" transform="translate(-308.237 -295.115)" fill="#d1d3d4"/>
            </g>
            <path id="Path_40838" data-name="Path 40838" d="M389.456,326.8l-1.481.7-.01-.04c.729-.307,1.453-.628,2.162-.981,0,0-2.027-13.82-2.793-19.252l-8.975-17.6-.028,0a70.744,70.744,0,0,0-.177,8.189c.368,4.785.4,9.171,1.308,13.883,2.3,11.9,2.638,23.446,6.071,35.071,0,0,2.289-.8,5-1.894A90.542,90.542,0,0,0,389.456,326.8Z" transform="translate(-324.384 -254.914)" fill="#bcbcbc" style="mix-blend-mode: multiply;isolation: isolate"/>
            <path id="Path_40839" data-name="Path 40839" d="M387.985,308.363c4.21,11.316,8.026,23.859,9.3,33.344-3.835,2.314-9.683,2.314-9.683,2.314-3.433-11.624-4.58-21.958-6.877-33.859a126.555,126.555,0,0,1-2.188-14.222,43,43,0,0,1-.135-6.379" transform="translate(-324.449 -254.897)" fill="#fff"/>
            <path id="Path_40840" data-name="Path 40840" d="M384.116,319.752c-.872-2.584-1.784-5.155-2.718-7.665l-6.509-7.917c.411,5.267.279,7.99.8,12.719-.153.1-2.543,1.524-4.847,2.9-1.93-4.856-3.845-9.489-4.2-9.723a31.23,31.23,0,0,0-5.681.531,2.08,2.08,0,0,0-.516-.808.775.775,0,0,0-.468-.1c-.344.005-.689.018-1.033.009-.241-.007-.235-.2-.275-.39a.734.734,0,0,0-.793-.514,2.49,2.49,0,0,0-.685.1,1.9,1.9,0,0,0-.723.853c-.108.495.892.276.26.394a2.476,2.476,0,0,0-.983.23c-.148.1-.466.562-.395.753a.508.508,0,0,0,.268.247l-2.973.449-.148,1.613s6.166,14.341,7.866,17.747l13.421-1.73.528-.755c-.137-.358-.127-.334-.288-.751a67.761,67.761,0,0,0,8.955-4.386C383.47,323.179,383.845,321.755,384.116,319.752Z" transform="translate(-317.862 -258.621)" fill="#bcbcbc" style="mix-blend-mode: multiply;isolation: isolate"/>
            <path id="Path_40841" data-name="Path 40841" d="M362.666,282.458a10.361,10.361,0,0,1,.931,5.289c1.05.148,1.445,1.215,2.78,1.115a37.955,37.955,0,0,0,5.608-3,32.057,32.057,0,0,1-4.157-9.907" transform="translate(-320.454 -251.43)" fill="#ffbb81"/>
            <path id="Path_40842" data-name="Path 40842" d="M370.121,282.49a32.047,32.047,0,0,1-2.293-6.531l-5.162,6.5a10.354,10.354,0,0,1,.966,4.276,11.747,11.747,0,0,0,3.89-1.466A7.58,7.58,0,0,0,370.121,282.49Z" transform="translate(-320.454 -251.43)" fill="#ffbb81" style="mix-blend-mode: multiply;isolation: isolate"/>
            <g id="Group_11422" data-name="Group 11422" transform="translate(42.078 32.372)">
              <path id="Path_40843" data-name="Path 40843" d="M365.12,293.809c1.424.257,3.641.019,3.8.366a6.679,6.679,0,0,1-1.312,2.813,2.905,2.905,0,0,1-1.646-.042,8.259,8.259,0,0,1-1.076-2.988" transform="translate(-363.098 -288.352)" fill="#0c2c49"/>
              <path id="Path_40844" data-name="Path 40844" d="M372.522,286.485c-1.52,1.788-2.9,3.791-4.875,5.061a8.877,8.877,0,0,1,2.267,4.5s3.275-4.184,4.387-7.393Z" transform="translate(-363.802 -286.485)" fill="#14a2e0"/>
              <path id="Path_40845" data-name="Path 40845" d="M363.56,289.561a5.2,5.2,0,0,0,.817,7.311,4.265,4.265,0,0,1,.51-2.454,5.445,5.445,0,0,1,1.445-2.089A7.812,7.812,0,0,1,363.56,289.561Z" transform="translate(-362.486 -287.269)" fill="#14a2e0"/>
              <path id="Path_40846" data-name="Path 40846" d="M366.167,295.863a5.723,5.723,0,0,0-.361,1.606c-.027.763-1.488,16.488-1.533,17.352s1.794,4.687,2.356,4.31a19.6,19.6,0,0,0,3.038-4.31c.054-.482-2.289-17.858-2.289-17.858" transform="translate(-362.941 -288.876)" fill="#0c2c49"/>
            </g>
            <g id="Group_11429" data-name="Group 11429" transform="translate(24.098)">
              <path id="Path_40847" data-name="Path 40847" d="M346.862,272.2a1.475,1.475,0,0,0-1.66-.218,1.971,1.971,0,0,0-.907,1.741,6.724,6.724,0,0,0,.321,3.151c.514,1.258,1.907,2.345,3.3,1.74" transform="translate(-339.856 -250.377)" fill="#ffbb81"/>
              <path id="Path_40848" data-name="Path 40848" d="M346.862,272.2a1.475,1.475,0,0,0-1.66-.218,1.971,1.971,0,0,0-.907,1.741,6.724,6.724,0,0,0,.321,3.151c.514,1.258,1.907,2.345,3.3,1.74" transform="translate(-339.856 -250.377)" fill="#ffbb81" opacity="0.35" style="mix-blend-mode: multiply;isolation: isolate"/>
              <path id="Path_40849" data-name="Path 40849" d="M345.13,276.006a2.618,2.618,0,0,1,.106-1.046,1.142,1.142,0,0,1,.712-.729,1.175,1.175,0,0,1,.895.15,3.43,3.43,0,0,1,.708.6" transform="translate(-340.079 -250.98)" fill="none" stroke="#ffbb81" stroke-miterlimit="10" stroke-width="0.726" style="mix-blend-mode: multiply;isolation: isolate"/>
              <path id="Path_40850" data-name="Path 40850" d="M345.822,265.342c1.074,3.176,1.08,7.536,1.446,9.475a5.9,5.9,0,0,0,2.536,4c1.711,1.032,4.066.769,5.97.712a14.391,14.391,0,0,0,7.145-1.826,8.759,8.759,0,0,0,3.824-6.99,27.775,27.775,0,0,0-.549-6.315l-.5-10.246-6.015-2.223-8.136,2.168-7.211,1.919A32.881,32.881,0,0,0,345.822,265.342Z" transform="translate(-339.878 -245.304)" fill="#ffbb81"/>
              <g id="Group_11424" data-name="Group 11424">
                <g id="Group_11423" data-name="Group 11423">
                  <path id="Path_40851" data-name="Path 40851" d="M368.334,257.773c1-2.545-.125-5.966-1.9-7.894a5.757,5.757,0,0,0-2.86-1.591,1.389,1.389,0,0,1-1.14-.815,10.2,10.2,0,0,0-.46-1.346,4.81,4.81,0,0,0-1.847-1.726,5.708,5.708,0,0,0-3.355-.5,6.7,6.7,0,0,0-1.685.427,1.421,1.421,0,0,1-1.567-.165,7.424,7.424,0,0,0-5.369-.974,5.852,5.852,0,0,0-4.355,3.715,3.323,3.323,0,0,0-2.614.152,1.724,1.724,0,0,0-1.028,2.176,6.562,6.562,0,0,0-1.775,3.655,4.02,4.02,0,0,0,2.436,4.223,5.366,5.366,0,0,0,4.031-.685,6.356,6.356,0,0,0,5.01,1.377c1.939-.224,3.935-1.033,4.725-2.942a2.512,2.512,0,0,0,1.533.294,2.226,2.226,0,0,0,1.44-.75c.278-.341.379-.444.841-.255a3.434,3.434,0,0,0,2.884-.345c-.287.121-.182,2.466-.148,2.773a5.666,5.666,0,0,0,1.1,2.542,3.754,3.754,0,0,1,.653,1.047c.1.42-.156.844-.166,1.261a3.771,3.771,0,0,0,.368,1.72,2.145,2.145,0,0,0,2.69,1.22,3.706,3.706,0,0,0,2.492-2.162,3.892,3.892,0,0,0,.125-2.415c-.089-.359-.335-.722-.386-1.079S368.211,258.086,368.334,257.773Z" transform="translate(-338.355 -243.038)" fill="#724937"/>
                </g>
              </g>
              <path id="Path_40852" data-name="Path 40852" d="M354.882,274.378a14.542,14.542,0,0,0-.11,3.634,1.355,1.355,0,0,0,.3.864,1.118,1.118,0,0,0,1.074.168,2.484,2.484,0,0,0,.943-.494" transform="translate(-342.523 -251.027)" fill="none" stroke="#ffbb81" stroke-miterlimit="10" stroke-width="0.726" style="mix-blend-mode: multiply;isolation: isolate"/>
              <path id="Path_40853" data-name="Path 40853" d="M365.314,266.02c-.508-.343-4.107-1.184-4.533-.485a1.767,1.767,0,0,0,.131,1.428c.393.374,1.261.244,1.76.3.824.086,1.656.121,2.473.256C365.748,267.613,365.5,266.148,365.314,266.02Z" transform="translate(-344.048 -248.704)" fill="#724937"/>
              <path id="Path_40854" data-name="Path 40854" d="M346.776,267.7c.364-.434,3.214-1.956,3.684-1.353a2.053,2.053,0,0,1,.13,1.427c-.264.442-1.007.484-1.413.63-.671.243-1.355.438-2.011.729C346.683,269.351,346.641,267.865,346.776,267.7Z" transform="translate(-340.484 -248.945)" fill="#724937"/>
              <g id="Group_11425" data-name="Group 11425" transform="translate(17.27 20.661)">
                <path id="Path_40855" data-name="Path 40855" d="M363.775,271a1.629,1.629,0,0,0-1.839.113,1.47,1.47,0,0,0-.361,1.446,1.425,1.425,0,0,0,2.41.615A1.41,1.41,0,0,0,363.775,271Z" transform="translate(-361.533 -270.768)" fill="#2d110a"/>
                <path id="Path_40856" data-name="Path 40856" d="M362.761,271.762a.594.594,0,0,0-.77.057.729.729,0,0,0-.151.726c.179.552.6.689,1.01.308A.7.7,0,0,0,362.761,271.762Z" transform="translate(-361.602 -270.992)" fill="#fff"/>
              </g>
              <g id="Group_11426" data-name="Group 11426" transform="translate(7.611 22.084)">
                <path id="Path_40857" data-name="Path 40857" d="M350.812,272.908a1.63,1.63,0,0,0-1.839.112,1.467,1.467,0,0,0-.361,1.446,1.426,1.426,0,0,0,2.41.616A1.411,1.411,0,0,0,350.812,272.908Z" transform="translate(-348.57 -272.678)" fill="#2d110a"/>
                <path id="Path_40858" data-name="Path 40858" d="M349.8,273.673a.6.6,0,0,0-.771.056.733.733,0,0,0-.151.726c.179.552.6.69,1.01.309A.7.7,0,0,0,349.8,273.673Z" transform="translate(-348.638 -272.902)" fill="#fff"/>
              </g>
              <g id="Group_11427" data-name="Group 11427" transform="translate(13.419 29.603)">
                <path id="Path_40859" data-name="Path 40859" d="M356.364,283.5a16.259,16.259,0,0,1,3.556-.735c.394-.027.6.235.711.577.086.254.212.752-.181.809-1.011.148-2.028.282-3.035.453-.5.086-.8-.761-1.051-1.1" transform="translate(-356.364 -282.768)" fill="#4c2e1e"/>
                <path id="Path_40860" data-name="Path 40860" d="M360.761,283.512c-.012-.034-.029-.063-.042-.1a8.476,8.476,0,0,0-3.567.719,3.133,3.133,0,0,0-.278.171c.179.278.392.515.67.468,1.007-.171,2.024-.3,3.035-.453C360.972,284.264,360.846,283.766,360.761,283.512Z" transform="translate(-356.494 -282.934)" fill="#aa5044"/>
              </g>
              <path id="Path_40861" data-name="Path 40861" d="M366.438,250.232a5.757,5.757,0,0,0-2.86-1.592,1.389,1.389,0,0,1-1.14-.815,10.2,10.2,0,0,0-.46-1.346,4.81,4.81,0,0,0-1.847-1.726,4.536,4.536,0,0,0-.82-.33c.732.853,1.517,1.732,1.416,2.813-.036.384-.326.855-.072,1.144,2.135,2.435-.071,2.819-.617,2.259a6.933,6.933,0,0,1-2.687,1.761,2.376,2.376,0,0,1-2.79-1.046,6.622,6.622,0,0,1-3.893,2.726,4.343,4.343,0,0,1-4.348-1.508,8.993,8.993,0,0,1-7.941,1.413,3.9,3.9,0,0,0,2.439,3.479,5.366,5.366,0,0,0,4.031-.685,6.356,6.356,0,0,0,5.01,1.377c1.939-.224,3.935-1.033,4.725-2.942a2.512,2.512,0,0,0,1.533.294,2.226,2.226,0,0,0,1.44-.75c.278-.341.379-.444.841-.255a3.434,3.434,0,0,0,2.884-.345c-.287.121-.182,2.466-.148,2.772a5.665,5.665,0,0,0,1.105,2.543,3.755,3.755,0,0,1,.653,1.047c.1.419-.156.844-.166,1.261a3.772,3.772,0,0,0,.368,1.72,2.145,2.145,0,0,0,2.69,1.22,3.706,3.706,0,0,0,2.492-2.162,3.892,3.892,0,0,0,.125-2.415c-.089-.359-.335-.722-.386-1.079s.2-.627.325-.94C369.34,255.581,368.215,252.16,366.438,250.232Z" transform="translate(-338.361 -243.391)" fill="#603a2c"/>
              <g id="Group_11428" data-name="Group 11428" transform="translate(24.428 20.238)">
                <path id="Path_40862" data-name="Path 40862" d="M373.317,270.72c-.036-.007-.069-.021-.105-.026-.551-.086-1.907.405-1.907,1.244l.159,4.331c.185,1.375.966,1.714,1.751,1.475a10.522,10.522,0,0,0,.4-2.252A22.3,22.3,0,0,0,373.317,270.72Z" transform="translate(-371.182 -270.323)" fill="#ffbb81" style="mix-blend-mode: multiply;isolation: isolate"/>
                <path id="Path_40863" data-name="Path 40863" d="M371.14,271.454c0-.839,1.356-1.331,1.907-1.244,1.892.3,2.447,2.179,2,4.064-.44,1.849-3.106,3.676-3.9,1.419" transform="translate(-371.14 -270.2)" fill="#ffbb81"/>
                <path id="Path_40864" data-name="Path 40864" d="M374.07,273.21a1.076,1.076,0,0,0-1.841-.825c-.466.572-.607,1.135.165,1.368.4.122.144.728-.1,1.128-.432.722.611,1.24,1.17.843" transform="translate(-371.32 -270.676)" fill="none" stroke="#ffbb81" stroke-miterlimit="10" stroke-width="0.726" style="mix-blend-mode: multiply;isolation: isolate"/>
              </g>
            </g>
            <path id="Path_40865" data-name="Path 40865" d="M367.31,334.824a1.568,1.568,0,0,0-.659-.392,1.077,1.077,0,0,0-.755.057.355.355,0,0,0-.139.107.418.418,0,0,0-.06.177,8.7,8.7,0,0,0,.131,2.818,2.365,2.365,0,0,0,.834,1.515c.218.161.392.049.594-.136a4.648,4.648,0,0,0,1.1-2.131" transform="translate(-321.209 -266.325)" fill="#bcbcbc" style="mix-blend-mode: multiply;isolation: isolate"/>
            <g id="Group_11430" data-name="Group 11430" transform="translate(32.52 35.31)">
              <path id="Path_40866" data-name="Path 40866" d="M360.313,290.429c-2.842.249-5.294,4.771-6.406,8.144a25.521,25.521,0,0,0-1.086,9.789" transform="translate(-350.451 -290.429)" fill="none" stroke="#7a7a7a" stroke-miterlimit="10" stroke-width="0.726"/>
              <path id="Path_40867" data-name="Path 40867" d="M350.972,326.925a10.358,10.358,0,0,0,3.093-10.251,3.683,3.683,0,0,0-.95-1.685,1.66,1.66,0,0,0-2.805.834c-.775,2.764.574,5.147,2.355,7.068a20.515,20.515,0,0,0,4.071,3.163" transform="translate(-349.768 -296.564)" fill="none" stroke="#7a7a7a" stroke-linecap="round" stroke-linejoin="round" stroke-width="0.544"/>
              <path id="Path_40868" data-name="Path 40868" d="M351.06,330.85a.185.185,0,0,0-.137-.113.334.334,0,0,0-.181.057,3.541,3.541,0,0,1-.331.221c-.115.048-.172-.184-.265-.168-.151.027-.484.227-.487.364a.575.575,0,0,0,.367.43.566.566,0,0,0,.454-.005,2.84,2.84,0,0,0,.423-.285.515.515,0,0,0,.2-.311A.374.374,0,0,0,351.06,330.85Z" transform="translate(-349.659 -300.704)" fill="#0c2c49"/>
              <path id="Path_40869" data-name="Path 40869" d="M358.57,329.577c.026-.06.066-.108.116-.113a.249.249,0,0,1,.152.057,2.95,2.95,0,0,0,.279.221c.1.048.144-.184.223-.168.126.027.406.227.409.364a.563.563,0,0,1-.308.43.408.408,0,0,1-.382-.005,2.427,2.427,0,0,1-.355-.284.533.533,0,0,1-.167-.311A.422.422,0,0,1,358.57,329.577Z" transform="translate(-351.921 -300.379)" fill="#0c2c49"/>
            </g>
            <g id="Group_11431" data-name="Group 11431" transform="translate(31.742 51.215)">
              <path id="Path_40870" data-name="Path 40870" d="M364.805,313.47c-.6-.392-15.661,2.023-15.661,2.023l-.529.755s8.212,14.929,9.913,18.334l13.421-1.73.528-.755C370.405,326.683,365.4,313.863,364.805,313.47Z" transform="translate(-348.615 -312.196)" fill="#a5a5a5"/>
              <path id="Path_40871" data-name="Path 40871" d="M364.276,314.483c-.6-.393-15.661,2.023-15.661,2.023,3.031,6.265,6.274,12.863,9.384,19.089l13.95-2.485C369.876,327.7,364.874,314.875,364.276,314.483Z" transform="translate(-348.615 -312.454)" fill="#6d6d6d"/>
              <path id="Path_40872" data-name="Path 40872" d="M356.044,314.609c-.125-.135-.741-.2-.856-.5-.072-.19.247-.648.395-.753a2.477,2.477,0,0,1,.984-.23c.631-.118-.369.1-.261-.393a1.894,1.894,0,0,1,.723-.854,2.494,2.494,0,0,1,.686-.1.733.733,0,0,1,.792.515c.04.189.034.382.275.389.344.01.688,0,1.033-.009a.781.781,0,0,1,.468.1,2.77,2.77,0,0,1,.608,1.046c-.028.01-.063.568-.168.586-.44.072-1.487-.151-2.112-.078-.761.087-1.674.184-2.566.283" transform="translate(-350.288 -311.775)" fill="#604f51"/>
              <path id="Path_40873" data-name="Path 40873" d="M355.77,315.306c-.2-.218-.846-.983-.461-1.256a2.476,2.476,0,0,1,.983-.23c.631-.118-.118-.353-.01-.848a.612.612,0,0,1,.473-.4,2.485,2.485,0,0,1,.686-.1.733.733,0,0,1,.792.515c.04.189.034.383.275.389.344.01.688,0,1.033-.008a.718.718,0,0,1,.468.1,2,2,0,0,1,.361.548c.141.241.355.564.355.564a23.452,23.452,0,0,1-2.389.441c-.761.087-1.674.185-2.566.283" transform="translate(-350.291 -311.953)" fill="#392b2c"/>
            </g>
            <path id="Path_40874" data-name="Path 40874" d="M363.95,334.457c-1.692-.607-1.873-.234-2.908-.448-.307-.063-.97-.176-1.094.112s.177.651.46.82c.39.234,1.633.216,1.475.406a4.415,4.415,0,0,1-2.153.682c-.882.116-1.911-.088-2.562-.03a.37.37,0,0,0-.231.076.35.35,0,0,0-.075.28,2.621,2.621,0,0,0,1.62,2.129,5.358,5.358,0,0,0,2.765.3,11.544,11.544,0,0,0,5.222-1.933" transform="translate(-318.975 -266.208)" fill="#ffbb81"/>
            <path id="Path_40875" data-name="Path 40875" d="M378.271,300.446c.411,5.267,1.124,8.335,1.641,13.065-4.6,2.916-9.82,7.09-14.15,9.477,1,.627,1.7,3.282,1.291,4.768,6.333-1.694,16.975-7.362,19.19-9.08,1.1-.857,1.512-7.223,1.656-12.92.145-5.722-.262-10.287-1.855-12.539-1.858-2.623-5.181-3.415-10.852-3.655" transform="translate(-321.244 -254.897)" fill="#fff"/>
            <path id="Path_40876" data-name="Path 40876" d="M378.665,289.709a9.733,9.733,0,0,1,3.086,5.181,23.65,23.65,0,0,1-.113,13.451" transform="translate(-324.533 -254.935)" fill="none" stroke="#7a7a7a" stroke-miterlimit="10" stroke-width="0.726"/>
            <path id="Path_40877" data-name="Path 40877" d="M383.654,315.649a1.938,1.938,0,1,1-1.938-1.938A1.938,1.938,0,0,1,383.654,315.649Z" transform="translate(-324.816 -261.053)" fill="#7a7a7a"/>
            <path id="Path_40878" data-name="Path 40878" d="M383.194,315.888a1.239,1.239,0,1,1-1.239-1.24A1.239,1.239,0,0,1,383.194,315.888Z" transform="translate(-325.055 -261.292)" fill="#0c2c49"/>
            <path id="Path_40879" data-name="Path 40879" d="M382.8,316.093a.639.639,0,1,1-.639-.639A.639.639,0,0,1,382.8,316.093Z" transform="translate(-325.261 -261.498)" fill="#7a7a7a"/>
          </g>
        </g>
        <g id="Group_11436" data-name="Group 11436" transform="translate(0 30.926)">
          <path id="Path_40880" data-name="Path 40880" d="M285.728,292.971c-2.881-2.007-2.267-2.04-4.76.4s-4.064,4.841-1.635,7.026,5.181,1.733,7.69-.4S288.61,294.979,285.728,292.971Z" transform="translate(-275.36 -286.318)" fill="#575756"/>
          <path id="Path_40881" data-name="Path 40881" d="M279.737,290.483c2-.9,1.821-.56,1.312-2.68s-1.288-3.731-3.239-3.132-2.591,2.218-2.252,4.248S277.736,291.382,279.737,290.483Z" transform="translate(-274.684 -284.545)" fill="#575756"/>
          <path id="Path_40882" data-name="Path 40882" d="M289.373,298.076l-.031.221-1.82-.672-3.26.434-2.7.238-2.98,2.5-1.94,1.492a4.155,4.155,0,0,0,1.619,3.568c3.291,2.963,7.021,2.348,10.422-.548C291.209,303.152,291.164,300.442,289.373,298.076Z" transform="translate(-274.978 -287.879)" fill="#575756"/>
          <g id="Group_11435" data-name="Group 11435" transform="translate(0 8.881)">
            <path id="Path_40883" data-name="Path 40883" d="M292.17,301.226a9.219,9.219,0,1,1-13.037,0A9.219,9.219,0,0,1,292.17,301.226Z" transform="translate(-274.929 -296.99)" fill="#2db8c5" opacity="0.4"/>
            <g id="Group_11434" data-name="Group 11434">
              <path id="Path_40884" data-name="Path 40884" d="M279.133,301.227a9.218,9.218,0,1,0,13.037,0A9.218,9.218,0,0,0,279.133,301.227Z" transform="translate(-274.929 -296.99)" fill="none"/>
              <path id="Path_40885" data-name="Path 40885" d="M292.742,299.615A10.755,10.755,0,0,0,277.5,314.788c3.9,3.941,10.381,3.886,14.616.516l11.715,12.345a1.23,1.23,0,0,0,1.74,0h0a1.23,1.23,0,0,0,0-1.74L293.23,314.373C296.588,310.151,296.648,303.52,292.742,299.615Zm-.292,13.222a9.221,9.221,0,1,1,0-11.235A9.225,9.225,0,0,1,292.45,312.838Z" transform="translate(-274.415 -296.465)" fill="#9c9c9b"/>
            </g>
          </g>
        </g>
        <path id="Path_40886" data-name="Path 40886" d="M305.823,328.6a1.093,1.093,0,0,1,.572-.267.433.433,0,0,1,.469.341c.016.161-.089.308-.115.467s-.018.355.121.275c-.04-.2.334-.363.53-.311a.508.508,0,0,1,.333.465,1.383,1.383,0,0,1-.127.592.509.509,0,0,1,.781-.041.791.791,0,0,1,.085.857c.241-.162.589.066.65.351a1.2,1.2,0,0,1-.22.826,2.029,2.029,0,0,1-1.487,1.155,2.291,2.291,0,0,1-1.338-.519,4.645,4.645,0,0,1-1.323-1.191C303.918,330.355,304.827,329.36,305.823,328.6Z" transform="translate(-282.065 -264.78)" fill="#ffbb81"/>
      </g>
      <g id="Group_11439" data-name="Group 11439" transform="translate(92.923 165.683)">
        <path id="Path_40887" data-name="Path 40887" d="M152.022,341.2l22.628-31.811c.007-.01.016-.017.022-.027s.024-.04.037-.06l8.924-13.08a1.759,1.759,0,0,1,2.445-.462l.582.4a1.76,1.76,0,0,1,.462,2.445l-8.925,13.08a1.758,1.758,0,0,1-2.385.5l-21.7,30.447a1.055,1.055,0,0,1-1.467.277l-.349-.238A1.056,1.056,0,0,1,152.022,341.2Z" transform="translate(-151.839 -295.451)" fill="#0a7c8e"/>
        <g id="Group_11438" data-name="Group 11438" transform="translate(26.613 3.25)">
          <path id="Path_40888" data-name="Path 40888" d="M197.682,302.628l3.677,2.509a.475.475,0,0,1-.536.785l-3.677-2.509Z" transform="translate(-190.001 -300.531)" fill="#b7eaea"/>
          <path id="Path_40889" data-name="Path 40889" d="M187.651,317.327l.446-.654,3.677,2.509a.475.475,0,1,1-.535.785l-3.684-2.513C187.589,317.413,187.622,317.371,187.651,317.327Z" transform="translate(-187.556 -304.111)" fill="#b7eaea"/>
          <path id="Path_40890" data-name="Path 40890" d="M195.766,305.437l3.677,2.509a.475.475,0,0,1-.536.785l-3.677-2.509Z" transform="translate(-189.512 -301.247)" fill="#b7eaea"/>
          <path id="Path_40891" data-name="Path 40891" d="M194.807,306.842l3.677,2.509a.475.475,0,1,1-.535.785l-3.677-2.509Z" transform="translate(-189.268 -301.605)" fill="#b7eaea"/>
          <path id="Path_40892" data-name="Path 40892" d="M198.64,301.224l3.677,2.509a.475.475,0,1,1-.535.785l-3.677-2.509Z" transform="translate(-190.245 -300.173)" fill="#b7eaea"/>
          <path id="Path_40893" data-name="Path 40893" d="M199.509,299.949c.03-.044.057-.089.083-.136l3.683,2.513a.475.475,0,1,1-.535.785l-3.677-2.509Z" transform="translate(-190.489 -299.813)" fill="#b7eaea"/>
          <path id="Path_40894" data-name="Path 40894" d="M196.724,304.033l3.677,2.509a.475.475,0,1,1-.536.785l-3.677-2.509Z" transform="translate(-189.756 -300.889)" fill="#b7eaea"/>
          <path id="Path_40895" data-name="Path 40895" d="M190.975,312.459l3.677,2.509a.475.475,0,0,1-.536.785l-3.677-2.509Z" transform="translate(-188.291 -303.037)" fill="#b7eaea"/>
          <path id="Path_40896" data-name="Path 40896" d="M190.017,313.864l3.677,2.509a.475.475,0,1,1-.536.785l-3.677-2.509Z" transform="translate(-188.047 -303.395)" fill="#b7eaea"/>
          <path id="Path_40897" data-name="Path 40897" d="M189.058,315.268l3.677,2.509a.475.475,0,1,1-.535.785l-3.677-2.509Z" transform="translate(-187.803 -303.753)" fill="#b7eaea"/>
          <path id="Path_40898" data-name="Path 40898" d="M191.933,311.055l3.677,2.509a.475.475,0,0,1-.536.785L191.4,311.84Z" transform="translate(-188.535 -302.679)" fill="#b7eaea"/>
          <path id="Path_40899" data-name="Path 40899" d="M192.891,309.65l3.677,2.509a.475.475,0,0,1-.535.785l-3.677-2.509Z" transform="translate(-188.78 -302.321)" fill="#b7eaea"/>
          <path id="Path_40900" data-name="Path 40900" d="M193.849,308.246l3.677,2.509a.475.475,0,1,1-.535.785l-3.677-2.509Z" transform="translate(-189.024 -301.963)" fill="#b7eaea"/>
        </g>
      </g>
      <g id="Group_11446" data-name="Group 11446" transform="translate(59.383 134.013)">
        <g id="Group_11440" data-name="Group 11440" transform="translate(23.891 125.865)">
          <path id="Path_40901" data-name="Path 40901" d="M139.126,428.341c1.288-.066,2.578-.051,3.865-.137,1.317-.089,1.05-.533,1.623-.387,1.639.417,5.011,1.045,6.364,1.886.517.322.584,1.156.373,1.312-.765.566-3.681,1.019-5.322.973-2.409-.067-6.089.023-6.681-.428S139.126,428.341,139.126,428.341Z" transform="translate(-138.92 -423.379)" fill="#fff"/>
          <path id="Path_40902" data-name="Path 40902" d="M143.942,421.871c-.111.819-.259,1.621-.4,2.434a1.132,1.132,0,0,0,.717,1.449A15.682,15.682,0,0,1,148.685,428a67.242,67.242,0,0,1-8.543-.792.207.207,0,0,1-.222-.247q-.082-1.883-.165-3.766" transform="translate(-139.109 -421.871)" fill="#ffbb81"/>
          <path id="Path_40903" data-name="Path 40903" d="M139,427.34c1.287-.066,2.578-.051,3.865-.138,1.317-.088,1.05-.532,1.622-.386,2.267.577,7.5,2.632,6.737,3.2s-3.681,1.019-5.323.973c-2.409-.067-6.088.023-6.68-.428S139,427.34,139,427.34Z" transform="translate(-138.888 -423.124)" fill="#ffca01"/>
          <path id="Path_40904" data-name="Path 40904" d="M150.512,428.2a3.506,3.506,0,0,0-.519.4,1.232,1.232,0,0,0-.341.551" transform="translate(-141.632 -423.485)" fill="#fff" stroke="#604f51" stroke-miterlimit="10" stroke-width="0.772"/>
          <path id="Path_40905" data-name="Path 40905" d="M148.912,427.729a3.924,3.924,0,0,0-.668.326,1.317,1.317,0,0,0-.495.543" transform="translate(-141.147 -423.364)" fill="#fff" stroke="#604f51" stroke-miterlimit="10" stroke-width="0.772"/>
          <path id="Path_40906" data-name="Path 40906" d="M147.136,427.067a2.625,2.625,0,0,0-.865.68,1.536,1.536,0,0,0-.256.53" transform="translate(-140.705 -423.195)" fill="#fff" stroke="#604f51" stroke-miterlimit="10" stroke-width="0.772"/>
        </g>
        <path id="Path_40907" data-name="Path 40907" d="M138.627,358.625a95.46,95.46,0,0,1,4.234,24.489c.191,8.907-2.428,23.572-2.708,24.5a4.841,4.841,0,0,1-5.818-.265c-.286-2.2-.376-15.677-.648-22.4-.187-4.593-6.73-16.408-11.606-24.1" transform="translate(-110.713 -279.884)" fill="#096270"/>
        <path id="Path_40908" data-name="Path 40908" d="M122.082,361.254a150.068,150.068,0,0,1,9.069,16.334c-.051-6.035-1.075-12.655-1.108-17.408Z" transform="translate(-110.713 -280.281)" fill="#08494c"/>
        <path id="Path_40909" data-name="Path 40909" d="M150.118,424.167" transform="translate(-117.86 -296.592)" fill="none" stroke="#000" stroke-miterlimit="10" stroke-width="0.772"/>
        <g id="Group_11441" data-name="Group 11441" transform="translate(0 127.164)">
          <path id="Path_40910" data-name="Path 40910" d="M107.419,428.834c1.273.2,2.532.487,3.808.671,1.306.188,1.138-.3,1.668-.04,1.516.75,4.684,2.066,5.831,3.17.439.423.331,1.252.091,1.361-.866.395-3.813.229-5.409-.157-2.342-.568-5.959-1.247-6.444-1.811S107.419,428.834,107.419,428.834Z" transform="translate(-106.824 -424.945)" fill="#fff"/>
          <path id="Path_40911" data-name="Path 40911" d="M113.371,423.615c-.279.778-.591,1.532-.895,2.3a1.131,1.131,0,0,0,.4,1.566,15.7,15.7,0,0,1,3.857,3.117,67.134,67.134,0,0,1-8.191-2.556.207.207,0,0,1-.165-.287l.624-3.717" transform="translate(-107.217 -423.615)" fill="#ffbb81"/>
          <path id="Path_40912" data-name="Path 40912" d="M107.508,427.829c1.273.2,2.532.487,3.808.671,1.306.188,1.138-.3,1.668-.04,2.1,1.036,6.789,4.138,5.922,4.532s-3.813.229-5.409-.158c-2.342-.568-5.959-1.247-6.444-1.811S107.508,427.829,107.508,427.829Z" transform="translate(-106.847 -424.689)" fill="#ffca01"/>
          <path id="Path_40913" data-name="Path 40913" d="M118.72,430.938a3.5,3.5,0,0,0-.592.282,1.238,1.238,0,0,0-.449.467" transform="translate(-109.591 -425.482)" fill="none" stroke="#604f51" stroke-miterlimit="10" stroke-width="0.772"/>
          <path id="Path_40914" data-name="Path 40914" d="M117.26,430.165a3.953,3.953,0,0,0-.721.18,1.318,1.318,0,0,0-.6.428" transform="translate(-109.148 -425.285)" fill="none" stroke="#604f51" stroke-miterlimit="10" stroke-width="0.772"/>
          <path id="Path_40915" data-name="Path 40915" d="M115.636,429.144a2.609,2.609,0,0,0-.988.485,1.536,1.536,0,0,0-.361.466" transform="translate(-108.726 -425.024)" fill="none" stroke="#604f51" stroke-miterlimit="10" stroke-width="0.772"/>
        </g>
        <path id="Path_40916" data-name="Path 40916" d="M126.07,357.709c.131,7.055-2.17,19.267-4.342,27.643a212.1,212.1,0,0,1-7.61,22.654,4.954,4.954,0,0,1-5.532-1.814c.3-2.129,1.474-9.955,2.98-20.582,1.023-7.219.822-8.712-.827-21.087-.246-1.849-1.413-7.645-.327-10.543" transform="translate(-107.273 -278.7)" fill="#096270"/>
        <path id="Path_40917" data-name="Path 40917" d="M119.708,427.313" transform="translate(-110.108 -297.394)" fill="none" stroke="#000" stroke-miterlimit="10" stroke-width="0.772"/>
        <path id="Path_40918" data-name="Path 40918" d="M140.608,307.966c.714,7.63-1.3,10.869-2.391,15.734-3.808,16.947-.5,21.438-1.077,27.127a34.7,34.7,0,0,1-22.988-1.155c-.155-2.558-.1-5.136-.045-7.7a45.265,45.265,0,0,0-1.626,6.957c-2.922-1.387-4.115-1.255-4.115-1.255.7-6.644,1.682-10.387,4.183-14.41s4.421-9.925,6.037-18.254l1.089-8.734,4.622-8.261Z" transform="translate(-107.217 -264.434)" fill="#0a7c8e"/>
        <path id="Path_40919" data-name="Path 40919" d="M136,330.786a49.726,49.726,0,0,1-4.715-9.051q-.278-.618-.541-1.247c.161-.048.314-.1.457-.142-.882-2.937-2.424-8.718-2.418-10.676l-6.02-.568-1.089,8.734c-.38,1.959-.778,3.778-1.2,5.476.384.02.779.027,1.189.013a39.234,39.234,0,0,0,7.191,11.056c2.808,3,6.692,5,10.584,6.585a52.649,52.649,0,0,1,.356-5.754A28.968,28.968,0,0,1,136,330.786Z" transform="translate(-110.305 -267.26)" fill="#096270"/>
        <path id="Path_40920" data-name="Path 40920" d="M151.575,279.339c-.039-.346-.118-1.064,1.013-1.507a2.181,2.181,0,0,1,2.066.317,2.386,2.386,0,0,1,.75,1.221,4.823,4.823,0,0,1-.181,3.275,3.21,3.21,0,0,1-.645,1,2.334,2.334,0,0,1-2.083.649,2.416,2.416,0,0,1-1.708-1.4" transform="translate(-118.031 -259.256)" fill="#eaa48c"/>
        <path id="Path_40921" data-name="Path 40921" d="M133.429,289.231c-.179,1.156-.633,5-1.366,5.462-1.214.76-2.745.356-4.019,1.011,0,0,4.552,3.974,6.482,5.782,1.2,1.124,2.416,2.5,4.06,2.55.362.011.4,1.475.712,1.285.459-.283,1.025-2.331,1.215-2.836a28.857,28.857,0,0,0,1.42-5.246l-2.8-1.462a20.271,20.271,0,0,1,.6-6.078" transform="translate(-112.233 -262.195)" fill="#ffbea1"/>
        <g id="Group_11442" data-name="Group 11442" transform="translate(2.501 8.965)">
          <path id="Path_40922" data-name="Path 40922" d="M117.864,266.5a3.524,3.524,0,0,0-3.4-1.493,4.688,4.688,0,0,0-3.208,2.025,6.624,6.624,0,0,0-1.068,3.569,4.581,4.581,0,0,0,.361,2.127,5.387,5.387,0,0,0,3.716,2.49,6.862,6.862,0,0,0,4.628-.231,3.162,3.162,0,0,0,1.821-3.717" transform="translate(-110.181 -264.978)" fill="#724937"/>
          <path id="Path_40923" data-name="Path 40923" d="M122.208,271.6l-2.847-4.769a2.773,2.773,0,0,0-.464-.563,25.091,25.091,0,0,0-2.521,5.308,12.333,12.333,0,0,0-.259,4.051,6.616,6.616,0,0,0,4.269-.31A3.163,3.163,0,0,0,122.208,271.6Z" transform="translate(-111.677 -265.306)" fill="#5e382b"/>
        </g>
        <path id="Path_40924" data-name="Path 40924" d="M140.558,294.282a25.407,25.407,0,0,1,.674-4.584l-6.3-.467a26.624,26.624,0,0,1-1.006,4.936c.716.063,1.334.1,1.771.171A15.061,15.061,0,0,0,140.558,294.282Z" transform="translate(-113.731 -262.195)" fill="#eaa48c"/>
        <path id="Path_40925" data-name="Path 40925" d="M125.677,276.145c-.5,9.259,8.089,8.663,10.646,9.077a14.376,14.376,0,0,0,7.49-.8,5.018,5.018,0,0,0,1.749-1.028,6.268,6.268,0,0,0,1.419-3.535,54,54,0,0,0,.626-11.995l-2.81-7.034-3.089-2.19-6.053-.676L128.541,262l-3.188,4.769-.3,7.979" transform="translate(-111.47 -254.226)" fill="#ffbea1"/>
        <g id="Group_11443" data-name="Group 11443" transform="translate(22.028 20.672)">
          <path id="Path_40926" data-name="Path 40926" d="M136.954,283.2a1.43,1.43,0,0,0,1.683-.089,1.464,1.464,0,0,0,.345-1.388,1.284,1.284,0,0,0-2.2-.616A1.4,1.4,0,0,0,136.954,283.2Z" transform="translate(-136.388 -280.69)"/>
          <path id="Path_40927" data-name="Path 40927" d="M138.386,282.946a.525.525,0,0,0,.706-.046.732.732,0,0,0,.146-.7c-.159-.533-.543-.67-.922-.308A.692.692,0,0,0,138.386,282.946Z" transform="translate(-136.825 -280.946)" fill="#fff"/>
        </g>
        <g id="Group_11444" data-name="Group 11444" transform="translate(32.472 20.941)">
          <path id="Path_40928" data-name="Path 40928" d="M150.9,283.224a1.239,1.239,0,0,0,1.457-.078,1.265,1.265,0,0,0,.3-1.2,1.111,1.111,0,0,0-1.9-.534A1.212,1.212,0,0,0,150.9,283.224Z" transform="translate(-150.406 -281.051)"/>
          <path id="Path_40929" data-name="Path 40929" d="M152.136,283a.453.453,0,0,0,.611-.04.631.631,0,0,0,.126-.6c-.137-.461-.47-.579-.8-.266A.6.6,0,0,0,152.136,283Z" transform="translate(-150.784 -281.273)" fill="#fff"/>
        </g>
        <path id="Path_40930" data-name="Path 40930" d="M121.832,261.83a4.137,4.137,0,0,0-1.91,2.14,21.6,21.6,0,0,0-2.021,5.2,11.477,11.477,0,0,0,.031,5.576,14.876,14.876,0,0,0,3.564,5.771,5.189,5.189,0,0,0,3.006,2,.351.351,0,0,0,.282-.055.4.4,0,0,0,.1-.276c.074-1.014-.249-2.021-.213-3.038a8.585,8.585,0,0,1,.667-2.646l1.1-2.98a18.779,18.779,0,0,0,1.989,2.8.359.359,0,0,0,.177.134c.153.035.27-.136.338-.283,1.2-2.589,1.328-5.555,1.676-8.411a51.382,51.382,0,0,1,.963-5.44" transform="translate(-109.564 -255.21)" fill="#724937"/>
        <path id="Path_40931" data-name="Path 40931" d="M120.349,349.532a55.549,55.549,0,0,0,8.216,1.3l-1.279,7.6a1.529,1.529,0,0,1-1.588,1.429c-1.658.154-5.325.085-5.934-2.006-.416-1.43.142-5.917.4-7.383" transform="translate(-110.085 -277.566)" fill="#0e97a5"/>
        <path id="Path_40932" data-name="Path 40932" d="M127.815,279.455c.041-.37.125-1.139-1.074-1.613a2.291,2.291,0,0,0-2.188.339,2.566,2.566,0,0,0-.794,1.308,5.216,5.216,0,0,0,.191,3.507,3.463,3.463,0,0,0,.683,1.069,2.46,2.46,0,0,0,2.208.7,2.569,2.569,0,0,0,1.809-1.5" transform="translate(-111.086 -259.256)" fill="#ffbea1"/>
        <path id="Path_40933" data-name="Path 40933" d="M126.061,279.582c1.033.349,1.094,1.513,1.47,2.583.195.553.2,1.295-.274,1.6a.921.921,0,0,1-1.113-.2,2.092,2.092,0,0,1-.506-1.137,4.65,4.65,0,0,1-.007-1.534" transform="translate(-111.603 -259.736)" fill="none" stroke="#db9275" stroke-miterlimit="10" stroke-width="0.772"/>
        <path id="Path_40934" data-name="Path 40934" d="M136.243,267.551c-.827,1.247-1.135,2.6-1.866,3.914a5.529,5.529,0,0,0-.293,3.573c1.974.11,3.591-1.611,5.5-2.162a7.7,7.7,0,0,0-2.1,2.344c.457.323,1.068.094,1.571-.142l3.182-1.495a18,18,0,0,0,3.5-1.974,6.43,6.43,0,0,0,2.34-3.29" transform="translate(-113.731 -256.669)" fill="#724937"/>
        <path id="Path_40935" data-name="Path 40935" d="M152.37,269.957c1.555,1.855,1.618,7,2.349,6.692s.836-6.027-.421-8.575" transform="translate(-118.434 -256.802)" fill="#724937"/>
        <g id="Group_11445" data-name="Group 11445" transform="translate(8.761)">
          <path id="Path_40936" data-name="Path 40936" d="M121.584,264.022a236.387,236.387,0,0,0,24.694,1.156c.265-3.62-.823-7.258-2.048-8.7-2.054-2.414-6.52-3.308-8.268-3.481-3.155-.313-9.222.817-10.811,1.808s-4.872,5.283-5.738,8.678" transform="translate(-118.794 -252.946)" fill="#0a7c8e"/>
          <path id="Path_40937" data-name="Path 40937" d="M136.923,254.7c-2.216.287-5.135.56-6.458,1.375s-2.377,4.382-3.193,5.906" transform="translate(-120.797 -253.393)" fill="none" stroke="#096270" stroke-miterlimit="10" stroke-width="0.772"/>
          <path id="Path_40938" data-name="Path 40938" d="M149.6,258.412a24.385,24.385,0,0,1,1.456,6.466" transform="translate(-126.488 -254.339)" fill="none" stroke="#096270" stroke-miterlimit="10" stroke-width="0.772"/>
          <path id="Path_40939" data-name="Path 40939" d="M145.941,265.18c-.5-.211-12.032,1.816-25.831-1.53,0,0-2.027,4.134-1.412,4.395,9.7,4.1,27.231,1.877,27.676,1.365S146.436,265.391,145.941,265.18Z" transform="translate(-118.582 -255.674)" fill="#0e97a5"/>
        </g>
        <path id="Path_40940" data-name="Path 40940" d="M148.031,284.677a2.057,2.057,0,0,0,.337.642,1.661,1.661,0,0,1,.381,1.169,1.157,1.157,0,0,1-.42.665,3.227,3.227,0,0,1-.677.4" transform="translate(-117.232 -261.034)" fill="none" stroke="#db9275" stroke-miterlimit="10" stroke-width="0.772"/>
        <path id="Path_40941" data-name="Path 40941" d="M121.8,322.422a39.993,39.993,0,0,0,8.174,13.46,32.518,32.518,0,0,0,12.262,8.275,3.408,3.408,0,0,0,3.357,1.085c.648-.174,1.232-.542,1.882-.711.61-.158,1.638.663,2.222.89a1.5,1.5,0,0,0,1.75-.412c.75-.861-1.234-4.279-4.178-4.774a8.758,8.758,0,0,0-3.941.91,23.185,23.185,0,0,1-7.666-7.057,54.181,54.181,0,0,1-5.1-9.355,18.166,18.166,0,0,1-1.5-4.327" transform="translate(-110.641 -270.142)" fill="#ffbea1"/>
        <path id="Path_40942" data-name="Path 40942" d="M127.407,297.307a5.715,5.715,0,0,0-4.409,1.41,10.03,10.03,0,0,0-2.664,3.9c-1.91,4.635-1.26,15.217-1.024,16.07,2.952.782,8.021-.466,10.451-1.247a51.776,51.776,0,0,1-1.352-10.792" transform="translate(-109.93 -264.242)" fill="#0a7c8e"/>
        <path id="Path_40943" data-name="Path 40943" d="M141.881,299.292a2.084,2.084,0,0,0-1.542-.787c.41,2.865-1.27,7.774-1.783,7.606-2.363-.773-9.3-9.4-9.061-8.978a5.946,5.946,0,0,0-2.127.229c3.863,5.621,10.9,12.07,11.54,12.07S142.629,303.508,141.881,299.292Z" transform="translate(-112.061 -264.203)" fill="#0e97a5"/>
        <path id="Path_40944" data-name="Path 40944" d="M150.146,277.224a3.532,3.532,0,0,1,2.662,1.77" transform="translate(-117.867 -259.134)" fill="none" stroke="#724937" stroke-miterlimit="10" stroke-width="0.772"/>
        <path id="Path_40945" data-name="Path 40945" d="M135.21,278.6a5.832,5.832,0,0,1,4.222-1.564" transform="translate(-114.06 -259.084)" fill="none" stroke="#724937" stroke-miterlimit="10" stroke-width="0.772"/>
        <path id="Path_40946" data-name="Path 40946" d="M146.425,290.3c-1.339.133-3.176-.268-3.547.311-.26.406.737.859,1.543.823s1.9-.211,2-1.134" transform="translate(-116.004 -262.465)" fill="#a53830"/>
      </g>
      <path id="Path_40947" data-name="Path 40947" d="M178.668,344.426a2.413,2.413,0,0,0-3.3-2.258,2.2,2.2,0,0,0,.2-.919,2.227,2.227,0,1,0-4.214.986,3.351,3.351,0,0,0-.867,5.373,1.852,1.852,0,0,0,.174,1.648,3.01,3.01,0,0,0,.563,5.1,2.192,2.192,0,0,0-.11.659,2.223,2.223,0,1,0,3.816-1.545,2.917,2.917,0,0,0,.54-2.565c.082.007.161.025.245.025a2.836,2.836,0,0,0,2.146-4.707A2.412,2.412,0,0,0,178.668,344.426Z" transform="translate(-63.418 -140.875)" fill="#d6eae9"/>
      <g id="Group_11448" data-name="Group 11448" transform="translate(122.466 167.265)">
        <path id="Path_40948" data-name="Path 40948" d="M220.519,315.5a5.24,5.24,0,1,1-3.039-6.759A5.241,5.241,0,0,1,220.519,315.5Z" transform="translate(-196.304 -300.334)" fill="#e6ffff"/>
        <g id="Group_11447" data-name="Group 11447" transform="translate(0 0)">
          <circle id="Ellipse_2163" data-name="Ellipse 2163" cx="4.958" cy="4.958" r="4.958" transform="translate(5.944 7.967) rotate(-53.458)" fill="#e6ffff"/>
          <path id="Path_40949" data-name="Path 40949" d="M203.9,313.757a4.84,4.84,0,1,1-2.807-6.243A4.84,4.84,0,0,1,203.9,313.757Z" transform="translate(-192.265 -300.027)" fill="#e6ffff"/>
          <path id="Path_40950" data-name="Path 40950" d="M212.217,320.1a5.813,5.813,0,1,1-3.372-7.5A5.812,5.812,0,0,1,212.217,320.1Z" transform="translate(-193.905 -301.308)" fill="#e6ffff"/>
          <path id="Path_40951" data-name="Path 40951" d="M201.437,325.2a5.141,5.141,0,1,1-2.981-6.63A5.14,5.14,0,0,1,201.437,325.2Z" transform="translate(-191.489 -302.839)" fill="#e6ffff"/>
          <path id="Path_40952" data-name="Path 40952" d="M220.721,307.266a3.8,3.8,0,1,1-2.2-4.9A3.8,3.8,0,0,1,220.721,307.266Z" transform="translate(-197.065 -298.731)" fill="#e6ffff"/>
        </g>
      </g>
      <g id="Group_11449" data-name="Group 11449" transform="translate(122.466 169.241)">
        <path id="Path_40953" data-name="Path 40953" d="M215.348,303.793a3.794,3.794,0,0,1,4.175-1.024,3.834,3.834,0,0,1,.463.232,3.713,3.713,0,0,0-5.025.184A5.146,5.146,0,0,1,215.348,303.793Z" transform="translate(-197.473 -300.708)" fill="#cafffe"/>
        <path id="Path_40954" data-name="Path 40954" d="M192.423,317.364a5.131,5.131,0,0,1,3.494-3.141,4.837,4.837,0,0,1,4.1-8.323,4.9,4.9,0,0,1,7.368-4.619,4.87,4.87,0,0,0-1.262-.731,4.951,4.951,0,0,0-6.7,4.945,4.837,4.837,0,0,0-4.105,8.323,5.133,5.133,0,0,0-1.287,9.395A5.143,5.143,0,0,1,192.423,317.364Z" transform="translate(-191.49 -300.225)" fill="#cafffe"/>
      </g>
      <g id="Group_11450" data-name="Group 11450" transform="translate(135.345 152.701)">
        <path id="Path_40955" data-name="Path 40955" d="M216.38,281.83a3.8,3.8,0,1,1-3.8-3.8A3.8,3.8,0,0,1,216.38,281.83Z" transform="translate(-208.774 -278.027)" fill="#d6eae9"/>
        <path id="Path_40956" data-name="Path 40956" d="M219.921,284.922a2.207,2.207,0,1,1-2.208-2.207A2.207,2.207,0,0,1,219.921,284.922Z" transform="translate(-210.49 -279.222)" fill="#d6eae9"/>
        <circle id="Ellipse_2164" data-name="Ellipse 2164" cx="3.167" cy="3.167" r="3.167" transform="translate(1.443 5.627)" fill="#d6eae9"/>
      </g>
      <g id="Group_11451" data-name="Group 11451" transform="translate(135.345 151.956)">
        <path id="Path_40957" data-name="Path 40957" d="M216.38,280.83a3.8,3.8,0,1,1-3.8-3.8A3.8,3.8,0,0,1,216.38,280.83Z" transform="translate(-208.774 -277.027)" fill="#e6ffff"/>
        <path id="Path_40958" data-name="Path 40958" d="M219.921,283.922a2.207,2.207,0,1,1-2.208-2.207A2.207,2.207,0,0,1,219.921,283.922Z" transform="translate(-210.49 -278.222)" fill="#e6ffff"/>
        <circle id="Ellipse_2165" data-name="Ellipse 2165" cx="3.167" cy="3.167" r="3.167" transform="translate(1.443 5.627)" fill="#e6ffff"/>
      </g>
      <g id="Group_11452" data-name="Group 11452" transform="translate(121.748 197.2)">
        <path id="Path_40959" data-name="Path 40959" d="M195.394,343.184a2.434,2.434,0,1,1-2.434-2.434A2.434,2.434,0,0,1,195.394,343.184Z" transform="translate(-190.526 -338.515)" fill="#d6eae9"/>
        <circle id="Ellipse_2166" data-name="Ellipse 2166" cx="3.073" cy="3.073" r="3.073" transform="translate(3.455 0)" fill="#d6eae9"/>
        <path id="Path_40960" data-name="Path 40960" d="M196.5,339.444a1.694,1.694,0,1,1-1.694-1.694A1.694,1.694,0,0,1,196.5,339.444Z" transform="translate(-191.186 -337.75)" fill="#d6eae9"/>
      </g>
      <g id="Group_11453" data-name="Group 11453" transform="translate(121.748 196.455)">
        <path id="Path_40961" data-name="Path 40961" d="M195.394,342.184a2.434,2.434,0,1,1-2.434-2.434A2.434,2.434,0,0,1,195.394,342.184Z" transform="translate(-190.526 -337.515)" fill="#e6ffff"/>
        <circle id="Ellipse_2167" data-name="Ellipse 2167" cx="3.073" cy="3.073" r="3.073" transform="translate(3.455 0)" fill="#e6ffff"/>
        <path id="Path_40962" data-name="Path 40962" d="M196.5,338.444a1.694,1.694,0,1,1-1.694-1.694A1.694,1.694,0,0,1,196.5,338.444Z" transform="translate(-191.186 -336.75)" fill="#e6ffff"/>
      </g>
      <path id="Path_40963" data-name="Path 40963" d="M230.509,305.721a2.093,2.093,0,1,1-2.093-2.093A2.093,2.093,0,0,1,230.509,305.721Z" transform="translate(-77.903 -131.852)" fill="#d6eae9"/>
      <circle id="Ellipse_2168" data-name="Ellipse 2168" cx="1.444" cy="1.444" r="1.444" transform="translate(149.018 167.071)" fill="#d6eae9"/>
      <path id="Path_40964" data-name="Path 40964" d="M230.509,304.721a2.093,2.093,0,1,1-2.093-2.093A2.093,2.093,0,0,1,230.509,304.721Z" transform="translate(-77.903 -131.597)" fill="#e6ffff"/>
      <circle id="Ellipse_2169" data-name="Ellipse 2169" cx="1.444" cy="1.444" r="1.444" transform="translate(149.018 166.326)" fill="#e6ffff"/>
      <g id="Group_11454" data-name="Group 11454" transform="translate(105.337 198.148)">
        <circle id="Ellipse_2170" data-name="Ellipse 2170" cx="3.366" cy="3.366" r="3.366" transform="translate(0 2.838)" fill="#e6ffff"/>
        <path id="Path_40965" data-name="Path 40965" d="M175.12,341.25a2.227,2.227,0,1,1-2.227-2.227A2.227,2.227,0,0,1,175.12,341.25Z" transform="translate(-169.052 -339.023)" fill="#e6ffff"/>
        <path id="Path_40966" data-name="Path 40966" d="M174.568,354.9a3.034,3.034,0,1,1-3.034-3.034A3.034,3.034,0,0,1,174.568,354.9Z" transform="translate(-168.5 -342.297)" fill="#e6ffff"/>
        <path id="Path_40967" data-name="Path 40967" d="M173.5,350.75a1.917,1.917,0,1,1-1.917-1.916A1.917,1.917,0,0,1,173.5,350.75Z" transform="translate(-168.797 -341.524)" fill="#e6ffff"/>
        <path id="Path_40968" data-name="Path 40968" d="M176.717,343.017a2.427,2.427,0,1,1-2.427,2.428A2.427,2.427,0,0,1,176.717,343.017Z" transform="translate(-169.976 -340.041)" fill="#e6ffff"/>
        <circle id="Ellipse_2171" data-name="Ellipse 2171" cx="2.85" cy="2.85" r="2.85" transform="translate(3.366 6.205)" fill="#e6ffff"/>
        <circle id="Ellipse_2172" data-name="Ellipse 2172" cx="2.223" cy="2.223" r="2.223" transform="translate(1.614 13.767)" fill="#e6ffff"/>
      </g>
      <g id="Group_11457" data-name="Group 11457" transform="translate(86.193 54.224)">
        <g id="Group_11455" data-name="Group 11455" transform="translate(0 2.643)">
          <rect id="Rectangle_2821" data-name="Rectangle 2821" width="69.856" height="46.586" transform="translate(1.1 0.586)" fill="url(#linear-gradient)"/>
          <path id="Path_40969" data-name="Path 40969" d="M214.861,197.164H142.806V149.407h72.055ZM145,195.993h67.659V150.578H145Z" transform="translate(-142.806 -149.407)" fill="#575756"/>
          <line id="Line_222" data-name="Line 222" x2="17.882" transform="translate(5.027 4.183)" fill="none" stroke="#fff" stroke-miterlimit="10" stroke-width="1" opacity="0.48"/>
          <line id="Line_223" data-name="Line 223" x2="15.523" transform="translate(5.027 5.798)" fill="none" stroke="#fff" stroke-miterlimit="10" stroke-width="1" opacity="0.48"/>
          <line id="Line_224" data-name="Line 224" x2="11.673" transform="translate(5.027 7.412)" fill="none" stroke="#fff" stroke-miterlimit="10" stroke-width="1" opacity="0.48"/>
          <line id="Line_225" data-name="Line 225" x2="7.203" transform="translate(5.027 9.027)" fill="none" stroke="#fff" stroke-miterlimit="10" stroke-width="1" opacity="0.48"/>
        </g>
        <g id="Group_11456" data-name="Group 11456" transform="translate(40.496)">
          <path id="Path_40970" data-name="Path 40970" d="M198.436,151.139l0,0a1.161,1.161,0,0,0,.357-.091,1.237,1.237,0,0,0,.538-.463,1.583,1.583,0,0,0,.095-.18.029.029,0,0,0,0-.015.764.764,0,0,0,.042-.12.634.634,0,0,0,.017-.085.746.746,0,0,0,.062.18h0a.988.988,0,0,0,.138.2,1.254,1.254,0,0,0,1.826.177.417.417,0,0,0,.056-.058v0a1.72,1.72,0,0,0,.21-.313l.009-.021a.16.16,0,0,0,0,.046.011.011,0,0,0,0,.008.624.624,0,0,0,.012.187.968.968,0,0,0,.185.408.856.856,0,0,0,.666.34.818.818,0,0,0,.671-.4,1.383,1.383,0,0,0,.119-.2.362.362,0,0,0,.028.068.288.288,0,0,0,.027.063.128.128,0,0,1,.016.028l0,0a1.23,1.23,0,0,0,.119.172,1.283,1.283,0,0,0,.975.459,1.015,1.015,0,0,0,.1-.007.859.859,0,0,0,.6-.537,7.88,7.88,0,0,0,.493-1.326c.012-.037.021-.075.028-.109a.553.553,0,0,0,.016-.073l.006-.013s0-.013,0-.016a3.045,3.045,0,0,0,0-1.758c-.583-1.413-2.95-1.651-4.386-1.8a3.929,3.929,0,0,0-3.762,1.5,2.067,2.067,0,0,0-.227.389l-.005,0a3.737,3.737,0,0,0-.312,1.1,2.475,2.475,0,0,0,.55,1.82,1.7,1.7,0,0,0,.127.163.018.018,0,0,1,.006.007.092.092,0,0,1,.014.015.284.284,0,0,0,.045.059c.014.015.028.033.048.051A.682.682,0,0,0,198.436,151.139Z" transform="translate(-197.156 -145.86)" fill="#ffbb81"/>
          <path id="Path_40971" data-name="Path 40971" d="M198.2,151.692c-.021-.019-.034-.036-.048-.051s-.034-.045-.045-.059a.236.236,0,0,0-.02-.022.76.76,0,0,0,.969-.06,1.609,1.609,0,0,0,.422-.665,3.6,3.6,0,0,0,.069-.84,3.219,3.219,0,0,1,.384-1.424,3.147,3.147,0,0,0-.191,1.425l-.014.882c0,.014-.007.025-.011.039a1.045,1.045,0,0,1-.051.181,1.575,1.575,0,0,1-.095.18,1.2,1.2,0,0,1-.9.551A.682.682,0,0,1,198.2,151.692Z" transform="translate(-197.394 -146.551)" fill="#e8a16b"/>
          <path id="Path_40972" data-name="Path 40972" d="M200.516,151.172a.986.986,0,0,1-.138-.2c.034.066.171.133.229.173a2.4,2.4,0,0,0,.494.259,1.078,1.078,0,0,0,.754.023.857.857,0,0,0,.4-.321.951.951,0,0,0,.125-.533,5.777,5.777,0,0,1,.048-.621,4.824,4.824,0,0,1,.2-.889,4.461,4.461,0,0,1,.367-.827,4.559,4.559,0,0,0-.277.851,4.263,4.263,0,0,0-.1.882,6.557,6.557,0,0,0,0,.983l-.009.021a1.816,1.816,0,0,1-.212.317A1.244,1.244,0,0,1,200.516,151.172Z" transform="translate(-197.977 -146.466)" fill="#e8a16b"/>
          <path id="Path_40973" data-name="Path 40973" d="M204.919,151.771a1.382,1.382,0,0,0,.119-.2.361.361,0,0,0,.028.068c.007.012.011.022.019.034s.007.012.01.017a.016.016,0,0,1,0,.012.076.076,0,0,1,.015.032,1.231,1.231,0,0,0,.119.172,1.283,1.283,0,0,0,.975.459,1.011,1.011,0,0,0,.1-.007.859.859,0,0,0,.6-.537,7.881,7.881,0,0,0,.493-1.326c.012-.037.021-.075.028-.109s.015-.06.022-.086l-.006.013a2.753,2.753,0,0,1-.878,1.416,1.046,1.046,0,0,1-.71.275.794.794,0,0,1-.582-.508,1.351,1.351,0,0,1-.065-.691,4.411,4.411,0,0,1,.4-1.665,4.523,4.523,0,0,0-.594,1.641,2.183,2.183,0,0,0-.027.485c-.214.332-.408.677-.691.68-.587.116-.856-.554-.911-.709a.625.625,0,0,0,.012.187.969.969,0,0,0,.185.408A.788.788,0,0,0,204.919,151.771Z" transform="translate(-198.743 -146.697)" fill="#e8a16b"/>
          <path id="Path_40974" data-name="Path 40974" d="M203.447,150.934a1.383,1.383,0,0,0,.119-.2.361.361,0,0,0,.028.068.288.288,0,0,0,.027.063.128.128,0,0,1,.016.028l0,0a1.232,1.232,0,0,0,.119.172,1.283,1.283,0,0,0,.975.459,1.016,1.016,0,0,0,.1-.007.859.859,0,0,0,.6-.537,7.879,7.879,0,0,0,.493-1.326,1.122,1.122,0,0,0,.028-.109.549.549,0,0,0,.016-.073l.006-.013s0-.013,0-.016a3.045,3.045,0,0,0,0-1.758c-.583-1.413-2.95-1.651-4.386-1.8a3.929,3.929,0,0,0-3.762,1.5,2.066,2.066,0,0,0-.227.389c.2-.03,5.627-.832,5.169,3.556A.818.818,0,0,0,203.447,150.934Z" transform="translate(-197.271 -145.86)" fill="#ffd5b6" opacity="0.3" style="mix-blend-mode: multiply;isolation: isolate"/>
        </g>
      </g>
      <g id="Group_11458" data-name="Group 11458" transform="translate(155.161 35.048)">
        <path id="Path_40975" data-name="Path 40975" d="M271.46,144.615c-1.124,6.458-7.2,16.041-11,18.551-5.118,3.382-13.925,3.748-18.538,2.361-1.465,2.1-2.3.218-3.858,1.653-1.051.971.532,2.428.405,2.673-.329.636-1.339-.422-2.115-1.533-1.121-1.606-1.432-3.551-.166-4.675a4.88,4.88,0,0,1,5.275-.963c5.008-.573,14.671-5.579,16.5-7.272,2.888-2.667,3.357-6.694,4.042-11.275" transform="translate(-235.37 -126.244)" fill="#ffbb81"/>
        <path id="Path_40976" data-name="Path 40976" d="M260.869,126.308c1.662-2.913,4.328-5.878,7.7-6.161a4.159,4.159,0,0,1,3.067.77c2.2,1.825,3.423,4.962,4.567,7.508a70.611,70.611,0,0,1,3.306,9.846c-4.013,2.571-9.264,3.848-13.841,4.336-1.079-3.018-2.378-7.457-3.583-10.427" transform="translate(-241.87 -120.123)" fill="#0a7c8e"/>
        <path id="Path_40977" data-name="Path 40977" d="M274.455,122.442c1.627,1.848,2.659,4.419,3.626,6.573a70.628,70.628,0,0,1,3.306,9.847c-2.822,1.807-9.326,4.257-13.157,4.257,8.224-2.565,7.369-3.943,9.644-5.107a1.891,1.891,0,0,0,.917-.747,1.824,1.824,0,0,0,.039-1.118A55.482,55.482,0,0,0,274.455,122.442Z" transform="translate(-243.747 -120.714)" fill="#096270" opacity="0.55"/>
      </g>
      <g id="Group_11476" data-name="Group 11476" transform="translate(10.607 1.521)">
        <g id="Group_11459" data-name="Group 11459" transform="translate(106.947 23.236)">
          <path id="Path_40978" data-name="Path 40978" d="M196.068,111a5.624,5.624,0,1,1-6.484-4.608A5.625,5.625,0,0,1,196.068,111Z" transform="translate(-184.897 -106.312)" fill="#63c7db"/>
          <path id="Path_40979" data-name="Path 40979" d="M191.568,115.988a.6.6,0,0,1-.338-.106l-2.542-1.747a.6.6,0,1,1,.677-.984l1.98,1.361,1.942-3.822a.6.6,0,0,1,1.066.541l-2.251,4.43a.6.6,0,0,1-.385.308A.585.585,0,0,1,191.568,115.988Z" transform="translate(-185.797 -107.345)" fill="#1b4791"/>
        </g>
        <g id="Group_11460" data-name="Group 11460" transform="translate(230.232 58.748)">
          <path id="Path_40980" data-name="Path 40980" d="M361.563,160.32a5.625,5.625,0,1,1-4.855-6.3A5.625,5.625,0,0,1,361.563,160.32Z" transform="translate(-350.359 -153.972)" fill="#ffca01"/>
          <path id="Path_40981" data-name="Path 40981" d="M356.286,163.854h-.028a.6.6,0,0,1-.44-.225l-1.921-2.414a.6.6,0,0,1,.936-.744l1.5,1.881,2.974-3.088a.6.6,0,0,1,.861.829l-3.447,3.58A.6.6,0,0,1,356.286,163.854Z" transform="translate(-351.228 -155.274)" fill="#fff"/>
        </g>
        <path id="Path_40982" data-name="Path 40982" d="M45.5,246.491a2.068,2.068,0,1,1-2.068-2.068A2.068,2.068,0,0,1,45.5,246.491Z" transform="translate(-41.361 -118.281)" fill="#43aadd"/>
        <path id="Path_40983" data-name="Path 40983" d="M96.823,202.1a2.068,2.068,0,1,1-2.068-2.068A2.069,2.069,0,0,1,96.823,202.1Z" transform="translate(-54.444 -106.967)" fill="#ffca01"/>
        <path id="Path_40984" data-name="Path 40984" d="M416.486,199.328a2.068,2.068,0,1,1-2.068-2.068A2.069,2.069,0,0,1,416.486,199.328Z" transform="translate(-135.93 -106.259)" fill="#43aadd"/>
        <path id="Path_40985" data-name="Path 40985" d="M316.1,123.4a2.068,2.068,0,1,1-2.068-2.068A2.068,2.068,0,0,1,316.1,123.4Z" transform="translate(-110.34 -86.905)" fill="#ffca01"/>
        <g id="Group_11463" data-name="Group 11463" transform="translate(57.158 53.959)">
          <g id="Group_11461" data-name="Group 11461" transform="translate(2.326)">
            <path id="Path_40986" data-name="Path 40986" d="M121.855,153.518a.66.66,0,0,1-.659-.659v-4.653a.66.66,0,0,1,1.32,0v4.653A.66.66,0,0,1,121.855,153.518Z" transform="translate(-121.196 -147.546)" fill="#43aadd"/>
          </g>
          <g id="Group_11462" data-name="Group 11462" transform="translate(0 2.326)">
            <path id="Path_40987" data-name="Path 40987" d="M123.387,151.987h-4.654a.659.659,0,1,1,0-1.319h4.654a.659.659,0,1,1,0,1.319Z" transform="translate(-118.074 -150.668)" fill="#43aadd"/>
          </g>
        </g>
        <g id="Group_11466" data-name="Group 11466" transform="translate(195.377)">
          <g id="Group_11464" data-name="Group 11464" transform="translate(2.326)">
            <path id="Path_40988" data-name="Path 40988" d="M307.361,81.1a.66.66,0,0,1-.659-.659V75.785a.659.659,0,0,1,1.319,0v4.653A.659.659,0,0,1,307.361,81.1Z" transform="translate(-306.702 -75.126)" fill="#43aadd"/>
          </g>
          <g id="Group_11465" data-name="Group 11465" transform="translate(0 2.326)">
            <path id="Path_40989" data-name="Path 40989" d="M308.893,79.568h-4.654a.66.66,0,0,1,0-1.32h4.654a.66.66,0,0,1,0,1.32Z" transform="translate(-303.58 -78.248)" fill="#43aadd"/>
          </g>
        </g>
        <g id="Group_11469" data-name="Group 11469" transform="translate(17.441 176.628)">
          <g id="Group_11467" data-name="Group 11467" transform="translate(2.327)">
            <path id="Path_40990" data-name="Path 40990" d="M68.551,318.154a.66.66,0,0,1-.659-.659v-4.653a.659.659,0,0,1,1.319,0v4.653A.66.66,0,0,1,68.551,318.154Z" transform="translate(-67.892 -312.182)" fill="#43aadd"/>
          </g>
          <g id="Group_11468" data-name="Group 11468" transform="translate(0 2.326)">
            <path id="Path_40991" data-name="Path 40991" d="M70.083,316.623H65.429a.659.659,0,1,1,0-1.319h4.654a.659.659,0,0,1,0,1.319Z" transform="translate(-64.769 -315.304)" fill="#43aadd"/>
          </g>
        </g>
        <g id="Group_11472" data-name="Group 11472" transform="translate(286.603 133.248)">
          <g id="Group_11470" data-name="Group 11470" transform="translate(2.327)">
            <path id="Path_40992" data-name="Path 40992" d="M429.8,259.934a.66.66,0,0,1-.659-.66V254.62a.659.659,0,1,1,1.319,0v4.653A.66.66,0,0,1,429.8,259.934Z" transform="translate(-429.14 -253.961)" fill="#ffca01"/>
          </g>
          <g id="Group_11471" data-name="Group 11471" transform="translate(0 2.326)">
            <path id="Path_40993" data-name="Path 40993" d="M431.331,258.4h-4.654a.66.66,0,1,1,0-1.32h4.654a.66.66,0,0,1,0,1.32Z" transform="translate(-426.017 -257.083)" fill="#ffca01"/>
          </g>
        </g>
        <g id="Group_11475" data-name="Group 11475" transform="translate(260.418 34.625)">
          <g id="Group_11473" data-name="Group 11473" transform="translate(2.327)">
            <path id="Path_40994" data-name="Path 40994" d="M394.655,127.57a.66.66,0,0,1-.659-.659v-4.654a.659.659,0,0,1,1.319,0v4.654A.66.66,0,0,1,394.655,127.57Z" transform="translate(-393.996 -121.597)" fill="#43aadd"/>
          </g>
          <g id="Group_11474" data-name="Group 11474" transform="translate(0 2.327)">
            <path id="Path_40995" data-name="Path 40995" d="M396.186,126.039h-4.653a.659.659,0,1,1,0-1.319h4.653a.659.659,0,1,1,0,1.319Z" transform="translate(-390.873 -124.72)" fill="#43aadd"/>
          </g>
        </g>
      </g>
    </g>
  </g>
</svg>
