<svg xmlns="http://www.w3.org/2000/svg" width="21.814" height="19.173" viewBox="0 0 21.814 19.173">
  <g id="supermarket_2_" data-name="supermarket (2)" transform="translate(0)">
    <path id="Path_41003" data-name="Path 41003" d="M7.028,12.782h11.59a.639.639,0,0,0,.614-.464l2.556-8.947a.639.639,0,0,0-.614-.815H5.554L5.1.5A.639.639,0,0,0,4.473,0H.639a.639.639,0,1,0,0,1.278H3.961L6.268,11.662a1.917,1.917,0,0,0,.762,3.676H18.619a.639.639,0,0,0,0-1.278H7.03a.639.639,0,0,1,0-1.278Zm13.3-8.947L18.136,11.5H7.542l-1.7-7.669Zm0,0" fill="#63c7db"/>
    <path id="Path_41004" data-name="Path 41004" d="M150,361.917A1.917,1.917,0,1,0,151.917,360,1.919,1.919,0,0,0,150,361.917Zm1.917-.639a.639.639,0,1,1-.639.639A.64.64,0,0,1,151.917,361.278Zm0,0" transform="translate(-143.609 -344.662)" fill="#63c7db"/>
    <path id="Path_41005" data-name="Path 41005" d="M362,361.917A1.917,1.917,0,1,0,363.917,360,1.919,1.919,0,0,0,362,361.917Zm1.917-.639a.639.639,0,1,1-.639.639A.64.64,0,0,1,363.917,361.278Zm0,0" transform="translate(-346.577 -344.662)" fill="#63c7db"/>
  </g>
</svg>
