<svg xmlns="http://www.w3.org/2000/svg" width="74" height="78" viewBox="0 0 74 78">
  <g id="Group_12762" data-name="Group 12762" transform="translate(-1211 -1408)">
    <path id="Rectangle_3102" data-name="Rectangle 3102" d="M0,0H36A15,15,0,0,1,51,15V47a0,0,0,0,1,0,0H15A15,15,0,0,1,0,32V0A0,0,0,0,1,0,0Z" transform="translate(1211 1408)" fill="#1b4791" opacity="0.04"/>
    <path id="Rectangle_3103" data-name="Rectangle 3103" d="M0,0H16a7,7,0,0,1,7,7V22a0,0,0,0,1,0,0H7a7,7,0,0,1-7-7V0A0,0,0,0,1,0,0Z" transform="translate(1262 1464)" fill="#edf7fa" opacity="0.88"/>
  </g>
</svg>
