<svg xmlns="http://www.w3.org/2000/svg" xmlns:xlink="http://www.w3.org/1999/xlink" width="142.45" height="152.43" viewBox="0 0 142.45 152.43">
  <defs>
    <linearGradient id="linear-gradient" x1="0.5" y1="-4.653" x2="0.5" y2="2.072" gradientUnits="objectBoundingBox">
      <stop offset="0" stop-color="#fff"/>
      <stop offset="0.216" stop-color="#fff" stop-opacity="0.761"/>
      <stop offset="0.604" stop-color="#fff" stop-opacity="0.357"/>
      <stop offset="0.874" stop-color="#fff" stop-opacity="0.098"/>
      <stop offset="1" stop-color="#fff" stop-opacity="0"/>
    </linearGradient>
  </defs>
  <g id="Group_12290" data-name="Group 12290" transform="translate(-58.588 -30.209)">
    <circle id="Ellipse_2179" data-name="Ellipse 2179" cx="50.364" cy="50.364" r="50.364" transform="translate(58.588 101.434) rotate(-45)" fill="url(#linear-gradient)"/>
    <g id="Group_11640" data-name="Group 11640" transform="translate(64.372 50.868)">
      <path id="Path_41182" data-name="Path 41182" d="M87.5,185.793a3.035,3.035,0,0,0-2.751,2.751.4.4,0,0,1-.781,0,3.035,3.035,0,0,0-2.751-2.751.4.4,0,0,1,0-.78,3.035,3.035,0,0,0,2.751-2.751.4.4,0,0,1,.781,0,3.035,3.035,0,0,0,2.751,2.751A.4.4,0,0,1,87.5,185.793Z" transform="translate(-78.564 -147.388)" fill="#fff"/>
      <path id="Path_41183" data-name="Path 41183" d="M360.249,90.827a3.035,3.035,0,0,0-2.751,2.751.4.4,0,0,1-.781,0,3.034,3.034,0,0,0-2.751-2.751.4.4,0,0,1,0-.781,3.034,3.034,0,0,0,2.751-2.751.4.4,0,0,1,.781,0,3.034,3.034,0,0,0,2.751,2.751A.4.4,0,0,1,360.249,90.827Z" transform="translate(-252.06 -86.98)" fill="#fff"/>
      <path id="Path_41184" data-name="Path 41184" d="M383.7,117.841a1.583,1.583,0,0,0-1.436,1.436.208.208,0,0,1-.407,0,1.583,1.583,0,0,0-1.436-1.436.208.208,0,0,1,0-.407A1.583,1.583,0,0,0,381.857,116a.208.208,0,0,1,.407,0,1.583,1.583,0,0,0,1.436,1.436A.208.208,0,0,1,383.7,117.841Z" transform="translate(-268.984 -105.334)" fill="#fff"/>
      <path id="Path_41185" data-name="Path 41185" d="M77.924,215.159a1.583,1.583,0,0,0-1.435,1.436.208.208,0,0,1-.407,0,1.583,1.583,0,0,0-1.435-1.436.208.208,0,0,1,0-.407,1.583,1.583,0,0,0,1.435-1.436.208.208,0,0,1,.407,0,1.583,1.583,0,0,0,1.435,1.436A.208.208,0,0,1,77.924,215.159Z" transform="translate(-74.482 -167.238)" fill="#fff"/>
    </g>
    <g id="Group_11643" data-name="Group 11643" transform="translate(84.624 69.542)">
      <g id="Group_11642" data-name="Group 11642" transform="translate(0)">
        <g id="Group_11641" data-name="Group 11641">
          <path id="Path_41186" data-name="Path 41186" d="M207.967,193.294c3.163,25.825-1.6,49.335-8.612,49.88s-11.9-14.818-11.742-26.911q.007-.567-.023-1.121c-.416-7.748-6.233-11.816-12.268-12.137a14.449,14.449,0,0,0-3.249.192,12.3,12.3,0,0,0-10.5,11.6q-.045.554-.052,1.12c-.159,12.094-5.448,27.323-12.445,26.593-3.941-.41-6.979-8.092-8.192-19.324a124.271,124.271,0,0,1,.892-30.765s-20.57-33.374-7.012-47.837,40.737.535,40.737.535h0c.282-.145,27.627-14.2,40.734.535C229.406,160.471,207.967,193.294,207.967,193.294Z" transform="translate(-130.135 -138.294)" fill="#fff"/>
        </g>
        <path id="Path_41187" data-name="Path 41187" d="M157.409,146.715s-11.122-.719-16.962,6.465-.823,23.557-.823,23.557S137.819,151.1,157.409,146.715Z" transform="translate(-134.896 -143.638)" fill="#eaeaea"/>
        <path id="Path_41188" data-name="Path 41188" d="M286.952,194.406c3.163,25.824-1.6,49.335-8.612,49.88s-11.9-14.818-11.742-26.911q.007-.567-.023-1.121c-.416-7.748-6.233-11.816-12.268-12.137h0c14.421-2.154,15.919,8.736,17.207,19.327s6.439,17.173,9.731,3.577-1.574-33.631-1.574-33.631c10.734-10.017,14.687-37.893,5.718-47.094-7.6-7.8-30.665-.14-30.908-.063.282-.145,27.627-14.2,40.734.535C308.391,161.583,286.952,194.406,286.952,194.406Z" transform="translate(-209.119 -139.406)" fill="#eaeaea"/>
        <path id="Path_41189" data-name="Path 41189" d="M190.854,316.64h0a12.3,12.3,0,0,0-10.5,11.6q-.045.554-.052,1.12c-.159,12.094-5.448,27.323-12.445,26.593-3.941-.41-6.979-8.092-8.192-19.324h0s2.3,16,9.519,12.828c7.156-3.149,7.983-23.217,11.354-28.116S190.854,316.64,190.854,316.64Z" transform="translate(-148.916 -251.739)" fill="#eaeaea"/>
      </g>
    </g>
    <g id="Group_11662" data-name="Group 11662" transform="translate(91.16 32.797)">
      <path id="Path_41190" data-name="Path 41190" d="M222.7,76.395s1.714,8.446,2.2,9.777,1.675-.236,1.637-2.53l2.01-1.037s.657,3.567-.852,5.664c-1.288,1.791-2.53,1.864-3.594,1.154s-1.927-3.657-1.927-3.657A74.563,74.563,0,0,1,222.7,76.395Z" transform="translate(-195.221 -62.176)" fill="#fff"/>
      <g id="Group_11648" data-name="Group 11648" transform="translate(15.506 12.763)">
        <g id="Group_11646" data-name="Group 11646">
          <g id="Group_11645" data-name="Group 11645">
            <g id="Group_11644" data-name="Group 11644">
              <path id="Path_41191" data-name="Path 41191" d="M201.918,87.556l0,5.825c-4.314,2.294-7.176,1.629-10.847-.023l.107-5.986-.473-13.522a14.256,14.256,0,0,1,5.784-1.452q.137,0,.273,0a13.059,13.059,0,0,1,5.921,1.456Z" transform="translate(-190.707 -72.395)" fill="#fff"/>
            </g>
          </g>
        </g>
        <g id="Group_11647" data-name="Group 11647" transform="translate(5.784 0)">
          <path id="Path_41192" data-name="Path 41192" d="M206.873,72.395V94.6a.136.136,0,0,1-.273,0V72.4Q206.737,72.395,206.873,72.395Z" transform="translate(-206.6 -72.395)" fill="#eaeaea"/>
        </g>
      </g>
      <g id="Group_11655" data-name="Group 11655" transform="translate(16.68 0)">
        <g id="Group_11649" data-name="Group 11649" transform="translate(3.294 10.687)">
          <path id="Path_41193" data-name="Path 41193" d="M205.912,69.333V66.69h-2.926v2.643A3.44,3.44,0,0,0,205.912,69.333Z" transform="translate(-202.986 -66.69)" fill="#fdb491"/>
          <path id="Path_41194" data-name="Path 41194" d="M205.912,66.69v2.076a6.446,6.446,0,0,1-2.926-1.121V66.69Z" transform="translate(-202.986 -66.69)" fill="#ef887a"/>
        </g>
        <path id="Path_41195" data-name="Path 41195" d="M195.408,53.224a1.662,1.662,0,0,0-.966-.909c-.644-.151-.625,1.458-.227,2.632a1,1,0,0,0,1.4.72Z" transform="translate(-193.934 -46.852)" fill="#ef887a"/>
        <path id="Path_41196" data-name="Path 41196" d="M215.634,53.224a1.661,1.661,0,0,1,.966-.909c.644-.151.625,1.458.227,2.632a1,1,0,0,1-1.4.72Z" transform="translate(-207.604 -46.852)" fill="#ef887a"/>
        <path id="Path_41197" data-name="Path 41197" d="M200.792,55.733h0c-1.953,0-3.536-2.1-3.536-3.945V47.609h7.072v4.178C204.328,53.635,202.746,55.733,200.792,55.733Z" transform="translate(-196.047 -43.866)" fill="#fdb491"/>
        <path id="Path_41198" data-name="Path 41198" d="M196.093,44.1s-1.209-1.818-.368-3.039a2.448,2.448,0,0,1,0-2.038c.516-.994,2.7-2.138,5.736-1.541s2.465,2.84,2.085,3.465a3.19,3.19,0,0,1-.381,3.153,4.264,4.264,0,0,1-.461-2.841,10.592,10.592,0,0,1-6.138-.2S196.945,43.309,196.093,44.1Z" transform="translate(-194.884 -37.322)" fill="#1d3b50"/>
        <g id="Group_11650" data-name="Group 11650" transform="translate(2.064 7.836)">
          <path id="Path_41199" data-name="Path 41199" d="M199.658,58.855a5.911,5.911,0,0,0,.384,3.091,2.621,2.621,0,0,0,2.245.941A2.745,2.745,0,0,0,204.6,61.85a4.864,4.864,0,0,0,.265-2.995A7.476,7.476,0,0,1,199.658,58.855Z" transform="translate(-199.605 -58.855)" fill="#265fc5"/>
        </g>
        <g id="Group_11651" data-name="Group 11651" transform="translate(0.479 5.18)">
          <path id="Path_41200" data-name="Path 41200" d="M197.032,54.627a.094.094,0,0,1-.048-.013,4.426,4.426,0,0,1-1.731-2.939.1.1,0,0,1,.187-.041,4.314,4.314,0,0,0,1.64,2.815.1.1,0,0,1-.048.179Z" transform="translate(-195.251 -51.558)" fill="#fff"/>
        </g>
        <g id="Group_11652" data-name="Group 11652" transform="translate(1.457 9.524)">
          <path id="Path_41201" data-name="Path 41201" d="M198.9,64.489l-.021,0c-.017,0-.428-.1-.922-.844a.1.1,0,0,1,.16-.106c.444.666.8.762.805.763a.1.1,0,0,1,.071.115A.1.1,0,0,1,198.9,64.489Z" transform="translate(-197.939 -63.494)" fill="#fff"/>
        </g>
        <g id="Group_11653" data-name="Group 11653" transform="translate(7.158 5.18)">
          <path id="Path_41202" data-name="Path 41202" d="M213.7,54.627a.1.1,0,0,1-.048-.179h0a4.339,4.339,0,0,0,1.64-2.815.1.1,0,0,1,.187.041,4.428,4.428,0,0,1-1.731,2.939A.094.094,0,0,1,213.7,54.627Z" transform="translate(-213.603 -51.558)" fill="#fff"/>
        </g>
        <g id="Group_11654" data-name="Group 11654" transform="translate(7.002 9.524)">
          <path id="Path_41203" data-name="Path 41203" d="M213.27,64.489a.1.1,0,0,1-.022-.189c.008,0,.364-.1.805-.763a.1.1,0,0,1,.159.106c-.493.74-.9.84-.922.844Z" transform="translate(-213.174 -63.494)" fill="#fff"/>
        </g>
      </g>
      <path id="Path_41204" data-name="Path 41204" d="M202.627,121.341s-.111,4.262-1.047,5.539-6.312,1.221-8.226.369-1.5-5.908-1.5-5.908A12.6,12.6,0,0,0,202.627,121.341Z" transform="translate(-175.904 -90.766)" fill="#093daf"/>
      <g id="Group_11656" data-name="Group 11656" transform="translate(12.926 30.191)">
        <path id="Path_41205" data-name="Path 41205" d="M189.632,132.919c.049-.481.355-5.148.355-7.544,0-3.2-1.221-5.965-3.936-4.83-2.948,1.232-1.832,7.215-1.832,7.215l1.429,17.806h2.776S188.693,142.13,189.632,132.919Z" transform="translate(-183.868 -120.286)" fill="#265fc5"/>
        <path id="Path_41206" data-name="Path 41206" d="M185.4,189.756s-.66,1.953-1.43,3.639-.206,3.239,1.094,2.911c1.793-.454,3.284-5.262,3.284-5.262l-.172-1.287S187.152,189.8,185.4,189.756Z" transform="translate(-183.617 -164.476)" fill="#1d3b50"/>
      </g>
      <g id="Group_11657" data-name="Group 11657" transform="translate(22.932 30.221)">
        <path id="Path_41207" data-name="Path 41207" d="M211.19,127.513a21.986,21.986,0,0,1-.035-2.994c.309-1.69,1.473-5.056,4.189-3.921,2.948,1.232,1.831,7.215,1.831,7.215l-1.428,17.806H212.97S212.128,136.724,211.19,127.513Z" transform="translate(-211.114 -120.37)" fill="#265fc5"/>
        <path id="Path_41208" data-name="Path 41208" d="M218.635,189.756s.66,1.953,1.431,3.639.206,3.239-1.095,2.911c-1.793-.454-3.284-5.262-3.284-5.262l.172-1.287S216.88,189.8,218.635,189.756Z" transform="translate(-214.023 -164.506)" fill="#1d3b50"/>
      </g>
      <g id="Group_11661" data-name="Group 11661" transform="translate(0 0.814)">
        <g id="Group_11660" data-name="Group 11660" transform="translate(0 0)">
          <path id="Rectangle_2849" data-name="Rectangle 2849" d="M1.325,0h4.6A1.325,1.325,0,0,1,7.254,1.325V33.2a3.627,3.627,0,0,1-3.627,3.627h0A3.627,3.627,0,0,1,0,33.2V1.325A1.325,1.325,0,0,1,1.325,0Z" transform="matrix(0.464, 0.886, -0.886, 0.464, 32.613, 11.668)" fill="#1d3b50"/>
          <path id="Path_41209" data-name="Path 41209" d="M242.094,60.794l20.8-10.907a.541.541,0,0,0,.228-.73l-.173-.328a.541.541,0,0,0-.73-.228l-20.8,10.907Z" transform="translate(-207.459 -45.271)" fill="#d1d1d1"/>
          <g id="Group_11658" data-name="Group 11658" transform="translate(41.905)">
            <rect id="Rectangle_2850" data-name="Rectangle 2850" width="1.167" height="8.854" rx="0.584" transform="translate(10.2 0.542) rotate(-27.674)" fill="#fff"/>
            <rect id="Rectangle_2851" data-name="Rectangle 2851" width="1.167" height="8.854" rx="0.584" transform="translate(8.16 1.612) rotate(-27.675)" fill="#fff"/>
            <rect id="Rectangle_2852" data-name="Rectangle 2852" width="1.167" height="8.854" rx="0.584" transform="translate(6.12 2.682) rotate(-27.675)" fill="#fff"/>
            <rect id="Rectangle_2853" data-name="Rectangle 2853" width="1.167" height="8.854" rx="0.584" transform="translate(4.08 3.752) rotate(-27.674)" fill="#fff"/>
            <rect id="Rectangle_2854" data-name="Rectangle 2854" width="1.167" height="8.854" rx="0.584" transform="translate(2.04 4.822) rotate(-27.675)" fill="#fff"/>
            <rect id="Rectangle_2855" data-name="Rectangle 2855" width="1.167" height="8.854" rx="0.584" transform="translate(0 5.892) rotate(-27.675)" fill="#fff"/>
          </g>
          <g id="Group_11659" data-name="Group 11659" transform="translate(22.339 15.357)">
            <path id="Path_41210" data-name="Path 41210" d="M232.362,83.923a1.147,1.147,0,1,1,.483-1.548A1.147,1.147,0,0,1,232.362,83.923Z" transform="translate(-222.967 -81.76)" fill="#122029"/>
            <path id="Path_41211" data-name="Path 41211" d="M211.163,95.041a1.147,1.147,0,1,1,.483-1.549A1.147,1.147,0,0,1,211.163,95.041Z" transform="translate(-209.483 -88.832)" fill="#122029"/>
            <path id="Path_41212" data-name="Path 41212" d="M221.762,89.482a1.147,1.147,0,1,1,.483-1.549A1.147,1.147,0,0,1,221.762,89.482Z" transform="translate(-216.225 -85.296)" fill="#122029"/>
          </g>
        </g>
      </g>
      <path id="Path_41213" data-name="Path 41213" d="M183.33,76.395a13.877,13.877,0,0,0-4.162,8.62c-.4,5.291,1.425,8.217,1.425,8.217l2.274-1.173a15.574,15.574,0,0,1-1.1-6.784c.355-3.4,2.056-4.047,2.056-4.047A8.833,8.833,0,0,0,183.33,76.395Z" transform="translate(-167.824 -62.176)" fill="#fff"/>
      <path id="Path_41214" data-name="Path 41214" d="M184.919,118.73l1.637-.844a2.258,2.258,0,0,1,0,1.6,2.348,2.348,0,0,1-2.073,1.1,1.343,1.343,0,0,1-1.3-.964Z" transform="translate(-170.416 -88.568)" fill="#fdb491"/>
      <path id="Path_41215" data-name="Path 41215" d="M235.752,87.242a1.857,1.857,0,0,1-.746,1.125L233,89.4s-1.027-1.91-.54-3.094a1.246,1.246,0,0,1,2.314-.135,4.546,4.546,0,0,1,.252,1.28C235.229,87.25,235.776,86.749,235.752,87.242Z" transform="translate(-201.674 -67.938)" fill="#fdb491"/>
    </g>
    <g id="Group_11713" data-name="Group 11713" transform="translate(135.293 85.076)">
      <g id="Group_11712" data-name="Group 11712" transform="translate(0 0)">
        <g id="Group_11664" data-name="Group 11664" transform="translate(27.426 36.289)">
          <g id="Group_11663" data-name="Group 11663">
            <path id="Path_41217" data-name="Path 41217" d="M358.425,280.7a67.515,67.515,0,0,1-5.161,4.61s-1.461-.336-4.548-1.242a40.782,40.782,0,0,1-3.978-1.321,12.191,12.191,0,0,1,.926,2.848s5.747,2.987,8.059,3.06a30.257,30.257,0,0,0,5.531-4.4Z" transform="translate(-344.738 -280.704)" fill="#eaeaea"/>
          </g>
        </g>
        <g id="Group_11667" data-name="Group 11667" transform="translate(34.786 56.139)">
          <g id="Group_11666" data-name="Group 11666" transform="translate(2.947)">
            <g id="Group_11665" data-name="Group 11665">
              <path id="Path_41218" data-name="Path 41218" d="M377.019,371.527H374.6l-1.54-18.6,1.731-17.062,6.538-.612-3.921,19.45C378.515,359.2,377.589,364.947,377.019,371.527Z" transform="translate(-373.059 -335.251)" fill="#093daf"/>
            </g>
          </g>
          <path id="Path_41219" data-name="Path 41219" d="M371.938,434.3a1.129,1.129,0,0,1,.146.624c0,.421-.042,1.871-.042,1.871h-7.081a2.1,2.1,0,0,1,.871-1.691c.9-.589,2.275-.012,3.593-.937C369.425,434.169,369.777,434.491,371.938,434.3Z" transform="translate(-364.961 -398.172)" fill="#1d3b50"/>
        </g>
        <g id="Group_11670" data-name="Group 11670" transform="translate(44.471 55.874)">
          <g id="Group_11669" data-name="Group 11669">
            <g id="Group_11668" data-name="Group 11668">
              <path id="Path_41220" data-name="Path 41220" d="M402.048,370.924c-.468-5.042-2.666-15.189-4.068-17.377l-.014-19.024-6.389,1.515,1.909,17.55,6.112,17.2A3.419,3.419,0,0,0,402.048,370.924Z" transform="translate(-391.577 -334.523)" fill="#265fc5"/>
            </g>
          </g>
          <path id="Path_41221" data-name="Path 41221" d="M408.266,434.308a1.113,1.113,0,0,1,.161.635V436.8h-7.075a2.1,2.1,0,0,1,.871-1.691c.9-.589,2.275-.012,3.593-.937C405.817,434.169,406.106,434.5,408.266,434.308Z" transform="translate(-397.795 -397.907)" fill="#1d3b50"/>
        </g>
        <g id="Group_11674" data-name="Group 11674" transform="translate(37.389 35.389)">
          <g id="Group_11673" data-name="Group 11673">
            <g id="Group_11672" data-name="Group 11672">
              <g id="Group_11671" data-name="Group 11671">
                <path id="Path_41222" data-name="Path 41222" d="M387.56,311.082c-1.877,1.086-5.215,1.627-8.413,1.666-.092,0-.184,0-.275,0a17.5,17.5,0,0,1-6.756-1.033l3.724-32.584,2.487-.334.2-.026.566-.076,1.094-.146.285-.038,2.1-.281.585.2.738.253.176.06,3.288,1.126-2.449,14.321Z" transform="translate(-372.116 -278.231)" fill="#fff"/>
              </g>
            </g>
          </g>
        </g>
        <g id="Group_11675" data-name="Group 11675" transform="translate(43.44 35.67)">
          <path id="Path_41223" data-name="Path 41223" d="M389.723,313.24c-.092,0-.184,0-.275,0a110.659,110.659,0,0,1-.056-24.325c.434-4.3,1-7.789,1.37-9.875l.285-.038c-.374,2.068-.944,5.592-1.384,9.944A110.363,110.363,0,0,0,389.723,313.24Z" transform="translate(-388.744 -279.004)" fill="#eaeaea"/>
        </g>
        <g id="Group_11695" data-name="Group 11695" transform="translate(0)">
          <g id="Group_11694" data-name="Group 11694" transform="translate(21.554 29.799)">
            <g id="Group_11676" data-name="Group 11676">
              <path id="Path_41224" data-name="Path 41224" d="M334.164,263.314l20.759,28.065a1.091,1.091,0,0,1-.228,1.526l-3.6,2.66a1.088,1.088,0,0,1-1.135.1,1.066,1.066,0,0,1-.391-.327l-20.759-28.065a1.092,1.092,0,0,1,.228-1.526l3.6-2.66a1.092,1.092,0,0,1,1.526.228Z" transform="translate(-328.601 -262.872)" fill="#1d3b50"/>
              <path id="Path_41225" data-name="Path 41225" d="M336.238,266.873l19.592,26.486a.874.874,0,0,1-.183,1.221l-2.573,1.9h0a.873.873,0,0,1-1.219-.184l-19.591-26.486a.874.874,0,0,1,.183-1.221l2.573-1.9a.877.877,0,0,1,1.221.183Z" transform="translate(-330.821 -265.193)" fill="#122029"/>
            </g>
            <g id="Group_11693" data-name="Group 11693" transform="translate(1.89 1.328)">
              <g id="Group_11677" data-name="Group 11677" transform="translate(0 1.074)">
                <path id="Path_41226" data-name="Path 41226" d="M334.88,269.472l-.535,3.572-.55-.744.341-2.278Z" transform="translate(-333.795 -269.472)" fill="#1d3b50"/>
              </g>
              <g id="Group_11678" data-name="Group 11678" transform="translate(1.402)">
                <path id="Path_41227" data-name="Path 41227" d="M339.176,266.528l-.978,6.535-.551-.745.834-5.575.07-.052A.865.865,0,0,1,339.176,266.528Z" transform="translate(-337.647 -266.521)" fill="#1d3b50"/>
              </g>
              <g id="Group_11679" data-name="Group 11679" transform="translate(2.804 0.776)">
                <path id="Path_41228" data-name="Path 41228" d="M342.537,268.652l.55.744-1.035,6.918-.55-.744Z" transform="translate(-341.502 -268.652)" fill="#1d3b50"/>
              </g>
              <g id="Group_11680" data-name="Group 11680" transform="translate(4.206 2.671)">
                <path id="Path_41229" data-name="Path 41229" d="M346.389,273.86l.55.744-1.035,6.918-.55-.744Z" transform="translate(-345.354 -273.86)" fill="#1d3b50"/>
              </g>
              <g id="Group_11681" data-name="Group 11681" transform="translate(5.608 4.565)">
                <path id="Path_41230" data-name="Path 41230" d="M350.24,279.066l.551.745-1.035,6.918-.551-.745Z" transform="translate(-349.205 -279.066)" fill="#1d3b50"/>
              </g>
              <g id="Group_11682" data-name="Group 11682" transform="translate(7.01 6.46)">
                <path id="Path_41231" data-name="Path 41231" d="M354.092,284.274l.551.746-1.035,6.918-.551-.745Z" transform="translate(-353.057 -284.274)" fill="#1d3b50"/>
              </g>
              <g id="Group_11683" data-name="Group 11683" transform="translate(8.412 8.357)">
                <path id="Path_41232" data-name="Path 41232" d="M357.946,289.484l.55.744-1.035,6.918-.55-.744Z" transform="translate(-356.911 -289.484)" fill="#1d3b50"/>
              </g>
              <g id="Group_11684" data-name="Group 11684" transform="translate(9.814 10.252)">
                <path id="Path_41233" data-name="Path 41233" d="M361.8,294.693l.55.744-1.035,6.918-.55-.744Z" transform="translate(-360.763 -294.693)" fill="#1d3b50"/>
              </g>
              <g id="Group_11685" data-name="Group 11685" transform="translate(11.216 12.147)">
                <path id="Path_41234" data-name="Path 41234" d="M365.651,299.9l.55.744-1.035,6.918-.55-.744Z" transform="translate(-364.616 -299.901)" fill="#1d3b50"/>
              </g>
              <g id="Group_11686" data-name="Group 11686" transform="translate(12.618 14.042)">
                <path id="Path_41235" data-name="Path 41235" d="M369.5,305.109l.55.744-1.035,6.918-.55-.744Z" transform="translate(-368.468 -305.109)" fill="#1d3b50"/>
              </g>
              <g id="Group_11687" data-name="Group 11687" transform="translate(14.02 15.938)">
                <path id="Path_41236" data-name="Path 41236" d="M373.356,310.317l.551.745-1.035,6.918-.551-.745Z" transform="translate(-372.321 -310.317)" fill="#1d3b50"/>
              </g>
              <g id="Group_11688" data-name="Group 11688" transform="translate(15.422 17.834)">
                <path id="Path_41237" data-name="Path 41237" d="M377.21,315.528l.55.744-1.035,6.918-.55-.744Z" transform="translate(-376.175 -315.528)" fill="#1d3b50"/>
              </g>
              <g id="Group_11689" data-name="Group 11689" transform="translate(16.824 19.729)">
                <path id="Path_41238" data-name="Path 41238" d="M381.062,320.736l.55.744-1.035,6.918-.55-.744Z" transform="translate(-380.027 -320.736)" fill="#1d3b50"/>
              </g>
              <g id="Group_11690" data-name="Group 11690" transform="translate(18.225 21.623)">
                <path id="Path_41239" data-name="Path 41239" d="M384.913,325.942l.551.745-1.035,6.918-.551-.745Z" transform="translate(-383.878 -325.942)" fill="#1d3b50"/>
              </g>
              <g id="Group_11691" data-name="Group 11691" transform="translate(19.675 23.519)">
                <path id="Path_41240" data-name="Path 41240" d="M388.849,331.15l.551.745-.853,5.7a.871.871,0,0,1-.686.153Z" transform="translate(-387.861 -331.15)" fill="#1d3b50"/>
              </g>
              <g id="Group_11692" data-name="Group 11692" transform="translate(21.511 25.415)">
                <path id="Path_41241" data-name="Path 41241" d="M393.462,336.36l.55.744-.36,2.4-.744.55Z" transform="translate(-392.908 -336.36)" fill="#1d3b50"/>
              </g>
            </g>
          </g>
          <rect id="Rectangle_2856" data-name="Rectangle 2856" width="2.014" height="22.872" transform="translate(9.448 13.505) rotate(-36.49)" fill="#d1d1d1"/>
          <rect id="Rectangle_2857" data-name="Rectangle 2857" width="1.007" height="22.872" transform="translate(9.448 13.505) rotate(-36.49)" fill="#aaa"/>
          <circle id="Ellipse_2181" data-name="Ellipse 2181" cx="6.843" cy="6.843" r="6.843" transform="translate(0 8.605) rotate(-38.956)" fill="#d1d1d1"/>
          <path id="Path_41242" data-name="Path 41242" d="M290.068,202.724a4.989,4.989,0,1,1,1.044-6.978A4.995,4.995,0,0,1,290.068,202.724Z" transform="translate(-277.477 -189.089)" fill="#fff"/>
        </g>
        <g id="Group_11710" data-name="Group 11710" transform="translate(40.528 22.095)">
          <g id="Group_11696" data-name="Group 11696" transform="translate(0.447 2.838)">
            <path id="Path_41243" data-name="Path 41243" d="M382.8,249.5a1.981,1.981,0,0,0-.822,2.046c.113,1.586.69,1.827.69,1.827S384.011,250.062,382.8,249.5Z" transform="translate(-381.971 -249.499)" fill="#1d3b50"/>
          </g>
          <g id="Group_11697" data-name="Group 11697" transform="translate(4.106 10.343)">
            <path id="Path_41244" data-name="Path 41244" d="M392.245,270.369l-.151,2.006-.071,1.2c1.017.988,3.005-.238,3.005-.238l.582-2.929c-.475-.422-1.858-.29-2.7-.162C392.519,270.31,392.245,270.369,392.245,270.369Z" transform="translate(-392.024 -270.123)" fill="#fdb491"/>
          </g>
          <g id="Group_11698" data-name="Group 11698" transform="translate(4.194 10.455)">
            <path id="Path_41245" data-name="Path 41245" d="M392.407,270.546l-.139,1.97c1.362-.138,2.7-1.83,2.7-1.83l-1.9-.253C392.68,270.489,392.407,270.546,392.407,270.546Z" transform="translate(-392.268 -270.432)" fill="#ef887a"/>
          </g>
          <g id="Group_11699" data-name="Group 11699">
            <path id="Path_41246" data-name="Path 41246" d="M382.1,245.349s-1.985-1.25-1.147-2.9,3.214-.1,5.619.337c3.628.655,4.442,2.151,4.1,4.119s-.66,4.625-1.683,5.5-1.458-.6-1.765-1.9S384.528,245.052,382.1,245.349Z" transform="translate(-380.742 -241.701)" fill="#1d3b50"/>
          </g>
          <g id="Group_11701" data-name="Group 11701" transform="translate(0.841 2.358)">
            <g id="Group_11700" data-name="Group 11700">
              <path id="Path_41247" data-name="Path 41247" d="M383.161,251.131c-.007.067-.015.135-.021.2a30.807,30.807,0,0,0-.042,4,2.34,2.34,0,0,0,2.508,2.232,15.255,15.255,0,0,0,4.49-.808.945.945,0,0,0,.534-.487,12.95,12.95,0,0,0,.357-1.687c.314-1.986.485-4.492.485-4.492-1.564-2.541-6.851-2.3-7.852-.711A4.521,4.521,0,0,0,383.161,251.131Z" transform="translate(-383.054 -248.181)" fill="#fdb491"/>
            </g>
          </g>
          <g id="Group_11702" data-name="Group 11702" transform="translate(1.048 1.613)">
            <path id="Path_41248" data-name="Path 41248" d="M391.59,251.453a1.111,1.111,0,0,0-1.576.229l-.541-.069a5.22,5.22,0,0,0-.014-1.745c-.187-.637-1.225-.753-1.289-1.484,0,0-2.57.663-4.241-.217s3.959-3.135,6.315-1.39S392.223,249.609,391.59,251.453Z" transform="translate(-383.623 -246.133)" fill="#1d3b50"/>
          </g>
          <g id="Group_11703" data-name="Group 11703" transform="translate(7.278 8.758)">
            <path id="Path_41249" data-name="Path 41249" d="M401.348,267.942a.944.944,0,0,0,.534-.487,12.924,12.924,0,0,0,.357-1.687l-1.485.765A1.479,1.479,0,0,0,401.348,267.942Z" transform="translate(-400.743 -265.768)" fill="#1d3b50"/>
          </g>
          <g id="Group_11705" data-name="Group 11705" transform="translate(7.29 6.685)">
            <g id="Group_11704" data-name="Group 11704">
              <path id="Path_41250" data-name="Path 41250" d="M400.923,260.547s.956-.9,1.576-.229c.683.738-.178,2.838-1.725,2.591Z" transform="translate(-400.774 -260.07)" fill="#fdb491"/>
            </g>
          </g>
          <g id="Group_11707" data-name="Group 11707" transform="translate(0.568 7.356)">
            <g id="Group_11706" data-name="Group 11706">
              <path id="Path_41251" data-name="Path 41251" d="M382.638,265.214a1.362,1.362,0,0,0,.351.6l.02.018a6.853,6.853,0,0,0,4.442.072h0a14.135,14.135,0,0,1,.426-3.662,5.523,5.523,0,0,1-4.366.1,7.653,7.653,0,0,1-1-.433l-.109.533A4.856,4.856,0,0,0,382.638,265.214Z" transform="translate(-382.303 -261.914)" fill="#265fc5"/>
            </g>
          </g>
          <g id="Group_11708" data-name="Group 11708" transform="translate(5.712 6.867)">
            <path id="Path_41252" data-name="Path 41252" d="M396.575,262.319a.137.137,0,0,1,0-.273c.026,0,2.563-.1,3.768-1.431a.137.137,0,1,1,.2.183c-1.283,1.413-3.852,1.516-3.961,1.52Z" transform="translate(-396.439 -260.571)" fill="#fff"/>
          </g>
          <g id="Group_11709" data-name="Group 11709" transform="translate(5.442 9.48)">
            <path id="Path_41253" data-name="Path 41253" d="M395.832,269.264a.136.136,0,0,1,0-.273,6.2,6.2,0,0,0,3.414-1.21.136.136,0,0,1,.167.215A6.366,6.366,0,0,1,395.832,269.264Z" transform="translate(-395.696 -267.752)" fill="#fff"/>
          </g>
        </g>
        <g id="Group_11711" data-name="Group 11711" transform="translate(33.141 37.027)">
          <path id="Path_41254" data-name="Path 41254" d="M386.511,282.733a4.657,4.657,0,0,1,.636,4.477c-1.064,2.305-6.618,5.438-6.618,5.438l-9.462,1.182-.279-1.9s2.664-.608,3.69-.814,3.629-1.152,5.075-.975C379.553,290.136,384.22,284.344,386.511,282.733Z" transform="translate(-367.023 -282.733)" fill="#eaeaea"/>
          <path id="Path_41255" data-name="Path 41255" d="M364.207,307.454a5.061,5.061,0,0,1-.685-.12c-.675-.2-2.083-.294-2.024-.015.044.211.418.164.621.354.235.221-.779.376-1.278.562-.867.323-.186,1.526.768,1.832a2.634,2.634,0,0,0,2.877-.709Z" transform="translate(-360.442 -298.262)" fill="#fdb491"/>
        </g>
      </g>
    </g>
    <g id="Group_11744" data-name="Group 11744" transform="translate(65.666 98.775)">
      <path id="Path_41256" data-name="Path 41256" d="M117.4,280.348s5.408.3,7.637-.419a73.519,73.519,0,0,0,6.869-3.019l-.637,3.072s-4.387,2.751-7.1,2.977-6.867.24-6.867.24A10.768,10.768,0,0,1,117.4,280.348Z" transform="translate(-102.984 -255.7)" fill="#eaeaea"/>
      <g id="Group_11740" data-name="Group 11740" transform="translate(0 10.76)">
        <g id="Group_11716" data-name="Group 11716" transform="translate(7.618 34.48)">
          <g id="Group_11715" data-name="Group 11715">
            <g id="Group_11714" data-name="Group 11714">
              <path id="Path_41258" data-name="Path 41258" d="M103.282,379.218h2.42l1.541-18.6-1.731-17.062-6.538-.612,3.921,19.449C101.786,366.886,102.712,372.637,103.282,379.218Z" transform="translate(-98.973 -342.942)" fill="#093daf"/>
            </g>
          </g>
          <path id="Path_41259" data-name="Path 41259" d="M110.367,441.993a1.13,1.13,0,0,0-.146.624c0,.42.041,1.871.041,1.871h7.081a2.1,2.1,0,0,0-.871-1.691c-.9-.589-2.275-.012-3.593-.937C112.88,441.859,112.527,442.181,110.367,441.993Z" transform="translate(-106.128 -405.863)" fill="#1d3b50"/>
        </g>
        <g id="Group_11719" data-name="Group 11719" transform="translate(0 34.214)">
          <g id="Group_11718" data-name="Group 11718" transform="translate(0.161)">
            <g id="Group_11717" data-name="Group 11717">
              <path id="Path_41260" data-name="Path 41260" d="M78.481,378.614c.468-5.042,2.666-15.189,4.068-17.377l.014-19.024,6.389,1.515-1.909,17.55-6.112,17.2A3.421,3.421,0,0,1,78.481,378.614Z" transform="translate(-78.481 -342.213)" fill="#265fc5"/>
            </g>
          </g>
          <path id="Path_41261" data-name="Path 41261" d="M78.2,442a1.113,1.113,0,0,0-.161.635v1.854h7.075a2.1,2.1,0,0,0-.871-1.691c-.9-.589-2.276-.012-3.593-.937C80.649,441.859,80.359,442.187,78.2,442Z" transform="translate(-78.038 -405.597)" fill="#1d3b50"/>
        </g>
        <g id="Group_11720" data-name="Group 11720" transform="translate(3.354)">
          <path id="Path_41262" data-name="Path 41262" d="M97.435,252.641a8.625,8.625,0,0,0-.925-2.392c-.789-1.279-2.461-2.528-5.392-1.879-3.458.765-4.52,4.537-3.481,8.189a25.511,25.511,0,0,1,1.192,8.109l8.847-.324A37.743,37.743,0,0,0,97.435,252.641Z" transform="translate(-87.255 -248.193)" fill="#1d3b50"/>
        </g>
        <g id="Group_11723" data-name="Group 11723" transform="translate(2.428 13.099)">
          <g id="Group_11722" data-name="Group 11722">
            <g id="Group_11721" data-name="Group 11721">
              <path id="Path_41263" data-name="Path 41263" d="M98.681,314.552a17.351,17.351,0,0,1-5.207.938l-.277.008a27.911,27.911,0,0,1-8.487-1.2l3.334-18.461L85.608,286.7l1.648-.83.334-.168h0l.724-.365,2.288-1.153,4.6.595.639.083.377.048.484.063a22.282,22.282,0,0,0,.124,5.174,6.117,6.117,0,0,1,.64,2.294,2.392,2.392,0,0,1-.49,1.539h0l-.056.071.005.235Z" transform="translate(-84.71 -284.189)" fill="#fff"/>
            </g>
          </g>
        </g>
        <g id="Group_11724" data-name="Group 11724" transform="translate(9.277 13.332)">
          <path id="Path_41264" data-name="Path 41264" d="M105.447,315.9l-.277.008a76.06,76.06,0,0,0,.306-22.03,49.171,49.171,0,0,0-1.936-8.864.137.137,0,0,1,.257-.092,49.436,49.436,0,0,1,1.949,8.919A76.285,76.285,0,0,1,105.447,315.9Z" transform="translate(-103.531 -284.83)" fill="#eaeaea"/>
        </g>
        <g id="Group_11739" data-name="Group 11739" transform="translate(3.218 2.722)">
          <g id="Group_11725" data-name="Group 11725" transform="translate(3.757 7.631)">
            <path id="Path_41265" data-name="Path 41265" d="M100.385,277.027l.057.887.065,1,.057.866a1.9,1.9,0,0,1-1.538.409,4.654,4.654,0,0,1-1.338-.365l-.011-.068-.4-2.484-.074-.453a1.586,1.586,0,0,1,1.156-.146c.474.058.989.179,1.385.238C100.123,276.972,100.385,277.027,100.385,277.027Z" transform="translate(-97.204 -276.643)" fill="#fdb491"/>
          </g>
          <g id="Group_11726" data-name="Group 11726" transform="translate(4.479 7.903)">
            <path id="Path_41266" data-name="Path 41266" d="M101.647,277.5l.123,1.889c-1.305-.139-2.582-1.769-2.582-1.769l1.82-.234C101.386,277.447,101.647,277.5,101.647,277.5Z" transform="translate(-99.188 -277.39)" fill="#ef887a"/>
          </g>
          <g id="Group_11727" data-name="Group 11727" transform="translate(2.191)">
            <path id="Path_41267" data-name="Path 41267" d="M99.78,263.992a4.227,4.227,0,0,1-2.074.583,6.9,6.9,0,0,1-1.929-.23,9.656,9.656,0,0,1-1.237-.409c-.281-.113-.513-.222-.677-.3s-.277-.147-.277-.147-.141-.449-.295-1.113a14.747,14.747,0,0,1-.382-2.562,3.179,3.179,0,0,1,.716-2.606l1.131-.267,5.36-1.265s.027.079.071.222c.1.31.273.925.44,1.686.013.057.025.114.037.174C101.114,259.874,101.435,262.989,99.78,263.992Z" transform="translate(-92.901 -255.672)" fill="#fdb491"/>
          </g>
          <g id="Group_11728" data-name="Group 11728" transform="translate(2.581 6.701)">
            <path id="Path_41268" data-name="Path 41268" d="M95.144,276.141a7.8,7.8,0,0,1-.876-.943s-.141-.449-.294-1.113l.547.151S95.567,275.631,95.144,276.141Z" transform="translate(-93.974 -274.085)" fill="#1d3b50"/>
          </g>
          <g id="Group_11731" data-name="Group 11731" transform="translate(1.517 4.116)">
            <g id="Group_11730" data-name="Group 11730">
              <g id="Group_11729" data-name="Group 11729">
                <path id="Path_41269" data-name="Path 41269" d="M92.789,267.441s-.924-.925-1.524-.144c-.662.861.277,3.086,1.917,2.669Z" transform="translate(-91.05 -266.984)" fill="#fdb491"/>
              </g>
            </g>
          </g>
          <g id="Group_11732" data-name="Group 11732" transform="translate(2.191)">
            <path id="Path_41270" data-name="Path 41270" d="M100.188,255.894c.153.694-.887,1.683-5.3,2.808,0,0,.5,2.037-.417,2.065-.218.007-.708-1.108-1.564-.958a3.174,3.174,0,0,1,.716-2.606l6.492-1.532S100.144,255.751,100.188,255.894Z" transform="translate(-92.902 -255.672)" fill="#1d3b50"/>
          </g>
          <g id="Group_11733" data-name="Group 11733" transform="translate(2.191 1.265)">
            <path id="Path_41271" data-name="Path 41271" d="M94.959,259.346s.228,3.175.664,6.2c.049.339.1.677.155,1.008a1.85,1.85,0,0,1-.837,2.075l-.4-2.484c-.282-.113-.513-.222-.677-.3s-.278-.147-.278-.147-.14-.449-.294-1.113a14.571,14.571,0,0,1-.382-2.562,3.175,3.175,0,0,1,.716-2.606l1.131-.267A.462.462,0,0,1,94.959,259.346Z" transform="translate(-92.901 -259.148)" fill="#1d3b50"/>
          </g>
          <g id="Group_11738" data-name="Group 11738" transform="translate(0 4.103)">
            <g id="Group_11735" data-name="Group 11735" transform="translate(4.89 0.324)">
              <g id="Group_11734" data-name="Group 11734">
                <path id="Path_41272" data-name="Path 41272" d="M105.608,271.14a1.367,1.367,0,0,1-.342.608l-.02.018a6.851,6.851,0,0,1-4.44.145h0a14.137,14.137,0,0,0-.486-3.655,5.522,5.522,0,0,0,4.367.033,7.673,7.673,0,0,0,.994-.449l.118.531A4.862,4.862,0,0,1,105.608,271.14Z" transform="translate(-100.319 -267.839)" fill="#265fc5"/>
              </g>
            </g>
            <g id="Group_11736" data-name="Group 11736">
              <path id="Path_41273" data-name="Path 41273" d="M91.764,268.626A10,10,0,0,1,86.95,267.2a.136.136,0,1,1,.134-.237,9.256,9.256,0,0,0,4.981,1.376.136.136,0,0,1,.028.271C92.073,268.616,91.959,268.626,91.764,268.626Z" transform="translate(-86.88 -266.948)" fill="#fff"/>
            </g>
            <g id="Group_11737" data-name="Group 11737" transform="translate(0.776 2.91)">
              <path id="Path_41274" data-name="Path 41274" d="M93.641,276.075a14.446,14.446,0,0,1-4.536-.864.136.136,0,1,1,.09-.258,14,14,0,0,0,4.545.847h0a.137.137,0,0,1,0,.273Z" transform="translate(-89.013 -274.946)" fill="#fff"/>
            </g>
          </g>
        </g>
      </g>
      <g id="Group_11742" data-name="Group 11742" transform="translate(12.15)">
        <g id="Group_11741" data-name="Group 11741">
          <path id="Path_41275" data-name="Path 41275" d="M130.231,261.6l-18.4,24.251a1.986,1.986,0,0,0,.382,2.783h0a1.986,1.986,0,0,0,2.783-.381l18.4-24.251Z" transform="translate(-111.425 -245.964)" fill="#1d3b50"/>
          <path id="Path_41276" data-name="Path 41276" d="M185.46,222.721l-6.778-2.155L167.119,235.8l-.889-.675,12.523-16.5Z" transform="translate(-146.286 -218.626)" fill="#d1d1d1"/>
          <rect id="Rectangle_2858" data-name="Rectangle 2858" width="2.079" height="1.116" transform="matrix(0.604, -0.797, 0.797, 0.604, 19.944, 16.503)" fill="#aaa"/>
        </g>
      </g>
      <g id="Group_11743" data-name="Group 11743" transform="translate(2.428 26.068)">
        <path id="Path_41277" data-name="Path 41277" d="M87.207,290.469a49.36,49.36,0,0,1,6.7,4.568s2.546-.517,4.337-.672a54.941,54.941,0,0,0,6.641-1.733l.724,1.8s-8.366,3.711-11.851,3.259c-3.592-.466-8.738-4.789-8.738-4.789s-.019-.026-.049-.074A1.684,1.684,0,0,1,87.207,290.469Z" transform="translate(-84.71 -290.26)" fill="#eaeaea"/>
        <path id="Path_41278" data-name="Path 41278" d="M140.141,294.052a4.529,4.529,0,0,0,.483-.432c.47-.523,1.619-1.342,1.716-1.074.073.2-.27.359-.342.627-.085.312.86-.089,1.382-.192.908-.18.958,1.2.307,1.963a2.634,2.634,0,0,1-2.822.905Z" transform="translate(-119.97 -291.681)" fill="#fdb491"/>
      </g>
    </g>
  </g>
</svg>
