<svg id="Layer_1" data-name="Layer 1" xmlns="http://www.w3.org/2000/svg" viewBox="0 0 50 50"><defs><style>.cls-1{fill:#63c7db;}.cls-2{fill:#1b4791;}.cls-3{fill:#fff;}</style></defs><path class="cls-1" d="M27,12.72v5.42h-2.7V12.92a2.25,2.25,0,0,0-.08-.58l-1-3.48,2.48-.69,1.25,4.44Z"/><path d="M27,18.18H24.21V12.92a1.87,1.87,0,0,0-.08-.57l-1-3.51h0l2.51-.71v0L27,12.72Zm-2.69-.08h2.62V12.73l0-.11-1.24-4.4-2.4.67,1,3.44a2.33,2.33,0,0,1,.08.59Z"/><rect class="cls-1" x="24.25" y="21.11" width="2.69" height="13.07"/><path d="M27,34.21H24.21V21.07H27Zm-2.69-.08h2.62v-13H24.29Z"/><line class="cls-1" x1="26.95" y1="12.72" x2="26.92" y2="12.61"/><rect class="cls-2" x="23.92" y="14.79" width="3.35" height="7.12" rx="0.48"/><path d="M26.83,22H24.37a.48.48,0,0,1-.49-.48V15.23a.49.49,0,0,1,.49-.48h2.46a.48.48,0,0,1,.48.48v6.24A.47.47,0,0,1,26.83,22Zm-2.46-7.12a.4.4,0,0,0-.41.4v6.24a.41.41,0,0,0,.41.41h2.46a.41.41,0,0,0,.4-.41V15.23a.4.4,0,0,0-.4-.4Z"/><rect class="cls-2" x="23.92" y="22.95" width="3.35" height="7.12" rx="0.46"/><path d="M26.83,30.11H24.37a.49.49,0,0,1-.49-.48V23.39a.48.48,0,0,1,.49-.48h2.46a.47.47,0,0,1,.48.48v6.24A.48.48,0,0,1,26.83,30.11ZM24.37,23a.41.41,0,0,0-.41.41v6.24a.4.4,0,0,0,.41.4h2.46a.4.4,0,0,0,.4-.4V23.39a.4.4,0,0,0-.4-.41Z"/><rect class="cls-2" x="23.92" y="31.72" width="3.35" height="14.39" rx="0.53"/><path d="M26.76,46.14H24.44a.55.55,0,0,1-.56-.55V32.23a.56.56,0,0,1,.56-.55h2.32a.55.55,0,0,1,.55.55V45.59A.55.55,0,0,1,26.76,46.14ZM24.44,31.76a.47.47,0,0,0-.48.47V45.59a.48.48,0,0,0,.48.48h2.32a.48.48,0,0,0,.47-.48V32.23a.47.47,0,0,0-.47-.47Z"/><path d="M24.68,20.08a0,0,0,0,1,0,0V16.87a0,0,0,0,1,0,0s0,0,0,0V20S24.7,20.08,24.68,20.08Z"/><path d="M24.68,21s0,0,0,0v-.49a0,0,0,0,1,0,0s0,0,0,0V21A0,0,0,0,1,24.68,21Z"/><path d="M26.68,42.62a0,0,0,0,1,0,0V39.4s0,0,0,0a0,0,0,0,1,0,0v3.18S26.7,42.62,26.68,42.62Z"/><path d="M26.68,43.55a0,0,0,0,1,0,0V43a0,0,0,0,1,0,0s0,0,0,0v.48S26.7,43.55,26.68,43.55Z"/><path d="M24.59,26.21s0,0,0,0a.05.05,0,0,1,0-.05l2.17-.79s.05,0,.05,0a0,0,0,0,1,0,.05l-2.18.79Z"/><path d="M24.59,26.9s0,0,0,0,0,0,0,0l2.17-.8s.05,0,.05,0,0,.05,0,.05l-2.18.8Z"/><path d="M24.59,27.59a.05.05,0,0,1,0,0,.05.05,0,0,1,0-.05l2.17-.79s.05,0,.05,0a0,0,0,0,1,0,.05l-2.18.79Z"/><path d="M24.59,28.29s0,0,0,0a.05.05,0,0,1,0-.05l2.17-.79s.05,0,.05,0a0,0,0,0,1,0,0l-2.18.79Z"/><path class="cls-3" d="M24.68,37.72a.08.08,0,0,1-.08-.07v-4.8a.08.08,0,0,1,.08-.07.07.07,0,0,1,.07.07v4.8A.07.07,0,0,1,24.68,37.72Z"/><path class="cls-3" d="M26.8,19a.07.07,0,0,1-.07-.07V15.67a.08.08,0,0,1,.07-.08.09.09,0,0,1,.08.08v3.26A.08.08,0,0,1,26.8,19Z"/><rect class="cls-1" x="26.39" y="6.35" width="1.09" height="0.32" transform="translate(-0.76 7.53) rotate(-15.7)"/><path d="M26.42,6.86l-.1-.38h0l1.09-.3.1.38h0Zm0-.33.07.24,1-.27-.07-.24Z"/><rect class="cls-1" x="26.08" y="5.82" width="0.51" height="1.72" rx="0.25" transform="translate(-0.83 7.38) rotate(-15.7)"/><path d="M26.42,7.58l-.08,0a.16.16,0,0,1-.09-.11l-.39-1.38a.24.24,0,0,1,0-.14A.15.15,0,0,1,26,5.85l.22-.06a.18.18,0,0,1,.22.12l.39,1.38a.22.22,0,0,1,0,.14.15.15,0,0,1-.11.08l-.22.06Zm-.16-1.72h0L26,5.92A.1.1,0,0,0,26,6a.08.08,0,0,0,0,.08l.38,1.38a.1.1,0,0,0,.05.06.08.08,0,0,0,.08,0l.22-.06a.1.1,0,0,0,.06-.05.08.08,0,0,0,0-.08l-.38-1.38A.12.12,0,0,0,26.26,5.86Z"/><path class="cls-2" d="M27.22,6l.23.84h0l1.33-1s0,0,0,0L27.23,6S27.21,6,27.22,6Z"/><path d="M27.46,6.87h0s0,0,0,0L27.18,6a.06.06,0,0,1,0,0l0,0,1.57-.13a0,0,0,0,1,.05,0s0,0,0,0l-1.34,1ZM27.26,6l.22.78,1.23-.89Z"/><rect class="cls-2" x="21.54" y="5.56" width="4.93" height="3.56" rx="0.97" transform="translate(-1.09 6.77) rotate(-15.7)"/><path d="M22.83,9.52a1.07,1.07,0,0,1-1-.78l-.41-1.45A1.06,1.06,0,0,1,22.13,6l2.76-.78a1.07,1.07,0,0,1,1.32.74l.4,1.45a1.06,1.06,0,0,1-.74,1.31l-2.76.78A1.35,1.35,0,0,1,22.83,9.52Zm2.35-4.28-.27,0-2.76.78a1,1,0,0,0-.69,1.22l.41,1.45a1,1,0,0,0,1.22.68l2.76-.77a1,1,0,0,0,.69-1.22L26.13,6A1,1,0,0,0,25.18,5.24Z"/><path class="cls-3" d="M22.54,6.76a.07.07,0,0,1-.07-.06.07.07,0,0,1,.05-.09l2.34-.75a.06.06,0,0,1,.09,0,.07.07,0,0,1-.05.1l-2.34.75Z"/><rect class="cls-2" x="8.15" y="14.35" width="0.78" height="31.15" rx="0.39"/><path d="M8.68,45.54H8.4a.29.29,0,0,1-.29-.29V14.6a.29.29,0,0,1,.29-.28h.28A.29.29,0,0,1,9,14.6V45.25A.29.29,0,0,1,8.68,45.54ZM8.4,14.39a.22.22,0,0,0-.22.21V45.25a.22.22,0,0,0,.22.22h.28a.21.21,0,0,0,.21-.22V14.6a.21.21,0,0,0-.21-.21Z"/><path class="cls-2" d="M8.54,15h0a.39.39,0,0,1,.39.39V45.87a.28.28,0,0,1-.28.28H8.54a.39.39,0,0,1-.39-.39V15.4A.39.39,0,0,1,8.54,15Z"/><path d="M8.68,46.19H8.4a.28.28,0,0,1-.29-.28V15.26A.29.29,0,0,1,8.4,15h.28a.29.29,0,0,1,.29.29V45.91A.28.28,0,0,1,8.68,46.19ZM8.4,15a.22.22,0,0,0-.22.22V45.91a.21.21,0,0,0,.22.21h.28a.21.21,0,0,0,.21-.21V15.26A.21.21,0,0,0,8.68,15Z"/><path class="cls-2" d="M13.44,6.93l-.17-.11h0l-.12-.07-.11,0h0l-.27-.11-.08,0-.16,0h-.08l-.16,0-.22,0h-.51l-.39.06-.22,0-.26.07-.16.06a4.11,4.11,0,0,0-.65.28l-.23.13-.08,0,0,0A4.07,4.07,0,0,0,9,7.47c-.13.1-.26.2-.38.31l-.32.3-.27.31a3.61,3.61,0,0,0-.25.3l-.15.2A1,1,0,0,1,7.59,9a.35.35,0,0,0,0,.08l-.16.25c-.07.12-.14.23-.2.35s-.13.26-.18.38a4.07,4.07,0,0,0-.18.44c-.06.18-.12.37-.17.56l-.06.31a2.87,2.87,0,0,0,0,.31l0,.21a3.25,3.25,0,0,0,1.16,3l-.49-.36a3.22,3.22,0,0,1-1.16-3,5.75,5.75,0,0,1,.14-.83s0-.1,0-.15a.74.74,0,0,0,0-.14l.09-.26L6.4,10l.09-.22,0,0h0l.06-.13c0-.09.08-.17.12-.26l.06-.1,0-.1L6.89,9,7,8.88,7,8.75a.86.86,0,0,1,.07-.1,3.71,3.71,0,0,1,.23-.32L7.58,8a2.61,2.61,0,0,1,.27-.3L8,7.62a.71.71,0,0,1,.13-.12l.08-.08.37-.31.26-.18L9,6.78l0,0a7.17,7.17,0,0,1,.67-.35l.18-.07.16-.06.37-.1a4.31,4.31,0,0,1,.61-.1h.51a.93.93,0,0,1,.24,0l.15,0h0l.16,0,.11,0a1.53,1.53,0,0,1,.27.11h0l.12.06.12.07.17.11Z"/><path d="M7.65,14.92l-.5-.36a3.27,3.27,0,0,1-1.16-3,4.75,4.75,0,0,1,.14-.84.83.83,0,0,1,0-.15s0-.09,0-.14.06-.19.09-.27L6.36,10h0l.08-.21s0,0,0,0h0l.06-.13.13-.25,0-.1,0-.05,0-.06L6.83,9l0,0,0-.05,0-.05L7,8.72l.07-.09a3.71,3.71,0,0,1,.23-.32L7.54,8V8c.11-.12.19-.22.28-.3l.11-.11a.77.77,0,0,1,.13-.12l.07-.07.38-.32.26-.18A1.14,1.14,0,0,1,9,6.75H9a5.52,5.52,0,0,1,.68-.35l.18-.07.16-.06c.1,0,.23-.08.37-.11A4.31,4.31,0,0,1,11,6h.52l.25,0,.14,0H12l.16,0,.11,0,.28.12h0l.1.05.13.07.17.11.47.35h0l0,.06,0,0-.15-.09h0l-.06,0-.06,0-.1,0h0a1.62,1.62,0,0,0-.28-.11h0l0,0-.15,0h-.08l-.16,0-.21,0h-.51l-.38,0-.22.05-.26.07-.15.05A5.3,5.3,0,0,0,9.88,7l-.23.13-.05,0h0v0a4.07,4.07,0,0,0-.48.33,3.93,3.93,0,0,0-.38.31c-.1.09-.21.19-.31.3a3.47,3.47,0,0,0-.27.3,2.21,2.21,0,0,0-.25.3l-.15.2a.21.21,0,0,0,0,.06l0,0,0,0,0,0-.16.25c-.07.11-.13.22-.2.35h0c-.06.12-.13.25-.18.37s-.12.28-.17.43a5.57,5.57,0,0,0-.17.55c0,.11-.05.22-.07.31s0,.22,0,.31,0,.14,0,.21a3.19,3.19,0,0,0,1.14,3h0ZM6.54,9.71h0l0,0a1.8,1.8,0,0,0-.08.21h0l-.06.18a2.56,2.56,0,0,0-.09.26.74.74,0,0,0,0,.14.83.83,0,0,0,0,.15,4.69,4.69,0,0,0-.14.82,3.17,3.17,0,0,0,1.14,3h0a3.49,3.49,0,0,1-.72-2.61,1.5,1.5,0,0,1,0-.22c0-.09,0-.19,0-.31s0-.2.07-.31a5,5,0,0,1,.17-.56A3.65,3.65,0,0,1,7,10.05c0-.13.11-.25.17-.37h0a3.87,3.87,0,0,1,.2-.36l.16-.25,0-.06,0,0,0-.05,0-.06.15-.2c.07-.1.16-.2.25-.31l.28-.3c.1-.11.21-.21.31-.31L9,7.44a5.25,5.25,0,0,1,.49-.33l0,0h0l.06,0a1.57,1.57,0,0,1,.23-.13,4.17,4.17,0,0,1,.65-.29l.16,0,.26-.07.23,0,.39,0a2.17,2.17,0,0,1,.51,0h0l.2,0,.17,0h.08l.16,0,0,0h0l.17.07h0l-.17-.11-.12-.07-.1,0h0a2.66,2.66,0,0,0-.28-.11l-.1,0-.16,0h0l-.14,0-.24,0h-.51a4.31,4.31,0,0,0-.61.1l-.36.11-.16.06-.17.06a6.18,6.18,0,0,0-.67.35h0L8.82,7l-.25.18a4.56,4.56,0,0,0-.38.31l-.07.07L8,7.64l-.11.11-.28.3h0l-.24.3c-.07.09-.15.2-.22.31l-.07.09L7,8.9,7,9l0,.05,0,0a.6.6,0,0,0-.06.11l0,.06,0,0-.06.1-.12.25A.67.67,0,0,1,6.54,9.71Zm6.47-3Z"/><path class="cls-2" d="M7.67,8.89a1.27,1.27,0,0,0-.13.19.35.35,0,0,1,0-.08A1,1,0,0,0,7.67,8.89Z"/><path class="cls-2" d="M9.63,7.07a.41.41,0,0,0-.11.07l0,0Z"/><path class="cls-2" d="M6.51,9.71h0l0,0,0,0Z"/><path class="cls-2" d="M6.57,9.58l-.06.13h0A.52.52,0,0,1,6.57,9.58Z"/><path class="cls-1" d="M10.93,6.53c2.23-.54,3.87,1,3.66,3.4a6.33,6.33,0,0,1-4.41,5.35c-2.23.55-3.87-1-3.67-3.39A6.37,6.37,0,0,1,10.93,6.53Z"/><path d="M9.3,15.43a2.77,2.77,0,0,1-1.82-.64,3.32,3.32,0,0,1-1-2.9A6.39,6.39,0,0,1,10.92,6.5h0A3,3,0,0,1,13.63,7a3.32,3.32,0,0,1,1,2.9,6.39,6.39,0,0,1-4.44,5.39A4,4,0,0,1,9.3,15.43Zm1.64-8.86a6.31,6.31,0,0,0-4.39,5.32,3.26,3.26,0,0,0,1,2.84,2.87,2.87,0,0,0,2.64.52,6.34,6.34,0,0,0,4.39-5.33,3.25,3.25,0,0,0-1-2.83,2.87,2.87,0,0,0-2.64-.52Z"/><path class="cls-3" d="M7.54,11.64h0s-.07,0-.06-.08A5.1,5.1,0,0,1,11,7.25a.07.07,0,0,1,0,.14,5,5,0,0,0-3.45,4.18A.07.07,0,0,1,7.54,11.64Z"/><path d="M8.28,25.48l0,0a0,0,0,0,1,0-.05l.49-.31s0,0,.05,0,0,0,0,.05l-.49.31Z"/><path d="M8.28,25.94l0,0a0,0,0,0,1,0-.05l.49-.31s0,0,.05,0,0,0,0,.05l-.49.31Z"/><path d="M8.28,26.43h0s0,0,0-.05l.49-.32s0,0,.05,0,0,0,0,.05l-.49.32Z"/><path d="M8.28,26.89h0s0,0,0-.05l.49-.32s0,0,.05,0,0,0,0,.05l-.49.32Z"/><path d="M8.28,27.34l0,0a0,0,0,0,1,0-.05L8.75,27s0,0,.05,0,0,0,0,.05l-.49.32Z"/><path d="M8.28,27.8l0,0a0,0,0,0,1,0-.05l.49-.31s0,0,.05,0,0,0,0,.05l-.49.31Z"/><path d="M8.46,41.68s0,0,0,0V35.31a0,0,0,0,1,0,0s0,0,0,0v6.34A0,0,0,0,1,8.46,41.68Z"/><path d="M8.46,42.24a0,0,0,0,1,0,0v-.4s0,0,0,0a0,0,0,0,1,0,0v.4S8.48,42.24,8.46,42.24Z"/><path class="cls-2" d="M18.75,14.09a.3.3,0,0,1-.26-.15.69.69,0,0,1,0-.13l-.09-.75v0l-.06-5.08a.39.39,0,0,0-.13-.29L16,5.76l2.72,1.86a.31.31,0,0,1,.14.26L19,13.79A.25.25,0,0,1,19,14,.31.31,0,0,1,18.75,14.09Z"/><path d="M16.48,6.13l2.23,1.52a.32.32,0,0,1,.13.23L19,13.79a.25.25,0,0,1-.07.19.26.26,0,0,1-.19.08.27.27,0,0,1-.23-.14.28.28,0,0,1,0-.12l-.09-.75v0l-.05-5.08a.44.44,0,0,0-.15-.32l-1.7-1.49m-.94-.74,2.59,2.28a.37.37,0,0,1,.13.27l0,5.08v0l.1.75a.3.3,0,0,0,.05.15h0a.35.35,0,0,0,.29.17.32.32,0,0,0,.33-.34l-.17-5.91a.36.36,0,0,0-.16-.29l-3.21-2.2Z"/><polygon class="cls-1" points="17.71 15.52 17.14 14.16 18.32 11.48 19.03 11.48 20.31 14.18 19.63 15.55 17.71 15.52"/><path d="M19,11.51l1.27,2.66-.67,1.34-1.87,0-.55-1.3,1.17-2.67H19m.05-.07H18.3l-1.2,2.74.58,1.37,2,0,.7-1.4-1.3-2.74Z"/><path class="cls-2" d="M17.14,14.21h3.18a0,0,0,0,1,0,0V45a1.12,1.12,0,0,1-1.12,1.12h-.94A1.12,1.12,0,0,1,17.14,45V14.21A0,0,0,0,1,17.14,14.21Z"/><path d="M19.2,46.19h-.95a1.15,1.15,0,0,1-1.15-1.14V14.17h3.25V45.05A1.14,1.14,0,0,1,19.2,46.19Zm-2-31.94v30.8a1.08,1.08,0,0,0,1.08,1.07h.95a1.07,1.07,0,0,0,1.08-1.07V14.25Z"/><path d="M17.39,28.27l0,0a0,0,0,0,1,0-.05L20.06,27s0,0,.05,0a0,0,0,0,1,0,.05l-2.68,1.17Z"/><path d="M17.39,29.51s0,0,0,0a0,0,0,0,1,0,0l2.68-1.17a0,0,0,0,1,.05,0s0,0,0,0L17.41,29.5Z"/><path d="M17.39,30.89s0,0,0,0,0,0,0,0l2.68-1.17a0,0,0,1,1,0,.07l-2.68,1.16Z"/><path d="M17.39,32.16l0,0a0,0,0,0,1,0,0l2.68-1.16a0,0,0,0,1,.05,0s0,0,0,0l-2.68,1.17Z"/><path class="cls-3" d="M19.68,13.86a.05.05,0,0,1-.06,0L18.83,12a.06.06,0,0,1,0-.09.08.08,0,0,1,.1,0l.79,1.85a.08.08,0,0,1,0,.1Z"/><path d="M17.76,22.22a0,0,0,0,1,0,0V16.91s0,0,0,0a0,0,0,0,1,0,0v5.28S17.78,22.22,17.76,22.22Z"/><path d="M17.76,24s0,0,0,0V22.86a0,0,0,0,1,0,0s0,0,0,0v1.05A0,0,0,0,1,17.76,24Z"/><path d="M19.78,43.82s0,0,0,0V41.12a0,0,0,0,1,0,0s0,0,0,0v2.67A0,0,0,0,1,19.78,43.82Z"/><path class="cls-2" d="M34.87,39.53l2.07-21.2,1-.7L37.09,17l-1.61,1.12h0L33.41,39.35a3.4,3.4,0,1,0,1.46.18Zm-1.15,5.4a2.19,2.19,0,1,1,2.19-2.19A2.2,2.2,0,0,1,33.72,44.93Z"/><path d="M33.72,46.19a3.45,3.45,0,0,1-.36-6.89l2.08-21.17h0L37.09,17l1,.65L37,18.36,34.92,39.5a3.45,3.45,0,0,1-1.2,6.69Zm1.81-28-2.07,21.2h-.05a3.35,3.35,0,1,0,1.44.18l0,0v0L36.89,18.3h0l1-.66-.8-.53ZM33.72,45A2.24,2.24,0,1,1,36,42.74,2.25,2.25,0,0,1,33.72,45Zm0-4.38a2.14,2.14,0,1,0,2.14,2.14A2.14,2.14,0,0,0,33.72,40.6Z"/><polygon class="cls-2" points="40.56 15.91 38.88 17.04 37.98 17.63 37.09 17.04 37.98 16.42 39.07 15.66 38.22 5.75 39.68 5.63 40.56 15.91"/><path d="M38,17.69,37,17l1-.66,1-.74-.85-9.93,1.57-.13v0l.89,10.31Zm-.8-.65.8.53,2.53-1.68L39.63,5.68l-1.36.12.85,9.89Z"/><path class="cls-2" d="M38.69,42.74a3.41,3.41,0,1,0,3.71-3.39L40.33,18.16h0L38.72,17l-.89.59,1,.7L41,39.53A3.4,3.4,0,0,0,38.69,42.74Zm1.21,0a2.19,2.19,0,1,1,2.19,2.19A2.19,2.19,0,0,1,39.9,42.74Z"/><path d="M38.64,42.74a3.46,3.46,0,0,1,2.25-3.24L38.82,18.36l-1.08-.73,1-.65,1.64,1.14h0L42.45,39.3a3.45,3.45,0,1,1-3.81,3.44Zm.08-25.64-.8.53,1,.66h0L41,39.53v0l0,0a3.36,3.36,0,1,0,1.44-.18h0l-2.08-21.2Zm1.13,25.64A2.24,2.24,0,1,1,42.09,45,2.24,2.24,0,0,1,39.85,42.74Zm.11,0a2.14,2.14,0,1,0,2.13-2.14A2.13,2.13,0,0,0,40,42.74Z"/><polygon class="cls-2" points="35.25 15.91 36.94 17.04 37.83 17.63 38.72 17.04 37.83 16.42 36.74 15.66 37.6 5.75 36.13 5.63 35.25 15.91"/><path d="M35.2,15.94l.88-10.31v0l1.56.13-.85,9.93,1.06.74,1,.66-1,.65Zm1.49-.25.85-9.89-1.36-.12L35.3,15.89l2.53,1.68.8-.53Z"/><circle class="cls-1" cx="38.08" cy="17.01" r="1.34"/><path d="M38.08,18.4A1.39,1.39,0,1,1,39.47,17,1.38,1.38,0,0,1,38.08,18.4Zm0-2.67A1.29,1.29,0,1,0,39.37,17,1.28,1.28,0,0,0,38.08,15.73Z"/><path d="M40.76,30.91s0,0,0,0L40,24.37a0,0,0,0,1,0-.05s0,0,0,0l.76,6.5s0,.05,0,.05Z"/><path d="M41,32.69s-.05,0-.05,0l-.13-1a.06.06,0,0,1,0-.06s0,0,0,0l.13,1.06a0,0,0,0,1,0,0Z"/><path d="M36.07,13.1h0a0,0,0,0,1,0,0l.53-6.52a0,0,0,0,1,.05,0,.06.06,0,0,1,0,.06l-.53,6.52A0,0,0,0,1,36.07,13.1Z"/><path d="M36,14.9h0a.05.05,0,0,1,0-.05L36,13.79a.05.05,0,0,1,.05,0,.06.06,0,0,1,0,.06l-.08,1A0,0,0,0,1,36,14.9Z"/><path class="cls-3" d="M39.81,14.92a.11.11,0,0,1-.1-.1L39.32,10a.1.1,0,0,1,.09-.11.09.09,0,0,1,.11.09l.39,4.81a.09.09,0,0,1-.09.1Z"/><path class="cls-3" d="M34.06,37.35h0a.09.09,0,0,1-.09-.11l.48-4.8a.12.12,0,0,1,.12-.09.12.12,0,0,1,.09.11l-.49,4.8A.1.1,0,0,1,34.06,37.35Z"/></svg>