<svg xmlns="http://www.w3.org/2000/svg" width="45.181" height="28.58" viewBox="0 0 45.181 28.58">
  <g id="truck" transform="translate(0 -94.062)">
    <g id="Group_12386" data-name="Group 12386" transform="translate(0 94.062)">
      <g id="Group_12385" data-name="Group 12385" transform="translate(0 0)">
        <path id="Path_42249" data-name="Path 42249" d="M42.019,106.178l-1.17-4.68a.708.708,0,0,0,.56-.692v-.755a2.975,2.975,0,0,0-2.971-2.971H33.108V95.524a1.464,1.464,0,0,0-1.462-1.462H4.48a1.464,1.464,0,0,0-1.462,1.462v12.828a.707.707,0,0,0,1.415,0V95.524a.047.047,0,0,1,.047-.047H31.646a.047.047,0,0,1,.047.047v12.828a.707.707,0,0,0,1.415,0v-.8h8.349a2.315,2.315,0,0,1,2.2,1.6h-2.2a.707.707,0,0,0-.707.707v1.509a2.219,2.219,0,0,0,2.217,2.217h.8V116.7h-1.85a4.479,4.479,0,0,0-8.468,0h-.341v-5.329a.707.707,0,0,0-1.415,0V116.7H17.015a4.479,4.479,0,0,0-8.468,0H4.48a.047.047,0,0,1-.047-.047V115.1H7.5a.707.707,0,0,0,0-1.415H.707a.707.707,0,0,0,0,1.415H3.018v1.556a1.464,1.464,0,0,0,1.462,1.462H8.3c0,.016,0,.031,0,.047a4.48,4.48,0,0,0,8.961,0c0-.016,0-.031,0-.047H33.2c0,.016,0,.031,0,.047a4.48,4.48,0,0,0,8.961,0c0-.016,0-.031,0-.047h2.312a.707.707,0,0,0,.707-.707v-7.546A3.731,3.731,0,0,0,42.019,106.178ZM33.108,98.5h5.329a1.558,1.558,0,0,1,1.556,1.556v.047H33.108Zm0,7.64v-4.622h6.286l1.155,4.622H33.108ZM12.781,121.228a3.066,3.066,0,1,1,3.066-3.066A3.069,3.069,0,0,1,12.781,121.228Zm24.9,0a3.066,3.066,0,1,1,3.066-3.066A3.069,3.069,0,0,1,37.683,121.228Zm6.084-9.055h-.8a.8.8,0,0,1-.8-.8v-.8h1.6v1.6Z" transform="translate(0 -94.062)" fill="#fff"/>
      </g>
    </g>
    <g id="Group_12388" data-name="Group 12388" transform="translate(11.319 116.7)">
      <g id="Group_12387" data-name="Group 12387" transform="translate(0 0)">
        <path id="Path_42250" data-name="Path 42250" d="M129.729,350.6a1.462,1.462,0,1,0,1.462,1.462A1.464,1.464,0,0,0,129.729,350.6Z" transform="translate(-128.267 -350.597)" fill="#fff"/>
      </g>
    </g>
    <g id="Group_12390" data-name="Group 12390" transform="translate(36.221 116.7)">
      <g id="Group_12389" data-name="Group 12389" transform="translate(0 0)">
        <path id="Path_42251" data-name="Path 42251" d="M411.917,350.6a1.462,1.462,0,1,0,1.462,1.462A1.464,1.464,0,0,0,411.917,350.6Z" transform="translate(-410.455 -350.597)" fill="#fff"/>
      </g>
    </g>
    <g id="Group_12392" data-name="Group 12392" transform="translate(18.11 113.682)">
      <g id="Group_12391" data-name="Group 12391">
        <path id="Path_42252" data-name="Path 42252" d="M216.5,316.393H205.934a.707.707,0,1,0,0,1.415H216.5a.707.707,0,1,0,0-1.415Z" transform="translate(-205.227 -316.393)" fill="#fff"/>
      </g>
    </g>
    <g id="Group_12394" data-name="Group 12394" transform="translate(1.509 110.663)">
      <g id="Group_12393" data-name="Group 12393">
        <path id="Path_42253" data-name="Path 42253" d="M26.865,282.188H17.809a.707.707,0,1,0,0,1.415h9.055a.707.707,0,0,0,0-1.415Z" transform="translate(-17.102 -282.188)" fill="#fff"/>
      </g>
    </g>
    <g id="Group_12396" data-name="Group 12396" transform="translate(12.828 100.853)">
      <g id="Group_12395" data-name="Group 12395" transform="translate(0 0)">
        <path id="Path_42254" data-name="Path 42254" d="M157.142,171.23a.707.707,0,0,0-1,0l-6.291,6.291-3.273-3.273a.707.707,0,1,0-1,1l3.773,3.773a.707.707,0,0,0,1,0l6.791-6.791A.708.708,0,0,0,157.142,171.23Z" transform="translate(-145.37 -171.023)" fill="#fff"/>
      </g>
    </g>
  </g>
</svg>
