<svg xmlns="http://www.w3.org/2000/svg" width="21.015" height="25.189" viewBox="0 0 21.015 25.189">
  <g id="user_16_" data-name="user (16)" transform="translate(0 0)">
    <path id="Path_41006" data-name="Path 41006" d="M93.1,12.134a5.87,5.87,0,0,0,4.29-1.777,5.871,5.871,0,0,0,1.777-4.29,5.871,5.871,0,0,0-1.777-4.29,6.066,6.066,0,0,0-8.579,0,5.87,5.87,0,0,0-1.777,4.289,5.871,5.871,0,0,0,1.777,4.29A5.872,5.872,0,0,0,93.1,12.134ZM89.853,2.821a4.589,4.589,0,0,1,6.492,0A4.386,4.386,0,0,1,97.69,6.067a4.386,4.386,0,0,1-1.345,3.246,4.589,4.589,0,0,1-6.492,0,4.385,4.385,0,0,1-1.345-3.246,4.386,4.386,0,0,1,1.345-3.246Zm0,0" transform="translate(-82.75)" fill="#fff"/>
    <path id="Path_41007" data-name="Path 41007" d="M20.964,254.518a14.986,14.986,0,0,0-.2-1.592,12.54,12.54,0,0,0-.391-1.6,7.9,7.9,0,0,0-.658-1.492,5.625,5.625,0,0,0-.992-1.293,4.374,4.374,0,0,0-1.425-.9,4.925,4.925,0,0,0-1.819-.329,1.846,1.846,0,0,0-.986.418c-.3.193-.641.416-1.027.662a5.886,5.886,0,0,1-1.329.586,5.161,5.161,0,0,1-3.251,0,5.869,5.869,0,0,1-1.328-.585c-.382-.244-.728-.467-1.028-.663a1.844,1.844,0,0,0-.986-.418,4.919,4.919,0,0,0-1.819.33,4.37,4.37,0,0,0-1.425.9,5.628,5.628,0,0,0-.992,1.293,7.92,7.92,0,0,0-.658,1.493,12.569,12.569,0,0,0-.391,1.6,14.883,14.883,0,0,0-.2,1.592C.017,255,0,255.5,0,256.006a4.183,4.183,0,0,0,1.242,3.164,4.472,4.472,0,0,0,3.2,1.167H16.572a4.472,4.472,0,0,0,3.2-1.167,4.181,4.181,0,0,0,1.242-3.165c0-.508-.017-1.008-.051-1.488ZM18.755,258.1a3.011,3.011,0,0,1-2.183.761H4.443A3.011,3.011,0,0,1,2.26,258.1a2.731,2.731,0,0,1-.784-2.1c0-.472.016-.938.047-1.385a13.424,13.424,0,0,1,.184-1.433,11.086,11.086,0,0,1,.344-1.411,6.447,6.447,0,0,1,.535-1.214,4.17,4.17,0,0,1,.729-.955,2.9,2.9,0,0,1,.948-.589,3.4,3.4,0,0,1,1.162-.224c.052.027.144.08.293.177.3.2.653.423,1.04.67a7.315,7.315,0,0,0,1.668.745,6.636,6.636,0,0,0,4.159,0,7.322,7.322,0,0,0,1.669-.746c.4-.253.736-.472,1.039-.67.149-.1.241-.15.293-.177a3.4,3.4,0,0,1,1.163.224,2.905,2.905,0,0,1,.948.589,4.159,4.159,0,0,1,.729.956,6.425,6.425,0,0,1,.536,1.213,11.059,11.059,0,0,1,.344,1.411,13.537,13.537,0,0,1,.184,1.434h0c.031.446.047.911.047,1.385a2.731,2.731,0,0,1-.784,2.095Zm0,0" transform="translate(0 -235.149)" fill="#fff"/>
  </g>
</svg>
