<svg xmlns="http://www.w3.org/2000/svg" width="17.908" height="17.909" viewBox="0 0 17.908 17.909">
  <g id="wallet_2_" data-name="wallet (2)" transform="translate(0.1 0.101)">
    <g id="Group_11238" data-name="Group 11238" transform="translate(7.872 11.548)">
      <g id="Group_11237" data-name="Group 11237">
        <path id="Path_40288" data-name="Path 40288" d="M228.514,333.891a.9.9,0,1,0,.9.9A.9.9,0,0,0,228.514,333.891Zm0,1.107a.208.208,0,1,1,.208-.208A.208.208,0,0,1,228.514,335Z" transform="translate(-227.615 -333.891)" fill="#63c7db" stroke="#63c7db" stroke-width="0.2"/>
      </g>
    </g>
    <g id="Group_11240" data-name="Group 11240" transform="translate(10.957 10.301)">
      <g id="Group_11239" data-name="Group 11239">
        <path id="Path_40289" data-name="Path 40289" d="M317.4,297.92a.346.346,0,1,0,.1.244A.348.348,0,0,0,317.4,297.92Z" transform="translate(-316.808 -297.819)" fill="#63c7db" stroke="#63c7db" stroke-width="0.2"/>
      </g>
    </g>
    <g id="Group_11242" data-name="Group 11242" transform="translate(0 0)">
      <g id="Group_11241" data-name="Group 11241" transform="translate(0 0)">
        <path id="Path_40290" data-name="Path 40290" d="M15.986,4.98h-.373L10.734.1a.346.346,0,0,0-.489,0L9,1.351,4,.012a.346.346,0,0,0-.424.245L2.307,4.98H1.46A1.454,1.454,0,0,0,.007,6.433c0,.019,0,.038,0,.057s0,.019,0,.029v9.46a1.731,1.731,0,0,0,1.729,1.729H15.986a1.731,1.731,0,0,0,1.729-1.729V6.71A1.731,1.731,0,0,0,15.986,4.98Zm-.309.692h.309A1.039,1.039,0,0,1,17.023,6.71V9.481a.821.821,0,0,1-.82.82h-.356V8.923a1.731,1.731,0,0,0-1.693-1.728ZM9.343,1.982h0L10.49.835l4.523,4.523L13.188,7.183h-.633l.828-.828a.346.346,0,0,0,0-.489.719.719,0,0,1,0-1.015.346.346,0,0,0,0-.489l-1.9-1.9a.346.346,0,0,0-.489,0,.719.719,0,0,1-1.015,0,.346.346,0,0,0-.489,0L4.775,7.183H4.142Zm-1.018,3.9a1.653,1.653,0,0,0-1.612,1.3h-.96L9.768,3.168a1.415,1.415,0,0,0,1.444,0l1.468,1.468a1.415,1.415,0,0,0,0,1.444l-1.1,1.1H9.938A1.653,1.653,0,0,0,8.325,5.883Zm.892,1.3H7.434a.958.958,0,0,1,1.784,0ZM3.777,6.57l.916-3.418a1.414,1.414,0,0,0,1.251-.722L7.5,2.846,5.241,5.105ZM4.152.77,8.43,1.916l-.365.365-2.235-.6a.346.346,0,0,0-.424.245.718.718,0,0,1-.879.508.346.346,0,0,0-.424.245L2.893,7.194H2.43ZM1.46,5.672h.662L1.714,7.194H1.46a.761.761,0,1,1,0-1.522ZM17.023,15.979a1.039,1.039,0,0,1-1.038,1.038H15.5a1.72,1.72,0,0,0,.346-1.037V14.59h.208a1.651,1.651,0,0,0,.968-.313Zm0-3.049a.97.97,0,0,1-.968.968H8.792a1.453,1.453,0,1,1,0-2.905H9.84a.346.346,0,0,0,0-.692H8.792a2.144,2.144,0,0,0,0,4.289h6.364v1.39a1.039,1.039,0,0,1-1.022,1.038H2.359V13.122a.346.346,0,0,0-.692,0v3.892A1.039,1.039,0,0,1,.7,15.979V7.67a1.444,1.444,0,0,0,.761.216H14.118a1.039,1.039,0,0,1,1.038,1.038V10.3h-2.5a.346.346,0,0,0,0,.692H16.2a1.5,1.5,0,0,0,.82-.243V12.93Z" transform="translate(-0.007 0)" fill="#63c7db" stroke="#63c7db" stroke-width="0.2"/>
      </g>
    </g>
    <g id="Group_11244" data-name="Group 11244" transform="translate(1.66 11.427)">
      <g id="Group_11243" data-name="Group 11243">
        <path id="Path_40291" data-name="Path 40291" d="M48.6,330.489a.346.346,0,1,0,.1.244A.349.349,0,0,0,48.6,330.489Z" transform="translate(-48.006 -330.388)" fill="#63c7db" stroke="#63c7db" stroke-width="0.2"/>
      </g>
    </g>
  </g>
</svg>
