<svg xmlns="http://www.w3.org/2000/svg" width="30" height="30" viewBox="0 0 30 30">
  <g id="Group_18928" data-name="Group 18928" transform="translate(-23322 -11215)">
    <circle id="Ellipse_2398" data-name="Ellipse 2398" cx="15" cy="15" r="15" transform="translate(23322 11215)" fill="#63c7db"/>
    <path id="smart-cart" d="M14.482,2.843a1.456,1.456,0,0,0-1.115-.492H2.7l-.107-.8A1.628,1.628,0,0,0,1.222,0H.439a.439.439,0,0,0,0,.878h.784c.141,0,.439.3.5.784l1.256,9.423a1.775,1.775,0,0,0,.6,1.095,1.814,1.814,0,0,0,.842.419,1.614,1.614,0,1,0,2.855.032h2.3a1.614,1.614,0,1,0,2.871,0H13.6a.439.439,0,1,0,0-.878H4.748a.942.942,0,0,1-.9-.784l-.092-.689h8.666a1.822,1.822,0,0,0,1.766-1.546l.63-4.722a1.456,1.456,0,0,0-.34-1.17Zm-7.9,10.524a.736.736,0,1,1-.736-.736A.737.737,0,0,1,6.582,13.367Zm5.171,0a.736.736,0,1,1-.736-.736A.737.737,0,0,1,11.753,13.367Zm2.068-9.946a.59.59,0,0,1,.131.476l-.264,1.98H10.7l.176-2.648h2.489a.59.59,0,0,1,.454.192ZM7.588,9.4,7.412,6.754H9.763L9.587,9.4ZM7.353,5.876,7.177,3.228H10L9.822,5.876ZM6.3,3.228l.176,2.648h-3.3L2.821,3.228ZM3.291,6.754H6.532L6.708,9.4H3.644ZM12.427,9.4h-1.96l.177-2.648h2.928l-.248,1.864a.942.942,0,0,1-.9.784Zm0,0" transform="translate(23329.004 11223.014)" fill="#fff"/>
  </g>
</svg>
