<svg xmlns="http://www.w3.org/2000/svg" width="30" height="30" viewBox="0 0 30 30">
  <g id="Group_18933" data-name="Group 18933" transform="translate(-23321 -11454)">
    <circle id="Ellipse_2403" data-name="Ellipse 2403" cx="15" cy="15" r="15" transform="translate(23321 11454)" fill="#63c7db"/>
    <g id="phone_2_" data-name="phone (2)" transform="translate(23328.871 11462.872)">
      <g id="Group_18913" data-name="Group 18913" transform="translate(10.05 8.392)">
        <g id="Group_18912" data-name="Group 18912">
          <path id="Path_49261" data-name="Path 49261" d="M364.757,303.52l-1.772-1.772a1.284,1.284,0,0,0-1.772,0l-.3.3,3.544,3.544.3-.3A1.252,1.252,0,0,0,364.757,303.52Z" transform="translate(-360.917 -301.393)" fill="#fff"/>
        </g>
      </g>
      <g id="Group_18915" data-name="Group 18915" transform="translate(0 1.265)">
        <g id="Group_18914" data-name="Group 18914" transform="translate(0)">
          <path id="Path_49262" data-name="Path 49262" d="M9.443,53.795A.94.94,0,0,1,8.2,53.731l-3.5-3.506a.94.94,0,0,1-.064-1.246L1.094,45.443a4.51,4.51,0,0,0,.217,6.124l5.544,5.547a4.484,4.484,0,0,0,6.124.217Z" transform="translate(0 -45.443)" fill="#fff"/>
        </g>
      </g>
      <g id="Group_18917" data-name="Group 18917" transform="translate(1.66 0)">
        <g id="Group_18916" data-name="Group 18916" transform="translate(0 0)">
          <path id="Path_49263" data-name="Path 49263" d="M63.452,2.127,61.68.355a1.284,1.284,0,0,0-1.772,0l-.3.3,3.544,3.544.3-.3A1.252,1.252,0,0,0,63.452,2.127Z" transform="translate(-59.612 0)" fill="#fff"/>
        </g>
      </g>
    </g>
  </g>
</svg>
