<svg xmlns="http://www.w3.org/2000/svg" width="25.814" height="22.689" viewBox="0 0 25.814 22.689">
  <g id="supermarket_2_" data-name="supermarket (2)" transform="translate(0 0)">
    <path id="Path_41003" data-name="Path 41003" d="M8.317,15.126H22.033a.756.756,0,0,0,.727-.549L25.785,3.989a.756.756,0,0,0-.727-.964H6.573L6.032.592A.756.756,0,0,0,5.294,0H.756a.756.756,0,1,0,0,1.513H4.687L7.418,13.8a2.269,2.269,0,0,0,.9,4.351H22.033a.756.756,0,1,0,0-1.513H8.319a.756.756,0,0,1,0-1.512ZM24.055,4.538l-2.593,9.075H8.926L6.909,4.538Zm0,0" fill="#fff"/>
    <path id="Path_41004" data-name="Path 41004" d="M150,362.269A2.269,2.269,0,1,0,152.269,360,2.271,2.271,0,0,0,150,362.269Zm2.269-.756a.756.756,0,1,1-.756.756A.757.757,0,0,1,152.269,361.513Zm0,0" transform="translate(-142.437 -341.849)" fill="#fff"/>
    <path id="Path_41005" data-name="Path 41005" d="M362,362.269A2.269,2.269,0,1,0,364.269,360,2.271,2.271,0,0,0,362,362.269Zm2.269-.756a.756.756,0,1,1-.756.756A.757.757,0,0,1,364.269,361.513Zm0,0" transform="translate(-343.748 -341.849)" fill="#fff"/>
  </g>
</svg>
