<svg xmlns="http://www.w3.org/2000/svg" width="30" height="30" viewBox="0 0 30 30">
  <g id="Group_18931" data-name="Group 18931" transform="translate(-23322 -11346)">
    <circle id="Ellipse_2401" data-name="Ellipse 2401" cx="15" cy="15" r="15" transform="translate(23322 11346)" fill="#63c7db"/>
    <g id="motivation" transform="translate(23328.313 11353.282)">
      <path id="Path_49269" data-name="Path 49269" d="M442.658,240.9h-1.206a.452.452,0,0,1,0-.9h1.206a.452.452,0,0,1,0,.9Z" transform="translate(-426.735 -232.765)" fill="#fff"/>
      <path id="Path_49270" data-name="Path 49270" d="M2.658,240.9H1.452a.452.452,0,0,1,0-.9H2.658a.452.452,0,0,1,0,.9Z" transform="translate(0 -232.765)" fill="#fff"/>
      <path id="Path_49271" data-name="Path 49271" d="M414.655,121.5a.452.452,0,0,1-.226-.844l1.044-.6a.452.452,0,1,1,.452.783l-1.044.6A.45.45,0,0,1,414.655,121.5Z" transform="translate(-400.745 -116.379)" fill="#fff"/>
      <path id="Path_49272" data-name="Path 49272" d="M341.449,34.1a.452.452,0,0,1-.391-.678l.6-1.044a.452.452,0,0,1,.783.452l-.6,1.044A.452.452,0,0,1,341.449,34.1Z" transform="translate(-329.747 -31.181)" fill="#fff"/>
      <path id="Path_49273" data-name="Path 49273" d="M241.452,2.11A.452.452,0,0,1,241,1.658V.452a.452.452,0,0,1,.9,0V1.658A.452.452,0,0,1,241.452,2.11Z" transform="translate(-232.765)" fill="#fff"/>
      <path id="Path_49274" data-name="Path 49274" d="M122.053,34.1a.452.452,0,0,1-.392-.226l-.6-1.044a.452.452,0,1,1,.783-.452l.6,1.044a.452.452,0,0,1-.391.678Z" transform="translate(-116.38 -31.182)" fill="#fff"/>
      <path id="Path_49275" data-name="Path 49275" d="M34.647,121.5a.45.45,0,0,1-.226-.061l-1.044-.6a.452.452,0,1,1,.452-.783l1.044.6a.452.452,0,0,1-.227.844Z" transform="translate(-31.182 -116.379)" fill="#fff"/>
      <path id="Path_49276" data-name="Path 49276" d="M442.658,240.9h-1.206a.452.452,0,0,1,0-.9h1.206a.452.452,0,0,1,0,.9Z" transform="translate(-426.735 -232.765)" fill="#fff"/>
      <path id="Path_49277" data-name="Path 49277" d="M414.655,121.5a.452.452,0,0,1-.226-.844l1.044-.6a.452.452,0,1,1,.452.783l-1.044.6A.45.45,0,0,1,414.655,121.5Z" transform="translate(-400.745 -116.379)" fill="#fff"/>
      <path id="Path_49278" data-name="Path 49278" d="M341.449,34.1a.452.452,0,0,1-.391-.678l.6-1.044a.452.452,0,0,1,.783.452l-.6,1.044A.452.452,0,0,1,341.449,34.1Z" transform="translate(-329.747 -31.181)" fill="#fff"/>
      <path id="Path_49279" data-name="Path 49279" d="M241.452,2.11A.452.452,0,0,1,241,1.658V.452a.452.452,0,0,1,.9,0V1.658A.452.452,0,0,1,241.452,2.11Z" transform="translate(-232.765)" fill="#fff"/>
      <path id="Path_49280" data-name="Path 49280" d="M122.053,34.1a.452.452,0,0,1-.392-.226l-.6-1.044a.452.452,0,1,1,.783-.452l.6,1.044a.452.452,0,0,1-.391.678Z" transform="translate(-116.38 -31.182)" fill="#fff"/>
      <path id="Path_49281" data-name="Path 49281" d="M102.017,105.427a1.017,1.017,0,0,0,1.017-1.017v.3a1.017,1.017,0,0,0,.974,1.016,1.928,1.928,0,0,1,1.634-2.953h3.5V101.62a1.017,1.017,0,1,0-2.035,0v-.6a1.017,1.017,0,0,0-2.035,0v.6a1.017,1.017,0,1,0-2.035,0v.6a1.017,1.017,0,1,0-2.035,0v2.186A1.017,1.017,0,0,0,102.017,105.427Z" transform="translate(-96.985 -96.985)" fill="#fff"/>
      <path id="Path_49282" data-name="Path 49282" d="M108.989,222h-3.346a1.025,1.025,0,0,0,0,2.05h2.519a1.58,1.58,0,0,0-1.132,1.658.452.452,0,1,1-.9,0,3.212,3.212,0,0,1,.085-.754h-.567a1.917,1.917,0,0,1-.8-.173,1.915,1.915,0,0,1-2.049-.3,1.915,1.915,0,0,1-1.8-.126v2.11a2.617,2.617,0,0,0,1.206,2.214v1.607a.452.452,0,0,0,.452.452h6.029a.452.452,0,0,0,.452-.452v-1.607h0a2.617,2.617,0,0,0,1.206-2.213v-3.114A1.357,1.357,0,0,0,108.989,222Z" transform="translate(-96.985 -215.307)" fill="#fff"/>
    </g>
  </g>
</svg>
