<svg id="dentist" xmlns="http://www.w3.org/2000/svg" width="84.675" height="75.351" viewBox="0 0 84.675 75.351">
  <path id="Path_40264" data-name="Path 40264" d="M93.378,110.047c3.758,1.989,5.814,3.239,6.624,4.548.748,1.209.611,2.833.364,5.782-.043.515-.09,1.066-.135,1.659a52.388,52.388,0,0,0,.743,13.929c1.055,5.23,2.949,9.286,5.629,12.055a3.6,3.6,0,0,0,6.113-3.133c-.09-.93-1.643-18.346,5.77-27.37a2.8,2.8,0,0,1,4.3.021c7.267,9.068,5.738,26.416,5.649,27.349a3.51,3.51,0,0,0,3.5,4.138,3.64,3.64,0,0,0,1.187-.2,3.562,3.562,0,0,0,1.425-.807c2.68-2.769,4.574-6.825,5.629-12.055a52.4,52.4,0,0,0,.743-13.929c-.045-.59-.091-1.139-.134-1.652-.248-2.95-.385-4.576.364-5.784.809-1.307,2.866-2.559,6.624-4.554,3.032-1.609,5.286-5.055,6.185-9.453a21.067,21.067,0,0,0-1.3-12.58,1.091,1.091,0,1,0-1.991.895,18.837,18.837,0,0,1,1.152,11.248c-.767,3.758-2.615,6.66-5.07,7.962-8.468,4.495-8.72,5.549-8.14,12.449.043.508.088,1.051.133,1.636.958,12.533-2.349,20.77-5.759,24.294a1.9,1.9,0,0,1-.572.267,1.386,1.386,0,0,1-1.734-.7,1.4,1.4,0,0,1-.09-.821c.006-.03.01-.06.013-.09a62.138,62.138,0,0,0-.01-10.644c-.674-7.954-2.729-14.122-6.1-18.334a4.986,4.986,0,0,0-7.692-.042c-3.443,4.19-5.54,10.36-6.232,18.338a61.487,61.487,0,0,0-.018,10.683q0,.045.013.089a1.4,1.4,0,0,1-.089.821,1.386,1.386,0,0,1-1.734.7,2.016,2.016,0,0,1-.567-.261c-3.415-3.529-6.723-11.765-5.764-24.3.045-.587.091-1.133.134-1.643.581-6.9.329-7.958-8.141-12.442a10.63,10.63,0,0,1-4.9-6.817,17.821,17.821,0,0,1,.215-9.916c1.063-3.326,4.781-10.9,16.324-9.366,3.772.5,8.5,3.229,11.623,5.034.94.543,1.752,1.012,2.354,1.311,2.9,1.444,7.264,3.267,11.566,2.428a1.091,1.091,0,0,0-.418-2.142c-2.3.449-4.915.035-8.109-1.294a37.873,37.873,0,0,0,3.576-2.028,22.485,22.485,0,0,1,6.809-3.095c4.492-1.224,8.349-1.066,11.466.472a1.091,1.091,0,1,0,.966-1.958c-3.609-1.78-7.985-1.989-13.006-.62a24.585,24.585,0,0,0-7.385,3.346,31.489,31.489,0,0,1-4.825,2.572,1.9,1.9,0,0,0-.187.092c-.479-.261-1.065-.6-1.715-.974-3.275-1.892-8.226-4.75-12.427-5.308C97.189,78.641,90.2,82.7,87.639,90.72c-2.455,7.682.119,16.352,5.738,19.327Z" transform="translate(-75.165 -73.75)" fill="#63C7DB"/>
  <path id="Path_40265" data-name="Path 40265" d="M27.353,282.939a1.091,1.091,0,0,0,.912-.491,5.85,5.85,0,0,1,5.99-2.541,1.091,1.091,0,0,0,.8-1.984,5.85,5.85,0,0,1-2.542-5.991,1.091,1.091,0,0,0-1.985-.8,5.85,5.85,0,0,1-5.99,2.541,1.091,1.091,0,0,0-.8,1.984,5.85,5.85,0,0,1,2.541,5.99,1.091,1.091,0,0,0,1.072,1.294Zm3-8.51a8.013,8.013,0,0,0,1.405,3.314,8.017,8.017,0,0,0-3.313,1.405,8.015,8.015,0,0,0-1.406-3.313A8.017,8.017,0,0,0,30.352,274.429Z" transform="translate(-23.247 -230.337)" fill="#63C7DB"/>
  <path id="Path_40266" data-name="Path 40266" d="M396.247,58.2a10.475,10.475,0,0,1-8.239-8.239,1.091,1.091,0,0,0-2.14,0,10.475,10.475,0,0,1-8.239,8.239,1.091,1.091,0,0,0,0,2.14,10.475,10.475,0,0,1,8.239,8.239,1.091,1.091,0,0,0,2.14,0,10.475,10.475,0,0,1,8.239-8.239,1.091,1.091,0,0,0,0-2.14ZM386.938,65a12.633,12.633,0,0,0-5.733-5.733,12.633,12.633,0,0,0,5.733-5.733,12.634,12.634,0,0,0,5.733,5.733A12.633,12.633,0,0,0,386.938,65Z" transform="translate(-312.449 -49.085)" fill="#63C7DB"/>
  <path id="Path_40267" data-name="Path 40267" d="M60.943,344.47a1.091,1.091,0,0,0-.877-1.07,8.724,8.724,0,0,1-6.861-6.861,1.091,1.091,0,0,0-2.14,0A8.724,8.724,0,0,1,44.2,343.4a1.091,1.091,0,0,0,0,2.14,8.724,8.724,0,0,1,6.861,6.861,1.091,1.091,0,0,0,2.14,0,8.723,8.723,0,0,1,6.861-6.861A1.091,1.091,0,0,0,60.943,344.47Zm-8.809,4.5a10.883,10.883,0,0,0-4.5-4.5,10.886,10.886,0,0,0,4.5-4.5,10.886,10.886,0,0,0,4.5,4.5,10.883,10.883,0,0,0-4.5,4.5Z" transform="translate(-39.674 -283.533)" fill="#63C7DB"/>
</svg>
