<svg xmlns="http://www.w3.org/2000/svg" width="30" height="30" viewBox="0 0 30 30">
  <g id="Group_18930" data-name="Group 18930" transform="translate(-23323 -11301)">
    <circle id="Ellipse_2400" data-name="Ellipse 2400" cx="15" cy="15" r="15" transform="translate(23323 11301)" fill="#63c7db"/>
    <g id="feedback_1_" data-name="feedback (1)" transform="translate(23331.311 11289.207)">
      <g id="Group_18927" data-name="Group 18927" transform="translate(0 21.33)">
        <g id="Group_18926" data-name="Group 18926" transform="translate(0 0)">
          <path id="Path_49283" data-name="Path 49283" d="M12.09,26.272a.278.278,0,0,0-.3.06l-1.721,1.72a.832.832,0,0,1-.427.229l-1.393.279a.836.836,0,0,1-.984-.984l.246-1.23H3.066a.279.279,0,1,1,0-.557H7.744c.01-.011.015-.024.026-.035l1.08-1.08H3.066a.279.279,0,1,1,0-.557H9.2a.272.272,0,0,1,.156.054l1.808-1.808a1.61,1.61,0,0,1,.549-.357.279.279,0,0,0,.05-.492,1.113,1.113,0,0,0-.613-.184H1.115A1.116,1.116,0,0,0,0,22.445V33.313a.279.279,0,0,0,.172.257.275.275,0,0,0,.107.021.279.279,0,0,0,.2-.082l2.705-2.705h7.966a1.116,1.116,0,0,0,1.115-1.115V26.529A.279.279,0,0,0,12.09,26.272ZM6.41,28.018H3.066a.279.279,0,1,1,0-.557H6.41a.279.279,0,1,1,0,.557Z" transform="translate(0 -21.33)" fill="#fff"/>
          <path id="Path_49284" data-name="Path 49284" d="M303.17,64a1.073,1.073,0,0,0-.754.312L299.024,67.7a.277.277,0,0,0-.076.142l-.279,1.394a.279.279,0,0,0,.273.333.285.285,0,0,0,.054-.005l1.393-.279a.277.277,0,0,0,.143-.076l3.393-3.392h0A1.067,1.067,0,0,0,303.17,64Zm-.442,2.229-.721-.721.394-.394.721.721Z" transform="translate(-290.861 -62.885)" fill="#fff"/>
        </g>
      </g>
    </g>
  </g>
</svg>
