<svg id="Layer_1" data-name="Layer 1" xmlns="http://www.w3.org/2000/svg" viewBox="0 0 1080 1080"><path d="M879.65,690.21q0-163.58,0-327.15c0-6.51.57-5.79-5.94-5.8q-21.21,0-42.43,0H266.12q-30.24,0-60.49,0c-1.78,0-3.64-.46-5.35.46v2c.83,1.2.5,2.56.5,3.86q0,42.95,0,85.89c0,1.3.33,2.67-.5,3.86v1c1,1.88.49,3.91.49,5.85q0,95.15,0,190.28,0,32.73,0,65.44c0,1.78.48,3.64-.49,5.34v1c2.06,1,4.26.45,6.38.45q332.94,0,665.87,0a21.44,21.44,0,0,1,3,0c3.28.46,4.26-.9,4.19-4.16C879.52,709.14,879.65,699.67,879.65,690.21Zm-31.92,11q-124.51-.21-249-.1H538.81q-153.72,0-307.44.12c-4.85,0-5.65-1.48-5.62-5.82.17-30.21.09-60.41.09-90.62q0-108-.1-216c0-4.34,1-5.48,5.44-5.48q117.22.22,234.46.11H846.42c7.37,0,6.39-.63,6.39,6.34q0,99.33,0,198.65c0,35.84,0,71.68.11,107.52C852.93,700,852,701.23,847.73,701.23Z"/><path d="M556.31,638.8c-26.41,0-52.82,0-79.23.07-3.21,0-4.67-.37-4.62-4.15.22-18.39.1-36.79.18-55.19,0-8.35,1.09-16.56,4.63-24.25,6-12.93,17.35-17.56,30.37-19.61,10.07-1.58,20.23-1.12,30.37-1.13,18.8,0,37.6.08,56.39,0,11.17-.07,15.32-4.18,15.62-15.38.17-6.63.08-13.28-.21-19.9-.45-10.12-4.44-14-14.7-14-19.13-.11-38.26-.21-57.39.09-4.89.08-6.82-.63-6.46-6.14.53-8.08.06-16.23-.19-24.35-.08-2.57.52-3.4,3.28-3.38,20.46.16,40.92-.09,61.38.26,12.43.22,23.95,3.26,32.81,13,7.18,7.92,9.82,17.67,10.76,27.67a190.12,190.12,0,0,1-.73,44.66c-2.38,16.65-12,25.61-28.8,28.07-11.1,1.62-22.22.8-33.34.91-17.63.18-35.27.05-52.9.05-1.17,0-2.33,0-3.5,0-14.1.53-19,5.56-19.09,19.61,0,6.64.24,13.29-.1,19.91-.21,4,1.09,4.95,5,4.94,38.59-.13,77.18,0,115.78,0,5,0,10,.18,15-.07,3-.15,3.46.93,3.37,3.63-.22,6.8-.29,13.61,0,20.4.15,3.55-1,4.37-4.4,4.35-26.42-.15-52.84-.08-79.27-.08Z"/><path d="M644.79,639c38.62-51.14,75.37-102.36,111.5-154.23-2-1-3.84-.55-5.59-.55-33.94,0-67.88-.08-101.83.07-3.67,0-4.81-.76-4.66-4.58.34-8.28.19-16.59.06-24.89,0-2.52.5-3.36,3.28-3.35,44.25.11,88.51,0,132.76.13,12,0,20.22,10.21,18.47,22.07a39.79,39.79,0,0,1-7.56,17.61q-36,49.82-71.87,99.67c-10.58,14.67-21.17,29.33-31.63,44.08-2,2.82-4.14,4.15-7.76,4.07C668.66,638.81,657.35,639,644.79,639Z"/><path d="M467.93,521.39c-.09-12.43.69-24.89-1.43-37.24s-7.45-22.68-19.77-27.85a55.23,55.23,0,0,0-17.45-3.81c-26.41-1.94-52.87-1-79.3-.74-14.63.17-29.22,2.13-42.54,8.95-11.24,5.76-19.11,14.36-22.36,27-2.83,11-2.11,22.08-2,33.13.34,25.17-1.93,50.45,2.26,75.47,2.17,12.9,7.37,24.38,18.46,32.33,9.38,6.71,20.27,9.13,31.44,9.62,32.74,1.44,65.51.48,98.27.77,2.7,0,3.33-.93,3.3-3.44-.13-9.13-.22-18.26,0-27.38.11-3.75-.67-5-4.8-5q-40.68.35-81.35.1c-6,0-12-.08-17.85-1.46-7.42-1.73-11.57-6.53-13-13.84-1.13-5.62-.55-11.24-1-16.83-.29-3.69,1.16-4.3,4.51-4.28,23.29.14,46.58.08,69.87.07,23.45,0,46.91-.07,70.37.07,3.4,0,4.56-.74,4.5-4.35C467.87,548.94,468,535.16,467.93,521.39Zm-38.05,14.7c-17.61-.24-35.23-.1-52.85-.1v0c-17.79,0-35.58-.09-53.36.09-3.55,0-5-.57-4.79-4.53.63-9.74-.6-19.52,1-29.27,1.46-8.87,6.88-14.66,15.66-16.22,7.43-1.33,14.9-1,22.37-1,20.6-.05,41.21-.21,61.82.13,11.05.19,15.17,4.89,15.21,15.8,0,9.95-.21,19.9.07,29.84C435.13,534.85,434.11,536.15,429.88,536.09Z"/></svg>