<?xml version="1.0" encoding="utf-8"?>
<!-- Generator: Adobe Illustrator 25.0.0, SVG Export Plug-In . SVG Version: 6.00 Build 0)  -->
<svg version="1.1" id="Layer_1" xmlns="http://www.w3.org/2000/svg" xmlns:xlink="http://www.w3.org/1999/xlink" x="0px" y="0px"
	 viewBox="0 0 897 485" style="enable-background:new 0 0 897 485;" xml:space="preserve">
<style type="text/css">
	.st0{fill:#00ADEE;}
</style>
<g>
	<path class="st0" d="M51.1,232c0,28.3-0.2,56.6,0.1,84.8c0.1,5.4-1.5,6.6-6.6,6.4c-8.8-0.4-17.6-0.2-26.5-0.1
		c-2.8,0-3.7-0.9-3.7-3.7c0.1-45,0.1-89.9,0-134.9c0-2.9,0.9-3.7,3.7-3.6c14.7,0.1,29.3,0.2,44,0c3.4-0.1,4.2,1.9,5.1,4.3
		c5.6,14.7,11.2,29.5,16.9,44.2c3.7,9.4,7.5,18.8,11.7,29.1c4.6-11.9,9-23.1,13.3-34.3c4.8-12.5,9.6-25.1,14.2-37.7
		c1.6-4.4,3.9-6.4,9-6.2c13.5,0.5,27,0.2,40.5,0.1c3.2,0,4.3,0.8,4.3,4.2c-0.1,45-0.1,89.9,0,134.9c0,3.5-1.3,4.2-4.4,4.1
		c-9.2-0.1-18.3-0.2-27.5,0c-3.8,0.1-5.1-0.9-5.1-5c0.2-27.6,0.1-55.3,0.1-82.9V232l-0.9-0.2c-5.5,14-11,28-16.4,42
		c-5.6,14.5-11.3,29.1-16.7,43.7c-1.5,4.1-3.3,6-8.1,5.7c-10.2-0.5-10.4-0.1-14-9.4c-10.4-26.4-20.6-52.9-30.9-79.3
		c-0.3-0.9-0.8-1.8-1.2-2.7L51.1,232z"/>
	<path class="st0" d="M426,231.8c12.4-11.6,26-15.5,41.3-14c17.7,1.7,27.7,13.3,27.9,29.2c0.4,23.8,0,47.6,0.3,71.4
		c0,3.3-0.9,4.8-4.5,4.6c-8.2-0.2-16.3-0.2-24.5,0c-3.6,0.1-4.5-1.3-4.5-4.7c0.1-17.8,0.1-35.6,0.1-53.5c0-16.5-12.5-23.8-27.4-16.2
		c-6,3.1-9.5,6.9-9.2,14.7c0.7,18.1,0.1,36.3,0.3,54.5c0,4-1.1,5.2-5.1,5.1c-7.6-0.3-15.3-0.3-23,0c-3.8,0.1-5.1-0.8-5.1-4.9
		c0.2-16.8,0.1-33.6,0.1-50.5c0-27.3,0.1-54.6-0.1-81.9c0-4.2,1.2-5.4,5.3-5.2c7.5,0.3,15,0.3,22.5,0c4.2-0.2,5.7,0.7,5.6,5.4
		c-0.4,13.8-0.1,27.6-0.1,41.5L426,231.8z"/>
	<path class="st0" d="M369.8,253.9c-9.1-7.3-19.1-11.3-30.6-11c-1.3-0.1-2.7,0-4,0.2c-3.7,0.8-7.8,2-7.9,6.3c-0.2,4,4,4.2,6.9,5
		c10.4,2.8,21.2,3.5,31.4,7.4c11.7,4.4,19.3,12.3,20.9,24.9c1.6,13-3.4,23.2-14.3,30.1c-15.3,9.7-32.2,9.7-49.1,6.6
		c-10.3-1.9-20.1-5.6-28.7-12c-2.1-1.6-2.8-2.6-1.2-5.2c3.5-5.5,6.6-11.1,9.7-16.8c1.6-2.9,2.6-3.5,5.8-1.4
		c11,7.5,23,12.5,36.8,11.3c1-0.1,2-0.2,3-0.5c3.2-0.9,6.3-2.2,6.5-6c0.2-4.1-3.5-5-6.5-5.7c-9.6-2.1-19.3-3.2-28.7-6.1
		c-7.9-2.5-15.2-5.9-19.9-13.2c-10-15.4-4-36.6,13.4-44.8c23.5-11.1,45.9-6.8,67.3,6.2c1.6,1,2,2,1,3.7
		C377.6,239.8,373.8,246.8,369.8,253.9z"/>
	<path class="st0" d="M731.4,251.5c0-21.8,0.2-43.6-0.1-65.5c-0.1-4.8,1.5-5.9,5.9-5.7c7.3,0.3,14.7,0.3,22,0
		c3.8-0.1,5.1,0.8,5.1,4.9c-0.2,23.1-0.1,46.3-0.1,69.5c0,21.1-0.1,42.3,0.1,63.5c0,4.1-1.2,5-5,4.9c-7.7-0.3-15.3-0.4-23,0
		c-4.2,0.2-4.9-1.4-4.9-5.1C731.4,295.8,731.4,273.6,731.4,251.5z"/>
	<path class="st0" d="M716.6,239.6c-10.4-20.6-35.6-28.8-56.2-18.4c-0.5,0.3-1,0.5-1.5,0.8c-3.9,2.2-6.7,5.7-10.8,8.7v-3
		c0-14.3-0.1-28.6,0.1-42.9c0.1-3.8-1.1-4.8-4.8-4.7c-8,0.3-16,0.2-24,0c-2.9-0.1-4.2,0.6-4.1,3.8c0.1,44.9,0.1,89.9,0,134.8
		c0,3.3,1.3,3.9,4.2,3.8c5.7-0.1,11.3,0,17,0c11.1,0,11.1,0,11.9-10.5l1.5-1.2c0.9,1.6,1.9,3.1,3.1,4.5c5.5,5.4,12.7,8.8,20.4,9.5
		c22.7,2.5,40.6-9,47.6-30.7C727.1,276.1,725.5,256.4,716.6,239.6z M673.6,295.4c-8.4,2.2-17.3-0.1-23.6-6.2c-1.4-1.2-2.1-3-2-4.8
		c0.1-4.3,0-8.7,0-13v-7c0-10.5,3.8-15.2,14.1-17.4c12.9-2.7,24.1,4.5,27.5,17.7C693.2,278.2,686,292.5,673.6,295.4L673.6,295.4z"/>
	<path class="st0" d="M603,252.1c-0.8-12.1-6.4-21.5-16.9-27.7c-10.8-6.5-22.8-7.8-35.1-7.1c-14.4,0.8-27.7,4.8-39.4,13.7
		c-2.3,1.8-2.8,3-1.2,5.6c3.3,5.2,6.3,10.6,9.1,16c1.3,2.5,2,3,4.6,1.2c5.5-4.1,11.8-6.9,18.5-8.4c18.8-4.1,30.4,5.6,27.6,23.8
		c-6-5.4-13.4-9-21.4-10.2c-13.4-2.3-26.2-1-36.2,9.1s-11.8,22.7-7,35.6c5.1,13.7,16.2,20.1,30.4,21.5c12.7,1.2,23.8-2.9,34.2-11.4
		c0.1,1.2,0.2,2.3,0.2,3.5c-0.7,4.5,0.9,6.2,5.7,5.9c7.6-0.4,15.3-0.3,23,0c3.6,0.1,4.6-1.2,4.6-4.6
		C603.6,296.3,604.4,274.2,603,252.1z M563.4,301.4c-6,2.2-12.2,3.2-18.5,1c-5.5-1.9-8.8-5.8-8.9-10.2c-0.1-4.8,3.7-9.5,9.1-11.2
		c2.9-0.9,5.9-1.3,8.9-1.1c3.2-0.1,6.3,0.6,9.2,1.9c3.9,1.6,7.1,3.3,7.4,8.7C570.8,296.4,568.5,299.6,563.4,301.4L563.4,301.4z"/>
	<path class="st0" d="M284.7,251.7c-0.8-13.4-7.8-23.3-20.2-29.2c-13.7-6.4-28-6.4-42.5-4c-10.5,1.8-20.5,6-29,12.5
		c-2.2,1.6-2.6,2.8-1.1,5.2c3.2,5.2,6.3,10.6,9.1,16.1c1.5,3.1,2.6,2.7,5.1,1.1c6.8-4.5,14.1-8.2,22.5-8.6
		c17.6-0.8,24.2,5.8,23.4,23.9c-13-8.8-22.9-11.7-35.7-10.6c-28.1,2.5-36.9,28.5-28.5,47.4c7.3,16.3,28,23.9,46.4,17.8
		c6.3-2.1,11.7-5.6,17.6-9.6c0,2.3,0.1,3.8,0,5.3c-0.2,2.7,0.6,4,3.6,3.9c8.7-0.1,17.3-0.1,26,0c2.4,0,3.7-0.6,3.6-3.4
		C284.7,297,286.1,274.3,284.7,251.7z M245,301.4c-6.2,2.3-12.4,3.2-18.9,0.9c-4.6-1.6-7.9-4.5-8.2-9.5c-0.4-5.2,2.5-8.7,7-11
		c3-1.4,6.3-2,9.6-1.9c3.5-0.1,7,0.5,10.2,1.9c3.8,1.6,7.7,2.7,7.5,8.4C251.8,297.5,251.3,299,245,301.4z"/>
	<path class="st0" d="M863.2,233c-24.3-26.5-77-20.9-89.8,21.4c-6.6,21.8-2.7,42,15.1,57.7c13.8,12.2,30.6,14.8,48.2,12.5
		c10.8-1.4,21.2-4.1,30.1-10.9c2-1.5,2.4-2.7,1-4.9c-3.8-5.5-7.5-11-11.1-16.6c-1.2-1.9-2.1-1.8-3.9-0.5c-5.3,3.7-11.3,5.6-17.5,6.7
		c-11.9,2.2-25-3.4-29.2-12.5c-1.4-2.9-1.2-4,2.5-4c10.8,0.2,21.7,0.1,32.5,0.1h28.5c8.1,0,8.3,0,8.3-8
		C877.8,258.7,873.9,244.6,863.2,233z M841.9,259.9h-16.4c-6,0-12-0.2-17.9,0.1c-3,0.1-3.2-1-2.5-3.4c0.9-2.3,2.1-4.5,3.8-6.4
		c6.6-8.5,30.5-10,36.5,4.1C847.4,259.2,847.2,259.8,841.9,259.9L841.9,259.9z"/>
</g>
</svg>
