<svg viewBox="0 0 1080 1080" xmlns="http://www.w3.org/2000/svg"><g fill="#d42329"><path d="m9.05 484.33c-.31-3.12 1.89-3 3.93-3h100.54c7.87 0 13.75 5.1 20.14 8.73 13.29 7.55 13.25 7.61 5.66 20.65-5.18 8.9-6.69 9.87-15.29 3.57-13-9.52-27.54-6.7-41.77-7.09a2.52 2.52 0 0 0 -2 .92c-.65 1.35.47 2.17 1.38 2.94 4.75 4 9.41 8.15 14.3 12a15.19 15.19 0 0 1 6.14 13c-.12 11 0 22.08 0 33.12a23.12 23.12 0 0 0 .23 4.79c.43 1.87.12 4.64 2.28 5.21 2.76.71 3.42-2.27 4.44-4q34.59-59.84 69.09-119.72c1.52-2.63 2.45-6.35 6.92-5.1q41.34 71.49 82.65 143c.55.95 1.52 1.95.7 3.44-2.18.91-3.64-.91-5.2-1.81q-44.26-25.46-88.43-51c-6.65-3.85-7.22-5.83-3.39-12.42 8-13.7 6.45-16.54 22.56-6.65 1.09.67 2.14 1.93 4.67 1-4.41-7.61-8.52-15.23-13.18-22.5-2.44-3.8-4.29-.8-5.63 1.48-4.36 7.43-8.64 14.89-12.94 22.35q-28.35 49.17-56.72 98.33c-1.52 2.64-2.59 6.31-7.05 4.6-7.5-13-14.89-26-22.53-39a32.12 32.12 0 0 1 -4.55-17.17c.08-8.82 0-17.63 0-26.45a14.08 14.08 0 0 0 -5.19-11.55q-30.91-25.8-61.76-51.67z"/><path d="m345.46 482.39v22h-29.22v75.78h-25.4v-75.79h-29.09v-22z"/><path d="m428.89 482.39v21h-52.71v16.25h48.2v20.07h-48.2v19.39h53.94v21h-79.47v-97.71z"/><path d="m527.89 542.06a43.36 43.36 0 0 1 -10.52 26.36q-12.15 14.21-34.68 14.2-24 0-37.28-16.66-11.34-14.07-11.33-34.82 0-21.43 13-36.05 13.51-15.16 36.46-15.16 19.11 0 31.82 11.88a36.53 36.53 0 0 1 11.87 25.13h-24.88q-1.5-6.69-4.64-10.11-5.32-5.83-14.61-5.83-11.48 0-17.75 9.15-5.35 8.02-5.35 21.12 0 15.16 6.83 23.22 6 7.1 16 7.1 10.23 0 15.56-7.51 2.87-4.1 4-12z"/><path d="m618.14 482.39v97.77h-25.53v-40.42h-33.18v40.42h-25.54v-97.77h25.54v35.37h33.18v-35.37z"/><path d="m808.75 482.39 36.6 97.77h-26.49l-6.28-17.89h-33.87l-6.28 17.89h-26.21l36.59-97.77zm-2 61.58-4.64-13.24a205.2 205.2 0 0 1 -6.28-22q-2.73 10.65-6.69 22.26l-4.51 13z"/><path d="m922.36 511.75h-24.31q-.54-12-15.7-12-13.25 0-13.24 8.6a6 6 0 0 0 3.55 5.74q3 1.5 19.25 5.6 15.44 4 22.39 8.33 12 7.37 12 22.12 0 16.11-12.7 24.85-11.05 7.65-29.08 7.65-21.85 0-33.32-10.52-10.11-9.15-10.38-24.85h25.67q.82 15.57 19 15.57 14.88 0 14.89-10a7.46 7.46 0 0 0 -3.9-6.9q-3.88-2.25-19.32-6.62-18.7-5.32-25.16-10.78-7.51-6.4-7.51-18.57 0-14.48 12-22.8 10.51-7.25 26.9-7.24 19.53 0 29.77 9.42 8.93 8.2 9.2 22.4z"/><path d="m958.82 482.39v97.77h-25.53v-97.77z"/><path d="m1023.41 482.39 36.59 97.77h-26.49l-6.28-17.89h-33.86l-6.29 17.89h-26.21l36.59-97.77zm-2 61.58-4.65-13.24a205.2 205.2 0 0 1 -6.28-22q-2.73 10.65-6.69 22.26l-4.5 13z"/><path d="m648.85 482.39v97.77h-9.69v-97.77z"/><path d="m741 580.16h-10l-56.93-85.89q.54 9.42.68 39.33v46.56h-8.74v-97.77h10.1l56.89 85.61q-.69-15.57-.68-40.29v-45.32h8.68z"/></g></svg>