<svg id="Layer_1" data-name="Layer 1" xmlns="http://www.w3.org/2000/svg" viewBox="0 0 31.45 16"><defs><style>.cls-1{fill:#f48435;}.cls-2{fill:#d57730;}.cls-3{fill:#d67933;}.cls-4{fill:#ee8c46;}.cls-5{fill:#ee8c45;}.cls-6{font-size:1.53px;fill:#f69325;font-family:NeutraText-Bold, Neutra Text;font-weight:700;letter-spacing:0.03em;}.cls-7{letter-spacing:0.02em;}.cls-8{letter-spacing:0.01em;}.cls-9{letter-spacing:0.03em;}</style></defs><path class="cls-1" d="M5.46,6.38c0-.06.1,0,.14,0H7.27c.13,0,.18,0,.17.16s0,.29,0,.43c-.16.1-.33,0-.5.05s-.12,0-.09.11.17.24.26.36.37.43.54.65.13.12.22,0c.8-1,1.6-2,2.39-3A.33.33,0,0,1,10.54,5h1.91s.16-.08.14.07a5.37,5.37,0,0,1-.49.75l-4.23,6c-.15.21-.2.21-.35,0L3.48,6c-.16-.23-.31-.47-.48-.7S2.86,5.12,2.92,5a.5.5,0,0,1,.17,0H7.2c.21,0,.21,0,.21.21,0,.37,0,.37-.37.37H4.35c-.07,0-.15,0-.22,0s.18.08.27.08H7.13a.38.38,0,0,1,.29.07c0,.06-.13,0-.2,0H4.16c0,.08,0,.12.08.17l3.37,4.85c.06.08.1.17.2,0,1.17-1.65,2.35-3.3,3.52-5a.27.27,0,0,0,0-.08h-.63c.06-.14.19-.07.28-.09s.3,0,.4-.08c-.07-.1-.16,0-.24,0a1.55,1.55,0,0,0-.48,0c-.32.33-.58.71-.87,1.06L7.93,9c-.14.17-.21.17-.35,0l-2-2.45A.72.72,0,0,1,5.46,6.38Z"/><path d="M26.53,7.51a.9.9,0,0,1,.78-.28.81.81,0,0,1,.8.83c.05.51,0,1,0,1.55,0,.34,0,.34-.33.34s-.43,0-.43-.41,0-.74,0-1.1a3,3,0,0,0,0-.31.35.35,0,0,0-.36-.3.37.37,0,0,0-.41.27,2,2,0,0,0-.06.54c0,.38,0,.76,0,1.14,0,.14,0,.18-.18.17h-.45c-.11,0-.13,0-.13-.13V7.44c0-.1,0-.14.13-.13a3.23,3.23,0,0,0,.44,0C26.47,7.3,26.55,7.33,26.53,7.51Z"/><path d="M18.64,8.24c0,.27,0,.54,0,.81a.94.94,0,0,1-.87,1,2.18,2.18,0,0,1-.57,0,1,1,0,0,1-.9-1c0-.54,0-1.07,0-1.61,0-.09,0-.11.11-.11s.33,0,.49,0,.16,0,.15.15V8.72a1.1,1.1,0,0,0,.07.44.38.38,0,0,0,.37.24.37.37,0,0,0,.35-.24.92.92,0,0,0,.07-.4c0-.43,0-.87,0-1.3,0-.11,0-.16.15-.15a3.38,3.38,0,0,0,.45,0c.12,0,.16,0,.16.15s0,.52,0,.78Z"/><path d="M19.17,7.65c0-.69,0-1.38,0-2.07,0-.16,0-.2.2-.19a2.8,2.8,0,0,0,.41,0c.12,0,.15,0,.15.15V9.75c0,.14,0,.22-.18.2s-.43.06-.53,0,0-.36,0-.54C19.17,8.8,19.17,8.23,19.17,7.65Z"/><path class="cls-2" d="M2.91,5.09c.48.67.95,1.35,1.42,2l3.14,4.5c.22.31.22.32.44,0l2.83-4,1.8-2.54.05,0a.88.88,0,0,1-.19.58L7.84,12.08c-.13.18-.13.18-.25,0L3,5.57a.36.36,0,0,1-.11-.28A.28.28,0,0,1,2.91,5.09Z"/><path d="M22.26,8.09c-.45-.29-.78-.3-1,0a.87.87,0,0,0,0,1.1c.24.29.59.3,1,0,0,.21,0,.41,0,.61s-.09.13-.16.15A1.32,1.32,0,0,1,20.31,9a1.39,1.39,0,0,1,1.53-1.76l.17,0c.18,0,.28.13.25.34A3.68,3.68,0,0,0,22.26,8.09Z"/><path d="M14.76,8.61c.16-.4.32-.77.46-1.14a.22.22,0,0,1,.25-.16c.2,0,.41,0,.65,0l-1.41,2.76L13.3,7.31h.75c.1,0,.12.07.15.13l.46,1Z"/><path class="cls-2" d="M11.52,5.6a.28.28,0,0,1-.29.16,1.16,1.16,0,0,0-.49,0L7.89,9.31c-.11.14-.16.12-.26,0-.68-.84-1.37-1.67-2-2.5a.45.45,0,0,1-.12-.43L7.64,9c.08.11.14.1.22,0L9.32,7.21l1.34-1.65a7.48,7.48,0,0,1,.82,0A0,0,0,0,1,11.52,5.6Z"/><path class="cls-3" d="M7.42,5.76H4.31c-.17,0-.28,0-.34-.2a.22.22,0,0,1,.14,0H7.3a.2.2,0,0,1,.13,0A.35.35,0,0,1,7.42,5.76Z"/><path class="cls-4" d="M7.43,5.56H4c.07-.07.15,0,.22,0h3c.17,0,.23,0,.22-.21,0-.34,0-.3-.3-.3h-4c-.07,0-.18,0-.21.08v.2a.43.43,0,0,1,0-.19C2.85,5,2.9,5,3,5H7.29c.11,0,.16,0,.15.14S7.43,5.41,7.43,5.56Z"/><path class="cls-3" d="M6.84,7.09a.39.39,0,0,1-.15-.16h.74c0,.13,0,.17-.15.16Z"/><path class="cls-5" d="M11.52,5.6a1.8,1.8,0,0,0-.61,0h-.25a3,3,0,0,1,.85,0S11.55,5.57,11.52,5.6Z"/><path d="M25.19,7.34c-.11-.1-.31,0-.48,0s-.29,0-.23.22a1.13,1.13,0,0,0-1.86.55,1.65,1.65,0,0,0,.11,1.32,1.1,1.1,0,0,0,1.76.31c0,.24.05.25.2.24h.37c.13,0,.17,0,.16-.16v-2C25.22,7.65,25.29,7.44,25.19,7.34ZM24.32,9.2a.55.55,0,0,1-.81,0,.83.83,0,0,1,0-1.1.55.55,0,0,1,.82,0A.82.82,0,0,1,24.32,9.2Z"/><text class="cls-6" transform="translate(24.27 11.63)">P<tspan class="cls-7" x="0.96" y="0">O</tspan><tspan class="cls-8" x="2.22" y="0">S</tspan><tspan class="cls-9" x="3.06" y="0">T</tspan></text></svg>